<svg width="42" height="42" viewBox="0 0 42 42" fill="none" xmlns="http://www.w3.org/2000/svg">
<path d="M37.7906 0.510234C37.5421 0.188672 37.159 0 36.7521 0H5.25213C4.39408 0 3.76556 0.811781 3.98228 1.64391C7.99132 17.0201 7.87713 24.034 7.87713 38.0625C7.87713 40.2339 9.64326 42 11.8146 42H30.1896C32.361 42 34.1271 40.2339 34.1271 38.0625C34.1271 29.6494 33.807 21.12 36.2099 9.26625C37.8301 1.37878 38.4707 1.39002 37.7906 0.510234ZM35.0533 2.625C32.6478 11.9798 32.3827 17.1513 32.2076 17.6753V17.6786C31.0008 26.1329 30.963 26.842 30.0346 28.6511C29.6099 29.6074 28.4627 31.0801 27.2906 31.9709C24.2995 34.4053 19.6261 34.9356 15.8415 32.7379C13.129 31.1558 11.3662 28.408 10.9492 25.4855C9.329 14.7149 9.0318 10.5735 6.98053 2.73984C6.93459 2.56118 4.78931 2.625 35.0533 2.625Z" fill="#BD9D63"/>
<path d="M13.5447 25.0909C14.435 30.9355 21.4393 33.529 25.92 29.6773C27.2874 28.5018 28.1898 26.8734 28.4613 25.0901C30.1323 14.096 30.1818 11.8962 31.7064 5.25H10.2996C11.8663 12.0875 11.8262 13.7954 13.5447 25.0909Z" fill="#BD9D63"/>
</svg>
