<svg width="46" height="46" viewBox="0 0 46 46" fill="none" xmlns="http://www.w3.org/2000/svg">
<path d="M39.88 0.474375C39.6069 0.1725 39.2216 0 38.8134 0H7.18837C6.783 0 6.39487 0.1725 6.12175 0.474375C5.8515 0.773375 5.71637 1.17588 5.75662 1.58125L10.0691 44.7062C10.1439 45.4422 10.762 46 11.5009 46H34.5009C35.2397 46 35.8579 45.4422 35.9298 44.7062L40.2422 1.58125C40.2854 1.17588 40.1531 0.773375 39.88 0.474375ZM36.0534 14.5992C32.3993 15.7809 27.644 16.3271 23.9122 13.2652C19.2346 9.42712 13.5019 10.0884 9.61487 11.2441L8.77825 2.875H37.2235L36.0534 14.5992Z" fill="#BD9D63"/>
</svg>
