<svg width="301" height="112" viewBox="0 0 301 112" fill="none" xmlns="http://www.w3.org/2000/svg">
<path d="M182.58 47.8643L175.542 50.19C174.838 50.408 174.662 50.9894 174.662 51.6799C174.662 52.3703 174.662 54.0419 174.662 55.3137C174.367 61.4165 172.071 67.2343 168.151 71.8115C166.691 73.257 165.603 75.0554 164.984 77.0443C164.834 77.5106 164.562 77.9248 164.198 78.2406C163.833 78.5565 163.391 78.7617 162.92 78.8333C162.449 78.9049 161.969 78.8401 161.532 78.6461C161.094 78.4521 160.718 78.1366 160.444 77.7347C160.034 77.1121 159.725 76.4248 159.529 75.6998C159.107 74.4279 158.825 73.156 158.438 71.8842C158.051 70.6123 157.523 70.0309 156.08 70.6123C151.777 72.1343 147.131 72.2862 142.743 71.0484C140.713 70.5472 138.751 69.7906 136.901 68.7954C135.262 67.9512 133.857 66.6918 132.816 65.135C131.776 63.5781 131.135 61.7744 130.953 59.8924C130.936 59.6262 130.936 59.3591 130.953 59.093C131.048 56.6643 130.355 54.2725 128.983 52.2976C127.575 50.3353 128.525 47.9733 128.983 45.8657C130.474 41.4377 133.175 37.5503 136.76 34.6733C138.628 32.7578 140.925 31.3474 143.447 30.5671C143.718 30.5322 143.98 30.4403 144.216 30.2971C144.452 30.1539 144.657 29.9624 144.818 29.7343C144.98 29.5063 145.094 29.2465 145.155 28.971C145.216 28.6955 145.221 28.4101 145.171 28.1324C145.078 26.7555 144.914 25.3847 144.678 24.0261C144.047 21.735 143.903 19.3303 144.256 16.9764C144.573 15.3775 144.995 14.8324 146.579 15.1231C148.993 15.4024 151.36 16.0135 153.617 16.94C155.357 17.988 156.945 19.2848 158.333 20.7919C158.637 21.1564 158.98 21.4854 159.353 21.7731C161.401 23.2837 162.919 25.4382 163.682 27.9143C163.682 28.2777 163.964 28.6775 164.139 29.0408C165.195 31.2212 165.582 31.4392 167.94 31.1848C175.754 30.4253 183.389 28.3252 190.534 24.9709C191.378 24.5712 192.152 24.0988 193.208 23.5537C192.842 23.1428 192.442 22.7659 192.012 22.4272L182.756 17.7395C179.742 16.056 176.57 14.6924 173.289 13.6696C172.463 13.3584 171.762 12.7709 171.296 12.0004C170.831 11.23 170.628 10.321 170.72 9.41793C170.992 6.9167 171.876 4.52813 173.289 2.47723C173.877 1.40702 174.835 0.606042 175.971 0.235281C177.107 -0.135481 178.336 -0.0485498 179.413 0.478603C185.747 2.58625 192.152 4.5122 198.452 6.72886C203.871 8.61848 209.15 10.6171 214.57 12.8338C220.658 15.3411 226.605 18.1029 232.623 20.7556C234.136 21.446 234.453 21.2644 235.333 19.7381C236.213 18.2119 237.656 15.8499 238.852 13.9603C239.252 13.3963 239.739 12.9051 240.295 12.5067C240.571 12.2999 240.904 12.1885 241.245 12.1885C241.587 12.1885 241.919 12.2999 242.195 12.5067C243.498 13.1972 244.835 13.8149 246.172 14.4327C246.656 14.6145 247.057 14.9755 247.298 15.4455C247.538 15.9155 247.601 16.4611 247.474 16.9764C247.255 20.0298 246.416 23.0014 245.011 25.6977C244.237 27.2239 244.237 27.5509 245.609 28.3504C250.865 31.4803 256.405 34.0727 262.149 36.0905C263.406 36.5125 264.743 36.6172 266.047 36.3959C267.351 36.1746 268.585 35.6338 269.645 34.8187C272.208 33.1215 274.993 31.8122 277.915 30.9305C279.476 30.3542 281.138 30.1307 282.789 30.2749C284.441 30.4191 286.043 30.9276 287.488 31.7662C288.473 32.384 289.458 32.9654 290.409 33.6195C290.854 33.8781 291.214 34.2698 291.44 34.7433C291.666 35.2167 291.748 35.7497 291.675 36.2722C291.675 37.5078 290.479 37.9075 289.494 38.1619C288.508 38.4162 287.347 38.6343 285.974 38.8523C286.438 39.9748 287.274 40.8897 288.332 41.4323C292.934 44.6445 296.384 49.3309 298.151 54.7687C298.866 57.7387 299.198 60.7935 299.136 63.8533C299.136 65.6339 299.559 67.4872 299.805 69.1951C299.805 69.8129 300.016 70.4306 300.051 71.0484C300.071 71.3987 299.973 71.7452 299.775 72.0298C299.576 72.3145 299.288 72.5197 298.96 72.611C296.532 73.6648 294.174 74.7913 291.922 75.8814C289.364 77.1536 286.584 77.8801 283.748 78.0174C280.912 78.1548 278.079 77.7002 275.417 76.6809C273.411 75.9178 271.334 75.3727 269.082 74.6459C268.836 75.6271 268.625 76.5355 268.414 77.4804C268.202 78.4252 267.499 79.1883 266.513 78.2071C264.74 76.6324 263.136 74.8659 261.727 72.938C259.145 69.4144 257.76 65.1103 257.786 60.6919C257.913 59.2622 257.651 57.8241 257.029 56.5399C256.408 55.2558 255.451 54.1766 254.266 53.4241C252.813 52.404 251.269 51.528 249.656 50.8077C246.419 49.2815 243.11 47.937 239.802 46.5198L238.676 46.011C236.53 45.1026 236.424 45.2116 235.157 47.3556C233.081 51.2438 231.004 55.1684 228.787 58.9839C227.758 60.5548 226.579 62.0156 225.268 63.3446C223.614 65.2342 221.749 66.9785 220.06 68.8317C219.739 69.14 219.51 69.5356 219.398 69.9728C219.285 70.4101 219.295 70.8711 219.426 71.3028C219.988 74.6628 220.095 78.0872 219.743 81.4776C219.385 85.4383 218.348 89.3018 216.681 92.888C216.681 93.2514 216.294 93.6147 216.083 93.9781C215.844 94.4761 215.476 94.8953 215.019 95.1884C214.562 95.4815 214.034 95.6368 213.496 95.6368C212.958 95.6368 212.431 95.4815 211.974 95.1884C211.517 94.8953 211.148 94.4761 210.91 93.9781C209.713 92.3792 208.587 90.744 207.391 89.1087C207.062 88.5451 206.566 88.1062 205.976 87.8574C205.386 87.6086 204.734 87.5631 204.118 87.7279C201.585 88.0563 199.033 88.202 196.481 88.1639C193.935 87.9048 191.461 87.1397 189.196 85.9109C184.444 83.6601 180.476 79.9561 177.829 75.3C177.368 74.6142 177.055 73.8331 176.914 73.0107C176.476 70.1326 176.668 67.1896 177.477 64.3984C177.9 62.8722 178.216 61.3096 178.674 59.7834C179.248 57.6321 180.269 55.6357 181.665 53.9329C181.918 53.6574 182.114 53.3317 182.241 52.9756C182.368 52.6196 182.423 52.2405 182.404 51.8616C182.334 50.6987 182.475 49.5722 182.58 47.8643ZM154.004 68.323L150.802 69.1588C152.843 69.7765 153.124 69.7039 154.004 68.323L155.658 68.5774V68.1776L154.004 68.323ZM160.796 72.611C160.796 71.8115 161.254 70.9394 160.796 70.2489H160.339L160.972 72.4656C160.908 73.5541 161.262 74.6248 161.958 75.4454C162.766 74.0212 163.03 72.3361 162.697 70.7214C162.134 71.6662 162.204 72.938 160.796 72.611ZM168.609 45.8657C167.84 45.6825 167.167 45.2066 166.723 44.5329C166.279 43.8592 166.098 43.0374 166.216 42.2318C166.216 41.6867 166.216 41.1416 166.392 40.5966C166.48 39.7291 166.363 38.8524 166.051 38.0421C165.738 37.2317 165.239 36.5121 164.597 35.9452C164.421 35.9452 164.034 35.9452 163.647 35.6181C163.647 36.0179 163.647 36.2359 163.647 36.3813C164.887 38.3989 165.329 40.8322 164.879 43.1766C164.879 45.1752 165.054 45.6113 166.99 45.9383C167.517 45.9754 168.046 45.9754 168.574 45.9383L169.77 51.1348C170.228 50.9167 170.439 50.8804 170.544 50.7351C171.671 49.0271 172.867 47.3192 173.888 45.5386C174.282 44.8862 174.478 44.1268 174.451 43.3583C174.448 42.3977 174.255 41.4479 173.883 40.5672C173.512 39.6864 172.97 38.8933 172.291 38.2365C171.612 37.5798 170.811 37.0732 169.935 36.7479C169.06 36.4226 168.13 36.2855 167.201 36.3449C167.201 37.3624 168.046 37.4714 168.785 37.6168C169.484 37.7295 170.154 37.9832 170.758 38.3636C171.362 38.7439 171.887 39.2434 172.304 39.8334C172.772 40.3746 173.072 41.0479 173.166 41.7668C173.26 42.4856 173.144 43.2171 172.832 43.867C171.811 41.3597 170.932 39.0703 168.011 38.7433C167.816 40.0778 167.757 41.4297 167.835 42.7769C168.227 44.0406 168.746 45.2585 169.383 46.4107H169.102C168.961 46.3744 168.785 46.12 168.609 45.8657ZM290.092 62.0364C287.593 58.2208 287.382 58.0391 285.974 57.9301L283.863 62.0364C283.863 62.0364 283.863 62.5815 283.863 63.3083L282.279 62.7268L282.737 64.3984L279.957 62.7632C279.574 62.4254 279.119 62.1866 278.63 62.0666C278.14 61.9465 277.63 61.9486 277.141 62.0727L280.379 64.6164L280.168 64.9798L278.232 64.0714L275.17 62.5088L274.889 62.7268L275.909 64.035C275.179 63.842 274.462 63.5992 273.763 63.3083C273.27 63.2877 272.778 63.3743 272.32 63.5626C272.32 64.035 272.32 64.7255 272.777 64.9798C273.863 65.8481 275.044 66.58 276.297 67.1602C279.042 68.214 281.892 69.0498 285.024 70.0673C282.706 70.0664 280.411 69.5973 278.267 68.6864C276.191 67.7779 274.15 66.8331 272.074 65.852C271.299 67.1602 271.862 67.8142 272.707 68.2503C274.537 69.2315 276.226 70.2126 278.338 71.0121C281.289 72.0037 284.385 72.4586 287.488 72.3566C288.016 72.3566 288.543 72.3566 289.071 72.3566C287.278 73.0171 285.349 73.18 283.476 72.829C281.529 72.7528 279.611 72.3223 277.81 71.5571C276.085 70.9394 274.291 70.1399 272.425 69.3041C272.653 69.9086 273.023 70.4446 273.503 70.8635C273.982 71.2824 274.555 71.5708 275.17 71.7025C276.114 72.0839 277.078 72.4114 278.056 72.6836C281.653 73.8903 285.438 74.3834 289.212 74.1372C290.161 74.1106 291.094 73.8766 291.95 73.4507C292.805 73.0248 293.563 72.4166 294.174 71.6662C293.4 70.8667 292.696 70.2126 292.063 69.5222C291.429 68.8317 290.901 67.9596 290.338 67.1965C289.642 66.445 289.124 65.537 288.825 64.5438L290.76 66.179L291.042 65.8883C290.62 64.5438 290.162 63.1629 289.705 61.8184L291.535 63.4536C291.576 63.0186 291.576 62.5805 291.535 62.1454C291.357 60.6854 290.878 59.2815 290.132 58.028C289.385 56.7745 288.388 55.7004 287.206 54.8777C286.567 54.3418 285.978 53.7457 285.447 53.0971C286.854 52.879 286.889 52.879 287.382 53.0971C289.847 54.7312 291.63 57.2592 292.379 60.1831C292.589 61.2799 292.907 62.3515 293.33 63.3809C294.058 65.0122 294.893 66.5905 295.828 68.105C296.468 68.8297 297.216 69.4433 298.045 69.9219C298.09 69.4506 298.09 68.976 298.045 68.5047C297.36 65.38 297.006 62.1876 296.989 58.9839C296.572 53.673 294.339 48.6884 290.69 44.9209C289.846 44.0668 288.807 43.446 287.669 43.1157C286.531 42.7855 285.331 42.7564 284.18 43.0312L287.241 46.6651C286.453 46.4618 285.719 46.0766 285.095 45.5386C284.461 45.0662 283.828 44.3031 282.702 45.0299L285.2 48.1913C283.792 47.937 283.194 46.5561 281.681 46.6651C281.681 47.7916 282.385 48.155 282.913 48.7001C283.441 49.2452 284.496 49.9356 284.285 51.0984C284.167 52.0316 284.322 52.9797 284.73 53.8214C285.137 54.6631 285.779 55.3599 286.573 55.8225C288.442 57.3796 289.694 59.5903 290.092 62.0364ZM176.809 47.5009H178.216C179.608 47.5865 180.987 47.1845 182.131 46.3602C183.274 45.5359 184.114 44.3373 184.516 42.9586C185.482 40.5162 186.66 38.1689 188.035 35.9452C188.398 35.2267 188.983 34.6541 189.697 34.3184C190.411 33.9826 191.213 33.9029 191.976 34.0919C192.91 34.4642 193.778 34.9921 194.545 35.6545C195.848 36.6356 197.044 37.7621 198.311 38.7796C199.578 39.7971 199.578 39.5791 200.563 38.7796L202.64 37.1807C204.046 36.2375 205.245 34.9994 206.159 33.5468C203.766 33.8739 201.689 35.5818 198.733 35.4728C199.648 34.9277 200.106 34.6007 200.634 34.3463L202.499 33.5468C203.66 32.9654 204.857 32.4567 206.018 31.8026C207.179 31.1485 206.757 30.5307 206.018 30.0947C205.661 29.8974 205.262 29.7943 204.857 29.7943C204.452 29.7943 204.053 29.8974 203.695 30.0947C202.182 30.8578 200.669 31.6209 199.12 32.275C198.452 32.5294 197.678 33.0381 196.692 32.275C198.698 30.8578 201.373 30.7851 203.027 28.4231C202.372 28.0866 201.672 27.8539 200.95 27.7326C200.204 27.8631 199.48 28.1081 198.804 28.4594L199.613 26.8969C198.276 25.0799 196.833 26.0974 195.284 26.7152L195.672 24.8255C194.484 25.0209 193.309 25.2878 192.152 25.625C190.639 26.1701 189.161 26.8969 187.683 27.5146C183.848 29.2118 179.832 30.4317 175.718 31.1485C174.134 31.4392 172.55 31.9116 170.967 32.275V32.6747L176.879 32.2386C176.879 32.7837 176.879 33.1471 176.668 33.6195L178.357 33.9466C177.499 34.347 176.603 34.6516 175.682 34.855C174.873 35.0731 173.817 34.855 173.078 35.6908C174.521 36.3813 175.964 35.4365 177.583 36.2722L176.21 36.8173L175.225 37.3261C175.858 39.7971 175.858 39.7971 179.342 40.7056C178.827 40.8218 178.321 40.9798 177.829 41.178C177.583 41.178 177.442 41.6504 177.266 41.9047C177.09 42.1591 177.9 42.4862 178.181 42.4498C179.378 42.2681 180.539 41.9411 181.7 41.7231C182.028 41.6867 182.358 41.6867 182.686 41.7231C181.595 42.3771 180.363 42.4862 179.378 43.0676C178.392 43.649 176.879 43.0676 176.386 44.9935L179.906 45.2116L176.844 47.3919C176.436 47.2581 176.002 47.2346 175.583 47.3236C175.164 47.4127 174.774 47.6114 174.451 47.9006C175.542 48.5911 176.14 47.937 176.809 47.5009ZM158.896 40.7782C159.204 40.5029 159.487 40.1988 159.74 39.8698C160.655 38.6706 160.409 37.9075 158.931 37.3624C158.504 37.1997 158.119 36.9388 157.805 36.5993C157.503 36.2162 157.097 35.9353 156.639 35.7928C156.181 35.6503 155.692 35.6528 155.236 35.7998L151.154 36.9263L148.831 37.6531L146.614 38.4162L146.438 37.9438L153.23 34.6733V34.2009C149.857 34.9487 146.541 35.9445 143.306 37.1807C144.147 36.6253 145.03 36.1393 145.945 35.7272C146.825 35.2911 147.564 34.7824 147.212 33.5468C147.212 33.2925 147.212 32.9291 147.458 32.602C144.966 32.7238 142.526 33.3776 140.291 34.5222C138.056 35.6668 136.075 37.2772 134.473 39.252C133.145 40.6976 132.128 42.4152 131.485 44.2933C130.842 46.1714 130.589 48.168 130.742 50.1536C131.376 49.0635 132.009 48.0823 132.607 47.0648H132.995C132.713 48.8091 131.165 50.299 131.939 52.7337C132.889 50.626 133.17 48.6637 134.719 47.3556C136.267 46.0474 137.182 44.5938 138.52 43.3583C139.151 42.5697 139.933 41.9239 140.817 41.4613C141.701 40.9986 142.668 40.729 143.658 40.6692L142.285 42.0501C141.3 42.8859 140.209 43.6127 139.294 44.5211C138.157 45.5725 137.184 46.7981 136.408 48.155C135.698 49.87 135.133 51.645 134.719 53.4605C135.423 55.8046 136.956 57.7893 139.012 59.0203C141.272 59.9537 143.637 60.5886 146.051 60.9099C149.263 61.3162 152.523 60.9684 155.588 59.8924C158.313 59.0993 160.836 57.6975 162.978 55.7861C163.541 55.3137 164.104 54.7687 163.682 53.8238L156.644 56.8036C156.701 56.5943 156.8 56.3993 156.933 56.2306C157.066 56.0619 157.231 55.923 157.418 55.8225L162.908 53.1697C163.471 52.879 164.245 52.6973 163.752 51.5709L158.403 53.1334C159.381 52.1814 160.602 51.5383 161.922 51.2801C162.837 50.9168 163.788 50.6624 164.104 49.2815L154.99 52.1523C155.465 51.7096 155.984 51.3198 156.538 50.9894C158.509 50.081 160.515 49.3178 162.485 48.4457C163.048 48.1467 163.589 47.8067 164.104 47.4282C164.043 47.2274 163.941 47.0424 163.805 46.8852C163.669 46.7281 163.503 46.6025 163.317 46.5166C163.13 46.4308 162.929 46.3867 162.725 46.3872C162.521 46.3878 162.319 46.4329 162.134 46.5198L159.6 47.2465C159.107 47.2465 158.544 47.828 157.664 46.9922L161.43 45.575C162.063 45.3206 163.189 45.3206 162.978 44.3394C162.767 43.3583 161.676 43.6853 160.937 43.8307C159.986 44.0463 159.046 44.3132 158.122 44.6301C158.129 44.4735 158.18 44.3222 158.267 44.1937C158.354 44.0652 158.474 43.9646 158.614 43.9034C159.494 43.5037 160.339 43.1766 161.183 42.7405C162.028 42.3045 162.063 41.9411 161.711 41.396C161.398 41.0031 160.963 40.7337 160.48 40.6329C159.939 40.5793 159.395 40.6668 158.896 40.8873V40.7782ZM173.958 5.23898C173.609 6.06119 173.326 6.91204 173.113 7.78269C173.056 8.04556 173.054 8.31831 173.109 8.58191C173.163 8.84551 173.273 9.09361 173.43 9.30891C174.378 10.6501 175.706 11.6535 177.231 12.1797C178.444 12.4914 179.623 12.9298 180.75 13.4879C181.639 13.7969 182.43 14.3496 183.038 15.0868C183.697 16.1355 184.675 16.9282 185.818 17.3398C189.055 19.0477 192.399 20.5739 195.496 22.4999C202.996 27.0167 210.792 30.9873 218.828 34.3826C219.17 34.5132 219.524 34.6105 219.884 34.6733C219.705 34.2124 219.366 33.8367 218.934 33.6195C216.224 32.2386 213.479 30.8941 210.804 29.4769C209.115 28.6048 207.461 27.6236 205.842 26.6425C202.013 23.7513 197.881 21.3135 193.525 19.3747C192.082 18.866 190.674 18.1392 189.267 17.4851C188.457 17.1217 187.683 16.6857 186.909 16.2859C191.902 17.5385 196.659 19.6383 200.986 22.4999C204.36 24.8009 207.888 26.8531 211.543 28.6411C215.062 30.6034 218.969 32.602 222.805 34.2373C228.963 36.8537 235.227 39.2157 241.492 41.505C244.138 42.5337 246.655 43.888 248.988 45.5386L248.636 46.4834C249.128 47.1012 249.656 47.5736 250.606 46.8468L250.078 45.6476C250.536 44.7028 251.099 44.5575 251.838 44.9935L257.363 48.3367C258.208 48.8818 258.982 49.5359 260.038 50.3353L258.63 50.626C259.052 51.3165 260.038 51.6072 259.827 52.8427C258.63 52.1523 257.61 51.4982 256.519 50.9894C255.428 50.4807 254.513 49.6086 252.999 50.0446C254.653 51.8252 255.604 52.5883 256.8 52.7337C257.997 52.879 258.841 54.1509 259.51 55.2411C259.85 55.6793 260.035 56.224 260.035 56.7855C260.035 57.3469 259.85 57.8916 259.51 58.3298C259.334 58.7029 259.25 59.1145 259.264 59.529C259.075 62.2408 259.455 64.9627 260.378 67.5088C261.301 70.055 262.746 72.3655 264.613 74.2825C265.222 74.7622 265.87 75.1877 266.548 75.5544C266.588 74.7676 266.588 73.9792 266.548 73.1924C266.267 69.8492 265.95 66.5424 265.633 63.2356C265.633 63.2356 265.633 63.0539 265.387 62.9449L264.859 63.4899C264.859 63.4899 264.613 63.3083 264.613 63.1992C264.425 62.2875 264.513 61.3382 264.866 60.4801C265.218 59.622 265.818 58.8967 266.584 58.4025C267.221 57.8805 267.997 57.5728 268.809 57.5208C269.621 57.4688 270.429 57.6751 271.123 58.1118C272.483 58.9596 273.991 59.5213 275.561 59.7646C277.132 60.0078 278.733 59.9277 280.273 59.529C280.869 59.4555 281.472 59.4555 282.068 59.529C283.37 59.529 283.828 59.093 283.863 57.7848C283.881 56.7576 283.775 55.7321 283.546 54.7323C282.705 51.4811 280.865 48.5994 278.303 46.5198C277.141 45.5023 276.86 45.0299 277.458 44.1214C278.685 41.5692 280.637 39.4647 283.053 38.0892C284.496 37.5078 286.01 37.1444 287.488 36.7083C288.191 36.4903 289.001 36.4539 289.212 35.3274C288.79 35.1094 288.332 34.8187 287.875 34.637C284.771 33.6578 281.478 33.5077 278.303 34.2009C276.479 34.9081 274.549 35.2772 272.601 35.2911C272.398 35.2604 272.19 35.272 271.991 35.3251C271.792 35.3782 271.605 35.4717 271.441 35.6003C271.277 35.7288 271.14 35.8898 271.037 36.0738C270.934 36.2579 270.868 36.4612 270.842 36.672C270.631 38.3436 269.505 38.7069 268.238 38.6343C265.88 38.6343 263.522 38.2345 261.199 38.0165C260.927 37.9871 260.664 37.9006 260.425 37.7621C257.469 36.2359 254.513 34.7824 251.592 33.2198C247.905 31.4406 244.31 29.4635 240.823 27.2966C236.971 24.6653 232.882 22.426 228.611 20.6103C223.79 18.4299 218.969 16.3223 214.077 14.3237C209.185 12.325 204.892 10.6898 200.282 9.05454C196.763 7.78269 193.243 6.72886 189.478 5.42067L178.92 2.18652C178.497 1.99295 178.042 1.88733 177.579 1.87572C177.117 1.86411 176.657 1.94673 176.225 2.11885C175.794 2.29097 175.4 2.54923 175.065 2.87884C174.73 3.20845 174.462 3.60296 174.275 4.0398L173.677 5.12996L173.958 5.23898ZM189.513 82.8585C190.311 83.9513 191.481 84.6913 192.786 84.9298C195.215 85.9693 197.835 86.4462 200.462 86.3269C203.088 86.2076 205.658 85.495 207.989 84.2394C210.938 82.6191 213.151 79.8644 214.147 76.5719C214.891 73.6988 215.421 70.771 215.731 67.8143C215.731 67.8143 215.731 67.8143 215.52 67.5235C215.055 67.7738 214.677 68.1668 214.437 68.6485C214.198 69.1301 214.109 69.6766 214.183 70.2126C214.244 70.9701 214.123 71.7316 213.831 72.4293C212.32 74.9129 209.998 76.7561 207.285 77.6257C208.2 76.7172 209.256 75.9541 210.135 75.0093C211.015 74.0645 212.247 73.5194 212.141 71.5935L209.221 73.7738V73.5921L210.523 71.5571C210.277 71.4751 210.041 71.3654 209.819 71.2301C209.656 71.1059 209.523 70.9441 209.432 70.7577C212.007 68.604 214.087 65.8856 215.52 62.7995C215.821 62.2766 215.956 61.6693 215.906 61.063C215.855 60.4567 215.622 59.882 215.238 59.42C213.67 57.3393 211.965 55.3724 210.135 53.5331C209.727 52.9874 209.21 52.5383 208.62 52.2159C208.029 51.8935 207.379 51.7053 206.712 51.664C206.046 51.6227 205.378 51.7292 204.754 51.9764C204.131 52.2236 203.566 52.6057 203.097 53.0971L200.528 54.805L200.176 54.7687L203.449 51.3528C203.007 51.0613 202.481 50.9381 201.96 51.0044C201.44 51.0708 200.958 51.3225 200.598 51.7162C199.663 52.7009 198.879 53.8285 198.276 55.0594C196.902 58.7647 196.153 62.6852 196.059 66.6514C195.921 68.7609 195.663 70.8602 195.284 72.938C195.284 73.6284 194.933 74.4642 193.771 74.3916C193.771 73.6284 193.771 72.9743 193.771 72.2839C193.771 70.7577 194.193 69.2678 194.229 67.7416C194.181 61.8728 195.756 56.1118 198.768 51.1348C198.768 50.9531 198.768 50.626 198.768 50.3717C197.396 50.3717 197.396 50.3717 196.974 50.8441L195.918 52.6247C193.811 56.3431 192.604 60.5315 192.399 64.8345C192.399 65.2705 192.399 65.7066 192.152 66.179C192.027 66.0665 191.927 65.9266 191.86 65.7696C191.793 65.6125 191.761 65.4421 191.765 65.2705C191.699 60.936 192.679 56.6526 194.616 52.8064C194.913 52.1321 195.171 51.4405 195.39 50.7351C194.1 50.497 192.772 50.6355 191.554 51.1348C190.991 51.1348 190.322 51.7162 189.83 51.5709C187.929 50.9531 186.874 52.1159 185.923 53.3878C183.899 56.1602 182.296 59.2361 181.172 62.5088C180.56 64.1386 180.307 65.8891 180.433 67.6326C180.645 70.249 180.75 72.9017 180.996 75.5181C181.029 75.7843 181.119 76.0397 181.259 76.2659C181.399 76.4921 181.586 76.6835 181.806 76.8263C183.038 77.6403 184.51 77.9752 185.959 77.7711C186.422 75.7841 187.208 73.8921 188.281 72.1749H188.774L188 75.8088L188.492 75.9905C188.943 75.4439 189.333 74.8466 189.654 74.2099C190.182 72.6473 190.604 71.0484 191.097 69.4495C191.097 69.0861 191.413 68.6864 191.554 68.323H192.047C192.117 68.9629 192.117 69.609 192.047 70.2489C191.733 73.158 190.377 75.8408 188.246 77.7711C188.705 78.0961 189.228 78.3111 189.777 78.4005C190.326 78.4899 190.888 78.4513 191.421 78.2875C191.954 78.1238 192.445 77.8391 192.858 77.4542C193.27 77.0694 193.594 76.5941 193.806 76.0631C194.792 76.0631 195.777 75.8088 196.798 75.7724C197.818 75.7361 198.804 75.191 200.106 75.9905L196.798 77.2987C197.301 78.5298 198.146 79.5793 199.226 80.3148C200.26 80.9823 201.342 81.5654 202.464 82.059C202.318 82.3228 202.117 82.5496 201.876 82.7228C201.634 82.896 201.358 83.0112 201.068 83.06C200.778 83.1087 200.481 83.0899 200.199 83.0047C199.916 82.9195 199.656 82.7702 199.437 82.5678C197.857 81.6513 196.526 80.3392 195.566 78.7522C195.499 78.5747 195.394 78.4154 195.258 78.2869C195.122 78.1584 194.959 78.0641 194.782 78.0113C194.605 77.9585 194.418 77.9487 194.237 77.9827C194.055 78.0167 193.884 78.0935 193.736 78.2071C192.328 78.8612 190.885 79.4063 189.443 79.9877C189.443 79.9877 189.196 80.2784 188.985 80.4965C190.393 81.8047 191.941 80.4965 193.595 80.8235C192.511 82.0415 191.007 82.772 189.407 82.8585H189.513ZM200.739 40.8873C201.314 43.0228 202.404 44.9731 203.907 46.5561C204.078 46.7112 204.28 46.8244 204.5 46.8873C204.719 46.9502 204.949 46.9612 205.173 46.9195C207.66 46.3502 210.088 45.5348 212.423 44.4848C214.974 42.9578 217.41 41.2328 219.708 39.3247C221.115 38.2709 221.01 37.5441 219.497 36.8173C217.983 36.0906 215.449 34.9641 213.408 34.0192C213.059 33.8154 212.665 33.7083 212.265 33.7083C211.864 33.7083 211.47 33.8154 211.121 34.0192C209.115 35.2911 207.074 36.4539 205.068 37.6531C203.062 38.8523 202.112 39.8698 200.634 40.8873H200.739ZM133.03 59.4927C133.03 60.1104 133.03 60.5102 133.03 60.8736C133.91 65.1252 137.253 66.6151 140.666 68.1413H141.053H146.297C150.067 68.0712 153.805 67.4095 157.383 66.179C157.759 65.9961 158.104 65.7505 158.403 65.4522V65.0525L155.166 65.3796L157.735 61.7457L160.057 61.455C159.57 61.0494 158.988 60.7851 158.369 60.6893C157.751 60.5935 157.119 60.6696 156.538 60.9099C153 62.322 149.158 62.7237 145.417 62.0727L142.25 61.4913C142.25 61.4913 141.968 61.4913 141.757 61.673C142.055 61.9849 142.373 62.2762 142.708 62.5451C139.252 62.5991 135.867 61.5314 133.03 59.4927ZM161.993 28.8591C159.881 23.0086 152.104 16.722 147.916 17.2308C148.108 17.6558 148.344 18.0579 148.62 18.4299C150.051 19.7166 151.06 21.431 151.506 23.3357C151.722 24.2721 151.992 25.1943 152.315 26.0974C154.743 31.5482 156.749 32.5294 161.958 32.4203C161.958 30.24 160.339 28.7865 159.6 26.8242L161.993 28.8591ZM220.412 65.6703C220.991 65.4505 221.519 65.1071 221.962 64.6626C222.405 64.2181 222.752 63.6824 222.981 63.0902C223.403 62.2544 223.72 61.346 224.107 60.4738C224.494 59.6017 224.529 59.6744 224.459 59.311C224.248 58.1118 224.951 57.385 225.585 56.5856C227.597 54.1634 229.268 51.4597 230.547 48.5547C230.547 48.5547 230.547 48.3004 230.547 48.155H229.562L229.245 47.6826C229 47.1216 228.577 46.6641 228.046 46.3863C227.514 46.1086 226.906 46.0274 226.324 46.1564C225.444 46.4834 225.163 47.3556 225.092 48.9545C224.979 50.5997 224.78 52.2374 224.494 53.8602C223.911 56.3568 222.962 58.7465 221.678 60.9462C220.904 62.3967 220.47 64.0149 220.412 65.6703ZM218.687 61.564H219.145L220.693 59.0203C222.059 56.697 222.912 54.0915 223.192 51.3892C223.294 50.9606 223.309 50.5145 223.235 50.0798C223.16 49.645 222.999 49.2311 222.76 48.8649C222.521 48.4986 222.211 48.188 221.849 47.953C221.487 47.7181 221.081 47.5641 220.658 47.5009C217.696 46.4982 214.536 46.2856 211.473 46.8832C211.061 47.0753 210.662 47.2938 210.276 47.5372C212.282 47.5372 213.795 47.828 215.485 47.9006C218.476 47.9006 219.215 48.7728 219.497 51.8616C219.58 54.4259 219.343 56.9907 218.793 59.4927C218.722 60.1929 218.687 60.8964 218.687 61.6003V61.564ZM217.596 70.9757H217.033L214.499 91.5798C214.569 91.9255 214.663 92.2656 214.781 92.5973C218.08 85.9457 219.074 78.3279 217.596 71.0121V70.9757ZM246.982 45.9383V45.4296C246.844 45.3002 246.69 45.1903 246.524 45.1026L239.486 42.3408L229.562 38.3435L221.819 35.2548L221.643 35.6908C227.885 39.0501 234.286 42.0822 240.823 44.7755L239.626 43.0676L246.982 45.9383ZM215.731 44.4485C216.792 45.1123 218.009 45.4633 219.25 45.4633C220.491 45.4633 221.708 45.1123 222.769 44.4485C225.303 42.7405 226.289 41.5777 226.289 40.1241C224.846 40.1241 224.248 41.614 223.157 42.1955C222.066 42.7769 220.939 43.54 219.637 44.2304L219.356 43.867L220.376 43.0312C221.397 42.2681 222.488 41.5777 223.473 40.7419C223.79 40.4512 223.825 39.7971 224.001 39.3247C223.456 39.1926 222.904 39.0955 222.347 39.034C222.347 39.034 221.995 39.2157 221.854 39.3247L215.731 44.4485ZM201.654 46.7741C200.274 43.8376 198.321 41.2272 195.918 39.1067C195.998 39.7146 196.176 40.3043 196.446 40.8509C196.938 42.1228 197.502 43.3583 197.959 44.6665C198.593 46.6651 198.98 46.9558 201.619 46.8105L201.654 46.7741ZM152.033 30.2764C151.259 27.9507 150.52 25.8067 149.781 23.699C149.324 22.7906 149.324 22.0638 148.761 21.01C148.761 20.7193 148.233 20.5739 147.705 20.1742C148.169 23.3054 148.96 26.3757 150.063 29.3315C150.115 29.5391 150.211 29.7321 150.344 29.8968C150.477 30.0614 150.644 30.1937 150.832 30.284C151.021 30.3743 151.226 30.4204 151.434 30.4191C151.641 30.4178 151.846 30.369 152.033 30.2764ZM236.917 21.5551V22.1001C237.354 22.622 237.894 23.0412 238.501 23.3295C239.108 23.6178 239.768 23.7686 240.436 23.7717L243.533 16.0679C243.533 16.0679 243.533 15.7409 243.216 15.2321C241.421 17.4124 241.175 20.4286 238.958 22.0275L236.917 21.5551ZM245.187 16.0316C244.764 16.4676 244.342 16.6857 244.237 17.0127C243.427 19.4474 242.653 21.8821 241.949 24.2805C241.703 25.1163 241.949 25.734 243.286 25.6613C243.286 24.4985 243.498 23.3357 243.674 22.0275C243.795 21.597 244.026 21.208 244.342 20.901C245.003 20.3127 245.447 19.5076 245.601 18.621C245.755 17.7343 245.609 16.82 245.187 16.0316ZM189.794 46.9558C191.167 47.1375 191.202 46.3744 191.343 45.7203C192.017 42.8405 191.615 39.8042 190.217 37.2171C190.217 38.7433 190.217 40.3785 190.217 42.0138C190.217 43.649 189.9 45.2842 189.794 46.9558ZM171.108 54.7687C168.977 58.4582 167.488 62.5044 166.708 66.7241C169.065 63.1518 170.572 59.0557 171.108 54.7687ZM137.358 60.6555L137.745 60.3285C136.549 58.8023 135.388 57.2397 134.226 55.7861C133.065 54.3326 133.065 55.0594 132.643 56.7673C133.452 56.7673 134.191 56.7673 134.402 57.8938C134.578 59.6744 135.88 60.2558 137.358 60.6555ZM270.103 68.6137C269.892 72.7927 270.595 73.7011 273.622 73.3741L270.103 68.6137ZM282.596 75.3364L276.015 73.1924C276.746 74.2295 277.779 74.9974 278.964 75.3833C280.148 75.7692 281.421 75.7527 282.596 75.3364ZM167.905 67.5962C165.266 67.8143 164.386 68.8681 165.16 71.4481C166.181 70.2126 167.799 69.5222 167.905 67.5962ZM149.324 29.8766L147.353 25.6977C147.14 26.6132 147.08 27.5595 147.177 28.4958C147.282 29.7676 147.282 29.7676 149.324 29.8766ZM279.534 32.4203V32.9654H285.482C284.605 32.3884 283.608 32.0377 282.572 31.9428C281.537 31.8479 280.495 32.0117 279.534 32.4203ZM192.997 40.5602H192.575C192.575 42.2318 192.575 43.867 192.575 45.5023C192.575 46.1927 192.786 46.7378 193.806 46.3017C193.525 44.4121 193.243 42.4862 192.997 40.5602ZM228.365 40.9963C227.866 41.509 227.428 42.0825 227.063 42.7042C227.063 42.9222 227.485 43.3946 227.696 43.758C228.153 43.3175 228.566 42.8305 228.928 42.3045C228.928 42.3045 228.682 41.6867 228.365 40.9963ZM169.102 55.7498C168.429 56.4735 167.914 57.3378 167.592 58.2844C167.27 59.2309 167.149 60.2378 167.236 61.2369L169.102 55.7498ZM211.649 92.0885L212.317 91.6525C212.493 90.7803 213.162 89.8355 212.036 88.9634L210.628 90.7076L211.649 92.0885ZM163.4 63.3809C162.991 63.2647 162.557 63.2788 162.155 63.4215C161.753 63.5641 161.402 63.8286 161.148 64.1804C162.239 64.6891 162.767 64.3257 163.4 63.3809ZM185.571 48.5911H186.029C186.029 47.6099 186.381 46.6288 186.522 45.6476H186.135L185.571 48.5911ZM224.283 45.3206C223.579 45.3206 223.051 45.3206 223.086 46.2291C223.13 46.3532 223.205 46.4627 223.304 46.5459C223.403 46.6292 223.523 46.6829 223.649 46.7015C224.494 46.5924 224.599 46.0837 224.318 45.3206H224.283ZM188.422 45.3206H188.035V47.2829H188.352L188.422 45.3206ZM163.576 61.673L163.964 59.5654C162.873 60.1104 162.908 60.6192 163.612 61.6003L163.576 61.673ZM213.725 82.4951C212.951 83.3309 212.951 83.3309 213.444 84.3847L213.725 82.4951ZM209.537 33.5832C209.768 33.3595 209.979 33.1164 210.171 32.8564L209.854 32.4567L209.15 32.9654L209.537 33.5832ZM195.918 45.8293H196.305L195.848 44.5211H195.601L195.918 45.8293ZM195.425 49.0271V48.5184H194.405V48.8091L195.425 49.0271ZM200.458 49.2452C200.246 49.1036 200.022 48.982 199.789 48.8818C199.789 48.8818 199.507 49.1362 199.402 49.2452C199.296 49.3542 199.719 49.6086 199.93 49.6812C200.141 49.7539 200.176 49.4632 200.458 49.2452ZM167.236 51.1348H167.483V49.5722H167.201L167.236 51.1348ZM171.882 57.5667H171.635L171.319 58.6569H171.635L171.882 57.5667ZM268.414 68.8317H268.132L268.414 69.5222V68.8317Z" fill="#BD9D63"/>
<path d="M263.63 48.5548C260.789 48.8465 257.944 48.0441 255.641 46.3018C253.635 45.1753 251.735 43.8308 249.694 42.668C248.285 42.0315 246.839 41.4854 245.365 41.0327C237.718 38.3578 230.233 35.215 222.948 31.621L212.39 25.8795C212.184 25.7814 211.999 25.6404 211.848 25.4654C211.696 25.2903 211.581 25.0849 211.51 24.862L212.672 25.6978C219.077 28.7866 225.411 32.0207 231.886 34.8915C237.693 37.4715 243.676 39.6519 249.483 42.1592C251.137 42.886 252.615 44.0125 254.198 44.8846C255.339 45.5945 256.589 46.0983 257.893 46.3745C259.873 46.8969 261.795 47.6275 263.63 48.5548Z" fill="#BD9D63"/>
<path d="M173.958 5.27624C174.741 5.18533 175.532 5.18533 176.315 5.27624C178.357 5.74865 180.327 6.3664 182.756 7.0205C181.809 6.05907 180.561 5.47904 179.236 5.38526C178.696 5.32058 178.183 5.10315 177.755 4.75693C177.326 4.41071 176.999 3.94911 176.808 3.42297C183.846 5.63963 190.885 7.63825 197.536 9.85491C199.877 10.3095 202.134 11.1434 204.223 12.3259C202.111 13.0164 200.703 11.4901 199.12 11.5992C201.794 13.089 204.61 14.1792 207.355 15.4874L207.144 16.0325C206.404 15.8164 205.676 15.5617 204.962 15.2694C201.59 13.5716 198.05 12.2558 194.404 11.3448C193.947 11.3448 193.278 10.8361 193.172 10.4363C192.856 9.45518 192.152 9.23715 191.378 9.01912L185.043 7.52924C184.691 9.12814 183.565 8.80109 182.509 8.54672C180.292 7.92896 178.075 7.34754 175.893 6.62077C175.208 6.22383 174.56 5.76152 173.958 5.2399V5.27624ZM194.51 10.0729V10.4363H195.565C195.284 10.182 195.214 10.0366 195.073 10.0003L194.51 10.0729Z" fill="#BD9D63"/>
<path d="M199.015 17.1949L186.029 11.4897L185.782 11.9985C190.186 13.9832 194.465 16.2528 198.592 18.7938C196.944 18.4641 195.37 17.8235 193.947 16.9042C192.328 16.2501 190.78 15.378 189.161 14.6512L184.515 12.6526C184.515 9.92716 185.325 9.41842 187.788 9.85448C188.283 10.0009 188.807 10.0009 189.302 9.85448C189.788 9.60831 190.345 9.55752 190.865 9.71198C191.386 9.86644 191.832 10.2151 192.117 10.6903C192.642 11.308 193.325 11.7613 194.088 11.9985L200.106 14.3968C200.317 14.3968 200.493 14.7239 200.528 15.1963L187.225 10.3996V10.7993C190.85 13.3067 195.531 14.0334 199.015 17.1949Z" fill="#BD9D63"/>
<path d="M263.522 51.898C267.048 54.0524 270.851 55.6797 274.819 56.7311C270.244 57.5305 264.754 55.1322 263.522 51.898Z" fill="#BD9D63"/>
<path d="M252.683 41.2877C257.711 43.8167 262.984 45.7899 268.413 47.1746C262.71 46.9222 257.219 44.8673 252.683 41.2877Z" fill="#BD9D63"/>
<path d="M261.096 39.0715L272.815 40.416C268.872 41.3235 264.749 40.8505 261.096 39.0715Z" fill="#BD9D63"/>
<path d="M275.032 46.0479C278.046 48.6312 280.452 51.8864 282.071 55.5686C281.015 55.3142 280.769 54.2604 280.206 53.5336C279.643 52.8069 279.009 51.8257 278.411 51.0263C277.813 50.2268 277.25 49.4637 276.651 48.7369C276.053 48.0101 275.279 47.247 274.575 46.5203L275.032 46.0479Z" fill="#BD9D63"/>
<path d="M264.755 71.8125C262.226 68.4368 260.975 64.2254 261.236 59.9661C261.933 64.0493 263.115 68.0282 264.755 71.8125Z" fill="#BD9D63"/>
<path d="M174.698 8.07349C177.53 8.73934 180.289 9.70123 182.933 10.9443V11.3803C182.583 11.4352 182.227 11.4352 181.877 11.3803C179.695 10.7626 177.478 10.1448 175.331 9.45437C175.015 9.45437 174.768 8.90928 174.487 8.65491L174.698 8.07349Z" fill="#BD9D63"/>
<path d="M261.237 41.3956C263.9 42.5018 266.741 43.0811 269.612 43.1035C268.185 43.528 266.681 43.5944 265.224 43.2973C263.767 43.0003 262.4 42.3483 261.237 41.3956Z" fill="#BD9D63"/>
<path d="M282.561 36.3085L277.88 39.9423C278.584 37.3986 280.695 37.0352 282.561 36.3085Z" fill="#BD9D63"/>
<path d="M258.736 41.9055L257.962 41.6511V41.3604L258.736 41.5785V41.9055Z" fill="#BD9D63"/>
<path d="M186.452 69.3047C186.708 71.4253 186.208 73.5696 185.044 75.3369H184.587L185.959 69.3047H186.452Z" fill="#BD9D63"/>
<path d="M182.194 73.9563C181.896 71.9045 182.334 69.8108 183.426 68.0694L182.652 73.9926L182.194 73.9563Z" fill="#BD9D63"/>
<path d="M207.992 58.6206C209.118 56.84 209.118 56.84 208.731 55.3865C209.117 55.3981 209.492 55.5153 209.82 55.7259C210.148 55.9366 210.416 56.2333 210.596 56.5856C209.716 57.8575 209.716 57.8575 207.992 58.6206Z" fill="#BD9D63"/>
<path d="M206.83 56.6957L203.31 59.1667C203.617 58.4984 204.053 57.9021 204.592 57.4146C205.131 56.9271 205.761 56.5588 206.442 56.3323L206.83 56.6957Z" fill="#BD9D63"/>
<path d="M203.906 62.4366L206.687 59.3842C206.62 60.1429 206.305 60.8555 205.793 61.404C205.281 61.9525 204.603 62.304 203.871 62.4003L203.906 62.4366Z" fill="#BD9D63"/>
<path d="M204.611 77.2622C203.943 77.6619 203.661 77.9526 203.38 77.9526C203.005 77.9516 202.638 77.838 202.324 77.6256C202.324 77.6256 202.324 77.1168 202.324 77.0805C202.644 76.9241 202.991 76.8375 203.345 76.8261C203.782 76.9191 204.207 77.0655 204.611 77.2622Z" fill="#BD9D63"/>
<path d="M203.767 55.424L202.571 57.2046C202.289 56.1144 203.028 55.751 203.767 55.424Z" fill="#BD9D63"/>
<path d="M202.572 60.4736C202.48 60.6987 202.374 60.9172 202.254 61.1277C202.254 61.1277 202.042 61.1277 201.937 61.1277L202.254 60.3282L202.572 60.4736Z" fill="#BD9D63"/>
<path d="M203.875 62.4004C203.91 62.7264 203.91 63.0555 203.875 63.3815C203.847 63.5287 203.779 63.6646 203.679 63.7739C203.579 63.8831 203.451 63.9612 203.31 63.9993L203.84 62.4367L203.875 62.4004Z" fill="#BD9D63"/>
<path d="M136.267 52.7336C138.054 53.9611 139.696 55.4002 141.159 57.0216C140.073 56.7583 139.063 56.2323 138.212 55.4867C137.362 54.7412 136.695 53.7975 136.267 52.7336Z" fill="#BD9D63"/>
<path d="M141.9 35.4724C142.386 35.0603 142.95 34.757 143.556 34.5818C144.162 34.4067 144.796 34.3634 145.419 34.4549L141.9 35.8721V35.4724Z" fill="#BD9D63"/>
<path d="M158.228 53.0612L155.588 54.006V53.5336C156.44 53.0277 157.445 52.872 158.404 53.0975L158.228 53.0612Z" fill="#BD9D63"/>
<path d="M154.743 52.0797L153.089 52.3704V51.9706H154.779L154.743 52.0797Z" fill="#BD9D63"/>
<path d="M155.976 42.413L155.167 42.9944L154.956 42.74L155.66 42.0132L155.976 42.413Z" fill="#BD9D63"/>
<path d="M158.896 40.8881L158.262 41.5422V41.2151L159.107 40.9244L158.896 40.8881Z" fill="#BD9D63"/>
<path d="M194.124 30.2407L197.397 28.7144C196.869 30.0226 196.376 30.277 194.124 30.2407Z" fill="#BD9D63"/>
<path d="M176.176 38.053H178.605C177.76 38.7798 176.915 39.0705 176.071 38.4164L176.176 38.053Z" fill="#BD9D63"/>
<path d="M190.007 29.332L187.051 30.7493C188.036 29.6591 188.036 29.6591 190.007 29.332Z" fill="#BD9D63"/>
<path d="M192.682 28.3865C192.584 28.2175 192.513 28.0335 192.471 27.8414C192.471 27.8414 192.682 27.587 192.752 27.6234C192.823 27.6597 192.999 27.8051 193.139 27.9141L192.682 28.3865Z" fill="#BD9D63"/>
<path d="M181.981 44.9211L181.136 45.2481V44.9574L181.981 44.6304V44.9211Z" fill="#BD9D63"/>
<path d="M192.258 31.5856H191.976C191.976 31.5856 191.976 31.2948 192.188 31.3311C192.321 31.3539 192.444 31.4172 192.541 31.5129L192.258 31.5856Z" fill="#BD9D63"/>
<path d="M287.033 70.4668H287.878C287.599 70.5209 287.312 70.5209 287.033 70.4668Z" fill="#BD9D63"/>
<path d="M158.613 30.7488L156.361 25.4797C156.991 25.723 157.56 26.1112 158.023 26.6148C158.486 27.1185 158.833 27.7244 159.036 28.3868C159.212 29.3316 159.458 29.9857 158.613 30.7488Z" fill="#BD9D63"/>
<path d="M64.6878 66.2644C64.0205 66.1657 63.3485 66.1041 62.6747 66.0799C58.6592 66.1659 54.6437 66.252 50.681 66.4325C44.6063 66.5743 38.5369 65.9667 32.6018 64.6225C25.95 63.0393 19.5521 60.4808 13.6027 57.0249C11.2541 55.9495 9.05304 54.7021 6.77945 53.8336C6.24171 53.6532 5.7877 53.2737 5.50501 52.7681C5.22231 52.2625 5.13097 51.6667 5.24859 51.0957C5.29035 49.6441 5.27932 48.0982 5.53913 46.6005C5.75784 45.4005 6.33041 44.2995 7.17846 43.4484C8.02652 42.5973 9.1086 42.0377 10.2766 41.8461C14.3119 41.2867 18.4257 40.7224 22.4657 40.244C29.7547 39.4551 37.1225 40.1035 44.1771 42.1545C48.9844 43.4846 53.651 44.5629 58.3352 45.6727C60.45 46.0663 62.5871 46.32 64.7333 46.4321C65.2061 46.5041 65.6891 46.4346 66.1249 46.2318C68.326 45.1111 70.721 44.4535 73.1705 44.2974C73.5675 44.3001 73.9516 44.1521 74.2499 43.8814C74.5481 43.6108 74.7396 43.2365 74.788 42.8296C75.327 40.9221 76.2687 39.1618 77.5454 37.6751C78.8221 36.1884 80.402 35.0125 82.1715 34.2317C84.1388 33.0464 86.208 32.0516 88.3528 31.26C89.5094 30.8621 90.7415 30.756 91.946 30.9504C93.1505 31.1448 94.2924 31.6342 95.2763 32.3776C96.3669 33.238 96.5758 34.1204 95.6945 35.2333C95.0318 35.9967 94.2622 36.6535 93.4113 37.1819C92.5274 37.7088 91.6131 38.2539 90.3635 38.9989C91.44 39.6159 92.0967 40.0636 92.8096 40.3939C95.0198 41.2865 96.9951 42.7045 98.5752 44.5329C100.155 46.3612 101.296 48.5485 101.904 50.9172C102.486 52.7645 102.908 54.6616 103.164 56.5861C103.556 59.3228 103.353 62.1154 102.568 64.7607C101.784 67.406 100.438 69.8373 98.6287 71.8777C97.9302 72.7266 97.0907 73.4402 96.1497 73.985C92.7479 75.6774 89.3061 77.2257 85.8163 78.7607C85.0631 79.0381 84.2545 79.1162 83.4645 78.9879C80.7093 78.7842 80.4655 78.9295 79.6175 81.7009C79.204 82.9964 78.7777 84.3415 78.3162 85.6237C78.1954 86.2336 77.925 86.8013 77.5307 87.2722C77.1365 87.7432 76.6317 88.1017 76.0647 88.3133C75.4977 88.525 74.8876 88.5827 74.2929 88.4809C73.6981 88.3791 73.1386 88.1213 72.6681 87.7321C69.1173 85.6815 66.2929 82.5143 64.6061 78.6914C63.4381 75.4888 63.2569 71.9917 64.0871 68.6786L64.6878 66.2644ZM56.8871 64.1593C56.7111 63.8446 56.4403 63.7963 56.3313 63.8193L42.2735 62.2974C40.0681 62.0596 37.8885 61.7226 35.6737 61.3226C34.6026 61.1932 33.5733 60.8175 32.6614 60.2231C31.6656 59.5231 30.5706 58.9869 29.4156 58.6335C28.2876 58.215 27.1983 57.6475 26.0656 57.1479L26.2296 56.7145C31.8051 58.6602 37.5335 60.1028 43.3506 61.0259C49.2477 61.7789 55.2037 61.9116 61.1269 61.4219C60.9119 60.1654 60.2226 60.2406 59.4195 60.2579C57.4158 60.2355 55.3336 60.2181 53.3862 60.0783C53.0848 60.0481 52.7999 59.7564 52.5067 59.5955L52.6097 59.1984C53.2429 59.2406 53.876 59.2827 54.522 59.2753C55.168 59.2678 56.7965 59.3459 57.9443 59.2911C59.0921 59.2362 59.0732 58.9118 58.8432 58.2097C58.7411 58.013 58.5956 57.8439 58.4183 57.7163C58.241 57.5886 58.037 57.506 57.823 57.4752C56.7091 57.3 55.5437 57.3234 54.4299 57.1482C54.05 57.1229 53.6865 56.8361 52.9911 56.5373C54.8515 55.722 56.5812 56.9986 58.0781 55.8964L58.3646 53.5018C56.5915 52.2929 56.4819 54.2045 55.5911 55.1552C55.6041 54.7941 55.5413 54.4344 55.4071 54.1007C55.2729 53.767 55.0705 53.4672 54.8137 53.2219C54.5568 52.9765 54.2517 52.7913 53.9191 52.6791C53.5865 52.5668 53.2343 52.5301 52.8867 52.5714C52.6734 52.6986 52.2875 52.2992 51.9815 52.1879C52.3628 51.9601 52.8028 51.8589 53.2418 51.8982C53.7028 51.9518 54.1681 51.9557 54.6299 51.9098C54.8175 51.8921 54.9991 51.8325 55.1622 51.7353C55.3253 51.638 55.466 51.5054 55.5747 51.3466C55.6474 50.9001 55.5764 50.4413 55.3726 50.0404C55.2143 49.7571 54.8121 49.6193 54.3653 49.2562C56.5647 49.1199 56.5647 49.1199 57.0155 47.3825L54.8123 46.6399C52.5529 46.0148 50.1282 45.5301 48.0035 44.7827C43.3786 43.2651 38.6046 42.2832 33.7695 41.8553C30.331 41.6327 26.8817 41.6561 23.4464 41.9253C19.7674 42.1044 16.139 42.8829 12.5879 43.3634C12.5879 43.3634 12.3136 43.527 11.9796 44.0198L14.7958 44.1871C18.2228 44.2841 21.6451 44.2999 25.0639 44.5276C26.688 44.409 28.3102 44.7838 29.7305 45.6059C29.4257 45.7876 29.2733 45.8784 29.2124 45.9148C24.6396 45.1414 19.9796 45.0899 15.3919 45.762C14.5944 45.7655 13.8037 45.61 13.0633 45.3039C12.1276 44.9219 11.1716 44.5952 10.2 44.3255C9.08611 44.1503 8.8646 44.4082 8.38673 45.9519L13.2537 46.9527C13.3959 46.9796 13.5425 46.9649 13.677 46.9102C14.7106 46.746 15.7557 46.6703 16.8014 46.684C20.1464 46.9976 23.4832 47.442 27.0029 47.7774C27.6104 47.8791 28.2064 48.0439 28.7817 48.2696C26.5963 48.319 24.4101 48.2207 22.2371 47.9751C20.0311 47.5248 17.768 47.456 15.5402 47.7715C18.1186 48.8173 20.5683 50.1737 22.8386 51.8126C18.1896 50.7657 14.1392 47.8095 9.26308 47.7373C10.4791 48.3131 11.7337 48.7401 13.0059 49.1985C14.3546 49.6319 15.6713 50.1651 16.9457 50.794C18.0351 51.3614 19.4597 51.729 19.772 53.3051C17.6684 52.3772 15.7876 51.4844 13.7239 50.7006C11.5702 49.9178 9.33293 49.4059 7.06056 49.1762C7.50046 49.963 7.71161 50.3406 8.06572 50.4652C8.41983 50.5898 9.45168 50.9817 10.1294 51.249C12.4687 52.1623 14.7903 53.044 17.1167 54.0069C17.5915 54.1656 18.0177 54.4502 18.3525 54.8323C18.6874 55.2144 18.9193 55.6805 19.0249 56.1842C16.0635 54.4706 12.8304 53.3148 9.47685 52.771C10.1636 53.3311 10.9166 53.7987 11.7178 54.1624C15.191 55.8683 18.6338 57.5923 22.1327 59.1988C24.0963 60.2103 26.1277 61.0746 28.2114 61.7851C37.5214 64.5407 47.2708 65.3479 56.8871 64.1593ZM74.6261 53.8777C76.2194 53.8929 77.5067 53.7969 78.7296 53.949C79.4337 53.9342 80.1259 54.1379 80.7167 54.5337C81.3075 54.9296 81.7697 55.4994 82.0435 56.1694C81.3177 55.8888 80.9636 55.7642 80.6224 55.59C78.8662 54.783 76.93 54.4865 75.0226 54.7323C73.2688 54.9387 72.6394 55.7754 72.6788 57.808C75.1842 57.1889 77.817 57.4316 80.1766 58.4992C79.8894 58.6554 79.5678 58.7314 79.2434 58.7199C77.5679 58.6691 75.8911 58.7567 74.2291 58.9818C73.6458 59.0929 73.0934 59.335 72.6108 59.691C72.1282 60.047 71.7273 60.5082 71.4364 61.0419C71.1455 61.5755 70.9718 62.1687 70.9275 62.7794C70.8832 63.3901 70.9695 64.0034 71.1802 64.5759C72.3586 63.5166 73.78 62.7865 75.3091 62.4552C76.8381 62.1239 78.4239 62.2024 79.9153 62.6832L78.0923 63.0567C76.7101 63.4191 75.3232 63.7004 74.0114 64.1888C73.7453 64.2446 73.4949 64.3622 73.2791 64.5325C73.0634 64.7028 72.8878 64.9214 72.7658 65.172C72.6437 65.4225 72.5783 65.6983 72.5745 65.9788C72.5707 66.2592 72.6285 66.5368 72.7437 66.7908L78.0694 64.8327C79.8625 63.9036 81.7512 63.1858 83.6998 62.6929L83.2254 64.0247C82.894 65.1035 82.4792 66.106 82.2439 67.2114C82.0086 68.3167 82.2996 68.9825 83.3525 69.194C84.7492 69.2427 86.1475 69.1942 87.5379 69.0485C88.0268 69.0508 88.511 68.9719 88.9823 68.9427C86.8411 71.4361 84.2332 69.9697 81.5496 70.1849L81.5009 72.0601C83.8582 71.5532 86.289 71.5298 88.655 71.9912C86.6435 73.1904 84.2961 72.4079 82.2576 73.4134C82.8796 73.6611 83.5304 73.8233 84.1934 73.8958C86.0189 74.1082 87.8746 73.2117 89.712 74.1724C89.712 74.1724 89.9254 74.0452 90.0473 73.9725C92.5539 73.3587 94.8317 72.0007 96.5999 70.0661C97.0124 69.5684 97.5692 69.1106 97.2945 68.1834C95.0336 69.4934 92.5974 70.4508 90.0651 71.0246C90.516 70.6509 91.0196 70.3507 91.5585 70.1343C92.7776 69.4076 94.1023 68.8696 95.2158 67.954C96.095 67.6781 96.8931 67.1788 97.5369 66.5017C98.1807 65.8247 98.6496 64.9916 98.9007 64.0788C99.0681 63.5041 99.0418 62.8877 98.8262 62.3303C98.6105 61.773 98.2181 61.3076 97.7132 61.0103C96.3078 60.149 94.6736 59.7714 93.0467 59.932C91.9574 63.4347 88.9625 65.346 87.1646 63.4387C88.1544 63.4522 89.1246 63.1531 89.9451 62.5814C90.7657 62.0097 91.3975 61.1927 91.7559 60.2399C89.6291 59.9973 88.8314 62.2771 87.0564 62.6639C87.4122 61.564 87.8849 60.5082 88.4659 59.5158C88.8206 59.1405 89.0375 58.6492 89.079 58.1266C89.1206 57.6039 88.9843 57.0827 88.6936 56.6526C87.6027 54.7015 86.3417 52.8097 85.0503 50.9361C84.4524 50.1562 83.7985 49.424 83.094 48.7455C82.0883 49.3451 82.2432 49.8402 82.8999 50.2879C83.3398 50.4814 83.7284 50.781 84.0331 51.1615C84.3378 51.542 84.5497 51.9924 84.651 52.4749C82.9766 51.8786 81.6444 50.6588 79.7029 50.8931C80.8394 52.2716 82.7727 52.168 83.1966 54.3071C82.418 53.932 81.9102 53.6053 81.3943 53.4094C80.1519 52.8939 78.8787 52.4616 77.5824 52.1153C76.9667 51.9923 76.3287 52.1028 75.7856 52.4266C75.2425 52.7504 74.8308 53.2656 74.6261 53.8777ZM92.4353 50.7714L92.1001 50.9713C91.053 49.8565 89.939 48.8109 88.7648 47.8405C88.1693 47.2692 87.4617 46.8368 86.69 46.5728C85.9184 46.3089 85.1008 46.2194 84.2927 46.3106C86.1163 48.1186 88.4638 48.9011 89.1834 51.787C87.7996 50.7657 87.1391 49.4391 85.718 48.8597C85.8763 49.1429 85.7767 49.3282 85.9819 49.3317C88.076 51.5185 89.7322 54.1101 90.8557 56.9582C90.9758 57.3133 91.2186 57.61 91.5376 57.7916C91.8566 57.9731 92.2293 58.0266 92.5841 57.9419C94.548 57.8887 96.4934 58.3447 98.2426 59.268C99.4234 59.781 100.54 60.5421 100.216 62.2879C100.216 62.2879 100.444 62.697 100.638 63.0432C100.785 62.8162 100.908 62.5739 101.006 62.3203C101.83 58.7898 101.587 55.0833 100.31 51.6998C99.9729 49.9316 99.2055 48.2811 98.08 46.9039C96.9545 45.5266 95.5078 44.4681 93.8764 43.8281C93.2819 43.637 92.7425 43.0355 92.0264 44.0078C92.673 44.5108 93.2891 45.0544 93.8711 45.6355C94.3731 46.166 94.8476 46.7235 95.2926 47.3057C90.731 44.2347 89.5326 43.6903 87.4739 44.0784C88.395 44.5217 89.2753 45.0502 90.1041 45.6573C91.3863 46.7717 92.5987 47.969 93.7339 49.242C93.8374 49.3256 93.9223 49.4312 93.9827 49.5517C94.0432 49.6723 94.0778 49.8048 94.0841 49.9403C94.0905 50.0759 94.0686 50.2113 94.0197 50.3373C93.9709 50.4633 93.8964 50.5769 93.8012 50.6705C91.1844 47.1533 91.1492 47.0904 89.3366 46.8283C89.9898 47.4878 90.5903 48.053 91.0993 48.6727C91.6083 49.2923 92.0001 50.0658 92.4353 50.7714ZM73.3744 85.5067C73.0753 84.9717 72.8641 84.5941 72.653 84.2165C71.0116 81.318 70.1252 78.0301 70.0801 74.6728C70.1423 71.5064 69.6221 68.3565 68.5472 65.3903C68.2775 64.6831 68.1581 63.9243 68.1971 63.1653C68.286 60.4467 68.9649 57.7834 70.1837 55.372C71.4025 52.9605 73.1301 50.8624 75.239 49.2324C75.4054 49.0351 75.5414 48.8125 75.6421 48.5724C73.5351 47.8565 70.9253 47.9856 70.9197 48.7023L72.1017 49.5082C71.8884 49.6354 71.8274 49.6717 71.7969 49.6899C71.6544 49.8392 71.4753 49.946 71.2788 49.9988C70.1662 50.0694 69.0937 50.454 68.1783 51.1107C67.2628 51.7675 66.5396 52.6711 66.0873 53.7232C65.6892 54.3207 65.4457 55.0136 65.38 55.7357C65.3144 56.4579 65.4287 57.1854 65.7123 57.8491C66.1522 58.6358 66.5921 59.4226 66.7882 60.3547C66.9842 61.2868 67.0499 61.3316 67.2542 62.1329C66.7769 61.7881 66.5846 61.7349 66.4966 61.5775C65.8279 60.3816 65.1417 59.1543 64.4731 57.9584C64.1408 57.2935 63.9784 56.5521 64.0011 55.8043C64.0239 55.0564 64.231 54.327 64.603 53.6849L65.4994 52.0176C65.7806 51.4304 65.8566 50.8395 65.139 50.4282C64.4383 51.062 63.8664 51.8332 63.4565 52.697C63.0466 53.5608 62.8069 54.5001 62.7512 55.4603C62.6503 56.9567 62.8567 58.4583 63.357 59.8666C63.8573 61.2749 64.6402 62.5581 65.6543 63.6322C66.0226 64.0649 66.2616 64.5985 66.3423 65.1685C66.423 65.7385 66.3419 66.3204 66.109 66.8438C65.5493 68.1168 65.2691 69.5018 65.2884 70.8997L67.3948 69.4341C67.2569 70.8591 66.7378 71.9657 66.6163 73.1292C66.5936 74.3625 66.697 75.5948 66.9246 76.8057L66.6198 76.9874C66.3147 76.0784 65.9615 75.156 65.5062 73.8329C65.6376 76.3415 66.4434 78.7627 67.8333 80.8247C69.2231 82.8867 71.1419 84.5081 73.3744 85.5067ZM92.8947 34.8044C90.7254 33.8318 87.0631 34.8403 81.842 37.785L82.2882 35.9665C80.9335 36.6158 79.716 37.5343 78.7053 38.6696C77.6945 39.805 76.9104 41.1349 76.3976 42.5833C76.1826 43.0504 76.1298 43.5796 76.248 44.0822C76.3662 44.5848 76.6483 45.0301 77.0468 45.3433C77.6548 45.866 78.1536 46.5108 78.5129 47.2386C79.1992 48.4659 79.8688 48.864 80.9389 48.0162C81.3879 47.6165 81.6995 47.0775 81.8271 46.4797C82.2225 44.8698 82.9364 43.362 83.9239 42.0511C84.9114 40.7403 86.1511 39.6548 87.5649 38.863C89.2107 37.8818 90.7204 36.73 92.2653 35.6412C92.4978 35.3813 92.7083 35.1013 92.8947 34.8044ZM81.3619 66.1427L80.8143 65.6719C78.7654 67.313 75.9058 67.2135 74.02 69.2189C74.73 70.4676 75.73 71.5142 76.9297 72.2641C78.1294 73.014 79.491 73.4437 80.8917 73.5143C80.7884 72.2825 80.7481 71.046 80.771 69.8098C80.9091 68.5781 81.1063 67.3542 81.3619 66.1427ZM59.6791 50.62C59.4872 50.3937 59.2385 50.2265 58.9604 50.1366C58.6824 50.0468 58.3857 50.038 58.1031 50.111C57.8205 50.1841 57.5629 50.3362 57.3586 50.5507C57.1543 50.7652 57.0113 51.0337 56.9452 51.3267C57.0182 52.0386 57.6946 52.0129 58.2222 51.8663C58.7497 51.7196 59.6009 51.7157 59.6791 50.62ZM76.7882 73.443C77.3621 74.1932 78.1014 74.7909 78.9445 75.1861C79.7875 75.5813 80.7099 75.7626 81.6346 75.7149L76.7882 73.443ZM61.2834 48.1111C59.1776 47.6881 59.1776 47.6881 58.5461 49.0297C59.0352 49.2234 59.5739 49.2378 60.0722 49.0707C60.5704 48.9035 60.998 48.5647 61.2834 48.1111ZM86.7931 75.4929L82.5187 76.2788C84.5039 77.0675 85.7032 76.814 86.7931 75.4929ZM61.1045 57.2392L61.0802 54.6522C60.1263 56.1439 60.1263 56.1439 61.1045 57.2392ZM75.6152 82.8281C75.613 83.3329 75.5229 83.6804 75.6237 83.7881C75.8817 83.9336 76.1526 84.0531 76.4328 84.145C76.4972 83.8968 76.6355 83.5626 76.5651 83.4367C76.4947 83.3109 76.0749 83.1415 75.6328 82.8596L75.6152 82.8281ZM87.7156 33.3183L87.9268 33.6959L89.6184 33.2329L89.4249 32.8868L87.7156 33.3183ZM75.6287 80.8899L75.903 80.7264L75.0223 79.9507C74.9016 80.3163 74.9462 80.5415 75.0952 80.6625C75.2689 80.7482 75.447 80.8241 75.6287 80.8899Z" fill="#BD9D63"/>
<path d="M43.4644 58.3982C41.5082 58.6115 39.5309 58.4696 37.6221 57.9789C33.5588 57.4484 29.5687 56.4337 25.7316 54.955L25.8475 54.5083C28.7882 55.1889 31.6116 56.0233 34.6519 56.5186C37.6921 57.014 40.5401 57.4561 43.4971 57.8752L43.4644 58.3982Z" fill="#BD9D63"/>
<path d="M93.876 66.3623C96.0789 66.0141 96.6598 64.0733 97.7931 62.6843C98.409 63.7858 98.0411 64.5087 97.5594 65.1735C95.999 67.2133 93.7416 68.559 91.2506 68.9345C90.0466 69.1068 89.7449 67.9859 89.0097 67.5431C90.1979 67.1026 91.3429 66.5464 92.4291 65.8822C93.3434 65.0315 94.181 64.0969 94.9314 63.0896C95.5871 64.3352 94.1758 65.0087 93.876 66.3623Z" fill="#BD9D63"/>
</svg>
