<svg width="32" height="32" viewBox="0 0 32 32" fill="none" xmlns="http://www.w3.org/2000/svg">
<path d="M22.042 10.9464H25.0313C25.6859 10.9464 26.2214 10.4106 26.2214 9.7556V6.9059C26.2214 6.25058 25.6859 5.71509 25.0313 5.71509H22.042C21.3871 5.71509 20.8516 6.25058 20.8516 6.9059V9.7556C20.8516 10.4106 21.3871 10.9464 22.042 10.9464Z" fill="#BD9D63"/>
<path d="M16.0252 21.0888C18.9585 21.0888 21.3365 18.7848 21.3365 15.9426C21.3365 13.1004 18.9585 10.7964 16.0252 10.7964C13.0918 10.7964 10.7139 13.1004 10.7139 15.9426C10.7139 18.7848 13.0918 21.0888 16.0252 21.0888Z" fill="#BD9D63"/>
<path d="M30.2979 0H1.70213C0.762213 0 0 0.762213 0 1.70213V30.2979C0 31.2378 0.762213 32 1.70213 32H30.2979C31.2381 32 32 31.2378 32 30.2979V1.70213C32 0.762213 31.2381 0 30.2979 0ZM29.2231 25.8288C29.2231 27.841 27.6957 29.2231 25.8288 29.2231H6.17123C4.30434 29.2231 2.77685 27.841 2.77685 25.8288V6.17123C2.77685 4.15898 4.304 2.77685 6.17123 2.77685H25.8288C27.6953 2.77685 29.2231 4.15898 29.2231 6.17123V25.8288Z" fill="#BD9D63"/>
<path d="M24.2459 16.2302C24.2459 20.6292 20.5652 24.1948 16.0259 24.1948C11.486 24.1948 7.80569 20.6289 7.80569 16.2302C7.80569 15.4418 7.92484 14.6803 8.1451 13.9609H5.71582V25.132C5.71582 25.71 6.18935 26.1832 6.7674 26.1832H25.1841C25.7618 26.1832 26.2353 25.71 26.2353 25.132V13.9609H23.9075C24.1267 14.6803 24.2459 15.4414 24.2459 16.2302Z" fill="#BD9D63"/>
</svg>
