<svg width="36" height="36" viewBox="0 0 36 36" fill="none" xmlns="http://www.w3.org/2000/svg">
<g clip-path="url(#clip0)">
<path d="M33.3514 5.99991C33.3514 8.69238 31.1689 10.8751 28.4765 10.8751C25.784 10.8751 23.6016 8.69238 23.6016 5.99991C23.6016 3.30771 25.784 1.125 28.4765 1.125C31.1689 1.125 33.3514 3.30771 33.3514 5.99991Z" fill="white"/>
<path d="M28.4765 12.0001C25.1674 12.0001 22.4766 9.30899 22.4766 5.99991C22.4766 2.6911 25.1674 0 28.4765 0C31.7856 0 34.4764 2.6911 34.4764 5.99991C34.4764 9.30899 31.7856 12.0001 28.4765 12.0001ZM28.4765 2.25C26.408 2.25 24.7266 3.93311 24.7266 5.99991C24.7266 8.06699 26.408 9.75009 28.4765 9.75009C30.5449 9.75009 32.2264 8.06699 32.2264 5.99991C32.2264 3.93311 30.5449 2.25 28.4765 2.25Z" fill="white"/>
<path d="M33.3514 30.0002C33.3514 32.6924 31.1689 34.8751 28.4765 34.8751C25.784 34.8751 23.6016 32.6924 23.6016 30.0002C23.6016 27.3077 25.784 25.125 28.4765 25.125C31.1689 25.125 33.3514 27.3077 33.3514 30.0002Z" fill="white"/>
<path d="M28.4765 36.0001C25.1674 36.0001 22.4766 33.309 22.4766 30.0002C22.4766 26.6911 25.1674 24 28.4765 24C31.7856 24 34.4764 26.6911 34.4764 30.0002C34.4764 33.309 31.7856 36.0001 28.4765 36.0001ZM28.4765 26.25C26.408 26.25 24.7266 27.9331 24.7266 30.0002C24.7266 32.067 26.408 33.7501 28.4765 33.7501C30.5449 33.7501 32.2264 32.067 32.2264 30.0002C32.2264 27.9331 30.5449 26.25 28.4765 26.25Z" fill="white"/>
<path d="M12.3517 17.9999C12.3517 20.6924 10.1689 22.8748 7.47647 22.8748C4.78427 22.8748 2.60156 20.6924 2.60156 17.9999C2.60156 15.3074 4.78427 13.125 7.47647 13.125C10.1689 13.125 12.3517 15.3074 12.3517 17.9999Z" fill="white"/>
<path d="M7.47647 23.9998C4.16766 23.9998 1.47656 21.309 1.47656 17.9999C1.47656 14.6908 4.16766 12 7.47647 12C10.7856 12 13.4767 14.6908 13.4767 17.9999C13.4767 21.309 10.7856 23.9998 7.47647 23.9998ZM7.47647 14.25C5.40802 14.25 3.72656 15.9328 3.72656 17.9999C3.72656 20.067 5.40802 21.7498 7.47647 21.7498C9.5452 21.7498 11.2267 20.067 11.2267 17.9999C11.2267 15.9328 9.5452 14.25 7.47647 14.25Z" fill="white"/>
<path d="M11.0181 17.2802C10.496 17.2802 9.98895 17.0085 9.71292 16.5227C9.30341 15.8042 9.55554 14.8876 10.274 14.4765L24.1924 6.54158C24.9109 6.12904 25.8274 6.38118 26.2386 7.10243C26.6481 7.82094 26.3959 8.73747 25.6774 9.14864L11.7589 17.0835C11.5248 17.217 11.27 17.2802 11.0181 17.2802Z" fill="white"/>
<path d="M24.9354 29.6549C24.6833 29.6549 24.4284 29.5917 24.1944 29.4582L10.2758 21.5233C9.55729 21.1138 9.30543 20.1973 9.71494 19.4771C10.1228 18.7573 11.0407 18.5038 11.7609 18.9163L25.6794 26.8512C26.398 27.2607 26.6498 28.1772 26.2403 28.8974C25.9629 29.3832 25.4559 29.6549 24.9354 29.6549Z" fill="white"/>
</g>
<defs>
<clipPath id="clip0">
<rect width="36" height="36" fill="white"/>
</clipPath>
</defs>
</svg>
