<svg width="38" height="51" viewBox="0 0 38 51" fill="none" xmlns="http://www.w3.org/2000/svg">
<path d="M19 37L34.7846 16.9815L38 16.9815L38 14L33.3231 14L19 31.8889L19 37Z" fill="#CDAD72"/>
<path d="M19 51L34.7846 30.9815L38 30.9815L38 28L33.3231 28L19 45.8889L19 51Z" fill="#CDAD72"/>
<path d="M19 23L34.7846 2.98148L38 2.98148L38 0L33.3231 3.79629e-07L19 17.8889L19 23Z" fill="#CDAD72"/>
<path d="M19 23L3.21538 2.98148L-1.62492e-06 2.98148L-1.86692e-06 1.90735e-06L4.67692 1.52772e-06L19 17.8889L19 23Z" fill="#CDAD72"/>
<path d="M19 37L3.21538 16.9815L-1.62492e-06 16.9815L-1.86692e-06 14L4.67692 14L19 31.8889L19 37Z" fill="#CDAD72"/>
<path d="M19 51L3.21538 30.9815L-1.62492e-06 30.9815L-1.86692e-06 28L4.67692 28L19 45.8889L19 51Z" fill="#CDAD72"/>
</svg>
