<svg width="31" height="47" viewBox="0 0 31 47" fill="none" xmlns="http://www.w3.org/2000/svg">
<path d="M13.9398 41.0983V25.0184C6.37186 24.1517 0.987383 17.815 0.987383 10.5867C0.987383 7.85413 1.74617 4.45544 3.06123 1.16067C3.34061 0.459959 4.01987 0 4.77391 0H26.2384C26.9929 0 27.672 0.459959 27.9511 1.16076C29.1385 4.13565 30.0609 7.64232 30.0107 10.8782C30.0107 10.8812 30.0099 10.8842 30.0099 10.8872C29.8637 18.0162 24.5236 24.1861 17.0734 25.0184V41.0983C22.006 41.502 25.787 43.6945 25.787 44.7968C25.787 46.0147 21.1845 47 15.5059 47C9.82748 47 5.22447 46.0147 5.22447 44.7968C5.22447 43.6945 9.00673 41.5016 13.9398 41.0983ZM25.3518 3.13355H5.6608C4.67759 5.81482 4.12093 8.4923 4.12093 10.5867C4.12093 11.0953 4.1661 11.5936 4.23101 12.0853C5.21071 11.8412 6.22619 11.8089 7.3155 12.1966C10.1602 13.2095 12.0044 13.8582 14.8985 12.7232C17.7762 11.5939 19.5947 6.46391 23.0455 6.85422C24.4165 7.00852 25.5927 7.45946 26.6545 8.08587C26.4081 6.53148 25.9782 4.84233 25.3518 3.13355Z" fill="#CDAD72"/>
</svg>
