<svg width="329" height="127" viewBox="0 0 329 127" fill="none" xmlns="http://www.w3.org/2000/svg">
<g opacity="0.5">
<path d="M244.407 11.1904C245.098 11.8668 245.945 12.7554 246.84 13.5567C248.466 15.2193 249.877 17.079 251.04 19.0924C252.018 20.7854 253.397 22.2113 255.056 23.2441C255.252 23.3363 255.407 23.4993 255.489 23.7005C255.571 23.9017 255.574 24.1265 255.498 24.3299C255.383 24.6192 255.358 24.9362 255.425 25.2401C255.492 25.544 255.648 25.821 255.873 26.0354C256.728 27.2515 257.747 28.3435 258.901 29.2808C259.608 29.7975 260.427 30.14 261.291 30.2807C263.274 30.6088 265.236 31.0539 267.167 31.6138C269.224 32.2609 271.332 32.7339 273.468 33.0279C275.637 33.2893 277.829 33.493 280.026 33.7524C281.576 33.9471 283.104 34.2272 284.653 34.4218C287.297 34.746 289.967 34.8045 292.623 34.5964C294.604 34.514 296.568 34.1928 298.472 33.6397C300.79 32.8841 303.108 32.1284 305.396 31.347C306.081 31.1128 306.725 30.7737 307.305 30.3416C308.203 29.6335 309.262 29.221 310.192 28.5664C311.217 27.7848 312.2 26.9482 313.136 26.0603C313.923 25.3695 314.712 24.6972 315.502 24.0435C315.975 23.6457 316.487 23.3849 316.401 22.5806C316.314 21.7764 316.917 21.6207 317.403 21.3897C317.776 21.2744 318.12 21.0819 318.414 20.8245C318.708 20.5672 318.945 20.2509 319.109 19.896C319.12 19.8019 319.159 19.7133 319.22 19.6415C319.282 19.5697 319.364 19.5182 319.455 19.4935C319.547 19.4688 319.643 19.4721 319.733 19.5029C319.822 19.5338 319.901 19.5908 319.957 19.6666C320.82 20.4799 321.621 21.3557 322.354 22.2871C322.815 22.9515 323.023 23.7597 322.938 24.5643C322.882 24.9364 322.909 25.3165 323.019 25.6764C323.097 25.8165 323.126 25.9784 323.103 26.1369C323.079 26.2954 323.003 26.4416 322.888 26.5524C322.611 26.9101 322.367 27.2927 322.161 27.6953C321.257 29.5471 319.865 31.117 318.136 32.2365C316.577 33.4401 314.856 34.3479 313.201 35.3906C311.915 36.2667 310.562 37.0381 309.153 37.6976C307.745 38.3031 306.445 38.845 304.892 39.3772C303.339 39.9094 302.161 40.2188 300.827 40.6792C298.507 41.3237 296.144 41.8038 293.756 42.1161C291.551 42.5002 289.335 42.7453 287.09 42.9647C283.532 43.3024 279.954 43.376 276.385 43.1847C274.113 43.0426 271.857 42.7317 269.589 42.6452C267.87 42.6117 266.151 42.6901 264.442 42.8801C263.275 42.965 263.234 43.1636 263.071 44.3773C262.978 45.0193 263.026 45.6738 263.21 46.2957L264.809 51.7691C265.075 52.7809 265.105 53.8404 264.895 54.8653C264.669 55.7916 264.532 56.7375 264.486 57.6899C264.456 58.0191 264.386 58.3433 264.277 58.6554C263.917 59.6944 263.723 60.7838 263.703 61.8834C263.691 62.3468 263.581 62.8025 263.381 63.2205C262.827 65.0448 262.013 66.7796 260.964 68.3713C258.889 71.2213 256.376 73.7247 253.519 75.7887C252.933 76.1668 252.344 76.517 251.753 76.8395C249.431 78.1443 247.037 79.3169 244.582 80.352C242.386 81.2385 240.288 82.3415 238.089 83.2002C235.89 84.059 234.328 84.4522 232.414 85.0107C229.17 85.9413 226.042 87.2379 223.091 88.8754C222.409 89.2506 221.759 89.6812 221.147 90.1628C219.156 91.6341 216.952 92.7935 214.613 93.601C212.381 94.5786 210.023 95.2393 207.608 95.5641C206.45 95.7323 205.28 95.8174 204.109 95.8188C202.69 95.9283 201.286 96.1898 199.922 96.5986C197.892 97.0818 195.835 97.5948 193.814 98.217C191.794 98.8392 190.505 99.5479 188.818 100.146C187.13 100.744 184.981 101.906 183.028 102.691C180.478 103.715 178.151 105.115 175.699 106.327C174.593 106.855 173.425 107.303 172.317 107.803C169.91 108.873 167.535 109.996 165.104 111.123C163.641 111.732 162.11 112.179 160.611 112.68C159.112 113.18 157.64 113.678 156.137 114.123C154.799 114.601 153.426 114.972 152.03 115.233C148.938 115.709 145.837 116.075 142.731 116.357C140.509 116.518 138.26 116.682 136.026 116.677C134.526 116.786 133.034 116.615 131.554 116.611C130.074 116.607 128.763 116.619 127.168 116.567C125.573 116.515 123.741 116.285 122.027 116.131C119.239 115.866 116.482 115.347 113.79 114.578C112.507 114.224 111.251 113.84 109.965 113.431C106.849 112.428 103.707 111.455 100.589 110.424C99.6738 110.127 98.7765 109.689 97.7206 109.375C95.3705 108.54 92.9966 107.762 90.6445 106.899C89.0665 106.316 87.4864 105.704 85.9301 105.035C83.0518 103.847 80.479 102.636 77.7375 101.41C74.996 100.185 71.9646 98.8121 69.0984 97.7909C66.2322 96.7697 63.3539 95.5817 60.4877 94.5606C58.6814 93.8307 56.8367 93.1999 54.9619 92.6709C53.0607 92.2503 51.2009 91.631 49.27 91.1846C48.0495 90.9101 46.7836 90.7786 45.5414 90.5895C44.7795 90.4773 44.0134 90.3094 43.2257 90.227C42.438 90.1446 42.0037 90.3159 41.3827 90.2214C38.5913 90.2289 35.4986 90.3142 32.5644 90.2762C30.9258 90.3955 29.3145 90.1215 27.6917 90.0719C26.6262 90.0097 25.537 90.0051 24.4756 89.9985C23.4143 89.9919 23.0038 90.1056 22.2438 90.0212C19.865 89.9428 17.516 89.8901 15.1372 89.8117C14.2208 89.8784 13.2522 89.6135 12.3236 89.5134C11.395 89.4133 10.1054 89.3394 9.02983 89.1382C7.81704 88.9352 6.62573 88.6196 5.47138 88.1954C4.4074 87.7697 4.38809 86.737 5.32165 86.138C6.28772 85.5261 7.37113 85.1235 8.50214 84.9563C10.3434 84.7182 12.1208 84.1237 13.7351 83.2059C16.0466 81.9756 18.3242 80.664 20.6953 79.4852C23.0664 78.3065 26.0473 76.3008 28.7212 74.6808C31.1731 72.98 33.8026 71.5516 36.5634 70.4207C37.7056 70.0022 38.7482 69.3674 39.8287 68.8695C40.9092 68.3716 41.754 68.0865 42.7355 67.7636C45.4528 66.7536 48.2577 65.9974 51.1143 65.5048C53.8813 65.1636 56.4004 64.8685 59.0266 64.5097C62.0676 64.1856 65.1262 64.0563 68.1837 64.1227C69.9888 63.9914 71.8284 64.3326 73.626 64.4813C76.745 64.7574 79.8364 65.0355 82.9317 65.3692C84.5071 65.534 86.0886 65.7823 87.6661 65.9749C89.2436 66.1675 91.176 66.2505 92.8767 66.6019C94.7346 66.7461 96.6017 66.7225 98.4553 66.5312C99.3162 66.4686 100.191 66.6006 101.086 66.6193C103.881 66.6674 106.681 66.7711 109.25 66.7798C111.819 66.7884 114.132 66.7319 116.544 66.5004C119.129 66.2375 121.69 65.7802 124.206 65.1323C126.334 64.604 128.431 63.9568 130.486 63.1939C132.281 62.5323 134.039 61.7615 135.909 60.9825C137.779 60.2036 139.014 59.5268 140.55 58.7722C142.087 58.0175 143.885 57.0202 145.52 56.0907C147.156 55.1611 148.472 54.4505 149.885 53.5371C151.298 52.6237 153.369 51.1594 155.209 49.9634C156.033 49.4003 156.887 48.863 157.742 48.3257C160.126 46.8107 162.436 45.1891 164.675 43.4611C165.679 42.6892 166.746 41.9967 167.75 41.2249C168.755 40.453 169.942 39.5002 171.054 38.6647C172.166 37.8291 173.361 36.9875 174.528 36.1479C175.899 35.042 177.35 33.8743 178.941 32.7244C180.533 31.5744 181.597 30.8542 183.034 29.8832C183.619 29.4773 184.199 29.0158 184.78 28.5543C187.005 26.911 189.201 25.2419 191.397 23.5729C192.642 22.6438 193.854 21.6612 195.129 20.7579C196.403 19.8546 197.21 19.4326 198.251 18.7699C198.73 18.4555 199.176 18.0597 199.656 17.7453C200.135 17.4309 200.994 16.9492 201.691 16.563C202.389 16.1769 203.652 15.498 204.643 14.9228C207.644 13.2687 210.758 11.828 213.961 10.6112C215.452 9.99964 216.941 9.36024 218.432 8.74864C218.627 8.73449 218.821 8.72034 219.015 8.7062C220.752 8.0208 222.535 7.5836 224.284 7.06502C224.478 7.03716 224.672 7.02298 224.868 7.02258C226.451 6.90737 228.034 6.79217 229.605 6.9014C231.492 6.96718 233.373 7.16656 235.232 7.49803C237.612 7.85401 239.929 8.5514 242.111 9.56872C242.784 9.99486 243.466 10.5322 244.407 11.1904ZM137.167 68.2975C136.779 68.3258 136.39 68.3541 136.029 68.3804C135.668 68.4067 135.71 68.5993 135.391 68.8181C136.033 68.8273 136.658 68.6139 137.161 68.2141C137.328 68.202 137.533 68.3269 137.661 68.1777C138.447 67.9868 139.223 67.7531 139.983 67.4777C140.703 67.2406 141.383 66.8992 142.004 66.4643C141.864 66.4627 141.725 66.4729 141.587 66.4946L137.833 67.8578C137.598 67.9626 137.373 68.0913 137.163 68.2419L137.167 68.2975ZM239.966 23.0566C239.992 23.4181 239.769 23.7977 239.712 24.1652C239.722 24.871 239.573 25.57 239.274 26.2093C239.232 25.6255 239.191 25.0695 239.151 24.5134C238.722 22.2011 239.058 19.812 240.107 17.708C240.602 17.1047 241.211 16.6046 241.898 16.2361C241.898 16.2361 242.259 16.2098 242.454 16.1957C242.69 16.2197 242.928 16.183 243.146 16.0888C243.364 15.9947 243.554 15.8464 243.699 15.6579C243.354 15.4062 243.026 15.1313 242.718 14.8349C242.495 14.5872 242.198 14.4176 241.872 14.3508C241.545 14.284 241.206 14.3236 240.904 14.4638C239.843 14.8485 238.782 15.2331 237.728 15.7012C237.189 15.8877 236.704 16.2039 236.315 16.622C235.927 17.0402 235.648 17.5474 235.501 18.0992C235.501 18.0992 235.501 18.0992 235.279 18.1153C235.057 18.1315 235.226 17.3925 235.204 17.0867C235.426 16.4868 235.773 15.9408 236.221 15.4844C236.669 15.0279 237.208 14.6713 237.803 14.438C238.319 14.2328 238.804 14.0018 239.35 13.8223C240.839 13.1558 242.485 12.9198 244.102 13.1411C244.102 13.1411 244.102 13.1411 244.241 13.131C243.316 12.1923 242.207 11.4547 240.984 10.9643C241.844 11.6564 241.844 11.6564 241.438 12.217L239.736 11.8378C239.227 11.7321 238.702 11.7364 238.195 11.8504C237.688 11.9644 237.211 12.1855 236.797 12.4989C235.509 13.3783 234.455 14.5581 233.724 15.9366C233.199 16.879 232.719 17.8467 232.288 18.8361C232.092 19.2137 231.924 19.5892 231.422 19.5978C231.422 19.5978 231.408 19.4032 231.404 19.3476C231.981 17.6846 232.189 15.9366 233.024 14.3666C233.604 13.3925 234.367 12.5398 235.27 11.8554C235.27 11.8554 235.391 11.595 235.513 11.3625C233.512 11.0276 231.482 10.8944 229.454 10.965C227.843 11.0822 226.215 11.3405 224.61 11.5411C224.196 11.5991 223.779 11.6295 223.36 11.6321C223.027 11.6563 222.666 11.6826 222.521 11.2181C223.715 11.1312 224.803 10.7445 225.91 10.608C228.788 10.1332 231.712 10.0048 234.621 10.2256C235.232 10.1812 235.78 10.4208 235.989 10.9925C236.806 10.7095 237.597 10.4562 238.715 10.0953L236.731 9.68078C235.035 9.24641 233.314 8.91433 231.577 8.68634C228.786 8.46489 225.976 8.66934 223.246 9.29268C220.735 9.84489 218.287 10.6505 215.939 11.6971C212.453 13.0077 209.068 14.5712 205.81 16.3751C205.142 16.8279 204.444 17.2336 203.72 17.5892C202.038 18.3556 200.441 19.2962 198.955 20.3956C197.28 21.5516 195.663 22.7313 194.016 23.8853C192.369 25.0393 190.926 25.9269 189.442 27.0132C187.43 28.5291 185.478 30.0965 183.443 31.6701C181.408 33.2436 179.008 34.7878 176.782 36.4311L171.471 40.1716C171.049 40.5097 170.66 40.9293 170.238 41.2674L165.997 44.371C165.018 45.113 164.041 45.8829 163.03 46.5713C161.516 47.6318 159.938 48.5851 158.4 49.7032C155.257 51.7766 152.175 53.9294 148.974 55.9791C147.265 57.0537 145.434 57.9696 143.602 58.8855C140.477 60.4544 137.349 61.9678 134.22 63.4811C133.413 63.8829 132.58 64.2329 131.728 64.5289C129.846 65.141 127.935 65.7274 126.017 66.2303C124.099 66.7332 122.453 67.1325 120.525 67.4964C119.439 67.7122 118.341 67.8667 117.237 67.9593C115.459 68.0886 113.682 68.218 111.905 68.3474C109.506 68.3822 107.102 68.3336 104.727 68.3107L102.098 68.2505C100.349 68.3779 98.5827 68.2828 96.823 68.2711C95.7268 68.3469 94.6268 68.3523 93.5298 68.2872C89.5296 67.7957 85.5531 67.2466 81.5508 66.7274C78.9594 66.4129 76.3701 66.1262 73.7847 65.8951C70.6506 65.601 67.5011 65.5035 64.3549 65.6032C62.6053 65.7305 60.8556 65.8579 59.1061 65.9852C55.5768 66.2934 52.0721 66.8379 48.6155 67.6151C47.6855 67.8784 46.7554 68.1418 45.8829 68.4289C44.0007 68.9155 42.1784 69.6106 40.45 70.5012C39.887 70.8217 39.2943 71.1164 38.6995 71.3832C36.857 72.1017 35.0524 72.914 33.2929 73.817C32.837 74.0738 32.3891 74.4418 31.9352 74.7264C30.9204 75.3592 29.8439 75.9127 28.8629 76.6269C26.7552 78.0677 24.5435 79.3497 22.2461 80.4624C20.4183 81.4339 18.5608 82.3796 16.8739 83.3688C16.2019 83.7251 15.5955 84.2165 14.9017 84.6582C17.0881 84.8914 19.2985 84.7306 21.4281 84.1833L21.3653 83.3214C21.7996 83.1501 22.2101 83.0363 22.6186 82.8948C23.594 82.4884 24.5953 82.0522 25.6046 81.7272C26.614 81.4022 28.3373 80.9135 29.7511 80.3913C32.1979 79.4866 34.7543 78.9372 37.1355 77.8974C38.8684 77.1564 40.6689 76.5782 42.5745 75.9085C42.8965 75.8043 43.1946 75.6373 43.4517 75.4171C43.7088 75.1969 43.9198 74.9279 44.0725 74.6256C44.2443 74.1526 44.4437 73.6902 44.6697 73.2406C45.1111 73.9351 44.225 74.4189 44.6346 75.0598C45.0789 75.0275 45.4495 74.749 45.8322 74.6373C47.1826 74.1489 48.5606 73.7406 49.959 73.4146C52.0063 72.967 54.0957 72.74 56.1914 72.7375C58.9847 72.7578 61.7659 72.6112 64.5552 72.5759C64.8464 72.5937 65.1371 72.5336 65.3974 72.4017C65.6577 72.2697 65.8781 72.0708 66.0361 71.8253C66.2115 71.5216 66.4372 71.25 66.7036 71.0221C67.0024 70.7743 67.3355 70.5711 67.6927 70.4191C67.7725 70.3727 67.8623 70.3459 67.9545 70.3408C68.0467 70.3358 68.1388 70.3528 68.2233 70.3902C68.3077 70.4277 68.3821 70.4847 68.4403 70.5565C68.4985 70.6283 68.5389 70.7129 68.5582 70.8033C67.8963 71.2987 66.992 71.5322 66.6977 72.4759C66.8643 72.4638 66.9618 72.6523 67.0729 72.6442C68.5332 72.8178 70.0132 72.7101 71.433 72.3269C72.0298 72.0878 72.6862 71.9003 73.1357 72.7061C73.2413 72.8198 73.3861 72.8891 73.5407 72.9002C75.6241 73.1399 75.2359 73.5594 77.1742 72.1886C77.3219 72.0592 77.4818 71.9446 77.6518 71.8464C78.0265 71.6235 78.4031 71.4284 78.7798 71.2333C78.6623 72.3039 77.5812 72.4105 77.1163 73.3108C77.5884 73.2764 77.9636 73.4447 78.3287 73.4741C78.6938 73.5034 79.5052 73.5282 80.0985 73.6248C80.3683 73.6731 80.6457 73.6553 80.9071 73.573C81.1685 73.4907 81.4061 73.3463 81.5996 73.1522C82.2298 72.6032 82.8896 72.0801 83.5475 71.5291C83.8223 71.3012 84.0843 71.0582 84.3321 70.8012C83.8877 70.8336 83.6494 70.6273 83.3954 70.5899L78.8418 70.1667C77.4946 70.0691 76.0322 69.924 74.7724 69.8759C72.8102 69.7672 70.8581 69.7974 68.9256 69.7145C67.2344 69.6132 65.5377 69.6525 63.853 69.8321C62.0201 69.9655 60.1871 70.0989 58.3128 70.431C56.4385 70.763 54.9525 70.6755 53.2983 70.9636C51.2296 71.3098 49.169 71.7672 47.1044 72.169C46.0036 72.3889 44.9286 72.5789 43.8617 72.8802C42.2495 73.3608 40.6393 73.8693 39.0331 74.4334C37.0261 75.192 34.9744 75.8267 32.8898 76.3338C32.9483 76.1139 33.0799 75.9204 33.2629 75.7852C33.4458 75.65 33.6693 75.5811 33.8965 75.5898C34.3847 75.5707 34.8673 75.4791 35.3285 75.3179C36.1929 74.9196 37.0214 74.4121 38.0227 73.9759C38.4169 73.7574 38.8355 73.5862 39.2698 73.4659C40.7174 73.0251 42.1752 72.7234 43.5612 72.2033C45.0893 71.6593 46.6522 71.2187 48.2393 70.8846C49.2804 70.6132 50.3615 70.5066 51.4087 70.3185C53.0629 70.0305 54.713 69.6868 56.399 69.4523C58.085 69.2178 60.132 68.957 61.9351 68.7978C63.7382 68.6387 65.5732 68.5331 67.4894 68.3936C69.7768 68.3669 72.1041 68.5049 74.3996 68.5894C75.2883 68.5247 76.2189 68.6527 77.201 68.7209C78.8598 68.8797 80.4928 69.0683 82.1258 69.2569C83.7588 69.4455 84.9434 69.6108 86.1876 69.8277C87.4318 70.0446 89.5173 70.3121 91.2078 70.5244C91.94 70.6109 92.6919 70.5841 93.4241 70.6706C94.9142 70.8137 96.2457 71.0801 97.8727 71.1853C101.916 71.5059 105.984 71.7688 110.027 71.6982C112.508 71.6573 114.958 71.5629 117.436 71.4664C117.673 71.4391 117.914 71.476 118.132 71.5732C118.35 71.6703 118.538 71.8243 118.677 72.0189C118.122 72.0593 117.687 72.2307 117.247 72.3186L116.703 73.6718C116.444 74.3335 116.488 74.5539 117.163 74.6166C117.838 74.6793 119.036 74.648 120.125 74.6526C119.646 73.821 120.78 73.2913 120.146 72.6387L121.071 71.5372C121.071 71.5372 121.277 71.6899 121.283 71.7733C121.324 72.3294 121.721 72.4123 122.221 72.3759C123.248 72.3011 124.276 72.2263 125.303 72.1515C126.331 72.0768 126.136 72.0909 126.085 71.0046L124.478 70.7862C123.923 70.8266 123.321 70.6188 122.752 70.4647C122.182 70.3105 121.669 70.5435 121.253 69.8191C121.669 69.7888 121.947 69.7686 122.197 69.7504C122.447 69.7322 123.219 69.9834 123.725 70.0305C125.296 70.1397 126.842 70.2787 128.409 70.3324C129.104 70.2818 129.951 70.4158 130.245 69.4721C130.245 69.4721 130.412 69.46 130.455 69.2891C130.499 69.1182 130.994 68.635 131.279 68.3348C131.565 68.0345 131.687 67.802 131.884 67.8156C132.08 67.8293 131.918 68.2883 132.105 68.5542C132.709 68.4509 133.305 68.3048 133.888 68.117C134.433 67.9375 135.127 67.887 135.254 67.3188C135.753 67.2825 136.087 67.2582 136.436 67.0651C136.658 67.0063 136.876 66.9344 137.09 66.8498C138.773 66.1963 140.487 65.5685 142.17 64.9149C143.917 64.2014 145.592 63.3214 147.172 62.287C148.293 61.5905 149.445 60.9197 150.563 60.1676C152.163 59.1289 153.762 58.0901 155.304 57.0276C157.964 55.213 160.346 53.4186 162.807 51.5625C165.269 49.7064 167.534 47.8367 169.912 45.9867L172.539 43.7272L176.558 40.6398L178.278 39.3407L180.656 37.4907C181.788 36.5419 182.86 35.5416 183.995 34.6484C186.519 32.5678 189.178 30.6564 191.954 28.9265C194.071 27.7104 196.093 26.3335 198.18 25.0915C199.304 24.4228 200.523 23.9148 201.588 23.1945C203.454 22.0074 205.39 20.9332 207.384 19.9778C208.728 19.2651 210.076 18.608 211.478 17.919L215.449 16.0928C217.344 15.1666 219.288 14.344 221.272 13.6287C222.551 13.1723 223.858 12.7139 225.143 12.3408C225.587 12.3085 226.087 12.2721 226.504 12.2418C227.634 11.9363 228.813 11.8505 229.975 11.9892C230.558 11.9467 231.142 11.9043 231.709 12.0307C231.816 12.0312 231.922 12.0556 232.019 12.102C232.115 12.1484 232.2 12.2157 232.268 12.299C232.335 12.3823 232.384 12.4796 232.409 12.5838C232.434 12.688 232.436 12.7966 232.415 12.9016C232.447 13.3465 231.965 13.2418 231.63 13.2383C230.546 13.3171 229.423 13.2311 228.336 13.2544C227.725 13.2988 227.114 13.3433 226.503 13.3877C225.122 13.6002 223.771 13.98 222.482 14.5189C219.164 15.803 215.944 17.3264 212.846 19.0771C210.939 20.1103 209.001 21.0899 207.062 22.0695C205.771 22.7503 204.363 23.3559 203.156 24.0307C201.949 24.7055 201.232 25.2049 200.24 25.7801C198.446 26.833 196.589 27.7787 194.888 28.9645C192.514 30.4789 190.231 32.0984 187.946 33.6901C187.042 34.3149 186.17 34.9932 185.298 35.6716C184.426 36.3499 182.936 37.744 181.723 38.7267C179.214 40.698 176.644 42.59 174.163 44.5593C172.158 46.1586 170.214 47.8373 168.208 49.4366C167.261 50.2322 166.161 50.8433 165.244 51.6647C163.227 53.4884 160.864 54.7784 158.753 56.4692C158.252 56.869 157.721 57.2431 157.217 57.6151C155.967 58.4607 154.545 59.2629 153.44 60.1819C152.084 61.2327 150.65 62.178 149.151 63.0094C148.318 63.4613 147.549 64.0204 146.748 64.5258L146.762 64.7205C148.218 63.9997 149.707 63.3603 151.1 62.5601C152.844 61.6081 154.529 60.5521 156.147 59.3979C157.203 58.5664 158.418 58.0028 159.536 57.2507C161.266 56.0906 162.99 54.8472 164.717 53.6315C166.443 52.4159 167.614 51.6319 169.013 50.5239C170.412 49.4159 171.334 48.6501 172.523 47.7251L177.517 43.8401C178.074 43.4362 178.601 43.0065 179.128 42.5769C180.765 41.2839 182.374 39.9929 184.013 38.7277C184.685 38.3085 185.19 37.6692 185.444 36.9186C185.444 36.9186 185.629 36.7655 185.706 36.676C186.534 36.9232 186.534 36.9232 187.277 36.394L187.754 36.0518C188.813 35.2481 190.173 34.7578 190.713 33.349C190.749 33.2474 190.806 33.1548 190.882 33.0775C190.957 33.0002 191.047 32.9399 191.148 32.9008C191.248 32.8617 191.356 32.8446 191.464 32.8508C191.571 32.857 191.676 32.8862 191.771 32.9366C192.04 32.9971 192.32 32.9767 192.577 32.8779C192.966 32.7183 193.336 32.5132 193.677 32.2668C194.727 31.7324 195.629 30.9467 196.302 29.9796C196.578 29.5403 196.761 28.9959 197.484 29.3346C197.484 29.3346 197.762 29.3144 197.886 29.1097C198.471 28.7038 199.054 28.2701 199.608 27.8384C200.163 27.4067 201.093 26.7522 201.84 26.2785C202.587 25.8049 203.589 25.3687 204.358 24.8097C205.95 23.5818 207.794 22.7221 209.758 22.2925C210.847 22.0829 211.849 21.5526 212.635 20.7695C212.744 20.6463 212.88 20.5502 213.033 20.489C214.597 19.5943 216.218 18.804 217.886 18.1234C219.028 17.7049 220.166 17.2308 221.342 16.8937C222.64 16.5104 223.961 16.2089 225.297 15.991C226.814 15.7408 228.367 15.5998 229.921 15.4588C230.504 15.4164 230.863 15.7536 231.19 16.4006C230.779 16.5342 230.354 16.6213 229.924 16.6604C228.764 16.5761 227.599 16.7179 226.493 17.0778C226.212 17.1533 225.92 17.1746 225.632 17.1405C224.006 17.3423 222.397 17.6556 220.814 18.078C219.538 18.4431 218.284 18.8797 217.057 19.3856C215.837 19.8936 214.654 20.5108 213.468 21.1001C213.325 21.168 213.191 21.2529 213.068 21.3529L210.698 23.3141C210.54 23.4751 210.328 23.5704 210.103 23.581C209.937 23.5931 209.803 23.2954 209.714 23.218C208.324 23.3811 206.998 23.8909 205.857 24.7005C205.088 25.2596 204.349 25.8444 203.546 26.3221C201.766 27.3452 200.086 28.5343 198.528 29.8735C198.362 29.8856 198.215 30.1758 198.059 30.3269C199.625 29.598 201.07 28.7382 202.547 27.932C204.892 26.6682 207.379 25.6896 209.956 25.0171C210.678 24.9645 210.762 24.9585 210.942 25.8956C210.424 26.073 209.855 26.3101 209.284 26.5194C208.655 26.6328 208.041 26.8181 207.454 27.0718C206.302 27.7426 204.979 27.9786 203.863 28.7585C202.747 29.5385 201.663 29.9807 200.563 30.5918C199.462 31.203 198.283 31.8757 197.187 32.5424C196.906 32.6706 196.655 32.8565 196.451 33.088C196.246 33.3196 196.093 33.5916 196 33.8865C195.835 34.6811 195.725 35.4717 195.615 36.2623L195.794 36.417C196.296 36.0327 196.821 35.6773 197.363 35.3525C197.727 35.1669 198.029 34.8816 198.236 34.5299C198.443 34.1782 198.545 33.7748 198.531 33.3669C198.514 33.1056 198.551 32.8436 198.638 32.597C198.726 32.3503 198.863 32.1241 199.041 31.9324C199.754 32.5233 198.753 33.3508 199.321 33.8684C199.321 33.8684 199.516 33.8542 199.571 33.8502C199.711 33.7765 199.845 33.692 199.972 33.5975C202.041 32.0672 204.267 30.7621 206.612 29.7044C207.506 29.3319 208.397 28.9037 209.315 28.4736C210.232 28.0434 210.419 27.9181 210.986 27.6532C212.417 26.9901 213.851 26.3547 215.175 25.7552C215.367 25.322 215.39 24.8732 215.656 24.6861C216.306 24.2195 217.008 23.8306 217.749 23.5276C218.508 23.2208 219.363 23.0747 220.123 22.7679C221.261 22.2953 222.46 21.9823 223.684 21.8379C224.879 21.751 226.073 21.6641 227.255 21.4104C227.671 21.3801 228.116 21.3477 228.295 21.8937C228.233 22.0987 228.107 22.2785 227.935 22.4066C227.764 22.5348 227.556 22.6046 227.342 22.6059C226.481 22.6685 225.592 22.7332 224.741 22.9349C223.515 22.9352 222.296 23.1181 221.124 23.4777C219.68 23.974 218.234 24.4426 216.791 24.9389C216.791 24.9389 216.611 25.1477 216.51 25.2948C216.409 25.4419 216.76 25.2766 216.843 25.2705C218.565 25.1452 220.274 24.8531 222.008 24.8946C223.364 24.8853 224.72 24.9452 226.07 25.0741C226.257 25.0642 226.441 25.1197 226.592 25.2311C226.743 25.3425 226.85 25.5029 226.896 25.6848C226.343 25.8795 225.749 25.9227 225.174 25.8101C224.591 25.8526 223.993 25.7004 223.408 25.715C222.214 25.8019 221.02 25.8888 219.826 25.9758C218.593 26.0345 217.371 26.2359 216.184 26.5762C214.092 27.3713 212.104 28.4383 210.08 29.3961C209.485 29.663 208.922 29.9835 208.327 30.2504C207.219 30.7503 206.049 31.1708 204.977 31.7799C203.183 32.8328 201.452 33.9928 199.635 35.1033C199.44 35.1909 199.276 35.3356 199.164 35.5183C199.053 35.701 199 35.9132 199.011 36.1269L198.839 39.5213C198.775 40.56 198.775 40.56 199.782 40.9619C198.997 41.2986 199.017 41.9678 199.036 42.6093C199.021 42.9726 199.047 43.3364 199.115 43.6936L200.495 48.4563C200.598 48.7451 200.62 49.0566 200.558 49.3568C200.496 49.6571 200.353 49.9345 200.144 50.1588C199.319 47.9297 198.721 45.6229 198.359 43.2735C198.189 40.9381 198.021 38.6306 197.839 36.1284C197.313 36.6046 196.758 37.0465 196.176 37.4512C195.838 37.6499 195.558 37.9357 195.367 38.2788C195.176 38.622 195.08 39.0101 195.09 39.4029C194.968 40.0247 195.014 40.668 195.225 41.2656C196.003 41.209 196.758 40.4553 197.503 41.0999C197.117 41.5188 196.611 41.8092 196.056 41.9319C195.048 42.2847 195.048 42.2847 195.044 43.375C195.086 46.231 195.748 49.0438 196.984 51.6186C197.212 52.1298 197.4 52.6581 197.546 53.1988C197.546 53.1988 197.57 53.5324 197.342 53.8564C195.239 50.5964 194.155 46.783 194.228 42.9034C193.772 43.1601 193.447 43.2956 193.181 43.4826C192.493 44.0078 191.895 44.6103 191.174 45.0541C190.797 45.2491 190.506 45.5783 190.36 45.9769C190.213 46.3756 190.221 46.8147 190.381 47.208C190.872 48.9611 191.307 50.7181 191.744 52.503C191.778 52.9757 192.178 53.4776 191.69 54.0721C190.898 52.9981 190.411 51.73 190.279 50.4017C189.88 49.145 189.674 47.8464 189.348 46.4447C188.193 47.4511 187.177 48.4474 186.039 49.3127C185.679 49.5579 185.41 49.9154 185.273 50.3297C185.137 50.744 185.141 51.1918 185.285 51.6036L185.327 52.1874L186.016 55.1279C186.06 55.7395 186.071 55.8785 185.26 56.245C184.988 54.5037 184.583 52.7858 184.048 51.1067L183.154 51.8704C182.578 52.3875 182.033 52.9582 181.427 53.4495C181.234 53.5916 181.088 53.787 181.005 54.0115C180.922 54.2361 180.906 54.48 180.96 54.7132C181.172 55.3615 181.124 56.0669 180.824 56.6796L179.979 55.0362C176.218 58.9196 171.944 62.2682 167.274 64.9884C162.635 67.6499 157.759 69.876 152.71 71.6382C152.213 72.4849 151.717 73.3316 150.554 73.4721C150.328 73.5178 150.109 73.5901 149.9 73.6874L144.72 75.4059L144.459 75.6486L144.787 76.3234L144.509 76.3436C144.279 76.2799 144.062 76.1722 143.872 76.0266C143.733 75.888 143.559 75.7886 143.37 75.7386C143.18 75.6886 142.98 75.6898 142.79 75.742C141.985 75.8006 141.192 76.0261 140.424 76.2217C139.959 76.3697 139.506 76.5521 139.068 76.7676C138.857 76.6582 138.623 76.5987 138.385 76.5936C137.006 76.7326 135.642 77.0003 134.312 77.3932C134.207 77.4416 134.089 77.4502 133.978 77.4175C132.994 76.9302 131.996 77.422 131.179 77.3138C130.713 77.8228 131.262 78.4536 130.763 78.8813C130.763 78.8813 130.556 78.7286 130.522 78.6472L129.891 77.2677L126.195 77.1175C125.934 77.7514 126.092 78.3827 125.622 78.8361L125.442 78.6537L125.391 77.9586C125.326 77.0689 125.149 76.9421 124.253 76.8955C123.356 76.849 122.937 76.8515 122.29 76.7868C121.932 76.6924 121.579 76.5782 121.232 76.4445C121.632 75.8006 121.632 75.8006 122.194 75.8435C122.755 75.8865 123.684 75.9866 124.41 75.9897C125.136 75.9928 125.62 75.734 125.607 74.7846C125.574 74.3398 125.558 74.1174 124.947 74.1619C124.336 74.2063 123.142 74.2932 122.17 74.364C121.753 74.3943 121.226 74.4327 120.948 74.4529C120.67 74.4731 120.751 75.194 120.696 75.5892C120.346 76.537 120.319 77.3215 121.171 77.9024C121.171 77.9024 121.021 78.1369 120.939 78.1708C120.736 78.2711 120.573 78.4373 120.477 78.6422C120.38 78.8472 120.356 79.0789 120.407 79.2995C120.448 79.8556 120.874 79.9643 121.273 80.075C121.623 80.1759 121.983 80.2341 122.347 80.2484C123.985 80.1291 125.609 80.57 127.251 80.5063C129.362 80.3527 131.471 80.5626 133.568 80.6056C133.929 80.5793 134.29 80.553 134.624 80.5288C136.651 80.3812 138.65 80.2357 140.65 80.0902C141.394 80.0916 142.136 80.0375 142.872 79.9285C144.649 79.7991 146.4 79.3084 148.136 78.9864C148.941 78.9278 149.736 78.7302 150.536 78.5882C151.335 78.4461 151.341 78.5295 151.497 79.1331C151.232 79.2929 150.951 79.4256 150.66 79.5294C149.422 79.7871 148.183 80.0171 146.971 80.2451C144.963 80.643 142.926 80.8753 140.879 80.9399C138.297 81.1279 135.704 81.1768 133.111 81.2258C131.351 81.3021 129.588 81.2811 127.83 81.163C125.022 80.9481 122.207 80.6219 119.389 80.268C118.403 80.1441 117.458 79.8216 116.549 79.6083C116.539 79.4693 116.729 79.3995 116.815 79.4212C117.648 79.3606 118.469 79.5244 119.313 79.6028C120.156 79.6812 119.924 79.5583 119.915 79.0559C119.854 78.2218 119.657 77.8169 118.84 77.7087C118.022 77.6005 116.901 77.5423 116.03 77.466L115.137 78.2298L115.254 77.1591C112.135 76.9264 109.039 76.4509 105.993 75.7369C109.066 75.7648 112.059 76.6091 115.184 76.5773L115.507 74.8769L103.955 73.4258C104.102 72.7722 104.531 72.9087 104.896 72.938C105.936 73.03 106.95 73.1519 107.991 73.2717L114.558 74.4987C115.318 74.5832 115.585 74.4239 115.729 73.7147L115.924 72.5547C115.775 72.5535 115.627 72.5643 115.48 72.587C113.536 72.7285 111.592 72.87 109.634 72.8168C107.675 72.7637 105.666 72.7702 103.68 72.7191C101.694 72.668 100.18 72.5825 98.4141 72.4874C96.6483 72.3923 94.678 72.1724 92.7951 72.002C91.01 71.8843 89.2328 71.6684 87.4714 71.3553C86.9682 71.2001 86.4368 71.1593 85.9159 71.2359C85.395 71.3124 84.8977 71.5045 84.4605 71.798C83.8263 72.2914 83.1644 72.7867 82.5323 73.3079C82.5323 73.3079 82.3602 73.6279 82.2138 73.918C84.331 74.239 86.3094 74.5702 88.3095 74.8159C90.3096 75.0617 92.1052 75.1825 93.9347 75.3848C94.4623 75.3464 94.9622 75.31 95.5061 75.494C97.9647 75.902 100.423 76.31 102.884 76.7458C103.13 76.7629 103.368 76.8404 103.577 76.9714C103.786 77.1024 103.96 77.2829 104.083 77.497C102.988 77.409 102.066 77.3923 101.276 77.2821C98.4642 77.0116 95.8708 76.6693 93.1426 76.3927C91.6227 76.2238 90.1068 76.1105 88.5849 75.9139C87.063 75.7172 85.0547 75.3602 83.2808 75.154C80.6894 74.8395 81.0363 74.6186 79.0138 76.7502C78.7796 77.0371 78.5684 77.3422 78.3822 77.6626C79.0033 77.7571 79.4537 77.8082 79.8784 77.8891L84.1427 78.5569C85.4723 78.7956 86.9644 78.9665 88.1571 79.243C90.2269 79.6793 92.2493 80.2308 94.3191 80.6671C96.3889 81.1034 97.7463 81.34 99.4747 81.6894C100.015 81.8178 100.556 81.974 101.07 82.1322C101.584 82.2905 101.71 82.477 101.498 83.0234C100.899 82.8435 100.325 82.6337 99.7278 82.4815C97.8226 82.0053 95.8896 81.5311 94.042 81.0786C91.6545 80.4977 89.2671 79.9169 86.8383 79.5346C84.4094 79.1524 82.173 78.7282 79.8275 78.34C79.3431 78.2643 78.8549 78.2158 78.3651 78.1948C78.1492 78.1809 77.9357 78.2462 77.7643 78.3783C77.067 79.1557 76.4294 79.9847 75.7897 80.7859C75.7897 80.7859 75.7897 80.7859 75.808 81.0361C75.8262 81.2863 76.1412 81.0119 76.3356 80.9977C77.1254 81.1079 77.9409 81.1883 78.7306 81.2986C79.5203 81.4088 80.1692 81.5013 80.8756 81.6176C82.5188 81.9452 84.1876 82.243 85.8348 82.6262C87.482 83.0094 89.4549 83.6484 91.3025 84.1008C93.6622 84.6837 96.0436 85.1812 98.431 85.7621C98.5977 85.75 98.7249 85.9643 98.8996 86.0634L98.9158 86.2858C98.5497 86.3537 98.1771 86.3809 97.805 86.3666C95.7589 85.8727 93.7148 85.4066 91.6667 84.8849C89.1065 84.2327 86.5701 83.5229 83.9863 82.9284C81.972 82.4881 79.9083 82.1352 77.8486 81.8379C76.84 81.5937 75.7901 81.5747 74.7734 81.7822C74.4124 81.8085 74.1625 81.8267 73.9831 81.2807C75.5358 80.7485 76.0138 79.2603 77.0396 78.0118C76.4125 77.8339 76.0115 77.6954 75.5591 77.6165C75.1066 77.5376 74.5871 77.6872 74.1225 77.4415C73.6701 77.2895 73.1791 77.2994 72.7332 77.4695C72.2873 77.6396 71.9143 77.9593 71.6777 78.3741C70.3864 80.0449 69.2639 81.8399 68.3266 83.7327C68.1776 83.8945 68.01 84.038 67.8273 84.1603C68.6232 81.61 69.9338 79.2505 71.6781 77.2282L70.654 76.9673C71.3205 76.9188 71.9037 76.8763 72.2167 76.5741C73.0173 75.8214 73.7796 75.029 74.5008 74.1999C73.3202 74.0901 72.3618 73.9642 71.3817 73.9238C71.0566 73.8981 70.7307 73.9637 70.4407 74.1131C70.1508 74.2626 69.9082 74.49 69.7403 74.7699C69.4611 75.1536 69.1203 75.4579 68.8966 75.8375L65.3714 81.4882C65.3855 81.6829 65.2174 82.0584 64.6559 82.0154C64.8132 81.3709 65.0193 80.7392 65.2722 80.1259C66.2915 78.4028 67.3425 76.7332 68.3916 75.0358L68.9873 74.0142C68.4384 74.0604 67.8863 74.0538 67.3386 73.9944C66.8532 73.8512 66.3314 73.8998 65.8807 74.1302C65.43 74.3605 65.0848 74.7552 64.9161 75.2328L64.5183 75.9046L63.1744 78.1545L62.0447 80.277L64.3331 81.0328C64.1483 81.1619 63.932 81.2386 63.7072 81.255C63.4824 81.2714 63.2573 81.2267 63.0556 81.1257C62.6357 80.9539 62.1681 80.9386 61.738 81.0828C61.3078 81.2269 60.9437 81.5209 60.7118 81.9112C60.7118 81.9112 60.5452 81.9233 60.4063 81.9334L60.6627 80.8527C59.2523 80.5537 57.8073 80.4519 56.3691 80.5503C56.2618 80.5545 56.1563 80.58 56.0589 80.6255C55.9616 80.671 55.8743 80.7355 55.8021 80.8152C55.4268 81.4071 55.2615 82.1083 55.3328 82.8058C55.5188 82.8609 55.7085 82.9031 55.9003 82.9322C58.0135 83.1976 60.1525 83.4332 62.2657 83.6987C63.2845 83.7561 64.2705 84.0794 65.1259 84.6364C64.8397 84.7305 64.5456 84.7986 64.2473 84.8401C63.402 84.7339 62.5804 84.5701 61.7351 84.464C59.7906 84.2142 57.8183 83.9664 55.8479 83.7465C55.1713 83.656 55.0426 83.8051 54.8927 84.4309C54.8517 84.7942 54.8317 85.1596 54.8327 85.5253C55.7335 85.6274 56.4915 85.6841 57.2514 85.7685C59.3071 86.0102 61.3329 86.2261 63.3608 86.4698C63.6446 86.4609 63.9246 86.5373 64.1645 86.6892C64.4045 86.8411 64.5935 87.0616 64.7071 87.3221C64.3941 87.365 64.0788 87.3879 63.7629 87.3908C61.465 86.9389 59.1396 86.6413 56.8021 86.4999C56.3337 86.378 55.8443 86.3604 55.3684 86.4481C54.8924 86.5359 54.4415 86.7269 54.0472 87.0079C53.7108 86.2218 53.0443 86.2703 52.3995 86.2334C51.0245 86.1378 49.59 85.9907 48.322 85.8314C47.7216 85.6812 47.1071 85.5947 46.4885 85.5736C45.891 85.6229 45.2918 85.5017 44.7601 85.2242L44.8623 83.1765C44.4716 83.1655 44.0809 83.1939 43.6959 83.2614C43.304 83.4005 42.8819 83.4313 42.474 83.3503C42.4171 83.3162 42.353 83.2962 42.2869 83.2918C42.2209 83.2874 42.1546 83.2988 42.0938 83.3251C42.033 83.3513 41.9793 83.3917 41.9372 83.4429C41.895 83.494 41.8656 83.5544 41.8514 83.6192C41.8717 83.8972 41.8939 84.2031 42.1282 84.3537L42.7018 84.5635C42.568 84.6561 42.4236 84.7323 42.2717 84.7905C40.411 84.9259 38.5321 84.8111 36.691 84.8333C34.85 84.8554 33.4019 84.9049 31.7552 84.913C31.4974 84.947 31.2377 84.9659 30.9776 84.9696C30.1445 85.0302 29.2931 84.8406 28.456 84.8457C27.6188 84.8507 26.1686 84.8724 25.0577 84.9532C23.9468 85.0341 22.6416 85.1291 21.4474 85.216C20.2532 85.3029 19.0692 85.5288 17.875 85.6157C16.6808 85.7026 15.6255 85.7794 14.4868 85.8623L14.499 86.0291C14.86 86.0028 15.2332 86.1434 15.626 86.1707C19.1015 86.2177 22.577 86.086 26.0389 85.7762C27.4376 85.4748 28.8889 85.5228 30.2648 85.9158C31.1833 86.1567 32.1312 86.2665 33.0804 86.2419C33.6636 86.1995 34.2609 86.3517 34.8265 86.4503C36.8468 86.9392 38.917 87.1919 40.9955 87.2031C41.5197 87.2026 42.0435 87.2298 42.5649 87.2845C44.1105 87.4236 45.7117 87.5586 47.2614 87.7533C48.1067 87.8594 48.9277 87.632 49.775 87.766C51.6654 87.6805 53.5585 87.8626 55.3981 88.307C57.2877 88.9521 59.3136 89.168 61.2763 89.668C62.6365 89.9426 63.9661 90.3514 65.2459 90.8883C67.3011 91.6947 69.4303 92.298 71.6028 92.6896C73.3651 93.1203 75.1728 93.408 76.9114 93.8963C78.6684 94.398 80.3981 94.9904 82.0939 95.6712C83.8486 96.382 85.5282 97.21 87.283 97.9208C88.953 98.8389 90.6812 99.6468 92.4564 100.339C93.4547 100.674 94.4202 101.099 95.3408 101.611C96.5558 102.193 97.9212 102.541 99.1341 103.095C101.106 103.826 103.033 104.675 104.903 105.638C105.017 105.708 105.144 105.756 105.276 105.779C107.43 106.279 109.535 106.967 111.568 107.836C111.735 107.824 111.838 108.096 112.108 108.356C111.775 108.38 111.636 108.39 111.553 108.396C109.784 107.882 107.986 107.342 106.244 106.798C104.501 106.254 103.382 105.833 101.81 105.332C101.119 105.144 100.44 104.913 99.7771 104.642C98.5662 104.115 97.379 103.531 96.1661 102.976C95.8377 102.825 95.5018 102.691 95.1597 102.574C94.6051 102.41 94.0598 102.217 93.5261 101.994C90.6457 100.778 88.0472 99.598 85.2698 98.263C83.769 97.5896 82.193 97.0335 80.6685 96.4178C79.1422 95.7083 77.5391 95.1779 75.8911 94.837C74.1131 94.5751 72.3765 94.1146 70.642 93.6818C68.9075 93.2491 67.7981 92.9665 66.3155 92.5433C64.8389 91.9537 63.3203 91.4756 61.7724 91.1132C61.5574 91.0619 61.3469 90.9931 61.1432 90.9074C60.1747 90.6425 59.2021 90.322 58.2912 90.0809C57.3802 89.8397 56.1936 89.6466 55.1458 89.4433C54.2142 89.2308 53.2706 89.0755 52.3201 88.9782C50.3281 88.8437 48.3143 88.7946 46.2986 88.7177C46.1685 88.6983 46.0357 88.708 45.9098 88.746C46.9746 89.1491 48.0714 89.462 49.1885 89.6813C52.1061 90.1664 54.9682 90.9412 57.7324 91.9941C60.4259 92.944 63.0977 93.9793 65.7655 94.959C67.6868 95.6577 69.634 96.3265 71.4998 97.0292C71.8105 97.1372 72.1103 97.2745 72.3952 97.4392C73.0582 97.7263 73.6955 98.0433 74.3307 98.3324L81.3044 101.319C82.7753 101.966 84.1948 102.673 85.7471 103.287C88.6275 104.503 91.5038 105.663 94.5467 106.811C96.5297 107.589 98.5385 108.337 100.581 109.167C103.447 110.188 106.504 111.139 109.477 112.097C110.706 112.483 111.962 112.866 113.212 113.167C115 113.568 116.763 113.998 118.543 114.288C120.888 114.676 123.257 115.007 125.589 115.201C127.414 115.347 129.251 115.269 131.177 115.269C131.4 115.253 131.649 115.235 131.983 115.21L131.675 114.814C130.851 114 130.096 113.121 129.417 112.183C129.102 111.628 128.654 111.161 128.112 110.825C127.571 110.488 126.954 110.293 126.318 110.256C123.816 109.886 121.337 109.376 118.892 108.729C117.811 108.47 116.745 108.156 115.696 107.787C115.295 107.649 114.89 107.455 114.487 107.288C116.726 107.74 118.891 108.337 121.068 108.71C123.288 109.27 125.557 109.61 127.842 109.726C127.425 108.974 127.075 108.385 126.808 107.789C126.678 107.449 126.448 107.156 126.149 106.948C125.85 106.741 125.496 106.628 125.132 106.625C124.132 106.698 123.13 106.352 122.144 106.228C119.634 105.88 117.165 105.333 114.696 104.786C114.252 104.818 113.783 104.517 113.711 103.907C115.721 104.292 117.68 104.736 119.631 105.069C121.581 105.403 123.619 105.785 125.841 106.015C125.616 105.221 125.405 104.621 125.275 103.988C125.253 103.779 125.15 103.588 124.989 103.453C124.829 103.319 124.622 103.253 124.413 103.268C123.57 103.19 122.725 103.083 121.905 102.947C119.647 102.609 117.416 102.268 115.156 101.901C114.823 101.926 114.462 101.952 114.219 101.299C115.039 101.435 115.745 101.551 116.422 101.642C118.842 101.913 121.263 102.184 123.658 102.484C123.942 102.578 124.249 102.574 124.53 102.472C124.811 102.371 125.05 102.178 125.209 101.924C125.257 102.592 125.63 102.732 126.079 102.755C127.206 102.897 128.331 103.011 129.48 103.067C130.628 103.123 131.09 102.95 131.91 103.086C132.089 103.133 132.256 103.216 132.402 103.329C132.412 103.468 132.153 103.739 132.016 103.777C131.635 103.874 131.24 103.903 130.85 103.862C129.782 103.772 128.711 103.626 127.641 103.508C127.086 103.549 126.53 103.589 125.879 103.469C125.841 104.395 126.157 105.301 126.762 106.004C126.762 106.004 127.05 106.123 127.22 106.166C127.592 106.258 127.97 106.324 128.352 106.363C128.879 106.325 129.435 106.284 130.058 106.407L129.638 104.481C130.363 104.847 130.322 105.437 130.605 105.864C130.944 106.288 131.309 106.69 131.697 107.07C131.453 108.317 132.355 109.202 132.849 110.228C132.871 110.272 132.904 110.309 132.946 110.335C132.987 110.361 133.034 110.377 133.083 110.379C133.857 110.603 134.675 110.63 135.462 110.457C134.605 108.728 133.975 106.895 133.585 105.004C134.208 104.735 134.21 105.154 134.292 105.512C134.673 107.116 135.293 108.654 136.132 110.073C136.152 110.351 136.587 110.571 136.664 110.873C137.114 111.851 137.717 112.75 138.45 113.538C138.738 114.116 139.218 114.576 139.808 114.839C140.397 115.102 141.06 115.151 141.682 114.98C141.932 114.961 142.182 114.943 142.459 114.923C144.153 114.8 145.861 114.48 147.547 114.245C149.233 114.011 150.796 114.009 152.385 113.586C154.54 113.097 156.657 112.458 158.723 111.671C162.346 110.517 165.901 109.157 169.37 107.598C170.855 106.903 172.402 106.288 173.914 105.591C174.155 105.44 174.385 105.274 174.604 105.093C174.069 104.711 173.563 104.29 173.089 103.834C172.693 103.388 172.054 103.043 172.096 102.089C173.49 102.827 174.281 104.11 175.576 104.631C175.95 104.408 176.355 104.211 176.834 103.897C176.417 103.536 176.064 103.282 175.764 102.996C174.797 102.133 173.994 101.103 173.393 99.9548C173.374 99.7046 173.076 99.4468 173.332 99.1208L174.507 100.684C175.141 101.598 175.98 102.35 176.956 102.882C177.226 103.026 177.526 103.105 177.832 103.112C178.138 103.119 178.442 103.054 178.718 102.921C181.174 101.764 183.656 100.577 186.152 99.5852C188.649 98.593 190.788 97.6827 193.156 96.8396C194.926 96.2356 196.763 95.7665 198.627 95.2954C200.141 94.9055 201.675 94.5979 203.222 94.3741C204.778 94.2609 206.305 94.1497 207.86 94.0365C210.022 93.7227 212.129 93.1084 214.121 92.2114C216.18 91.4484 218.132 90.4233 219.929 89.1614C221.327 88.1356 222.788 87.1985 224.304 86.3556C225.089 85.9026 225.911 85.5156 226.76 85.1986C227.821 84.814 228.914 84.4829 230.006 84.1518C231.614 83.6155 233.197 83.1091 234.805 82.5728C236.413 82.0365 237.912 81.5361 239.572 80.9402C241.846 79.9642 244.027 78.8552 246.299 77.8514C248.645 76.8269 250.891 75.5875 253.009 74.1488C254.023 73.4647 254.976 72.694 255.857 71.8454C256.847 70.8789 257.655 69.7022 258.654 68.8469C259.648 67.6365 260.489 66.308 261.158 64.8915C261.524 64.1702 261.806 63.4087 261.998 62.6224C262.244 61.7939 262.093 61.6372 261.341 61.2727C260.158 60.744 259.024 60.1277 257.865 59.5413C257.486 59.3591 257.124 59.1422 256.785 58.8933C256.654 58.7271 256.563 58.5328 256.52 58.3256C256.742 58.3094 256.976 58.0688 257.174 58.1103C257.478 58.2288 257.769 58.376 258.044 58.5501C258.945 59.0435 259.825 59.6223 260.75 60.058C261.208 60.2289 261.705 60.2608 262.181 60.1496C262.347 60.1374 262.416 59.5455 262.503 59.2038C262.692 58.3516 262.418 58.0361 261.572 57.93C261.322 57.9481 260.989 57.9724 260.823 57.9845C259.945 57.4335 259.093 56.8527 258.239 56.244C258.1 56.2542 257.877 55.8791 257.927 55.7916C258.164 55.2154 257.85 54.7352 257.808 54.1513C258.042 54.1884 258.261 54.2883 258.443 54.4405L260.161 56.188C260.484 56.5585 260.9 56.8368 261.365 56.9948L261.334 56.5778C260.486 55.6613 259.687 54.6574 258.759 53.8026C257.769 53.0096 256.924 52.0496 256.264 50.9657C256.098 50.6681 255.862 50.416 255.576 50.232C255.29 50.048 254.962 49.9378 254.623 49.9112C253.998 49.761 253.409 49.7201 253.009 50.364C252.918 50.3863 252.824 50.3931 252.731 50.3843C251.653 50.9099 250.576 51.4634 249.466 51.9355C249.117 52.1118 248.733 52.2067 248.342 52.213C247.925 52.2433 247.71 51.9794 247.845 51.5225C249.371 51.0977 250.792 50.3563 252.014 49.3465C251.253 49.3023 250.492 49.4148 249.776 49.677C249.342 49.8483 248.878 49.9939 248.414 50.1395C247.95 50.285 246.772 50.5944 246.011 50.8734C245.249 51.1524 245.351 51.3965 244.974 51.5916C244.597 51.7868 244.389 51.9975 244.113 51.6543C243.837 51.3111 244.069 51.0427 244.3 50.7743C244.414 50.6561 244.549 50.5609 244.699 50.4937L246.229 49.6557C246.524 49.4944 246.848 49.3312 247.115 49.1719C246.744 47.522 246.19 47.5902 245.122 48.2549C245.122 48.2549 245.122 48.2549 244.955 48.267L243.536 49.097C243.134 49.3219 242.796 49.2906 242.56 48.7209C242.868 48.4432 243.194 48.186 243.537 47.9511C244.044 47.6347 244.613 47.3976 245.148 47.0791C246.381 46.3745 246.431 46.2871 246.445 44.9445C246.412 44.4997 246.396 44.2773 245.876 44.4269C245.043 44.6942 244.244 45.062 243.499 45.5222C242.906 46.0055 242.365 46.5508 241.887 47.1488C241.782 47.1008 241.69 47.0284 241.619 46.9378C241.548 46.8471 241.499 46.7408 241.478 46.6276C241.456 46.5144 241.461 46.3976 241.493 46.2869C241.526 46.1763 241.584 46.0749 241.663 45.9912C241.965 45.6077 242.304 45.2554 242.675 44.9393C243.647 44.1135 244.8 43.5313 246.041 43.241C246.486 43.2087 246.745 42.9382 246.619 42.3604C245.689 42.294 244.754 42.3621 243.842 42.5626C243.186 42.7501 242.565 43.0468 241.939 43.2601C241.312 43.4734 241.328 43.3046 241.173 43.0922C241.018 42.8799 241.136 42.5918 241.462 42.4563C241.787 42.3209 242.108 42.1298 242.433 41.9944C242.758 41.8589 243.216 41.6299 243.623 41.4606C243.394 41.316 243.131 41.2346 242.86 41.2249C242.59 41.2151 242.322 41.2772 242.083 41.4049C241.805 41.4252 241.54 41.6122 241.432 41.2846C241.405 41.1651 241.407 41.0409 241.437 40.9222C241.468 40.8034 241.525 40.6935 241.606 40.6012C241.75 40.4352 241.952 40.3305 242.171 40.3085C242.62 40.234 243.076 40.2008 243.531 40.2095C244.365 40.1489 245.184 40.2849 246.025 40.3354C245.944 40.2082 245.837 40.0997 245.711 40.0173C245.584 39.9349 245.442 39.8805 245.293 39.8577C244.499 39.6919 243.709 39.5817 242.89 39.4457C242.503 39.3268 242.092 39.3103 241.697 39.3979C241.302 39.4854 240.937 39.6739 240.637 39.945C240.637 39.945 240.637 39.945 240.47 39.9572C239.894 39.3283 239.893 38.9371 240.599 38.6621C241.026 38.5185 241.47 38.4298 241.92 38.3983C242.253 38.374 242.626 38.5146 242.864 38.3296L240.397 36.2732C240.266 36.143 240.099 36.0542 239.918 36.0177C239.737 35.9812 239.549 35.9987 239.377 36.0679C239.149 36.1138 238.916 36.1307 238.683 36.1184C238.828 35.8837 238.906 35.6143 238.911 35.3385C238.915 35.0627 238.846 34.7908 238.709 34.5514C238.664 34.4048 238.653 34.2501 238.676 34.0985C238.698 33.947 238.755 33.8025 238.84 33.6754C239.155 33.1395 239.51 32.6278 239.901 32.1448C238.743 31.9497 238.743 31.9497 238.46 31.523C238.664 31.3344 238.915 31.2059 239.187 31.1515C239.459 31.0972 239.741 31.1193 240.001 31.2152C240.652 31.2823 241.309 31.173 241.903 30.8986C242.497 30.6243 243.006 30.1951 243.378 29.6559C242.807 29.2723 242.127 29.0862 241.441 29.1261C240.725 29.0597 240.006 29.0467 239.288 29.0871C239.571 28.759 239.664 28.5007 239.829 28.4608C240.342 28.2763 240.882 28.1802 241.427 28.1768C242.533 28.1499 243.632 28.3555 244.654 28.7804C244.876 28.7643 245.126 28.7461 245.223 28.5434C244.59 28.282 244.01 27.9888 243.409 27.781C242.807 27.5733 242.129 27.455 241.551 27.1896C240.973 26.9242 240.218 27.2866 239.759 26.733C239.772 26.6247 239.809 26.5205 239.867 26.4278C239.925 26.3351 240.002 26.2561 240.093 26.1963C240.184 26.1364 240.287 26.0972 240.395 26.0813C240.503 26.0654 240.614 26.0732 240.718 26.1042C241.425 26.2205 242.131 26.3368 242.839 26.4809C243.548 26.625 243.465 26.631 243.806 26.718C243.568 26.3417 243.218 26.05 242.805 25.8843C242.392 25.7187 241.937 25.6876 241.505 25.7954C241.346 25.832 241.178 25.806 241.037 25.7226C240.896 25.6393 240.792 25.5051 240.747 25.3475C240.506 24.7222 240.87 24.3603 241.708 24.3553L242.93 24.6576C242.181 23.9575 242.181 23.9575 241.712 24.4109L239.883 23.0627C240.401 22.1306 240.812 22.0169 241.743 22.536C241.873 22.6289 242.01 22.7123 242.152 22.7857C242.338 22.7853 242.523 22.7718 242.707 22.7453C241.642 21.5372 240.882 21.0615 239.987 21.0428C239.707 21.6616 239.678 22.3652 239.906 23.0051L239.966 23.0566ZM248.965 41.6028C249.689 41.1868 250.307 40.8623 250.894 40.4842C251.934 39.732 253.107 39.1821 254.35 38.8632C255.97 38.4937 257.598 38.2355 259.255 37.9752C261.397 37.5817 263.576 37.4231 265.753 37.5022C266.039 37.494 266.324 37.5298 266.598 37.6084C266.765 37.5963 266.9 37.9218 267.022 38.0527C267.143 38.1837 266.681 38.357 266.484 38.3434C266.288 38.3297 265.248 38.2377 264.637 38.2822C262.499 38.4378 260.361 38.5934 258.268 38.9973C257.046 39.0862 255.846 39.4809 254.639 39.7645C252.637 40.382 250.744 41.3121 249.032 42.5203C248.633 42.7547 248.314 43.1035 248.116 43.5215C247.917 43.9396 247.849 44.4076 247.919 44.8652C247.996 44.9336 248.089 44.983 248.189 45.0095C248.289 45.0361 248.394 45.039 248.495 45.0181C248.596 44.9971 248.691 44.9529 248.773 44.889C248.854 44.825 248.919 44.743 248.964 44.6494C249.328 44.2875 249.631 43.8462 250.025 43.51C251.137 42.5542 252.453 41.8657 253.871 41.4973C254.141 41.3792 254.427 41.3019 254.72 41.2678C254.887 41.2557 255.095 41.4362 255.268 41.5074C255.441 41.5787 255.132 41.9366 254.999 42.0301C254.675 42.1907 254.34 42.3272 253.996 42.4385C252.533 42.8939 251.223 43.7434 250.21 44.8941C250.031 45.1315 249.821 45.3441 249.586 45.5264C249.372 45.7612 249.091 45.9237 248.78 45.9913C248.47 46.059 248.147 46.0285 247.855 45.904C248.117 47.5898 248.117 47.5898 248.713 48.1054C249.227 47.9478 249.748 47.8165 250.275 47.7122C252.383 47.5933 254.492 47.9257 256.461 48.6874C256.601 48.7275 256.731 48.796 256.844 48.8888C256.956 48.9816 257.048 49.0967 257.114 49.2268C257.799 50.7057 258.8 52.0162 260.046 53.0661C260.525 53.5064 260.924 54.0083 261.377 54.4785C261.83 54.9486 262.085 55.3772 262.714 55.583C263.044 55.1397 262.8 54.85 262.639 54.5543C261.761 53.6121 260.884 52.6976 260.06 51.7235C259.235 50.7494 258.855 50.1342 258.297 49.3643C258.514 48.9013 258.788 48.8255 259.114 49.0813L259.692 49.7379L263.12 53.8765C263.12 53.8765 263.287 53.8644 263.425 53.8542C263.563 53.2523 263.517 52.6229 263.294 52.0471C262.907 50.566 262.355 49.1249 261.996 47.6417C261.727 46.5057 261.54 45.3517 261.438 44.1887C261.409 43.7995 261.393 43.5771 260.986 43.3552C260.872 43.2996 260.775 43.215 260.703 43.1098C260.632 43.0046 260.59 42.8826 260.581 42.7558C260.571 42.6291 260.596 42.5022 260.651 42.3878C260.706 42.2734 260.79 42.1755 260.895 42.1041C261.039 42.0118 261.193 41.935 261.353 41.8751C262.453 41.5047 263.581 41.2262 264.727 41.0427C267.61 40.7616 270.516 40.8032 273.39 41.1667C276.261 41.5169 279.155 41.6428 282.045 41.5431C284.072 41.3955 286.127 41.246 288.154 41.0984C289.043 41.0337 289.904 40.9711 290.793 40.9064C292.586 40.6082 294.379 40.31 296.138 39.9305C297.897 39.5509 299.851 39.1572 301.627 38.6366C303.404 38.116 305.064 37.52 306.694 36.8983C308.324 36.2766 309.939 35.4603 311.478 34.7335C311.878 34.5022 312.261 34.2408 312.621 33.9515L312.607 33.7569C312.246 33.7832 311.897 33.9762 311.544 34.1137C309.322 35.0301 307.099 35.9465 304.875 36.8351C304.188 37.0763 303.45 37.13 302.736 36.9907C303.133 36.872 303.524 36.7316 303.906 36.5702C305.068 36.0384 306.198 35.4531 307.332 34.9234L311.196 33.1609C311.557 33.1346 311.894 32.7747 312.247 32.6372C314.062 32.0018 315.766 31.0856 317.298 29.9219C317.546 29.7779 317.76 29.5824 317.926 29.3485C318.092 29.1147 318.206 28.8479 318.26 28.5662C318.073 28.6485 317.894 28.7457 317.723 28.8568L315.761 30.2853C313.661 31.7852 311.313 32.9022 308.826 33.5849C307.703 33.8902 306.583 34.2233 305.469 34.6398C303.145 35.5522 300.709 36.1433 298.226 36.3966C298.063 36.4372 297.893 36.4495 297.726 36.433C297.627 36.3511 297.56 36.2375 297.535 36.1115C297.542 36.0673 297.56 36.0255 297.586 35.9895C297.613 35.9535 297.647 35.9245 297.688 35.9048C297.805 35.8697 297.928 35.8607 298.049 35.8785C299.183 35.6664 300.3 35.3702 301.39 34.9925C303.264 34.2692 305.199 33.6252 307.075 32.9297C308.435 32.4395 309.802 32.0326 311.102 31.4907C313.273 30.5 315.328 29.2725 317.229 27.8307C317.618 27.5293 318.039 27.2736 318.486 27.0684C318.614 27.0359 318.747 27.0291 318.878 27.0484C319.009 27.0676 319.135 27.1126 319.248 27.1807C319.54 27.3551 319.282 27.6533 319.297 27.8479L319.045 28.2295C319.562 28.8068 319.705 28.8523 320.037 28.4368C320.547 27.6917 320.867 26.8339 320.972 25.9372C320.978 25.7979 320.95 25.6593 320.893 25.5325C320.835 25.4056 320.748 25.2941 320.64 25.2068C320.424 25.0544 320.162 24.9816 319.899 25.0008C319.636 25.02 319.387 25.1299 319.196 25.3119L318.411 26.0397C317.136 27.2393 315.722 28.2807 314.198 29.1413C313.408 29.7219 312.449 30.0273 311.469 30.0107C311.102 29.9625 310.729 29.9881 310.372 30.0861C310.014 30.1841 309.68 30.3525 309.389 30.5813C308.79 31.0168 308.167 31.4168 307.522 31.7793C303.891 33.7 299.967 35.0056 295.91 35.6429C295.076 35.7035 294.243 35.7642 293.382 35.8268C290.831 36.1057 288.256 36.1056 285.705 35.8266C283.564 35.5632 281.444 35.2143 279.331 34.9489C276.905 34.8902 274.484 34.6837 272.083 34.3305C270.519 33.9412 268.942 33.7486 267.402 33.3017C263.853 32.3637 260.239 31.6924 256.591 31.2936C256.275 31.2322 255.95 31.2559 255.646 31.3623C255.539 31.452 255.406 31.5057 255.267 31.5159C255.127 31.526 254.988 31.4921 254.869 31.4189C254.043 30.8082 253.221 30.2532 252.446 29.5829C250.89 28.1588 249.444 26.699 247.831 25.2512L246.516 24.0612C246.726 23.487 247.061 23.4905 247.408 23.6609C247.699 23.8062 247.967 23.994 248.203 24.218L252.013 27.8536L254.23 29.9282C254.23 29.9282 254.49 30.049 254.808 30.1936C254.818 29.8676 254.794 29.5415 254.737 29.2205C254.394 28.5391 253.982 27.8948 253.508 27.2976C252.011 25.4157 250.264 23.7469 248.317 22.3371C247.843 22.0483 247.391 21.7263 246.963 21.3735C246.812 21.2168 246.93 20.9287 246.72 20.7204C246.956 20.6636 247.2 20.6459 247.442 20.6679C247.757 20.7575 248.052 20.9068 248.311 21.1077L251.698 23.9077L252.389 24.5841C251.689 23.3633 250.914 22.1875 250.067 21.0638C249.196 19.8751 248.019 18.9462 246.661 18.377C245.853 18.0166 245.553 18.1222 245.281 18.9805C245.008 19.8388 244.896 20.2104 244.663 20.8422C244.332 21.8893 244.414 23.0235 244.893 24.0116C245.592 25.2598 246.13 26.5919 246.494 27.9757C246.543 28.1587 246.622 28.3324 246.727 28.4898C246.815 28.616 246.874 28.7603 246.899 28.9122C246.924 29.0641 246.915 29.2196 246.872 29.3675C246.829 29.5153 246.754 29.6517 246.651 29.7666C246.549 29.8815 246.422 29.972 246.281 30.0316C246.086 30.0457 245.892 30.0599 245.737 30.2388C244.635 30.8221 243.384 31.2765 243.106 32.4426C242.513 32.7373 242.023 32.9127 241.595 33.1675C241.167 33.4222 240.86 33.8079 241.117 34.2644C241.607 33.9588 242.133 33.714 242.683 33.5355C244.196 33.2297 245.743 33.0053 247.265 32.8108C247.742 32.7678 248.213 32.6679 248.667 32.5131C249.534 32.1314 250.467 31.9212 251.414 31.8939C253.558 31.7149 255.716 31.7734 257.848 32.0685C259.572 32.3622 261.298 32.6838 263.001 33.0629C263.966 33.2722 264.857 33.6266 265.853 33.8895C267.679 34.4274 269.475 34.9395 271.299 35.4496C272.355 35.7535 273.426 36.0021 274.508 36.1943C276.374 36.5057 278.258 36.7039 280.145 36.9299C281.403 37.1022 282.669 37.206 283.937 37.2409C285.576 37.1217 287.242 37.0004 288.88 36.8811C289.797 36.8144 290.686 36.7498 291.676 36.9292C291.842 36.9171 291.995 37.1016 292.285 37.2482C292.059 37.3872 291.812 37.49 291.554 37.553L286.499 37.9209C285.792 38.0286 285.077 38.0806 284.361 38.0765C281.097 37.7271 277.811 37.4631 274.565 36.9727C271.272 36.3674 268.028 35.5198 264.86 34.4369C262.437 33.6707 259.939 33.1684 257.408 32.9389C255.805 32.7761 254.18 32.6987 252.553 32.5936C252.276 32.6138 251.97 32.636 251.692 32.6562C251.933 32.8469 252.209 32.9883 252.504 33.0722C252.643 33.0621 252.832 33.3558 252.812 33.4691C252.783 33.5532 252.735 33.6295 252.672 33.6922C252.609 33.7549 252.532 33.8024 252.448 33.831C252.196 33.9045 251.931 33.9238 251.67 33.8876C249.318 33.5507 246.93 33.5644 244.582 33.9283C244.126 33.9294 243.685 34.0929 243.338 34.3895C242.992 34.6861 242.762 35.0965 242.69 35.5473L243.728 36.3941C244.761 37.2756 245.904 38.0192 247.128 38.6062C247.756 39.1754 248.834 39.7957 248.965 41.6028ZM184.078 42.6918C183.638 42.9526 183.211 43.2355 182.799 43.5395L177.736 47.6252C176.841 48.3611 176.003 49.1209 175.103 49.8012C172.988 51.4364 170.834 52.9068 168.757 54.679C166.681 56.4512 165.337 57.5552 163.484 58.9477C162.141 60.0517 160.853 61.1516 159.337 62.1843C157.152 63.9087 154.862 65.4943 152.479 66.9316C152.229 66.9498 151.95 67.3335 151.938 67.5579C151.806 68.796 152.052 70.0454 152.646 71.1398C154.434 70.3948 156.203 69.763 157.876 68.9704C160.955 67.5957 163.956 66.0524 166.865 64.3475C169.627 62.8201 172.218 61.0011 174.594 58.9218L175.458 58.1322C177.003 56.8818 178.425 55.4867 179.705 53.9661C179.82 53.8328 179.907 53.6783 179.962 53.5112C180.017 53.3442 180.039 53.1679 180.025 52.9925L179.933 49.4217L179.826 47.9482C178.732 48.6428 177.766 49.1882 176.861 49.7851C175.235 50.8537 174.563 51.21 173.782 51.211C175.034 50.3932 176.182 49.6668 177.33 48.9404C178.477 48.2141 179.835 47.696 180.238 45.9339C180.55 46.3863 180.818 46.6183 181.272 46.3338C181.726 46.0492 182.663 45.5058 183.359 45.0918C184.055 44.6778 184.564 43.998 184.078 42.6918ZM42.6621 77.4952C42.0608 77.454 41.4603 77.5849 40.9307 77.8728L35.785 79.6727C35.0771 79.9198 34.3631 80.0836 33.6532 80.303C32.2571 80.6841 30.9186 81.0889 29.5225 81.47C29.3388 81.4992 29.153 81.5127 28.967 81.5104L22.705 83.699C22.5377 83.7642 22.3754 83.8414 22.2193 83.93C23.9374 84.0204 25.6587 83.8291 27.3151 83.3635C27.5043 83.3082 27.7031 83.2937 27.8983 83.3211C28.6759 83.2645 29.4995 83.4561 30.3129 83.5087C31.1264 83.5613 32.563 83.7362 33.7118 83.7924C34.8605 83.8485 35.8346 83.8056 36.8681 83.8142C37.6111 83.7126 38.3676 83.8326 39.043 84.159C39.2435 84.2597 39.4713 84.2922 39.6919 84.2515C40.1362 84.2192 40.5386 83.9943 41.0582 83.8446C40.9752 82.7048 41.5371 81.6018 41.3112 80.4164C41.295 80.194 41.501 79.9554 41.5959 79.7249L42.6621 77.4952ZM184.617 39.7458C184.436 39.8306 184.266 39.9369 184.11 40.0622L179.594 43.6051C176.95 45.6421 174.501 47.665 171.944 49.7516C170.014 51.2336 168.024 52.6641 166.064 54.1204C164.499 55.2405 162.907 56.3904 161.284 57.4868C160.273 58.1753 159.171 58.7586 158.16 59.447C155.917 61.1106 153.515 62.5491 150.991 63.7419C150.441 63.9111 149.947 64.2255 149.56 64.652C149.173 65.0785 148.909 65.6014 148.794 66.1657C148.82 66.5271 148.68 66.9007 148.586 67.5224L149.716 66.9371C150.104 66.8177 150.446 66.5794 150.693 66.2557C150.94 65.932 151.079 65.5391 151.092 65.132C151.078 64.9374 151.315 64.7524 151.519 64.486L152.134 65.6431C152.481 65.4222 152.723 65.2928 152.961 65.1078C154.344 64.1687 155.614 63.2098 157.107 62.2347C158.599 61.2597 159.124 60.8022 160.074 60.0344C161.023 59.2666 162.12 58.2365 163.173 57.3494C164.225 56.4623 164.706 56.1757 165.471 55.561C169.143 52.6945 172.788 49.83 176.462 46.9913L178.759 45.1751C179.603 44.4988 180.385 43.7431 181.396 43.0546C182.407 42.3662 182.831 42.0558 183.487 41.4771C184.143 40.8983 184.519 40.7032 184.617 39.7458ZM64.569 73.9165C64.1975 73.8673 63.8227 73.8478 63.4481 73.8583C62.8093 73.9048 62.1706 73.9513 61.5217 73.8588C59.4666 74.0083 57.4292 74.0169 55.3978 74.1088C55.108 74.1196 54.8305 74.2285 54.6106 74.4177C54.01 75.1667 53.5427 76.0138 53.2294 76.9218C53.5904 76.8955 53.7571 76.8834 53.9616 77.0083C55.0447 76.9294 56.1142 77.0473 57.1755 77.0539C58.8696 76.9306 60.5562 77.0873 62.2306 77.0772C62.5129 77.0725 62.7835 76.9632 62.99 76.7704C63.5958 75.8879 64.0587 74.9598 64.6523 73.9104L64.569 73.9165ZM62.317 77.8815C62.0115 77.9037 61.7616 77.9219 61.5015 77.8011C61.2414 77.6803 60.6128 77.8658 60.1407 77.9001C58.2956 77.8667 56.4486 77.8055 54.55 77.8039C54.094 77.781 53.637 77.8142 53.1892 77.903C52.9318 78.0063 52.715 78.1904 52.5712 78.4277C52.4273 78.6649 52.3643 78.9425 52.3915 79.2187C52.4279 79.7192 52.9218 79.5994 53.2591 79.6307C55.14 79.7733 57.0209 79.9159 58.8761 80.0883C60.7313 80.2608 61.0428 80.322 62.1015 78.3723C62.2249 78.2223 62.3256 78.0549 62.4003 77.8754L62.317 77.8815ZM40.0454 88.7256L40.0211 88.392L38.8981 88.306C38.5581 88.358 38.2145 88.383 37.8705 88.3808C36.8505 88.1756 35.8542 87.9127 34.8105 87.765C33.7668 87.6174 31.9949 87.4389 30.475 87.27C29.9991 87.2356 29.5345 87.108 29.1076 86.8944C28.7524 86.6706 28.3322 86.5731 27.9149 86.6179L19.849 87.0372C19.849 87.0372 19.6546 87.0514 19.5435 87.0594C19.5991 87.1285 19.6696 87.1839 19.7497 87.2217C19.8299 87.2594 19.9175 87.2784 20.006 87.2773C22.1965 87.4533 24.3592 87.6313 26.5199 87.7815C26.8918 87.7522 27.2658 87.7981 27.6198 87.9164C27.9737 88.0347 28.3003 88.2229 28.5801 88.47C28.7664 88.5964 28.9844 88.6677 29.2093 88.6758C30.0147 88.6172 30.8302 88.6976 31.6396 88.6945C33.1216 88.7264 34.435 88.7426 36.0281 88.7665L40.0454 88.7256ZM181.134 52.4926C182.105 51.6394 183.056 50.8994 183.918 50.082C184.179 49.8169 184.341 49.4694 184.377 49.0984C184.304 48.0975 184.231 47.0966 184.158 46.0958C184.166 45.9001 184.152 45.7042 184.116 45.5119C184.116 45.5119 183.866 45.5301 183.81 45.5341C182.875 46.1053 181.941 46.7043 181.148 47.321C181.047 47.413 180.964 47.5243 180.906 47.6485C180.848 47.7727 180.816 47.9073 180.81 48.0443C180.7 48.7482 180.686 49.4638 180.769 50.1714C180.642 50.9642 180.77 51.777 181.134 52.4926ZM50.5542 84.6628L50.2487 84.685L50.1476 83.2949C49.7386 83.1928 49.3228 83.1203 48.9034 83.078C48.2369 83.1265 47.5981 83.173 46.9594 83.2195C45.8207 83.3024 45.6263 83.3165 45.4492 84.3356C45.3426 84.6643 45.2069 84.9828 45.0439 85.2874C45.3301 85.3703 45.624 85.4238 45.921 85.4472C46.532 85.4027 47.1429 85.3583 47.7539 85.3138C49.4601 85.3573 51.1961 85.4266 52.9003 85.4423C53.789 85.3776 54.0248 85.1648 54.1287 84.2909C54.1003 83.9016 54.0821 83.6514 53.6317 83.6003L51.8856 83.392C51.6993 83.3676 51.5106 83.4114 51.354 83.5152C51.1974 83.619 51.0836 83.776 51.0333 83.9571C50.8872 84.2013 50.7272 84.4369 50.5542 84.6628ZM185.257 48.5312C185.454 48.4709 185.644 48.3915 185.826 48.2942L189.428 45.2371C189.499 45.1713 189.555 45.0908 189.592 45.0013C189.629 44.9117 189.646 44.8152 189.642 44.7184L189.453 42.1329C187.985 43.0503 186.783 43.8085 185.422 44.6622C185.316 44.7565 185.231 44.8722 185.173 45.0017C185.115 45.1312 185.085 45.2715 185.086 45.4134C185.105 46.4461 185.174 47.3913 185.257 48.5312ZM195.029 34.3485C194.848 34.4032 194.676 34.4815 194.515 34.5815C193.376 35.4191 192.209 36.2586 191.099 37.122C190.904 37.2457 190.76 37.4344 190.691 37.6548C190.507 38.5788 190.444 39.5229 190.504 40.4633C191.622 39.7111 192.609 39.0803 193.563 38.3681C194.048 38.094 194.444 37.687 194.706 37.1949C195.007 36.2783 195.117 35.3095 195.029 34.3485ZM139.526 72.3183C139.589 73.1801 139.645 73.9586 139.702 74.737C139.759 75.5155 140.007 75.4695 140.641 75.3674C141.276 75.2653 141.391 75.3128 141.77 75.1455C142.149 74.9782 143.003 74.8322 143.69 74.6704C143.41 73.5169 143.526 72.4185 143.439 71.223C141.886 71.7552 140.646 71.9852 139.526 72.3183ZM151.104 67.982C150.306 68.1388 149.55 68.4603 148.883 68.9262C148.685 69.0816 148.544 69.2982 148.481 69.5424C148.321 70.4717 148.39 71.4263 148.684 72.3226C148.933 73.0591 149.107 73.1581 149.821 72.9944C150.535 72.8306 151.299 72.5794 152.122 72.3798C151.824 72.122 151.282 71.9658 151.746 71.4289C151.746 71.4289 151.729 71.2065 151.719 71.0675L151.614 69.6218L151.104 67.982ZM138.624 72.5796C137.454 72.6078 136.294 72.7957 135.175 73.138C135.098 73.1581 135.027 73.1962 134.968 73.2491C134.908 73.302 134.862 73.3682 134.834 73.4423C134.637 73.8821 134.536 74.3586 134.538 74.8403C134.539 75.322 134.643 75.798 134.842 76.2367C136.091 76.1457 137.286 76.0588 138.47 75.8329C138.886 75.8026 139.003 75.4866 138.949 75.1272L138.624 72.5796ZM147.335 69.9053C146.479 69.8473 145.628 70.0869 144.928 70.5836C144.756 70.6894 144.609 70.8306 144.496 70.9979C144.383 71.1651 144.307 71.3546 144.272 71.5536C144.184 72.4958 144.33 73.4453 144.697 74.3176C145.79 74.1752 146.851 73.8524 147.838 73.3623L147.335 69.9053ZM79.5569 75.0057L79.3185 74.7995C78.8742 74.8318 78.4157 74.6696 77.9632 74.5907C75.7647 74.3035 75.7647 74.3035 74.1162 75.8209C73.7754 76.1252 73.4942 76.4811 73.0525 76.9325C74.4911 77.1352 75.8721 77.3142 76.9714 77.4578C77.2274 77.4784 77.4815 77.3999 77.6813 77.2384C78.216 76.5287 78.8299 75.7574 79.4458 75.0138L79.5569 75.0057ZM135.512 114.981C135.5 114.815 135.494 114.731 135.491 114.703L132.916 111.537C132.902 111.342 132.606 111.112 132.409 111.099C131.5 110.814 130.544 110.703 129.594 110.773C129.588 110.94 129.6 111.108 129.63 111.273C130.552 112.691 131.699 113.949 133.028 114.995C133.12 115.022 133.219 115.015 133.306 114.974C133.995 115.126 134.709 115.131 135.401 114.99L135.512 114.981ZM190.54 44.4015C190.867 44.2574 191.182 44.0848 191.479 43.886C192.328 43.2652 193.144 42.5909 194.131 41.9601C194.265 41.8795 194.375 41.7638 194.449 41.6255C194.522 41.4873 194.557 41.3316 194.549 41.1751C194.522 40.8137 194.496 40.4523 194.638 40.1065L194.557 38.9944C193.247 39.6498 192.004 40.433 190.847 41.3327C190.634 41.4681 190.48 41.6789 190.415 41.9231C190.275 42.7484 190.317 43.5945 190.54 44.4015ZM47.7463 77.1532C47.9129 77.141 47.9806 77.3038 48.0659 77.3255C49.3712 77.2306 50.6487 77.1376 51.954 77.0426C52.1169 77.0291 52.2699 76.9586 52.3862 76.8434C52.9656 76.0881 53.3604 75.2075 53.5391 74.272C52.2661 74.3858 51.0028 74.5898 49.7587 74.8826C48.5252 75.1959 48.1138 76.0643 47.7422 77.0976L47.7463 77.1532ZM189.682 38.371L189.117 38.6637L186.21 40.9155C185.756 41.2149 185.425 41.6685 185.278 42.1927C185.132 42.7169 185.18 43.2766 185.413 43.7685C186.761 43.1425 188.035 42.3654 189.208 41.452C189.371 41.3516 189.489 41.1931 189.539 41.0087C189.74 40.1445 189.788 39.2519 189.682 38.371ZM143.653 66.8753C142.54 67.3196 141.48 67.7042 140.423 68.1445C140.118 68.3218 139.871 68.583 139.711 68.8969C139.551 69.2109 139.484 69.5643 139.519 69.9152C139.541 70.0506 139.592 70.1798 139.668 70.2942C139.744 70.4086 139.844 70.5056 139.96 70.579C140.076 70.6523 140.206 70.7003 140.342 70.7198C140.477 70.7393 140.616 70.7299 140.748 70.6921C141.483 70.4429 142.187 70.1402 142.891 69.8374C143.113 69.8212 143.405 69.6044 143.422 69.4634C143.733 68.6377 143.813 67.7429 143.653 66.8753ZM51.1015 80.2908C49.8904 80.0052 48.6346 79.9636 47.4073 80.1684C46.5464 80.2311 46.4353 80.2391 46.2481 81.1192C46.2704 81.425 46.2926 81.7308 46.0751 82.1939C47.2794 82.246 48.4003 82.3041 49.5193 82.3345C50.6383 82.3648 50.5469 82.2597 50.8451 81.3716L51.1015 80.2908ZM127.138 106.955L127.712 108.31C128.011 109.068 128.597 109.677 129.342 110.004C130.088 110.332 130.932 110.352 131.692 110.061C131.699 109.968 131.692 109.874 131.671 109.783C131.309 109.027 130.973 108.241 130.585 107.514C130.535 107.437 130.471 107.371 130.395 107.318C130.319 107.266 130.234 107.23 130.144 107.211C129.216 107.111 128.289 107.038 127.138 106.955ZM43.7185 78.2009C44.2905 77.9981 44.8755 77.8342 45.4696 77.7102C46.6915 77.6212 47.0752 76.7548 47.4088 75.5846C46.2131 76.035 45.1523 76.4196 44.1213 76.8301C43.906 76.9164 43.7222 77.0662 43.5941 77.2597C43.1313 78.0502 42.8702 78.9428 42.8341 79.8584C43.7783 79.7897 44.6392 79.727 45.595 79.4339C46.5508 79.1407 46.259 78.9663 46.272 78.3784C45.8817 78.3786 45.4918 78.4069 45.1056 78.4633C44.8742 78.5604 44.6193 78.5873 44.3727 78.5407C44.1261 78.494 43.8986 78.3759 43.7185 78.2009ZM148.08 65.1835C146.923 65.3601 145.819 65.7938 144.85 66.4527C144.915 67.3424 144.305 68.1693 144.636 69.2632C145.528 68.8629 146.341 68.5242 147.15 68.13C147.391 67.9914 147.574 67.7694 147.663 67.5057C147.833 66.7667 147.921 66.0615 148.08 65.1835ZM7.57834 86.8402C11.0125 87.8214 14.5931 88.1854 18.154 87.9152C17.9596 87.9293 17.8485 87.9374 17.7374 87.9455C15.7969 87.7514 13.8584 87.585 11.9179 87.3908C11.6909 87.4016 11.4652 87.3504 11.265 87.2427C11.1881 87.1935 11.1246 87.1261 11.0798 87.0465C11.0351 86.9669 11.0105 86.8775 11.0084 86.7862C11.0402 86.6987 11.0923 86.62 11.1605 86.5567C11.2288 86.4934 11.3111 86.4473 11.4007 86.4223C11.6229 86.4061 11.9006 86.3859 12.1505 86.3677C12.3858 86.3016 12.6132 86.2101 12.8286 86.0948L12.8104 85.8446C12.571 85.7621 12.3236 85.7051 12.0722 85.6747C12.0722 85.6747 12.0722 85.6747 11.8778 85.6888C11.2113 85.7374 10.5609 86.0083 9.90047 86.1402C9.09072 86.2322 8.30416 86.4693 7.57834 86.8402ZM133.693 111.48C133.674 111.573 133.681 111.669 133.714 111.758C134.602 112.84 135.492 113.949 136.436 115.026C136.703 115.223 137.032 115.318 137.363 115.294C137.694 115.27 138.006 115.128 138.241 114.895L137.341 113.646C137.029 113.194 136.691 112.771 136.405 112.289C136.146 111.828 135.719 111.486 135.213 111.335C134.707 111.184 134.162 111.236 133.693 111.48ZM126.259 75.6875C126.579 75.9033 126.94 76.0503 127.32 76.1188C127.7 76.1874 128.09 76.1762 128.465 76.0859C130.048 75.9706 130.048 75.9707 130.02 74.4355C129.982 73.9072 129.97 73.7404 129.329 73.7591C128.688 73.7778 128.163 73.844 127.579 73.8864C126.385 73.9734 126.385 73.9734 126.274 75.1274L126.259 75.6875ZM133.846 73.2907C132.989 73.2255 132.128 73.2882 131.291 73.4766C131.291 73.4766 130.982 73.8345 130.938 74.0053L130.87 76.1345C131.897 76.0597 132.786 75.995 133.647 75.9323L133.846 73.2907ZM51.5845 82.3239C52.3652 82.5998 53.1875 82.7385 54.0154 82.7339C54.1054 82.7189 54.1906 82.683 54.2642 82.6291C54.3378 82.5752 54.3979 82.5049 54.4395 82.4236C54.8004 81.818 55.0002 81.1299 55.0199 80.4249C54.1867 80.4855 53.3632 80.2939 52.5795 80.2671C52.4709 80.2639 52.363 80.2862 52.2646 80.3322C52.1661 80.3782 52.0798 80.4466 52.0125 80.532C51.6756 81.0756 51.526 81.7148 51.5865 82.3517L51.5845 82.3239ZM318.867 24.2458C318.368 23.5275 318.251 23.4521 317.884 23.7863L312.633 28.3608C312.291 28.6373 311.978 28.9396 311.637 29.2438C314.291 27.9638 316.731 26.2776 318.867 24.2458ZM51.8142 77.8074C50.5923 77.8963 49.4258 77.9812 48.2872 78.0641C48.0917 78.0504 47.8954 78.0647 47.704 78.1065C47.2874 78.1368 46.8835 78.7252 46.9613 79.027C47.0391 79.3288 47.4916 79.4076 47.8269 79.4112L50.6162 79.3759C51.5367 79.3648 51.8219 79.0645 51.8142 77.8074ZM116.077 75.4223L115.871 76.0521C115.631 76.964 115.956 77.2198 116.77 77.2724C117.583 77.325 117.865 77.3604 118.397 77.3776C118.929 77.3948 119.147 77.323 119.591 77.2907L119.478 75.7338L116.077 75.4223ZM42.0245 82.5446C42.8021 82.488 43.4686 82.4394 44.1351 82.3909C44.8016 82.3424 45.2182 82.3121 45.421 81.2632C45.6239 80.2143 45.3543 80.3458 44.7413 80.3624C44.128 80.3655 43.5156 80.4101 42.9083 80.4958C42.8019 80.5247 42.7026 80.575 42.6163 80.6438C42.5301 80.7126 42.4589 80.7983 42.407 80.8957C42.2531 81.4658 42.1527 82.0042 42.0245 82.5446ZM138.752 68.9648C138.575 68.9542 138.397 68.9671 138.224 69.0032C137.46 69.2544 136.701 69.5612 135.936 69.7846C135.759 69.8121 135.59 69.8779 135.441 69.9776C135.293 70.0773 135.168 70.2084 135.075 70.3617C134.982 70.5149 134.924 70.6866 134.905 70.8647C134.886 71.0429 134.906 71.223 134.964 71.3926C135.868 71.1591 136.717 70.9296 137.707 70.7178C138.696 70.506 138.906 69.9318 138.835 68.9588L138.752 68.9648ZM243.011 21.5493C243.072 21.0559 243.102 20.559 243.098 20.0617C243.074 19.7281 241.376 18.6498 241.051 18.7853C240.778 18.9361 240.568 19.1793 240.459 19.4712C240.413 19.5781 240.393 19.6946 240.402 19.8108C240.41 19.9269 240.446 20.0393 240.507 20.1385C241.349 20.5803 242.078 21.0024 243.011 21.5493ZM130.266 71.6785C130.25 71.4561 130.236 71.2615 130.23 71.1781C130.162 71.0975 130.078 71.032 129.983 70.9859C129.889 70.9399 129.785 70.9142 129.68 70.9107C128.875 70.9693 128.069 71.0279 127.264 71.0865C126.903 71.1128 126.597 71.135 126.544 71.5581C126.491 71.9812 126.813 72.1814 127.285 72.147C127.757 72.1127 128.757 72.0399 129.507 71.9854C129.769 71.9476 130.026 71.882 130.274 71.7898L130.266 71.6785ZM134.151 70.194C133.262 70.2587 132.443 70.514 131.622 70.7414C131.205 70.7717 131.182 71.2206 131.328 71.6851C131.911 71.6427 132.494 71.6003 133.05 71.5598C133.605 71.5194 134.278 71.5543 134.159 70.3052L134.151 70.194ZM243.791 14.6171C244.401 14.9365 244.958 15.3485 245.443 15.8384C246 16.5805 246.698 16.5855 247.607 16.7989C247.231 16.2393 247.028 15.751 246.496 15.7338C246.051 15.6638 245.637 15.46 245.309 15.1494C244.841 14.8481 244.499 14.3699 243.791 14.6171ZM120.78 73.2913C121.021 73.4101 121.282 73.4857 121.55 73.5147C121.827 73.4945 122.105 73.4743 122.411 73.4521C123.355 73.3834 124.327 73.3126 125.188 73.25C125.188 73.25 125.398 73.067 125.503 72.9755C125.608 72.884 125.485 72.7253 125.233 72.7157C124.981 72.7061 124.983 72.7339 124.872 72.7419C124.15 72.7945 123.455 72.845 122.761 72.8955C122.067 72.9461 121.706 72.9724 121.206 73.0087C120.706 73.0451 121.057 73.2711 120.78 73.2913ZM185.785 39.2975C186.396 38.8618 186.877 38.5752 187.327 38.235C187.777 37.8948 188.221 37.4712 188.641 37.1052C189.061 36.7393 189.761 36.7722 189.833 35.8446L185.943 38.7829C185.943 38.7829 185.874 38.9836 185.785 39.2975ZM134.251 69.2644C133.363 69.1584 132.469 69.404 131.76 69.9488C132.626 69.8836 133.472 69.6512 134.251 69.2644ZM255.138 27.8218L254.999 27.8319L255.651 29.126C255.682 29.2217 255.734 29.3095 255.803 29.3833C255.871 29.4572 255.955 29.5153 256.048 29.5537C256.141 29.5921 256.241 29.6098 256.341 29.6057C256.442 29.6016 256.54 29.5757 256.63 29.5299L255.138 27.8218ZM320.142 22.1966C320.225 23.3364 320.235 23.4754 321.338 23.6746L320.142 22.1966ZM145.807 65.0136C144.751 65.0904 144.751 65.0904 144.371 65.6212C144.912 65.3861 145.345 65.187 145.807 65.0136ZM246.962 40.5468L246.817 41.6194C247.235 41.2256 247.292 40.8582 246.962 40.5468ZM243.471 17.1278C243.491 17.4059 243.507 17.6283 243.92 17.5424C243.978 17.4934 244.023 17.4311 244.052 17.3609C244.081 17.2908 244.093 17.2146 244.086 17.139C243.923 16.8155 243.673 16.8337 243.471 17.1278ZM194.595 32.9826L194.582 32.8158L194.053 33.2177L194.065 33.3845L194.595 32.9826ZM191.764 34.7538C191.486 34.774 191.375 34.7821 191.332 34.9529C191.288 35.1238 191.344 35.1198 191.352 35.231C191.36 35.3422 191.56 35.0202 191.764 34.7538Z" fill="#BD9D63"/>
<path d="M254.64 67.0149L249.096 70.6325L245.451 73.1058C245.293 73.2468 245.101 73.3443 244.894 73.3887C244.686 73.4332 244.471 73.4231 244.269 73.3595C244.233 73.2759 244.216 73.1857 244.218 73.0948C244.219 73.0039 244.24 72.9145 244.279 72.8323C244.318 72.7502 244.374 72.6773 244.443 72.6185C244.512 72.5596 244.593 72.5162 244.681 72.4911C245.863 71.8298 246.984 71.0654 248.032 70.2068C249.075 69.572 250.058 68.8855 251.039 68.1713C252.02 67.4571 252.943 66.7191 253.896 66.0069L255.357 64.9783L255.777 65.7583L256.914 64.5016C254.444 63.4665 252.141 62.0706 250.079 60.3595C250.25 60.3115 250.43 60.3108 250.6 60.3575C250.771 60.4041 250.926 60.4964 251.048 60.6244C252.616 61.7792 254.327 62.7256 256.139 63.4401C256.471 63.6584 256.866 63.7611 257.263 63.7322C257.659 63.7033 258.035 63.5446 258.333 63.2804C258.477 63.2382 258.628 63.2272 258.777 63.2481C259.468 63.9244 259.468 63.9244 260.637 63.8674C260.631 64.0169 260.594 64.1637 260.529 64.2985C260.464 64.4333 260.372 64.5532 260.259 64.6506C260.145 64.7481 260.013 64.8211 259.87 64.8649C259.727 64.9088 259.577 64.9226 259.428 64.9056C259.091 64.891 258.755 64.9586 258.449 65.1026C258.143 65.2465 257.877 65.4625 257.673 65.732C257.242 66.2214 256.782 66.6842 256.295 67.118C256.11 67.2993 255.956 67.5087 255.837 67.7383C255.373 68.7407 254.741 69.6563 253.968 70.4456C253.925 70.5355 253.865 70.6159 253.79 70.6822L249.856 73.4001C249.511 73.6488 249.132 73.8161 248.79 74.0926C246.863 75.5673 244.682 76.6736 242.354 77.3558C239.628 78.253 236.909 79.2614 234.044 80.1686C232.68 80.6033 231.303 80.8712 229.905 81.2245L229.056 81.4539C228.182 81.7132 227.337 81.9983 226.322 82.2399C225.003 82.5315 223.571 82.8034 222.361 83.0592C222.232 83.0803 222.102 83.0897 221.972 83.0875C221.639 83.1117 221.333 83.134 221.273 82.6912C221.213 82.2483 221.546 82.2241 221.848 82.1463C224.589 81.4437 227.163 80.7533 229.846 80.027C230.558 79.8354 231.272 79.6717 232.011 79.4781C232.317 79.4558 232.606 79.2112 232.906 79.1056C235.327 78.2306 237.74 77.2445 240.225 76.4767C242.184 75.8972 244.074 75.1036 245.859 74.1102C247.255 73.3378 248.619 72.5119 249.951 71.6324C251.057 70.9133 252.119 70.1266 253.129 69.2769C253.491 68.9025 253.781 68.4645 253.985 67.9849C254.233 67.6832 254.453 67.3584 254.64 67.0149Z" fill="#BD9D63"/>
<path d="M227.777 30.5118C226.711 30.0643 225.564 29.8433 224.408 29.8626C222.827 29.824 221.246 29.9391 219.687 30.2062C218.77 30.2729 217.826 30.3416 216.922 30.5751C215.993 30.6923 215.073 30.8712 214.169 31.1109C212.893 31.4836 211.648 31.9573 210.447 32.5277C208.988 33.1928 207.598 34.0486 206.175 34.823L205.233 35.3107L205.067 35.3229C205.055 35.1561 205.034 34.878 205.225 34.8083C205.95 34.2558 206.705 33.7436 207.486 33.2742C208.778 32.5377 210.109 31.8718 211.473 31.2791C212.668 30.7375 213.923 30.3367 215.211 30.0848C217.004 29.7866 218.753 29.268 220.526 29.083C222.232 28.7214 223.979 28.5942 225.719 28.7051C226.843 28.8734 227.872 29.4317 228.626 30.2823C228.783 30.5166 228.862 30.7946 228.851 31.0764C228.898 32.1455 228.729 33.2129 228.354 34.215C228.324 34.3728 228.336 34.5358 228.388 34.6876C228.279 36.7037 228.549 38.7225 229.184 40.6388C229.626 41.7246 229.85 42.8822 230.239 43.9998C230.488 44.9369 230.825 45.8482 231.246 46.7214C231.845 47.7334 232.512 48.7027 233.244 49.6224C234.046 50.6945 234.904 51.7237 235.814 52.7055C236.91 53.7754 238.074 54.7737 239.298 55.6941C241.607 57.368 243.73 59.2841 245.633 61.4098C246.332 62.1974 247.13 62.8101 247.854 63.54C248.096 63.8018 248.503 64.0238 248.254 64.4332C248.004 64.8426 247.655 64.6445 247.236 64.2558L242.776 60.1364C241.21 58.6688 239.525 57.3331 237.739 56.1429C236.611 55.5413 235.667 54.6439 235.01 53.5466C234.577 52.8106 234.049 52.1348 233.439 51.5367C231.786 49.8994 230.468 47.9539 229.561 45.8099C228.572 43.488 227.781 41.0867 227.196 38.6314C226.974 37.1217 226.863 35.5978 226.864 34.0719C226.826 33.9843 226.818 33.8861 226.844 33.7939C227.699 32.8931 227.471 31.6799 227.777 30.5118Z" fill="#BD9D63"/>
<path d="M208.453 53.0757C206.471 53.5286 204.536 54.1653 202.673 54.9777C201.514 55.4859 200.4 56.0905 199.342 56.7852C197.572 57.7805 195.742 58.7242 193.974 59.7473C192.206 60.7703 190.767 61.7135 189.163 62.6967C187.56 63.6798 186.682 64.2747 185.423 65.0092C183.147 66.3486 180.9 67.6861 178.586 68.8886C176.273 70.0911 174.516 70.8897 172.464 71.8496C171.871 72.1443 171.243 72.3298 170.648 72.5966C168.404 73.5985 166.163 74.6559 163.885 75.5763C162.636 76.0585 161.15 76.3623 159.976 76.7272C159.976 76.7272 159.699 76.7474 159.588 76.7555C159.335 76.6627 159.066 76.6249 158.798 76.6444C158.53 76.6639 158.269 76.7404 158.032 76.8687C158.032 76.8687 157.727 76.8909 157.394 76.9152C157.584 76.7322 157.798 76.5756 158.03 76.4496C158.351 76.3977 158.676 76.374 159.002 76.3789C160.212 76.1219 161.391 75.7362 162.52 75.2285C165.234 74.1645 167.922 72.7391 170.623 71.4805C172.242 70.7198 173.8 69.8797 175.388 69.0654C176.976 68.2511 178.085 67.7512 179.482 67.0067C180.88 66.2621 182.351 65.3725 183.768 64.5147C185.185 63.657 186.432 62.7557 187.875 61.8681C188.543 61.4562 189.181 61.0184 189.847 60.5787C191.901 59.2819 194.035 58.1183 196.238 57.095C197.425 56.5335 198.539 55.7257 199.695 55.1106C200.851 54.4954 201.796 54.0633 202.849 53.5674C203.518 53.244 204.206 52.9606 204.909 52.7187C205.744 52.4597 206.598 52.2667 207.464 52.1415C208.094 51.9839 208.337 52.2457 208.453 53.0757Z" fill="#BD9D63"/>
<path d="M100.47 106.492C100.269 106.534 100.064 106.549 99.8592 106.536C97.4278 105.735 94.9686 104.936 92.5629 104.105C90.1573 103.274 87.4976 102.405 85.0284 101.467C83.5634 100.903 82.1399 100.14 80.8058 99.4544C80.2402 99.1444 79.6515 98.8789 79.0449 98.6602C77.7896 98.326 76.5692 97.872 75.4006 97.3044C73.9253 96.6191 72.3997 96.048 70.8372 95.5962C69.8091 95.2797 68.783 94.9911 67.8044 94.5871C66.8978 94.2275 65.9399 94.0142 64.9665 93.9552C64.55 93.9855 64.1056 94.0179 63.9141 93.3051C64.0808 93.293 64.259 93.0564 64.4534 93.0423C64.8111 93.0426 65.1681 93.0727 65.5208 93.1323C68.3652 93.8143 71.1613 94.6846 73.8906 95.7373C75.3535 96.2737 76.771 96.9531 78.1844 97.5769C79.5978 98.2007 81.3606 99.0227 83.0023 99.7137C84.644 100.405 86.7719 101.256 88.759 102.09C90.0234 102.585 91.3136 103.05 92.576 103.517C93.8384 103.984 95.1902 104.528 96.5102 105.019C97.8302 105.51 99.029 105.87 100.26 106.284L100.496 106.462L100.47 106.492Z" fill="#BD9D63"/>
<path d="M226.141 34.8791C225.919 35.2865 225.606 35.1975 225.241 35.1682C223.986 35.0999 222.728 35.1168 221.475 35.2186C219.73 35.3824 217.997 35.6579 216.287 36.0434C213.373 36.6747 210.466 37.3894 207.59 38.1577C206.303 38.5029 205.058 39.0407 203.805 39.4673C203.333 39.5016 202.875 39.7306 202.411 39.8762C201.947 40.0217 201.598 40.2148 201.629 41.0231C201.846 42.7305 202.258 44.4072 202.858 46.0204C203.211 46.9879 203.452 47.9923 203.578 49.0144C202.628 47.8747 201.999 46.5025 201.753 45.0387C201.317 43.6451 201.162 42.2868 200.853 40.7163C200.591 40.5676 200.111 41.2733 199.833 40.511C200.376 40.3038 201.04 40.2274 200.978 39.3656C202.01 39.7377 202.644 39.2443 203.385 38.6873C204.123 38.2963 204.909 38.0042 205.723 37.8184C206.786 37.4616 207.88 37.1583 208.947 36.8571C210.489 36.1977 212.131 35.8042 213.804 35.6931C213.863 35.7161 213.925 35.7257 213.988 35.7211C214.05 35.7166 214.111 35.698 214.165 35.6668C214.621 35.3468 215.163 35.171 215.72 35.1624C217.513 34.8642 219.336 34.5918 221.24 34.2855C222.835 34.068 224.459 34.2777 225.946 34.8932L226.141 34.8791Z" fill="#BD9D63"/>
<path d="M237.896 52.1626C237.725 52.0403 237.565 51.9022 237.42 51.7501C235.817 49.9482 234.46 47.9418 233.384 45.7832C232.476 44.1232 231.793 42.3495 231.353 40.5089C231.233 39.6427 231.17 38.7698 231.163 37.8955C230.932 35.1709 231.186 32.4272 231.913 29.7915C232.198 29.1068 232.522 28.4393 232.884 27.7923C232.932 27.7246 232.993 27.6683 233.065 27.6274C233.137 27.5866 233.217 27.5623 233.3 27.5563C233.382 27.5503 233.465 27.5628 233.542 27.5928C233.619 27.6227 233.688 27.6695 233.745 27.7297C233.809 27.78 233.861 27.8431 233.899 27.9149C233.937 27.9867 233.96 28.0657 233.966 28.1468C233.972 28.2279 233.961 28.3093 233.934 28.3859C233.906 28.4624 233.864 28.5325 233.808 28.5915C233.196 29.5579 232.799 30.6449 232.644 31.7786C232.5 32.4402 232.4 33.1103 232.343 33.7849C232.268 35.4393 232.193 37.0938 232.259 38.766C232.362 40.8137 232.907 42.8147 233.858 44.6307C234.344 45.5457 234.69 46.4707 235.171 47.3301C235.913 48.8115 236.782 50.2258 237.768 51.557C237.893 51.7302 237.992 51.9208 238.061 52.1227L237.896 52.1626Z" fill="#BD9D63"/>
<path d="M196.677 92.6703C196.771 92.0486 197.184 91.9626 197.539 91.853C199.591 91.2843 201.676 90.7693 203.724 90.1451C205.773 89.5209 207.103 89.0048 208.763 88.4089C210.422 87.813 211.477 87.3449 212.978 86.8723C213.936 86.4922 214.838 85.9847 215.66 85.3635C216.194 85.0027 216.748 84.6731 217.319 84.3763C217.569 84.3581 217.918 84.1651 218.083 84.5164C218.159 84.6649 218.179 84.8355 218.139 84.9973C218.1 85.1591 218.004 85.3014 217.868 85.3985L216.463 86.423C214.392 87.7646 212.099 88.7265 209.69 89.2637C209.496 89.2778 209.302 89.292 209.107 89.3061C206.708 90.0956 204.31 90.9129 201.907 91.6469C200.787 91.9799 199.622 92.0926 198.496 92.3423C198.135 92.3686 197.816 92.5874 197.457 92.6415C197.198 92.6774 196.937 92.687 196.677 92.6703Z" fill="#BD9D63"/>
<path d="M226.796 40.4214C226.595 40.464 226.39 40.4789 226.185 40.4659C223.942 40.3357 221.692 40.4994 219.492 40.953C218.204 41.1079 216.924 41.3316 215.66 41.6231C213.659 42.1321 211.664 42.7245 209.701 43.3704C208.257 43.8668 206.995 44.5456 205.502 45.1294C205.335 45.1415 205.21 45.3463 205.071 45.3564C204.932 45.3665 204.655 45.3867 204.583 45.1683C204.507 45.0027 204.493 44.815 204.545 44.6401C204.545 44.6401 204.767 44.6239 204.893 44.447C206.22 43.8753 207.598 43.244 208.871 42.7042C210.144 42.1644 211.589 41.6958 213.065 41.253C214.54 40.8103 215.153 40.7936 216.198 40.5778C216.587 40.5495 216.991 40.3524 217.404 40.2664C217.816 40.1805 218.348 40.1977 218.838 40.0223C219.061 40.033 219.285 40.0167 219.504 39.9738C220.927 39.5367 222.407 39.3159 223.896 39.3188C224.919 39.286 225.925 39.5965 226.752 40.201L226.796 40.4214Z" fill="#BD9D63"/>
<path d="M219.984 20.4862L219.666 19.9504C221.035 19.4131 222.505 19.1821 223.972 19.2737C225.31 18.4776 226.739 18.9325 228.248 18.5712L229.433 19.8824C229.238 19.8966 229.127 19.9047 229.072 19.9087C227.99 19.6308 226.854 19.6459 225.78 19.9526C223.692 20.412 221.602 20.8437 219.551 21.4401C218.068 21.9194 216.627 22.5197 215.243 23.2349C214.299 23.6949 213.423 24.3177 212.571 24.8828L212.057 25.1158C212.077 24.9106 212.155 24.7153 212.282 24.5526C212.408 24.39 212.578 24.2668 212.772 24.1973C214.759 22.8731 216.89 21.7803 219.124 20.9401C219.455 20.8022 219.77 20.6294 220.064 20.4246C220.377 20.3109 220.696 20.2131 221.019 20.1314C221.325 20.1092 221.674 20.3073 221.896 19.8999C221.463 19.7078 221.257 19.9464 221.021 20.1592C220.786 20.372 220.176 20.053 219.984 20.4862Z" fill="#BD9D63"/>
<path d="M227.818 46.4118C227.469 46.5287 227.111 46.6201 226.749 46.6852C223.849 47.0177 221.022 47.8181 218.378 49.0552C217.7 49.3282 217.082 49.6527 216.433 49.9514C216.262 50.0642 216.065 50.1313 215.861 50.1461C215.657 50.161 215.452 50.1232 215.267 50.0363C215.243 49.8422 215.284 49.6456 215.382 49.4768C215.481 49.308 215.632 49.1764 215.813 49.1022C216.596 48.7377 217.405 48.3435 218.22 48.0326C220.012 47.3432 221.833 46.6517 223.659 46.0437C224.565 45.8143 225.486 45.6537 226.416 45.5635C227.072 45.376 227.382 45.8007 227.818 46.4118Z" fill="#BD9D63"/>
<path d="M98.1558 90.0304C97.9888 90.1639 97.7853 90.2437 97.5722 90.2592C97.359 90.2747 97.1462 90.2252 96.9616 90.1173C94.6812 89.4727 92.3968 88.7726 90.1184 88.1558C88.6358 87.7327 87.2643 87.3014 85.5975 87.0315C84.5935 86.9038 83.5818 86.8466 82.5698 86.8605C82.4232 86.8865 82.2743 86.8974 82.1255 86.8929C81.9857 86.8204 81.8775 86.6989 81.8215 86.5516C81.8332 86.4593 81.8669 86.371 81.9196 86.2943C81.9722 86.2175 82.0424 86.1545 82.1244 86.1104C82.4301 86.0173 82.7527 85.9938 83.0686 86.0416C84.7652 86.3374 86.4599 86.6054 88.1348 86.9865C89.8097 87.3677 92.0326 87.9885 93.9696 88.5183C95.0235 88.805 96.0495 89.0937 97.0776 89.4101C97.4538 89.5861 97.8145 89.7936 98.1558 90.0304Z" fill="#BD9D63"/>
<path d="M156.764 105.861C157.092 106.535 156.823 106.667 156.47 106.804C155.689 107.197 154.878 107.563 154.065 107.902C152.672 108.422 151.232 108.807 149.765 109.053C147.021 109.581 144.225 109.784 141.434 109.659C140.938 109.661 140.447 109.564 139.989 109.373C142.766 109.171 145.543 108.969 148.473 108.56C151.354 108.073 154.148 107.163 156.764 105.861Z" fill="#BD9D63"/>
<path d="M230.354 51.3419C229.172 51.5957 228.042 51.7897 226.941 52.0096L222.185 53.0265L221.907 53.0467C221.574 53.071 221.146 53.3257 220.999 52.8334C220.851 52.341 221.289 52.2253 221.642 52.0878C222.598 51.7946 223.52 51.4201 224.508 51.1805C225.989 50.8212 227.477 50.5452 228.962 50.2414C229.791 50.1252 230.049 50.2182 230.354 51.3419Z" fill="#BD9D63"/>
<path d="M116.296 98.3807C116.795 97.9531 117.324 98.3059 117.796 98.2715C119.32 98.496 120.856 98.8873 122.399 98.9986C124.899 99.2079 127.445 99.2742 129.966 99.3981C130.683 99.3729 131.397 99.5021 132.06 99.7768C131.851 100.351 131.392 100.189 131.057 100.185C129.519 100.157 127.952 100.104 126.408 99.9925C125.52 100.057 124.609 99.816 123.595 99.6942C121.481 99.4287 119.34 99.1653 117.225 98.872C117.019 98.7194 116.602 98.7497 116.296 98.3807Z" fill="#BD9D63"/>
<path d="M98.6296 94.2441C98.3297 94.1848 98.0345 94.1035 97.7465 94.0009C96.3093 93.4347 94.8681 92.813 93.4012 92.221C93.2546 92.1591 93.1014 92.114 92.9447 92.0865C91.9545 91.907 90.9921 91.7255 90.117 91.5936C89.671 91.5974 89.2257 91.6298 88.7839 91.6906C88.6299 91.7301 88.47 91.7417 88.3118 91.725C88.1452 91.7371 87.9088 91.5586 87.871 91.4217C87.8331 91.2847 87.8447 91.0602 88.1183 90.9844C88.342 90.852 88.5983 90.785 88.858 90.7908C89.5727 90.8074 90.2856 90.8676 90.993 90.9708C93.159 91.4116 95.2744 92.0724 97.3065 92.9429C97.9176 93.1526 98.4577 93.5297 98.8654 94.0313L98.6296 94.2441Z" fill="#BD9D63"/>
<path d="M229.929 55.0901C228.672 55.4611 227.41 55.7765 226.155 56.1753C224.9 56.5741 223.738 57.1058 222.511 57.5026C221.348 58.0682 220.154 58.5657 218.934 58.9927L218.918 58.7703C218.906 58.6035 219.165 58.333 219.328 58.2653C221.437 57.3292 223.519 56.3951 225.66 55.5126C226.473 55.1739 227.38 54.9682 228.226 54.711C228.823 54.5274 229.463 54.5497 230.046 54.7742L229.929 55.0901Z" fill="#BD9D63"/>
<path d="M247.969 66.2705C247.661 66.5416 247.334 66.7896 246.99 67.0126C246.264 67.4008 245.533 67.7056 244.805 68.066C244.078 68.4263 243.596 68.7129 242.973 68.9818C242.625 69.1482 242.26 69.2778 241.885 69.3685C241.885 69.3685 241.43 69.2618 241.422 69.1506C241.394 69.0485 241.391 68.9413 241.413 68.8377C241.434 68.7341 241.48 68.6371 241.546 68.5547C241.681 68.41 241.862 68.3176 242.058 68.2939C242.957 68.0808 243.795 67.6662 244.51 67.0813C245.055 66.6699 245.636 66.3095 246.247 66.0046C246.583 65.8021 246.902 65.5732 247.202 65.3202C247.436 65.0796 247.669 64.839 248.025 65.1206C248.38 65.4021 248.325 65.7974 247.969 66.2705Z" fill="#BD9D63"/>
<path d="M228.904 58.2671C230.21 56.9402 231.909 56.0715 233.749 55.7903C233.875 55.7523 234.008 55.7426 234.138 55.762C234.443 55.7398 234.763 55.9122 234.732 56.2499C234.7 56.5875 234.395 56.6097 234.173 56.6259C232.687 56.7866 231.272 57.3432 230.074 58.2378C229.768 58.4713 229.514 58.7658 229.328 59.1027C229.124 59.3691 228.947 59.6334 228.652 59.4034C228.356 59.1734 228.619 58.9586 228.603 58.7362C228.685 58.5689 228.786 58.4115 228.904 58.2671Z" fill="#BD9D63"/>
<path d="M250.804 54.9686C250.788 54.7462 250.611 54.6193 250.77 54.4959C250.803 54.2962 250.885 54.1077 251.009 53.9475C252.044 52.7024 253.304 51.6627 254.722 50.8823C255.243 51.5152 255.208 51.7973 254.627 52.2588L252.187 54.0294C251.644 54.2367 251.25 54.5728 250.804 54.9686Z" fill="#BD9D63"/>
<path d="M237.974 59.3679C236.836 59.842 235.475 59.5498 234.48 60.4607L234.84 61.1891C234.146 61.2396 233.702 61.272 233.522 60.726C233.48 60.619 233.46 60.5047 233.463 60.3897C233.465 60.2747 233.491 60.1615 233.538 60.0565C233.585 59.9516 233.652 59.8571 233.736 59.7786C233.82 59.7001 233.919 59.6391 234.027 59.5993C234.85 59.0817 235.783 58.7649 236.751 58.6743C237.005 58.6135 237.272 58.6512 237.499 58.7799C237.726 58.9087 237.896 59.1188 237.974 59.3679Z" fill="#BD9D63"/>
<path d="M91.7889 94.2389C91.9608 94.1931 92.1398 94.1801 92.3166 94.2005C93.581 94.6954 94.8197 95.2201 96.0604 95.7727C96.6083 96.0123 97.1047 96.3115 97.5991 96.583C97.7948 96.6712 97.9652 96.8071 98.0948 96.9784C98.2243 97.1496 98.3088 97.3507 98.3405 97.5632C96.0657 96.6447 93.8738 95.5325 91.7889 94.2389Z" fill="#BD9D63"/>
<path d="M239.192 60.7605C239.564 60.6172 239.949 60.5142 240.343 60.4532C240.815 60.4189 241.123 60.8157 240.844 61.1993C240.547 61.6501 240.152 62.0276 239.688 62.3034C239.225 62.5792 238.705 62.7461 238.168 62.7916C238.168 62.7916 238.168 62.7916 238.157 62.6525C238.079 61.9595 239.273 61.8726 239.192 60.7605Z" fill="#BD9D63"/>
<path d="M169.235 103.052C170.465 103.466 171.276 104.637 172.623 104.734C172.672 105.401 172.244 105.656 171.758 105.496C170.727 104.904 169.86 104.064 169.235 103.052Z" fill="#BD9D63"/>
<path d="M219.084 20.3839C217.41 20.7852 215.734 21.1587 213.868 21.602C215.484 20.7718 217.256 20.2905 219.069 20.1893L219.084 20.3839Z" fill="#BD9D63"/>
<path d="M115.171 108.999C115.171 108.999 115.365 108.985 115.42 108.981C116.675 109.337 117.901 109.695 119.136 110.164C117.726 110.167 116.343 109.773 115.145 109.029L115.171 108.999Z" fill="#BD9D63"/>
<path d="M115.14 108.974C114.256 109.485 113.482 108.815 112.686 108.621C112.686 108.621 112.666 108.343 112.451 108.079C113.419 108.16 114.352 108.475 115.17 108.999L115.14 108.974Z" fill="#BD9D63"/>
<path d="M221.9 11.5148C221.456 11.5471 221.04 11.9687 220.484 11.6179C220.7 11.5044 220.937 11.4367 221.181 11.419C221.425 11.4013 221.669 11.4339 221.9 11.5148Z" fill="#BD9D63"/>
<path d="M91.3463 93.9079C91.1242 93.9241 91.0408 93.9301 91.0131 93.9322C90.8212 93.8275 90.6502 93.6883 90.5086 93.5217C90.8242 93.6385 91.0009 93.7653 91.3463 93.9079Z" fill="#BD9D63"/>
<path d="M219.471 11.8872L219.304 11.8993L219.29 11.7047C219.29 11.7047 219.429 11.6946 219.457 11.6926L219.471 11.8872Z" fill="#BD9D63"/>
<path d="M260.011 36.858C259.122 36.9227 258.307 36.8423 257.527 36.8711C255.095 36.9863 252.68 37.3399 250.317 37.9268C249.54 37.9834 248.816 38.3994 248.108 38.6466C248.044 38.6828 247.972 38.705 247.898 38.7117C247.824 38.7185 247.75 38.7096 247.68 38.6857C247.61 38.6619 247.545 38.6235 247.491 38.5731C247.436 38.5227 247.393 38.4615 247.364 38.3933C247.171 38.044 247.326 37.8651 247.676 37.6998C247.863 37.6264 248.055 37.5658 248.25 37.5183C249.735 37.2146 251.219 36.883 252.706 36.6071C254.194 36.3311 255.717 36.1643 257.24 35.9976C257.818 35.8999 258.404 35.8572 258.99 35.8702C259.125 35.8547 259.261 35.8693 259.39 35.9129C259.519 35.9565 259.636 36.0282 259.734 36.1226C259.831 36.2171 259.907 36.332 259.955 36.4592C260.003 36.5863 260.022 36.7225 260.011 36.858Z" fill="#BD9D63"/>
<path d="M254.115 35.6382C253.781 35.6624 253.531 35.6806 253.309 35.6968C250.693 35.378 248.04 35.6667 245.553 36.5407C245.109 36.5731 244.748 36.5993 244.692 36.2121C244.636 35.8249 244.901 35.6379 245.231 35.558C245.56 35.4782 246.405 35.1931 247.01 35.0652C248.984 34.6142 251.016 34.4663 253.036 34.6266C253.57 34.6716 254.048 34.7207 254.115 35.6382Z" fill="#BD9D63"/>
<path d="M254.392 45.2044C254.894 44.8046 255.393 44.377 255.899 44.0328C256.404 43.6885 256.454 43.9923 256.482 43.9903C256.539 44.091 256.573 44.2031 256.581 44.3185C256.589 44.4339 256.572 44.5497 256.53 44.6576C256.047 45.3076 255.506 45.9339 254.993 46.5582C254.993 46.5582 254.819 46.8503 254.685 46.916C254.55 46.9818 254.171 47.1491 253.99 46.9666C253.809 46.7841 253.704 46.4843 253.795 46.1982C253.851 46.047 253.935 45.9079 254.044 45.7888L254.609 45.1049L254.392 45.2044Z" fill="#BD9D63"/>
</g>
</svg>
