<svg width="157" height="156" viewBox="0 0 157 156" fill="none" xmlns="http://www.w3.org/2000/svg">
<g opacity="0.5" clip-path="url(#clip0)">
<path d="M44.8019 63.4025C44.42 63.0206 43.9661 62.7107 43.5636 62.3494C41.1589 60.13 38.7542 57.89 36.3598 55.6602C35.4102 54.7107 34.4606 53.7611 33.5213 52.8218C33.2391 52.5196 33.0181 52.1658 32.8705 51.7798C32.7834 51.6308 32.7386 51.4608 32.7409 51.2884C32.7432 51.116 32.7925 50.9476 32.8835 50.8014C32.9745 50.6551 33.1037 50.5366 33.2573 50.4586C33.4109 50.3806 33.583 50.346 33.755 50.3586C34.92 50.2495 36.0889 50.5342 37.0751 51.1672C38.8288 52.1591 40.6133 53.1201 42.3052 54.1944C44.6367 55.6819 46.9477 57.19 49.1763 58.801C50.8168 59.968 52.303 61.3513 53.8818 62.6006C54.9033 63.3957 55.9557 64.1805 57.039 64.8932C57.4235 65.0932 57.8445 65.2131 58.2764 65.2454C61.957 65.8792 65.689 66.3585 69.339 67.1674C75.2216 68.3631 80.9879 70.0785 86.5699 72.2933C87.5496 72.6966 88.5705 73.0176 89.5812 73.4106C89.8876 73.4736 90.1722 73.6162 90.4064 73.8241C90.6249 74.0798 90.903 74.2778 91.2161 74.4005C91.5291 74.5232 91.8674 74.5668 92.2009 74.5275C96.4067 74.8218 100.616 75.1265 104.829 75.4415C105.513 75.529 106.206 75.5299 106.89 75.4444C106.663 75.3204 106.467 75.1655 106.251 75.0724C103.411 73.8809 100.654 72.4996 97.9991 70.9381C94.3474 68.9128 90.7677 66.733 87.0852 64.7386C85.0221 63.6019 82.8255 62.8053 80.68 61.6685C77.4345 60.187 74.2764 58.5204 71.2212 56.677C69.622 55.5925 68.0332 54.4977 66.434 53.4132C65.5474 52.8821 64.8475 52.0886 64.4312 51.1428C63.9865 50.0393 64.4284 49.0813 65.6139 49.1963C66.952 49.2583 68.2813 49.45 69.5831 49.7687C73.4419 50.7778 77.1547 52.2832 80.6286 54.247C83.4982 55.7434 86.2842 57.3955 88.9742 59.1957C94.9171 63.3887 100.706 67.7774 106.576 72.0631C108.565 73.6693 110.826 74.905 113.25 75.7108C114.983 76.1873 116.766 76.5093 118.756 76.9552C118.637 76.703 118.503 76.4584 118.353 76.2228C116.763 74.3035 115.009 72.5075 113.625 70.4648C111.217 67.2005 109.84 63.2926 109.672 59.2448C109.619 58.7823 109.432 58.345 109.134 57.9865C108.091 56.6554 106.945 55.386 105.933 54.024C104.116 51.5889 102.34 49.1265 100.604 46.6365C100.217 46.0371 99.9632 45.3619 99.8596 44.6565C99.8044 44.4703 99.8004 44.2729 99.848 44.085C99.8956 43.8971 99.993 43.7256 100.13 43.5887C100.267 43.4517 100.438 43.3543 100.626 43.3067C100.814 43.2591 101.012 43.2631 101.198 43.3183C101.708 43.3759 102.202 43.5342 102.652 43.7842C104.946 45.0278 106.976 46.7079 108.627 48.7297C109.473 49.8028 110.454 50.7833 111.476 51.9083C111.846 51.5377 112.145 51.2392 112.433 50.951C113.152 50.1186 113.983 49.3912 114.904 48.7898C115.752 48.2082 116.725 47.8333 117.745 47.6951C118.765 47.5569 119.803 47.6592 120.778 47.9939C121.573 48.2299 122.346 48.5345 123.088 48.9041C123.304 48.9877 123.497 49.1213 123.651 49.2938C123.805 49.4663 123.916 49.6729 123.974 49.8964C124.033 50.12 124.038 50.3541 123.988 50.5796C123.939 50.8051 123.836 51.0154 123.689 51.1932C123.434 51.6445 123.073 52.027 122.637 52.3081C122.201 52.5893 121.704 52.7608 121.187 52.808C120.568 52.869 119.94 53.0022 119.342 53.022C117.435 53.174 116.171 55.6563 115.905 56.9753C115.923 57.2815 116.052 57.5709 116.267 57.7901C116.876 58.564 117.536 59.3071 118.146 60.0397C121.367 63.9404 124.588 67.8411 127.789 71.7417C129.43 73.7127 131.021 75.7351 132.775 77.6135C134.855 79.8898 137.274 81.83 139.947 83.3646C142.474 84.7596 144.971 86.2061 147.457 87.6629C147.772 87.843 148.042 88.0929 148.247 88.3933C148.451 88.6938 148.583 89.0368 148.635 89.3961C148.686 89.7553 148.654 90.1214 148.542 90.466C148.43 90.8107 148.24 91.125 147.988 91.3846C147.855 91.4866 147.701 91.5579 147.537 91.5933C147.373 91.6287 147.203 91.6274 147.04 91.5895C146.402 91.378 145.785 91.1116 145.193 90.7932C141.068 88.7261 136.87 86.731 132.682 84.7256C131.372 84.095 129.99 83.619 128.639 83.0708C128 82.8226 127.433 82.6672 126.764 83.2538C126.263 83.5655 125.694 83.7521 125.105 83.7978L112.667 86.2855C110.081 86.8076 107.422 87.2163 104.928 87.9344C102.435 88.6525 100.159 89.7729 97.7788 90.7282C97.5364 90.8431 97.3343 91.0282 97.1986 91.2596C97.063 91.491 97 91.7579 97.0179 92.0259C96.9998 92.7775 97.1416 93.5247 97.434 94.2181C97.7264 94.9116 98.1626 95.5354 98.7138 96.0482C99.7163 97.1228 100.967 97.9351 102.356 98.4136C104.563 99.2412 106.811 100.151 108.946 101.051C109.726 101.423 110.454 101.895 111.112 102.456C111.68 102.9 111.629 103.405 111.083 103.847C110.257 104.461 109.26 104.801 108.229 104.823C104.817 105.098 101.424 104.061 98.7425 101.924C97.9996 101.386 97.2465 100.88 96.5551 100.313C94.8549 98.7979 93.6099 96.84 92.9603 94.6591C92.4147 95.2046 91.8587 95.6162 91.4369 96.1825C89.9345 97.9946 88.4527 99.8479 86.9916 101.701C86.6697 102.148 86.3842 102.62 86.138 103.112C85.4318 104.421 84.3586 105.494 83.05 106.2C82.8506 106.399 82.5979 106.535 82.3223 106.593C82.0468 106.65 81.7602 106.627 81.4973 106.525C81.2344 106.423 81.0064 106.247 80.8409 106.019C80.6753 105.791 80.5794 105.52 80.5646 105.238C80.3408 104.277 80.3114 103.282 80.4781 102.311C80.8031 100.893 81.3215 99.5273 82.0186 98.2517C84.2923 94.6475 87.2169 91.4989 90.6436 88.9661C90.7096 88.8689 90.7934 88.7851 90.8906 88.7191C91.6419 88.3903 92.3167 87.9097 92.8728 87.3074C93.4289 86.7051 93.8543 85.9941 94.1224 85.219C95.4382 82.7676 97.5411 80.8319 100.093 79.723L101.237 79.2401C100.621 79.0055 99.9505 78.958 99.309 79.1034C96.0695 79.6751 93.0838 81.2207 90.7495 83.5342C88.092 86.1092 85.5998 88.8496 83.2878 91.7391C81.5182 94.0868 79.7074 96.5375 77.9275 98.9367C76.5282 100.79 75.1909 102.705 73.7193 104.487C72.6555 105.757 71.5033 106.951 70.2712 108.059C69.706 108.746 68.9008 109.194 68.0175 109.311C67.1342 109.429 66.2384 109.207 65.51 108.691C65.3429 108.172 65.2838 107.624 65.3362 107.082C65.3886 106.54 65.5515 106.014 65.8149 105.538C66.4748 104.065 67.2993 102.673 68.2727 101.387C69.8984 99.2658 71.4312 97.0724 72.9537 94.8687C75.0495 91.9514 77.4546 89.2695 80.1271 86.8696C83.5104 83.7291 87.459 81.2585 91.7646 79.5878C92.496 79.3105 93.1655 78.9301 93.8659 78.6012L93.814 78.3022C93.2204 78.2532 92.6237 78.2559 92.0308 78.3101C89.1349 78.6924 86.2675 79.2635 83.447 80.0197C78.1525 81.4487 73.0687 83.5623 68.3242 86.3071C67.3149 86.9242 66.2746 87.4691 65.2549 88.0552C63.2267 89.1457 61.5279 90.7589 60.3344 92.728C59.0386 94.9321 57.8976 97.2291 56.571 99.4022C55.9945 100.344 55.3552 101.245 54.6575 102.1C54.3206 102.496 53.8711 102.779 53.3687 102.913C52.8664 103.046 52.3348 103.024 51.8445 102.849C51.4106 102.654 51.0448 102.333 50.7944 101.929C50.5439 101.524 50.4203 101.054 50.4396 100.579C50.3784 99.1916 50.6709 97.8122 51.2896 96.5707C51.8653 95.4582 52.5029 94.3665 53.1095 93.2644C54.1352 91.3849 55.5573 89.7515 57.2775 88.4772C57.7207 88.187 58.0991 87.8086 58.3892 87.3655C58.1094 87.3802 57.8307 87.4107 57.5544 87.4571L48.6106 89.7125C45.8182 90.4405 43.0053 91.1891 40.1097 91.752C37.8723 92.4108 35.5316 92.6521 33.2046 92.4641C32.6775 92.3829 32.1781 92.1733 31.7504 91.8539C31.2345 91.4615 31.2235 90.9565 31.7383 90.5655C33.014 89.384 34.5027 88.4557 36.1256 87.8297C38.0111 87.2654 39.8448 86.5464 41.7511 86.0645C44.5125 85.3674 47.2741 84.7733 50.046 84.169C52.2717 83.6498 54.47 83.1924 56.6409 82.7968C60.7601 82.0027 64.8059 80.8706 68.7373 79.412C69.8465 79.0692 70.9366 78.6682 72.0032 78.2105C71.3951 78.3024 70.7975 78.4046 70.1894 78.4553L60.914 79.4734C58.9146 79.6768 56.9153 79.942 54.9262 80.1351C54.1018 80.2165 53.2667 80.1432 52.4423 80.2451C51.1541 80.398 49.8658 80.5508 48.5984 80.8274C46.5169 81.2781 44.4457 81.7597 42.3953 82.3238C39.974 83.011 37.5734 83.8014 35.1728 84.5506C32.7722 85.2997 30.0626 86.2546 27.466 86.9108C25.1341 87.4827 22.7702 87.9166 20.3865 88.2101C19.0124 88.3319 17.6281 88.2885 16.2633 88.0808C14.9025 87.914 14.6437 87.0787 15.6317 86.0081C15.8943 85.7152 16.204 85.4683 16.5481 85.2775C20.8416 82.7642 25.5078 80.9476 30.3734 79.8953C32.4446 79.4756 34.5366 79.097 36.7933 78.6569C36.5163 78.5638 36.2339 78.4877 35.9478 78.429C33.1333 78.0644 30.3603 77.8235 27.4941 77.3454C23.4427 76.8977 19.4683 75.9076 15.6777 74.4019C13.2854 73.4548 11.0676 72.1138 9.11664 70.4348C8.54321 69.9441 8.06385 69.3531 7.70212 68.6909C7.51663 68.3944 7.41792 68.0521 7.41723 67.7028C7.41654 67.3536 7.51389 67.0114 7.6982 66.7153C7.88252 66.4191 8.1464 66.1808 8.45982 66.0276C8.77324 65.8744 9.12363 65.8123 9.47111 65.8484C10.7907 66.0152 12.1307 66.0376 13.4607 66.2765C16.9178 67.0827 20.3097 68.1486 23.6077 69.4651C28.4711 71.2099 33.4501 72.6116 38.5078 73.6601C41.9514 74.3451 45.5081 74.7726 49.0237 75.3031C49.8998 75.426 50.7887 75.4202 51.6624 75.2861C51.2591 75.1044 50.8418 74.9556 50.4146 74.8412C47.3856 74.1207 44.406 73.2042 41.4948 72.0975C40.0923 71.5802 38.6384 71.1762 37.2358 70.6383C34.8948 69.7177 32.5536 68.7559 30.2434 67.7632C28.5726 67.0394 26.9326 66.2847 25.3029 65.4578C24.6835 65.1201 24.1253 64.6802 23.6519 64.1568C23.5177 63.9942 23.4173 63.8063 23.3568 63.6044C23.2964 63.4025 23.277 63.1906 23.2999 62.9813C23.3713 62.4763 23.9383 62.4874 24.3711 62.4468C26.1968 62.3191 28.029 62.6034 29.7322 63.2787C31.1038 63.7857 32.4651 64.3029 33.8264 64.8408C34.4075 65.0896 35.0623 65.1016 35.6509 64.8742C38.2215 64.1216 40.8851 63.7298 43.5654 63.71C43.9571 63.6899 44.3282 63.6904 44.7199 63.691L44.8019 63.4025ZM143.551 88.513L142.768 88.2027L142.727 88.4088L143.572 88.4925C144.109 89.4827 145.161 89.5048 146.079 89.7431L143.551 88.513ZM47.1797 61.0247L47.6648 61.5098L47.8089 61.3657C47.6541 61.2109 47.3963 61.1384 47.19 61.0144C46.3432 59.896 45.3096 58.9321 44.1351 58.1653C44.816 59.4148 45.8797 60.4135 47.1694 61.0144L47.1797 61.0247ZM41.2469 56.6359C40.966 56.5133 40.6937 56.3717 40.432 56.2121C39.555 55.6028 38.7089 54.9419 37.8114 54.3738C36.6146 53.6094 35.3664 52.8965 33.9428 52.0493C35.2342 54.1641 44.3366 62.2989 46.7399 63.4876C46.1618 62.9096 45.7903 62.538 45.4084 62.1561C44.7684 61.5161 44.7684 61.5161 44.6026 60.8975C45.3971 61.4655 46.1916 62.0335 47.017 62.6118C47.4423 62.8626 47.8431 63.153 48.2138 63.4793C48.9157 64.1812 49.6989 64.0586 50.5749 63.9258C50.341 63.633 50.0246 63.4171 49.6669 63.3061C48.6284 63.0574 47.6742 62.5366 46.9025 61.7974C45.3131 60.3728 43.7135 58.9584 42.1448 57.5338C41.8185 57.2485 41.5116 56.9416 41.2262 56.6152C41.9277 57.0697 42.6499 57.5242 43.3411 57.9684C43.8351 57.3712 43.3916 57.1748 43.1026 56.927L39.8416 54.1601C40.5466 54.4168 41.2104 54.7755 41.8118 55.2245C45.5059 58.1363 49.1588 61.0686 52.8014 64.0319C53.1084 64.2903 53.4733 64.4706 53.8648 64.5573C54.2562 64.644 54.6627 64.6346 55.0491 64.5297C54.2959 63.9618 53.7285 63.559 53.1919 63.1254C51.1075 61.4939 49.1261 59.7389 46.9594 58.2311C44.215 56.3307 41.306 54.6363 38.4998 52.8183C37.6581 52.3053 36.7904 51.8363 35.9004 51.4129C35.5851 51.2365 35.2301 51.1436 34.8693 51.1431C34.5084 51.1426 34.1537 51.2346 33.8389 51.4101C35.4276 52.4224 36.9853 53.3213 38.4607 54.3438C39.3996 54.9944 40.3181 55.8718 41.2778 56.6668L41.2469 56.6359ZM63.8012 87.7543C65.1195 87.0139 66.4791 86.3149 67.8077 85.4818C71.2203 83.4443 74.843 81.7802 78.6134 80.5181L82.0544 79.2653C81.3013 79.2601 80.5516 79.3632 79.8284 79.5715C73.9483 81.016 68.2577 83.139 62.8709 85.8976C58.7602 87.8045 55.3879 91.0028 53.2665 95.0066C53.0415 95.4542 52.7837 95.8845 52.4952 96.294C51.7664 97.564 51.4045 99.012 51.4496 100.477C51.5055 100.742 51.596 100.999 51.7186 101.241C51.9048 101.046 52.0736 100.836 52.2228 100.612C52.7777 99.3557 53.3326 98.099 53.8462 96.8215C54.7129 94.438 56.2226 92.3425 58.2083 90.7667C60.3645 89.1162 62.6632 87.6603 65.0775 86.416C65.2211 86.3593 65.3693 86.3147 65.5205 86.2827C65.2962 86.5681 65.0203 86.809 64.7072 86.9928C64.4277 87.2412 64.1631 87.5059 63.9146 87.7854C63.546 87.8853 63.1901 88.0266 62.8535 88.2065C61.8031 88.906 60.763 89.6158 59.7642 90.3875C57.9552 91.6634 56.4915 93.3682 55.5037 95.3498C54.548 97.4203 53.6438 99.5012 52.7293 101.592C52.6675 101.654 52.7605 101.809 52.8124 102.108C53.2159 101.996 53.601 101.826 53.9559 101.604C54.4281 101.192 54.8341 100.709 55.1599 100.173C55.8695 98.9889 56.5069 97.7735 57.134 96.5477C58.5522 93.2442 60.7518 90.3362 63.5439 88.0735C63.6263 88.0323 63.7292 87.9088 63.8528 87.8059L63.8012 87.7543ZM82.6731 71.9169C82.1846 72.0112 81.6861 72.0452 81.189 72.0179C79.8693 71.7687 78.5391 71.4268 77.2607 71.1776C73.5697 70.5541 69.8788 69.9718 66.1467 69.4101C63.7653 69.0873 61.4763 68.5688 59.1259 68.3594C56.2704 68.1184 53.3842 68.0732 50.5186 67.9868C47.653 67.9005 45.169 67.9692 42.4787 67.9758C42.1534 67.9952 41.8298 68.0361 41.51 68.0982C42.9335 68.9059 44.4924 69.4461 46.1093 69.6918C48.1917 69.8596 50.2638 70.0789 52.3564 70.1952C55.6687 70.3509 58.9879 70.4723 62.3139 70.5593C63.5096 70.5815 64.7367 70.9234 65.9212 70.3169C65.9971 70.297 66.0763 70.2922 66.1541 70.303C66.2319 70.3137 66.3069 70.3396 66.3748 70.3793C67.571 70.7912 68.8342 70.9713 70.0966 70.9101C74.4026 71.0673 78.6718 71.78 82.7983 73.0303C83.9224 73.3926 85.0464 73.7755 86.1704 74.1172C86.5567 74.3042 86.9846 74.3886 87.4125 74.3621C87.8404 74.3356 88.2539 74.1991 88.6131 73.9659C86.963 73.3246 85.4676 72.735 83.9619 72.1763C83.5461 72.0633 83.1221 71.9834 82.6938 71.9375C82.5905 71.8343 82.477 71.7208 82.2914 71.6999C79.8945 70.6827 77.4043 69.9025 74.8565 69.3705C71.3987 68.3853 67.8827 67.6196 64.3294 67.0781C61.1232 66.6511 57.9373 66.0592 54.7003 65.6837C51.9167 65.3088 49.1231 65.0679 46.35 64.7858C43.4119 64.5253 40.4526 64.7019 37.5687 65.3097C37.0779 65.4353 36.5961 65.593 36.1263 65.7819C36.9752 66.545 38.0236 67.0506 39.1484 67.2394C42.4082 67.5273 45.6826 67.6041 48.9511 67.4693C51.9919 67.525 55.0324 67.3746 58.0529 67.6158C61.0733 67.857 64.2901 68.4799 67.4036 68.9583C68.847 69.187 70.2801 69.4673 71.7133 69.7682C74.2289 70.2252 76.652 70.7954 79.1162 71.3039L82.6731 71.9169ZM11.5377 69.562C10.5066 69.2719 9.70136 68.3844 8.29933 68.2382C8.54375 68.6676 8.83466 69.069 9.16681 69.435C10.1461 70.2831 11.1877 71.0564 12.2828 71.7482C15.5229 73.6695 19.0724 75.0104 22.771 75.7103C29.1979 76.9727 35.7062 77.7705 42.2452 78.0975C44.4203 78.2138 46.636 77.9386 48.8314 77.8488C48.4171 77.6948 47.9831 77.6005 47.5425 77.5688C44.223 77.1725 40.8931 76.766 37.5633 76.4006C33.9422 76.0199 30.3498 75.3986 26.81 74.5408C22.7207 73.5023 18.7338 72.0926 14.899 70.3293C13.0838 69.5022 11.4537 68.4486 9.73105 67.4877C10.5361 67.6354 11.3126 67.9114 12.0307 68.3051C13.9326 69.4296 15.9313 70.381 18.0027 71.1479C20.3229 71.9035 22.5917 72.7518 24.9531 73.4457C28.971 74.4799 33.0576 75.2227 37.1809 75.6683C42.2634 76.3452 47.346 77.0222 52.469 77.2044C53.4792 77.2471 54.4583 77.135 55.52 77.1468C59.334 77.3169 63.169 77.7551 66.9724 77.6882C71.3736 77.6427 75.7434 77.1745 80.134 76.9126C81.4327 76.8319 82.7313 76.7512 84.03 76.6911C84.9346 76.7393 85.8416 76.7095 86.7407 76.6021C89.1791 76.1151 91.6804 76.0176 94.1514 76.3133L95.2132 76.3663L95.2334 76.0984C94.3345 75.8425 93.4177 75.6552 92.4908 75.538C88.8321 75.2684 85.159 75.2772 81.5031 75.5641C78.2979 75.8793 75.0303 75.8439 71.8455 75.9529C68.6606 76.0619 65.3518 76.0264 62.0843 76.0116C61.6914 75.9889 61.3014 75.9297 60.9193 75.8348L59.1047 75.4407L59.0223 75.523L59.6414 75.9774C59.4258 76.5852 58.9826 76.6362 58.4672 76.5942C57.354 76.5927 56.2511 76.6221 55.1584 76.5381C51.8493 76.2553 48.5607 75.9313 45.2619 75.6175C44.3547 75.5338 43.4476 75.4707 42.5609 75.3046C40.705 74.931 38.8697 74.4955 37.0241 74.0704C35.1784 73.6452 32.9103 73.2505 30.92 72.619C26.6406 71.2834 22.3918 69.7933 18.1329 68.3753C16.8232 67.9303 15.5238 67.4338 14.1834 67.1227C12.843 66.8116 11.5132 66.7171 10.142 66.5399C9.84462 66.4718 9.53356 66.4986 9.25266 66.6165C8.97177 66.7345 8.73518 66.9377 8.57621 67.1975C8.9445 67.8011 9.48321 68.2825 10.1242 68.5808C10.6194 68.8701 11.0734 69.2212 11.548 69.5517L11.5377 69.562ZM131.58 78.0654L131.735 77.911C131.239 77.23 130.743 76.5284 130.207 75.868C128.73 74.0828 127.212 72.3181 125.736 70.5123C123.867 68.2524 122.133 66.0236 120.295 63.7946C117.486 60.4099 114.616 56.9633 111.746 53.5785C110.218 51.7622 108.649 49.9872 107.08 48.2122C105.78 46.774 104.248 45.5629 102.55 44.6292C102.147 44.3916 101.735 44.0406 101.055 44.287C103.626 47.4344 106.392 50.2624 108.849 53.3374L108.695 53.4918C106.279 50.9116 103.871 48.3246 101.469 45.7307L101.294 45.9056C101.49 46.2461 101.676 46.5762 101.873 46.896C104.645 50.9499 107.637 54.8493 110.836 58.5764C112.653 60.8877 114.47 63.1991 116.339 65.459C118.073 67.5641 119.767 69.7104 121.656 71.6611C124.307 74.4612 127.217 77.0053 130.345 79.2594C132.033 80.5167 133.971 81.3948 136.028 81.8338C135.409 81.3588 135.109 80.441 134.037 80.6044C133.862 80.6351 133.625 80.4183 133.439 80.2738C131.901 79.1069 130.343 77.9606 128.837 76.7423C127.907 76.0079 127.037 75.2001 126.236 74.3268C124.047 71.85 121.9 69.3114 119.753 66.7934C118.978 65.8956 118.214 64.9874 117.471 64.0794C115.417 61.2297 113.175 58.52 110.76 55.9685C110.639 55.8038 110.542 55.6233 110.47 55.4321L110.656 55.2468C111.077 55.5036 111.474 55.7973 111.842 56.1246C112.875 57.1567 113.773 58.3227 114.785 59.5404C116.354 61.4597 117.872 63.4305 119.462 65.3499C120.887 67.0835 122.415 68.7348 123.829 70.4788C125.702 72.9283 127.893 75.1185 130.342 76.9917C130.724 77.3324 131.147 77.7144 131.58 78.0654ZM96.0146 89.561L95.8803 89.3032C96.4575 88.8639 97.0667 88.4686 97.7031 88.1203C101.189 86.4523 104.904 85.3111 108.727 84.7339C111.531 84.3667 114.323 83.9479 117.116 83.5498C116.623 83.3806 116.099 83.3202 115.58 83.3724C114.601 83.4433 113.642 83.4935 112.643 83.6261C107.05 84.037 101.547 85.2442 96.3 87.2113C93.7473 88.1659 91.3889 89.5733 89.3378 91.366C87.9482 92.7556 86.4864 94.073 85.169 95.5348C83.5044 97.2339 82.298 99.3279 81.6625 101.622C81.3922 102.625 81.3339 103.675 81.4915 104.703C82.2624 103.127 82.9202 101.747 83.6709 100.46C84.8478 98.1754 86.5172 96.1816 88.5589 94.6221L93.2029 91.1549C93.3676 90.9902 93.6252 90.9184 93.8311 90.795C93.1304 91.6614 92.3403 92.4514 91.4739 93.1521C90.4856 93.9754 89.4249 94.747 88.4469 95.6012C85.7152 98.1837 83.666 101.403 82.4814 104.973C82.3888 105.065 82.4612 105.261 82.441 105.571C83.4558 105.174 84.3225 104.473 84.9223 103.564C85.6116 102.606 86.1874 101.576 86.8148 100.577C89.046 97.3263 91.6734 94.3661 94.6365 91.765C96.5718 89.9535 99.1066 89.3591 101.507 88.342C102.566 87.8321 103.669 87.4196 104.804 87.1096C107.359 86.4947 109.956 86.0859 112.594 85.5123L115.994 84.7955C114.273 84.9065 112.552 85.1 110.841 85.345C109.131 85.59 107.482 85.8351 105.833 86.2246C104.155 86.6466 102.501 87.157 100.877 87.7536C99.1566 88.2357 97.5908 88.9138 96.0146 89.561ZM72.912 79.4692L72.8602 79.2939C71.8813 79.5503 70.9024 79.786 69.9649 80.1249C67.791 80.8125 65.6585 81.6857 63.4431 82.2083C58.6104 83.3252 53.7465 84.2668 48.8931 85.2806L47.842 85.4853C44.2869 86.1917 40.8043 87.197 37.3424 88.2437C35.8184 88.6588 34.4142 89.4266 33.2431 90.4851L43.0937 87.9836C42.0652 88.4773 40.988 88.8627 39.8793 89.1336L33.8314 91.0528C33.5356 91.1703 33.2497 91.3112 32.9765 91.4742C33.716 91.9109 34.5926 92.052 35.4302 91.8693C37.5634 91.5114 39.6965 91.1124 41.8089 90.6308C44.2613 90.0776 46.6722 89.3181 49.1453 88.8268C52.9718 88.0345 56.7409 86.9895 60.4278 85.6984C61.7569 85.257 63.0549 84.7435 64.3633 84.2608L64.2908 84.0236C58.009 85.8292 51.5719 87.0488 45.062 87.6667C45.6521 87.3789 46.2798 87.1751 46.9268 87.0611C49.4103 86.6419 51.8527 86.2639 54.2536 85.7003C57.5097 84.9626 60.7866 84.2456 63.9599 83.2192C66.7211 82.3365 69.358 81.0414 72.0571 79.9319L72.912 79.4692ZM66.4909 49.7851L66.378 50.1457C71.1849 52.7498 76.4544 54.5196 80.922 57.752C80.29 57.4946 79.6794 57.187 79.0963 56.8321C78.4774 56.5014 77.8379 56.1707 77.1984 55.8606C76.5589 55.5505 75.9092 55.2713 75.2594 54.9715C74.6096 54.6717 73.8978 54.2687 73.2378 53.9792C72.5777 53.6897 71.9382 53.4208 71.2885 53.1416C70.6387 52.8624 69.9992 52.5523 69.3392 52.2834C68.7587 51.9681 68.1374 51.7348 67.4932 51.5903L67.3699 51.8787L76.6642 57.1792C73.2299 55.8036 70.1039 53.7481 66.6902 52.2901C66.7 52.4233 66.759 52.5482 66.8556 52.6407C71.5246 55.955 76.5193 58.7836 81.7615 61.0824C84.6598 62.4367 87.5375 63.8322 90.3432 65.3615C94.3661 67.5316 98.3687 69.9078 102.392 72.181C103 72.522 103.64 72.7909 104.486 73.2043C104.391 73.0173 104.277 72.8409 104.145 72.6782C103.856 72.4922 103.536 72.3166 103.237 72.1409C101.019 70.767 98.6466 69.6093 96.6035 68.0191C92.7445 65.0659 88.7929 62.2671 84.7795 59.5095C80.908 56.7908 76.8193 54.396 72.5552 52.3496C70.8843 51.5434 69.2134 50.7371 67.5425 49.9514C67.2049 49.8587 66.8599 49.7961 66.5115 49.7645L66.4909 49.7851ZM146.997 90.4143C147.82 89.5909 147.758 89.1166 146.984 88.5899C145.54 87.7221 144.095 86.7924 142.569 86.0688C139.856 84.7973 137.144 83.5051 134.328 82.4808C131.028 81.2394 127.584 80.2864 124.192 79.22C123.764 79.1045 123.33 79.0144 122.892 78.9502L122.81 79.28C124.399 80.1892 126.275 80.2949 127.936 81.029C124.059 80.4464 120.408 78.9984 116.593 78.1685C117.995 77.9643 119.284 78.6567 120.676 78.6071C120.546 78.4218 120.362 78.2811 120.15 78.2043C118.058 77.6496 115.923 77.2776 113.768 77.0927C113.582 77.0718 113.324 77.0818 113.211 77.195C112.717 77.6891 112.109 77.5749 111.511 77.5534L101.604 76.7462C100.707 76.6728 99.8004 76.6509 98.883 76.5981L98.8833 76.8249L100.368 76.9918C98.9144 77.0002 97.4816 76.9054 96.0693 76.8107C94.0901 76.7255 92.111 76.6404 90.1215 76.5655C89.7047 76.5908 89.2909 76.6523 88.8849 76.7493C89.072 77.062 89.3598 77.3019 89.7009 77.4298C90.042 77.5576 90.4161 77.5657 90.7618 77.4528C92.1737 77.3001 93.5753 77.1165 94.9873 76.9845C95.3752 76.9186 95.7744 76.9844 96.1213 77.1716C96.5715 77.5192 97.1321 77.6921 97.6991 77.6582C99.2248 77.8046 100.761 77.9613 102.266 78.1077C103.124 78.222 103.99 78.2543 104.853 78.204C106.265 77.962 107.704 77.912 109.131 78.0552C112.162 78.5541 115.234 78.8264 118.275 79.2325C119.553 79.4198 120.832 79.7308 122.09 80.0211C123.53 80.2594 124.95 80.6059 126.338 81.0577C130.04 82.5161 133.64 84.0775 137.363 85.6803C137.703 85.8147 138.075 85.9183 138.415 86.0322C135.625 84.4264 132.73 83.0105 129.751 81.7942C129.851 81.7377 129.969 81.7231 130.081 81.7534C132.329 82.5811 134.649 83.378 136.774 84.3292C138.558 85.0841 140.229 86.0553 141.952 86.9338C143.334 87.616 144.726 88.2879 146.15 89.0732C146.299 89.0939 146.443 89.1471 146.57 89.229C146.697 89.311 146.804 89.4196 146.885 89.5474C146.966 89.6752 147.018 89.819 147.037 89.9688C147.056 90.1185 147.042 90.2706 146.997 90.4143ZM99.2652 84.721L99.42 84.8758C99.5993 84.8726 99.7782 84.859 99.9559 84.8353C102.12 84.4054 104.294 84.027 106.448 83.5455C110.002 82.8503 113.607 82.4417 117.228 82.3233C118.959 82.202 120.681 82.0498 122.412 81.8872C122.759 81.8239 123.101 81.7313 123.432 81.6103L123.411 81.3011C120.792 80.7409 118.153 80.16 115.441 79.7337C114.163 79.5052 112.864 79.3591 111.565 79.2542C110.916 79.209 110.265 79.2497 109.627 79.3753C108.659 79.5801 107.731 79.9087 106.773 80.165C104.383 80.8709 102.171 82.0764 100.284 83.7019C99.8827 84.0415 99.5843 84.4019 99.2652 84.721ZM55.4965 75.0234L55.5477 74.8276C55.1353 74.7034 54.7228 74.5997 54.3412 74.4652C52.8769 73.9684 51.3818 73.5644 49.9791 72.944C47.2976 71.8065 44.6571 70.566 41.9756 69.4079C40.2739 68.6737 38.5413 68.0323 36.8293 67.3084C34.6634 66.3777 32.5593 65.3853 30.3522 64.434C28.9524 63.7778 27.4541 63.3578 25.9183 63.191C25.6245 63.1103 25.3161 63.0988 25.0175 63.1574C24.7189 63.216 24.4382 63.3432 24.1974 63.5288C24.4126 63.8379 24.6619 64.1217 24.9407 64.3751C25.5434 64.819 26.1857 65.2063 26.8595 65.5321C29.376 66.6488 31.9029 67.7758 34.4812 68.7895C37.0595 69.8031 39.4724 70.5073 41.9372 71.4487C45.8715 72.8592 49.8995 73.991 53.9913 74.8358C54.4894 74.925 54.9918 74.9876 55.4965 75.0234ZM16.1693 87.1633L18.4979 86.4655C19.4561 86.2092 20.4144 85.994 21.3314 85.6964C22.8974 85.2037 24.4222 84.6698 25.9986 84.1876C28.5435 83.3974 31.1193 82.6381 33.6642 81.8273C36.4308 80.8343 39.2831 80.0964 42.1855 79.6229C42.6547 79.5427 43.1191 79.4367 43.5765 79.3053C43.3199 79.159 43.0251 79.0939 42.7311 79.1186C40.1855 79.3728 37.6191 79.5651 35.084 79.9327C29.5389 80.7292 24.1523 82.3768 19.114 84.8172C18.3658 85.1688 17.6369 85.56 16.9305 85.9892C16.5082 86.2463 16.1169 86.4932 16.1693 87.1633ZM17.8807 87.3924L17.9221 87.5573C18.2196 87.5954 18.5192 87.6131 18.819 87.6101C20.066 87.4984 21.3337 87.428 22.5807 87.2545C26.9091 86.6626 30.9164 84.9674 35.0686 83.7465C37.2529 83.0898 39.3854 82.2372 41.5904 81.663C44.6816 80.8632 47.8142 80.2285 50.9261 79.5112C51.1218 79.4599 51.3072 79.3571 51.503 79.2852L51.4614 79.0172C51.0212 79.0044 50.5806 79.0176 50.1421 79.0566C49.0084 79.1994 47.8852 79.4143 46.7516 79.5776C43.5815 79.9483 40.4484 80.5818 37.3847 81.4717C35.6538 82.0259 33.9436 82.6214 32.2023 83.1447C29.4204 83.9861 26.6489 84.8378 23.8051 85.6173C22.0432 86.1406 20.2504 86.6329 18.4782 87.1458C18.2824 87.2177 18.0867 87.3102 17.891 87.4027L17.8807 87.3924ZM66.8393 108.394C67.0976 108.303 67.3461 108.186 67.5809 108.045C69.5946 106.588 71.4385 104.91 73.0783 103.043C74.3957 101.622 75.2796 99.7886 77.0305 98.7602C77.2721 98.5588 77.4744 98.3145 77.6274 98.0395L78.7488 96.5052C81.983 91.7481 85.7006 87.3388 89.8422 83.3475C90.3054 82.8842 90.7686 82.421 91.2318 81.9578L91.0667 81.7927C90.0161 82.4456 89.0052 83.1601 88.0392 83.9325C86.6072 85.165 85.243 86.4741 83.9525 87.8541C82.5208 89.0679 81.2973 90.5075 80.3301 92.1164C79.7606 93.0547 79.041 93.8928 78.1998 94.5976C76.9991 95.7964 75.9832 97.167 75.1853 98.6649C74.8707 99.2571 74.5023 99.819 74.0847 100.344C71.8352 103.172 69.4156 105.86 66.8393 108.394ZM68.5562 75.1135L67.9994 74.9684C65.6849 74.4961 63.4887 73.5604 61.5431 72.2177C60.5474 71.5713 59.3765 71.2492 58.1919 71.2958C56.2644 71.2622 54.3265 71.1977 52.3988 71.1023C51.2546 71.0492 50.1309 70.893 48.9866 70.8193C48.6962 70.8212 48.4065 70.8484 48.1209 70.9006C51.5259 73.4821 64.7542 76.2112 68.5562 75.1135ZM128.707 79.4942L128.82 79.1954C128.52 78.8961 128.159 78.6792 127.839 78.4004C125.971 76.759 124.031 75.2102 122.266 73.4658C120.501 71.7214 119.2 70.091 117.662 68.3882C117.343 67.9102 116.851 67.5736 116.29 67.4483C116.725 68.8301 117.077 70.0675 117.481 71.2946C118.268 73.3994 119.485 75.3179 121.055 76.9275C121.419 77.2849 121.866 77.5475 122.355 77.692C123.345 78.0438 124.376 78.3132 125.366 78.6444C126.356 78.9756 127.572 79.1834 128.707 79.4942ZM104.33 72.1218L104.638 71.813C104.42 71.7187 104.212 71.6009 104.019 71.4617C103.08 70.7904 102.162 70.1192 101.244 69.4273C98.3342 67.2794 95.3422 65.2138 92.556 62.9217C89.6224 60.4611 86.4613 58.2858 83.1157 56.4253C80.2378 54.8649 77.2879 53.4384 74.3483 52.0223C73.3066 51.5783 72.239 51.1982 71.1514 50.8841C71.1693 50.9904 71.2137 51.0905 71.2804 51.1753C71.3472 51.2601 71.4342 51.3267 71.5334 51.369C73.029 52.0823 74.5554 52.7235 76.0304 53.4779C78.6698 54.8153 81.2137 56.3343 83.6436 58.0237C86.6047 60.0996 89.6996 62.021 92.6196 64.1793C95.5396 66.3376 98.2223 68.4027 101.173 70.3034C102.215 70.9748 103.288 71.5329 104.33 72.1218ZM95.9766 91.8905L94.6071 92.9297C94.3404 93.0858 94.1439 93.3383 94.058 93.6354C93.9721 93.9324 94.0034 94.2514 94.1455 94.5267C94.5315 95.5569 94.9946 96.5568 95.5308 97.5178C97.5182 100.203 100.264 102.232 103.414 103.342C104.958 103.963 106.648 104.122 108.28 103.802C108.073 103.731 107.858 103.689 107.64 103.678C105.875 103.483 104.159 102.967 102.577 102.156C101.4 101.368 100.298 100.473 99.2854 99.4814C98.9757 99.2326 98.7183 98.9248 98.5285 98.576C98.3387 98.2271 98.2201 97.8441 98.1797 97.4493C98.1401 97.0632 98.0089 96.692 97.7969 96.3664C96.7436 95.0966 96.1078 93.5332 95.9766 91.8905ZM70.6959 72.0035L70.6345 72.2921C70.9851 72.4575 71.3256 72.6538 71.6762 72.7779C73.388 73.3575 75.1307 73.8856 76.8117 74.5167C77.8394 74.8653 78.9329 74.9726 80.0075 74.8303L83.5734 74.5053L83.5834 74.227C79.4163 72.8655 75.0751 72.1165 70.6959 72.0035ZM94.5778 86.5802L94.8358 86.8382C95.105 86.6001 95.3594 86.3457 95.5976 86.0765L98.2008 82.7302C98.371 82.5645 98.5654 82.4258 98.7774 82.3187C97.8635 83.4756 97.0966 84.7418 96.4943 86.0881C96.9681 85.9209 97.3903 85.6338 97.7198 85.2548C99.6338 82.9626 102.07 81.1634 104.825 80.0077C105.076 79.8743 105.316 79.723 105.546 79.5552C101.793 78.7873 96.1905 82.4903 94.5778 86.5802ZM110.02 102.722C109.742 102.491 109.445 102.284 109.133 102.103C107.833 101.524 106.534 100.965 105.214 100.448C103.331 99.8693 101.515 99.0893 99.7989 98.1215C99.5525 98.0041 99.2928 97.9172 99.0255 97.8627C100.566 100.947 107.249 103.925 110.02 102.722ZM122.688 50.2951C121.17 48.4685 117.583 48.2781 115.379 49.7181C115.555 50.1616 115.555 50.1822 115.339 50.3365C114.412 51.0672 113.675 52.0099 113.188 53.0857C113.135 53.3186 113.118 53.5585 113.138 53.7968L113.375 53.8693C113.571 53.6737 113.715 53.4059 113.859 53.1588C114.451 52.1327 115.303 51.2809 116.329 50.6883C116.617 50.5238 116.947 50.3593 117.288 50.6793C114.641 52.3971 113.859 53.4267 114.201 54.9837C114.475 54.6778 114.732 54.3582 114.973 54.0261C115.908 52.6608 117.039 51.44 118.328 50.4025C118.808 49.954 119.417 49.6668 120.069 49.5809C120.721 49.4949 121.384 49.6145 121.966 49.923C122.214 50.0883 122.441 50.1917 122.688 50.2951ZM69.152 103.687C71.4363 100.783 73.6072 97.8485 76.0359 95.0275C78.4646 92.2066 80.9864 89.6847 83.5287 86.9773C80.1812 88.7972 70.5282 100.019 69.152 103.687ZM88.5317 82.2427C83.8977 84.4393 79.8618 87.7177 76.7633 91.8023C77.0992 91.6436 77.4002 91.4198 77.6488 91.1438C80.3812 88.1985 83.5061 85.6432 86.9358 83.5496C87.5097 83.1662 88.0535 82.7397 88.5626 82.2737L88.5317 82.2427ZM70.7088 81.3834L83.1861 77.7001C78.6302 77.6939 74.6333 79.4613 70.7088 81.3834ZM115.871 70.138L116.18 70.056C116.035 69.6228 115.911 69.1898 115.746 68.7772C115.58 68.3647 115.219 67.7354 115.043 67.1889C114.773 66.4052 114.577 65.5906 114.39 64.807C114.086 63.9539 113.509 63.2246 112.748 62.7329C113.132 65.4279 114.208 67.9793 115.871 70.138ZM116.889 52.8743C117.916 52.1921 119.116 51.815 120.35 51.7865C120.7 51.7809 121.049 51.7434 121.391 51.6745C121.803 51.572 122.216 51.4489 122.297 50.9336C119.977 50.1367 119.06 50.3313 116.889 52.8743ZM69.9046 103.801L70.1317 104.028C72.1747 102.066 73.937 99.8315 75.3691 97.3871L75.173 97.1909L69.9046 103.801ZM112.112 64.5462L112.349 64.4331C112.139 61.6704 111.57 60.3812 110.353 59.7198C110.57 60.4932 110.747 61.3902 111.067 62.2462C111.388 63.1021 111.729 63.752 112.112 64.5462ZM73.0493 74.4187C70.0579 72.7448 67.4899 71.7208 66.6449 71.9258C68.5712 73.2182 70.7582 74.0695 73.0493 74.4187ZM69.091 74.2484L69.2763 74.0631C69.204 73.9908 69.1215 73.9083 69.0389 73.8257C67.7598 73.1436 66.4705 72.4719 65.1811 71.8001C64.9264 71.6831 64.6507 71.6189 64.3708 71.6114C64.0908 71.604 63.8124 71.6534 63.5525 71.7567C65.266 72.8469 67.1282 73.6828 69.0807 74.238L69.091 74.2484ZM62.3762 78.424C60.134 78.3159 57.8877 78.4824 55.6873 78.9199C57.9266 79.0231 60.1693 78.8531 62.3659 78.4137L62.3762 78.424ZM71.2478 106.174C70.7909 106.339 70.3721 106.594 70.0165 106.925C69.661 107.255 69.376 107.655 69.1787 108.098L71.2478 106.174ZM94.517 79.8081C93.1461 79.8371 93.1152 79.8474 92.7555 80.6406L94.517 79.8081ZM68.1726 103.551L67.9868 103.366L67.0406 104.89L67.247 105.096L68.1726 103.551ZM72.7196 104.578L71.7514 105.051L71.9888 105.288L72.7196 104.578ZM140.901 87.4477C140.963 87.386 140.994 87.3551 141.004 87.3448C141.014 87.3345 140.952 87.2932 140.932 87.2725L140.065 86.8384L140.117 86.9725L140.901 87.4477ZM115.49 55.0576L115.263 54.9954L114.996 55.8815L115.202 55.9436L115.49 55.0576ZM52.4824 64.3922L52.544 64.1861L51.9149 63.9688L51.8534 64.2161L52.4824 64.3922ZM112.528 52.6312L112.662 52.7654L113.002 52.0959L112.857 51.9514L112.528 52.6312ZM74.7981 101.942L74.7156 101.86C74.634 101.914 74.564 101.984 74.5097 102.065C74.4543 102.16 74.4193 102.265 74.407 102.375L74.5103 102.478L74.7981 101.942Z" fill="#BD9D63"/>
<path d="M15.023 70.9891L17.4674 72.0747C16.5806 71.8674 15.6426 71.8352 15.0436 70.9685L15.023 70.9891Z" fill="#BD9D63"/>
<path d="M15.0237 70.9891L14.1474 70.9157L14.1884 70.7303C14.4462 70.8234 14.7041 70.9371 14.9619 71.0302L15.0237 70.9891Z" fill="#BD9D63"/>
<path d="M11.5371 69.5618C11.8155 69.6343 12.1042 69.6966 12.3826 69.7485L12.3107 69.9649C12.0631 69.8202 11.8053 69.6859 11.5577 69.5412L11.5371 69.5618Z" fill="#BD9D63"/>
<path d="M78.4701 58.2639L78.3149 57.8617L78.6965 57.9756L78.4701 58.2639Z" fill="#BD9D63"/>
</g>
<defs>
<clipPath id="clip0">
<rect width="103.777" height="116.63" fill="white" transform="translate(0.946289 73.3818) rotate(-45)"/>
</clipPath>
</defs>
</svg>
