<svg width="391" height="265" viewBox="0 0 391 265" fill="none" xmlns="http://www.w3.org/2000/svg">
<path d="M324.055 177.037C324.392 177.675 324.467 178.419 324.266 179.112C324.065 179.805 323.603 180.392 322.977 180.752C321.822 181.711 320.578 182.557 319.26 183.278C312.846 186.982 305.882 189.64 298.63 191.153C298.445 191.153 298.296 191.375 297.961 191.561C298.035 192.029 298.01 192.508 297.891 192.966C297.771 193.425 297.558 193.854 297.265 194.227C296.972 194.6 296.606 194.908 296.188 195.133C295.771 195.359 295.312 195.496 294.839 195.536C291.764 196.265 288.629 196.712 285.472 196.873C279.926 197.093 274.374 196.657 268.931 195.573C262.112 193.94 255.699 190.932 250.085 186.732C245.03 182.832 239.715 179.303 234.474 175.588C232.353 173.953 229.714 173.136 227.039 173.285C224.326 173.508 221.613 173.285 218.899 173.657C217.493 173.842 216.101 174.127 214.736 174.511C215.719 176.312 217.355 177.667 219.308 178.3L226.742 180.9C229.409 181.877 231.846 183.389 233.905 185.344C235.964 187.299 237.599 189.655 238.711 192.267C240.904 196.836 242.911 201.479 244.881 206.16C246.071 208.945 245.848 209.391 243.469 210.989C244.658 214.703 245.885 218.863 247.186 222.801C247.669 224.547 248.078 226.516 248.487 228.076C248.896 229.636 249.045 231.382 246.517 231.419C247 233.09 247.335 234.391 247.706 235.691C248.822 239.777 249.974 243.863 251.015 247.986C251.26 248.772 251.26 249.614 251.015 250.401C250.247 252.312 249.9 254.366 249.996 256.423C250.093 258.48 250.63 260.493 251.572 262.324C251.832 262.993 252.167 263.625 252.427 264.33C252.687 265.036 252.427 264.702 252.427 264.925C252.427 265.147 252.093 265.222 251.981 265.185C246.852 263.736 242.428 262.25 237.893 260.727C234.575 259.695 231.621 257.736 229.381 255.081C228.604 254.315 227.772 253.607 226.891 252.964L223.434 256.975C218.453 253.706 216 248.246 212.877 243.083L210.573 244.977C208.751 246.537 208.268 246.5 206.856 244.68C203.871 240.981 201.773 236.648 200.722 232.013C200.499 231.307 200.314 230.602 200.053 229.896C199.793 229.19 199.645 229.487 199.347 229.227C198.99 229.335 198.641 229.471 198.306 229.636C196.002 230.973 195.333 230.862 194.589 228.15C193.771 225.742 193.222 223.25 192.954 220.721C192.423 212.932 193.395 205.113 195.816 197.69C197.762 191.22 201.362 185.369 206.261 180.714C207.649 179.413 208.652 177.756 209.16 175.923C206.377 175.237 203.469 175.237 200.685 175.923C195.119 176.873 189.714 178.598 184.628 181.049C183.231 181.769 182.099 182.914 181.394 184.318C176.51 194.125 172.203 204.209 168.495 214.517C166.185 221.602 162.609 228.21 157.939 234.019C151.788 241.18 144.521 247.301 136.417 252.146C135.865 252.552 135.205 252.785 134.521 252.815C132.175 252.731 129.857 253.353 127.868 254.598C126.37 255.614 124.655 256.264 122.86 256.496C121.065 256.728 119.241 256.536 117.534 255.935C116.666 255.819 115.783 255.975 115.007 256.381C110.918 257.941 106.866 259.576 102.815 261.173H102.517C99.5435 262.139 98.9859 261.841 97.4619 258.35C96.3717 258.36 95.2864 258.497 94.2281 258.758C89.3873 260.081 84.3753 260.669 79.3597 260.504C77.7242 260.504 76.0515 260.504 74.416 260.764C73.6372 260.838 72.8531 260.838 72.0742 260.764C68.9147 260.281 68.5802 259.687 69.0634 256.195C69.1163 255.664 69.1163 255.129 69.0634 254.598C68.0233 254.544 66.9811 254.544 65.9411 254.598C58.6805 255.341 51.3736 255.527 44.0846 255.155C38.7201 254.606 33.4338 253.46 28.3242 251.738C21.0759 249.435 13.8647 246.946 6.69075 244.309C4.89985 243.69 3.1702 242.906 1.524 241.968C1.14468 241.749 0.81398 241.454 0.551994 241.103C0.290008 240.752 0.102207 240.351 0 239.925C0 238.551 1.22664 238.551 2.08157 238.217C4.60918 237.176 7.1368 236.211 9.51573 235.133C10.7028 234.653 11.8067 233.989 12.7868 233.165C13.7469 232.299 14.4643 231.198 14.8683 229.97C15.5247 227.288 17.1539 224.945 19.4403 223.395C25.685 218.938 32.0041 214.517 38.0258 209.837C40.6213 207.637 43.1025 205.306 45.4599 202.854C44.8652 202.222 44.6422 201.925 44.3448 201.665C42.7465 200.142 42.4863 199.548 43.8616 197.95C45.5459 196.074 47.5002 194.459 49.6602 193.158C53.3773 190.744 57.5033 188.738 61.4062 186.509C62.2543 186.025 63.0734 185.492 63.8595 184.912C64.3261 184.583 64.6752 184.114 64.8557 183.572C65.0363 183.031 65.0389 182.446 64.8631 181.903C64.3864 180.253 64.4961 178.49 65.1738 176.912C65.8515 175.334 67.0552 174.039 68.5802 173.248C71.5167 171.762 74.6762 170.759 77.7242 169.534C80.1403 168.568 82.5192 167.528 85.4186 166.265L83.0396 163.627C81.4785 161.956 81.5156 161.25 83.337 159.913C86.4826 157.563 90.1369 155.985 94.005 155.307C96.9892 154.927 99.9924 154.716 103 154.675C105.788 154.675 108.65 154.675 111.438 154.415C115.929 154.339 120.412 154.826 124.782 155.864C131.062 156.551 137.202 158.179 142.996 160.693C148.2 163.182 153.218 166.228 158.273 169.162C160.541 170.462 162.66 172.022 164.89 173.397C167.959 175.191 171.261 176.553 174.703 177.446C175.949 177.822 177.264 177.914 178.551 177.715C179.838 177.515 181.063 177.03 182.137 176.294C186.381 173.803 190.982 171.974 195.779 170.871C198.232 170.388 200.722 170.239 203.213 169.942C203.213 167.825 201.429 167.751 200.053 166.859C199.384 169.051 198.046 168.828 196.597 167.936C195.222 167.097 193.906 166.166 192.656 165.15C192.182 164.67 191.579 164.337 190.919 164.192C190.259 164.046 189.572 164.096 188.939 164.333C185.222 165.41 181.505 166.19 177.788 166.896C171.586 167.765 165.27 166.55 159.835 163.442C153.907 160.838 148.777 156.711 144.966 151.481C144.669 151.035 144.334 150.663 144.037 150.218C142.178 147.543 142.178 147.432 144.26 144.609C143.777 143.94 143.256 143.197 142.699 142.528C140.543 139.854 138.275 137.291 136.194 134.579C133.518 130.864 133.592 130.196 136.603 127.15L132.365 116.34C131.325 113.703 130.247 111.028 129.392 108.317C128.723 106.237 128.388 104.156 130.655 102.819C131.956 102.039 131.436 100.59 131.287 99.3646C130.526 93.0354 130.526 86.6379 131.287 80.3087C131.287 79.6772 131.51 79.0828 131.622 78.4514C132.179 75.4425 132.179 75.4425 135.004 75.5911C135.079 74.9867 135.079 74.3754 135.004 73.771C134.554 68.1775 135.069 62.5483 136.528 57.1295C138.276 48.6586 141.034 40.4277 144.743 32.6131C146.05 30.2455 146.824 27.6213 147.011 24.9239C147.011 23.8838 147.345 22.7323 148.609 22.6951C149.873 22.658 150.133 23.5123 150.468 24.441C150.802 25.3696 150.765 25.2582 150.876 25.6668C153.483 33.8117 157.635 41.3787 163.106 47.9544C164.978 50.7997 167.315 53.3109 170.019 55.3837L172.956 53.6006C175.446 57.7981 176.413 62.5528 178.494 66.7503C180.576 70.9479 182.211 75.2568 184.219 79.7143L186.449 78.8228C186.951 79.6091 187.374 80.4427 187.713 81.3116C189.423 87.1064 191.12 92.9136 192.805 98.7331C192.876 99.2337 193.056 99.7128 193.332 100.136C193.608 100.56 193.974 100.918 194.403 101.185C195.17 101.861 195.757 102.716 196.113 103.674C196.503 104.809 197.027 105.894 197.674 106.905C197.712 106.262 197.712 105.617 197.674 104.974L196.336 89.7438C196.17 87.1838 196.669 84.6244 197.786 82.3145C198.529 80.5687 199.124 80.4201 200.685 81.6459C201.107 82.1021 201.48 82.5999 201.8 83.1318L202.507 82.6489C202.7 81.905 202.837 81.1475 202.916 80.3829C203.25 76.1854 203.436 71.9508 203.882 67.7533C204.763 61.6589 206.568 55.7343 209.235 50.1832C209.423 49.707 209.673 49.2574 209.978 48.8459C210.907 47.6573 211.576 47.6944 212.543 48.8459C213.509 49.9975 213.584 50.3318 214.364 51.5205C215.331 48.6974 216.111 46.3572 216.966 44.0913C218.589 39.3222 221.113 34.9087 224.4 31.0901C225.255 30.1243 225.887 28.9357 226.742 27.9327C227.654 26.7502 228.688 25.6669 229.827 24.701C231.463 23.4009 232.578 23.9209 233.544 26.0011L234.139 27.5984C234.877 27.1265 235.574 26.5921 236.221 26.0011C242.605 18.5009 249.911 11.8361 257.966 6.16512C259.795 4.64727 261.521 3.00921 263.132 1.26184C263.839 0.556062 264.359 -0.446882 265.771 0.221747C265.873 0.675101 265.947 1.13403 265.994 1.59615C266.589 8.17101 267.37 14.7087 267.741 21.2836C268.113 27.8584 268.039 34.1732 268.188 40.6367C268.109 41.4657 268.211 42.3019 268.485 43.0883C270.139 46.5646 270.942 50.3845 270.827 54.2321C270.827 55.4579 270.827 56.6838 270.827 57.9467L274.544 57.0552C274.793 57.8292 274.967 58.6253 275.064 59.4326C274.896 66.2784 273.948 73.0828 272.239 79.7143C271.238 83.927 269.35 87.878 266.701 91.3039C265.291 93.2619 264.536 95.6151 264.545 98.0273C270.343 96.17 275.956 94.3127 281.606 92.604C282.891 92.1934 284.21 91.8951 285.546 91.7125C287.07 91.4896 287.479 91.8982 287.554 93.5698C287.554 94.387 287.554 95.2042 287.554 96.3558C289.04 96.0957 290.267 95.9472 291.457 95.6871C296.949 94.34 302.633 93.9504 308.258 94.5356C309.798 94.6098 311.341 94.5352 312.867 94.3127L316.584 94.0156C318.443 96.2815 316.993 97.7302 316.287 99.5503C317.365 100.702 318.48 100.256 319.632 100.145C322.606 99.8846 325.616 99.7361 328.59 99.5503C329.185 99.5503 329.78 99.5503 330.337 99.5503C334.054 99.0674 335.727 100.479 336.099 104.788C337.727 104.82 339.356 104.72 340.968 104.491C345.773 103.991 350.625 104.786 355.019 106.794C355.976 107.05 356.838 107.581 357.498 108.32C358.159 109.059 358.589 109.974 358.736 110.954C358.745 111.211 358.806 111.464 358.914 111.697C359.023 111.93 359.177 112.139 359.367 112.312C359.557 112.485 359.781 112.619 360.023 112.704C360.266 112.79 360.523 112.826 360.78 112.811C368.214 113.034 375.648 114.743 383.083 113.814C385.722 113.443 388.435 113.554 391.112 113.443C391.669 115.3 390.442 115.783 389.699 116.377C387.915 117.789 385.982 119.052 384.235 120.426C378.262 125.443 372.83 131.07 368.028 137.216C363.428 143.423 358.237 149.17 352.528 154.378C351.782 155.026 350.972 155.599 350.112 156.087C349.386 156.461 348.748 156.985 348.241 157.626C347.735 158.267 347.371 159.009 347.176 159.801C346.523 161.255 345.528 162.529 344.276 163.516C339.342 168.493 333.517 172.499 327.103 175.328L325.022 176.368C325.022 176.368 324.539 176.628 324.055 177.037ZM243.357 68.1248L244.658 66.6389L244.027 66.1932L243.469 68.199C243.011 68.5473 242.663 69.0192 242.466 69.559C242.268 70.0988 242.229 70.6839 242.354 71.245C239.965 73.962 238.077 77.0811 236.778 80.4572C236.778 80.4572 236.778 80.7916 237.299 81.3487C239.503 78.2556 241.174 74.8153 242.242 71.1707L243.357 68.1248ZM95.5662 227.407C96.2959 226.647 96.8556 225.741 97.208 224.748C97.5605 223.755 97.6977 222.699 97.6106 221.649L96.8672 221.389C96.4583 223.432 96.0123 225.438 95.6405 227.481C95.2688 229.524 94.2652 232.57 93.5962 234.911C94.8228 232.756 96.6442 230.564 95.5662 227.407ZM90.511 208.834L88.0949 207.683V208.463L90.734 208.723C92.5809 210.79 95.0438 212.209 97.7593 212.772C95.8511 210.652 93.3087 209.206 90.511 208.648V208.834ZM330.151 161.993L332.567 161.584V161.213L330.189 161.993C329.361 161.591 328.487 161.292 327.587 161.101C320.636 160.507 313.647 160.024 306.697 159.504C306.697 159.504 306.474 159.727 306.176 160.024C309.275 160.976 312.489 161.501 315.729 161.584C320.487 161.77 325.319 161.881 330.151 161.993ZM82.4449 225.438L101.625 217.526C101.143 217.04 100.499 216.745 99.8155 216.697C99.1316 216.649 98.4536 216.851 97.908 217.266C93.1501 219.458 88.3922 221.724 83.6715 224.027C83.114 224.287 82.7794 224.993 82.2962 225.438C81.5162 225.248 80.6977 225.286 79.9392 225.55C79.1808 225.814 78.5148 226.291 78.0216 226.924L82.4449 225.438ZM328.813 138.962C325.096 140.634 321.639 142.38 317.996 144.014C311.417 146.912 304.801 149.735 298.184 152.595C296.029 153.561 293.835 154.452 291.196 155.567C293.315 156.087 293.315 156.161 294.43 155.567C300.563 153.041 306.697 150.626 312.718 147.915C317.513 145.723 322.16 143.234 326.806 140.782C327.587 140.374 328.107 139.445 328.776 138.777L331.452 138.071V137.514L328.813 138.962ZM177.639 181.235C175.186 182.386 172.696 183.463 170.205 184.652C162.771 188.367 155.523 192.081 148.089 195.424C140.654 198.767 132.291 202.594 124.374 206.085C118.017 208.834 111.624 211.397 105.268 214.109C104.461 214.555 103.69 215.065 102.963 215.632C104.004 217.266 104.97 216.635 105.825 216.3C107.907 215.52 109.988 214.666 112.033 213.812C120.508 210.097 129.094 207.088 137.346 203.076C149.662 197.605 161.64 191.403 173.216 184.503C174.74 183.5 176.115 182.312 177.602 181.235C178.561 181.219 179.503 180.987 180.359 180.556C181.216 180.125 181.963 179.506 182.546 178.746L177.639 181.235ZM141.807 46.58C140.974 47.4612 140.465 48.599 140.363 49.8071C140.262 51.0151 140.574 52.2218 141.249 53.2292C141.417 53.6231 141.542 54.0341 141.621 54.455C142.126 57.0283 143.278 59.4312 144.966 61.4385C144.966 61.4385 144.966 61.9956 144.78 62.4414C141.621 61.5499 142.104 57.5381 139.614 56.1637L144.074 67.5304L143.591 67.7904L141.77 65.6731C143.108 71.4308 148.089 80.9401 150.579 82.6489C149.65 71.1336 148.721 59.6555 147.754 47.8059C144.595 48.7717 144.26 45.2799 142.401 42.8283C142.104 44.4999 141.881 45.5771 141.695 46.5429L141.807 46.58ZM369.738 130.567C370.583 130.198 371.334 129.641 371.933 128.94C372.531 128.239 372.963 127.411 373.195 126.518H370.296C367.025 126.518 363.717 126.816 360.446 127.076C358.914 127.053 357.391 127.304 355.948 127.818C350.484 130.419 345.131 133.205 339.779 135.991C339.085 136.446 338.437 136.969 337.846 137.551C338.722 137.786 339.645 137.786 340.522 137.551C344.832 136.79 349.235 136.714 353.569 137.328C355.874 137.774 358.178 138.368 360.408 138.999C360.992 139.276 361.655 139.338 362.28 139.175C362.906 139.012 363.454 138.634 363.828 138.108L369.813 130.159L369.738 130.567ZM209.346 181.346C208.518 181.861 207.735 182.445 207.004 183.092C199.504 190.779 195.166 201 194.85 211.731C194.85 213.106 194.85 214.48 194.85 215.892C196.597 208.091 196.597 208.091 198.306 206.902C196.432 212.927 196.24 219.349 197.749 225.475C198.007 225.563 198.282 225.588 198.552 225.55C198.822 225.512 199.079 225.411 199.303 225.256C199.527 225.101 199.711 224.895 199.842 224.656C199.972 224.417 200.045 224.15 200.053 223.878C200.091 223.458 200.091 223.035 200.053 222.615C199.607 211.88 204.774 203.522 209.309 194.941C209.636 194.309 210.077 193.742 210.61 193.27C211.763 192.216 212.594 190.859 213.008 189.354C213.423 187.849 213.403 186.258 212.952 184.763C212.617 183.315 212.431 181.829 212.097 180.38C211.776 179.493 211.378 178.635 210.907 177.817C210.238 179.377 209.829 180.306 209.383 181.235L209.346 181.346ZM267.407 184.578C268.561 184.636 269.707 184.81 270.827 185.098C278.226 187.479 285.892 188.939 293.65 189.444C300.154 189.89 305.953 187.104 311.826 184.838C312.086 184.838 312.198 184.281 312.495 183.76C308.221 183.76 304.243 183.76 300.303 183.538C291.282 183.102 282.438 180.88 274.284 177C270.566 175.18 266.849 173.285 263.393 171.242C261.941 170.148 260.263 169.393 258.481 169.033C256.699 168.673 254.859 168.717 253.096 169.162C251.423 169.682 249.639 169.794 247.967 170.165C247.247 170.398 246.55 170.696 245.885 171.057C247.18 172.872 248.904 174.34 250.903 175.328C255.735 178.003 260.605 180.529 265.474 183.129C266.2 183.591 266.896 184.1 267.556 184.652C266.685 184.545 265.827 184.359 264.991 184.095C259.861 181.866 254.732 179.749 249.714 177.297C248.162 176.76 246.736 175.913 245.522 174.809C244.308 173.704 243.331 172.364 242.651 170.871L234.882 172.84C235.998 173.805 236.518 174.363 237.15 174.808C240.867 177.631 244.919 180.343 248.747 183.166C253.193 186.606 258.13 189.36 263.393 191.338C266.51 192.818 269.851 193.772 273.28 194.161C276.402 194.161 279.487 194.533 282.61 194.756C285.854 194.948 289.104 194.481 292.163 193.381C283.263 192.912 274.488 191.083 266.143 187.958C255.512 183.463 244.138 177.446 242.837 175.44C250.903 179.154 259.006 183.278 267.258 186.881C275.652 189.842 284.401 191.678 293.278 192.341C292.795 190.335 291.642 190.447 290.602 190.261C286.476 189.555 282.312 188.961 278.186 188.069C274.409 187.577 270.755 186.394 267.407 184.578ZM158.608 94.4985C159.091 96.6901 159.797 98.9188 160.243 101.222C161.287 106.737 163.01 112.103 165.373 117.195C166.084 118.579 166.879 119.918 167.752 121.206C168.507 120.224 169.178 119.18 169.759 118.086C171.506 114.372 173.105 110.657 174.889 107.24C178.294 100.23 180.792 92.8151 182.323 85.1748C182.69 83.6394 182.625 82.0327 182.137 80.5315C180.948 77.1512 179.424 73.9195 177.974 70.6507C177.305 69.0534 176.524 67.4933 175.521 65.3017C174.889 69.3506 174.554 72.7309 173.811 75.9626C173.306 79.4758 172.037 82.8358 170.094 85.8063C174.814 70.465 174.629 63.1472 172.919 59.804L172.101 63.2586C171.331 67.1538 169.978 70.9107 168.087 74.4024C165.893 78.117 163.589 81.8316 161.359 85.5463C160.838 86.4006 160.392 87.2921 159.054 86.7721C157.716 86.252 157.233 87.4036 157.418 88.5551C157.493 90.6353 158.088 92.5669 158.608 94.4985ZM215.777 79.0457C213.992 78.5257 213.807 76.6684 213.472 75.3311C212.803 72.3223 212.394 69.2763 211.985 66.2303C211.576 63.1843 211.428 60.5841 211.167 57.761C210.818 58.2636 210.624 58.8578 210.61 59.4697C210.31 69.5687 211.284 79.6653 213.509 89.5209C214.24 92.9302 215.388 96.2364 216.929 99.3646C217.823 101.657 219.494 103.563 221.65 104.751C221.767 104.202 221.941 103.666 222.17 103.153C224.066 99.4389 225.887 95.7243 227.969 92.0097L232.764 82.686C233.019 82.1724 233.152 81.6066 233.152 81.033C233.152 80.4594 233.019 79.8937 232.764 79.38C231.537 76.1112 230.496 72.768 229.27 69.4992C227.041 64.2072 225.697 58.5851 225.292 52.8577C224.841 47.1676 225.178 41.4425 226.296 35.8448C226.631 34.4704 226.854 33.0589 227.151 31.6845C226.15 32.2606 225.297 33.0619 224.661 34.0247C220.832 39.16 218.099 45.0264 216.632 51.2604C216.288 52.5283 215.853 53.7697 215.331 54.975C215.331 55.1979 214.885 55.3465 214.587 55.6065L212.32 54.5664C212.142 55.659 212.067 56.7659 212.097 57.8724C212.431 62.1071 212.654 66.3417 213.286 70.5392C213.884 73.4219 214.666 76.2633 215.628 79.0457H215.777ZM53.1171 218.158C49.4 218.158 45.3484 219.346 41.334 217.563L42.1517 215.855C37.9142 213.254 37.9142 213.329 34.2715 216.263C32.0413 218.046 29.6252 219.569 27.3206 221.241L23.9008 223.878C24.6405 224.092 25.4004 224.229 26.1683 224.287C30.5173 224.064 34.9034 223.952 39.2152 223.47C47.7519 222.791 56.3235 224.246 64.1569 227.704C64.9812 228.097 65.8828 228.301 66.796 228.301C67.7092 228.301 68.6108 228.097 69.4351 227.704L94.7485 216.338C95.4681 215.925 96.152 215.453 96.7928 214.926C96.107 214.334 95.3735 213.8 94.5998 213.329C91.8491 211.88 89.0985 210.394 86.3107 209.094C80.5006 206.095 74.2109 204.134 67.7253 203.299C66.1931 202.969 64.6985 202.484 63.2648 201.851C64.6401 201.851 65.9782 202.073 67.3536 202.111C73.8988 202.74 80.3703 203.984 86.6824 205.825C92.3755 206.553 97.6349 209.247 101.551 213.44C104.285 212.53 106.895 211.282 109.319 209.726C106.271 207.385 102.889 206.42 100.659 203.559C101.613 203.74 102.522 204.106 103.335 204.637L109.096 207.943C109.772 208.342 110.534 208.571 111.318 208.61C112.101 208.648 112.883 208.496 113.594 208.165L131.436 200.736C132.349 200.246 133.23 199.7 134.075 199.102C132.551 198.359 131.622 197.802 130.655 197.393C122.998 194.05 115.304 190.781 107.647 187.401C101.705 184.737 95.3614 183.08 88.8755 182.497C88.0949 182.497 87.1656 182.237 86.5709 182.497C84.9625 183.174 83.1855 183.343 81.4785 182.98C78.2446 182.98 75.0479 182.98 71.8512 182.758C69.5838 182.758 68.4687 184.095 67.3164 186.175C70.2529 186.361 72.8548 186.435 75.4568 186.621C78.0628 186.505 80.6462 187.15 82.891 188.478C79.3969 188.478 75.9028 188.478 72.446 188.144C64.5657 187.772 64.3799 187.809 62.3727 189.184C63.7851 189.184 65.049 189.184 66.3128 189.184C70.0298 189.555 74.0815 189.927 77.9472 190.447C78.5698 190.41 79.1883 190.569 79.7152 190.902C80.2422 191.235 80.651 191.726 80.8837 192.304C80.4383 192.339 79.991 192.339 79.5456 192.304C75.4196 191.784 71.2565 191.115 67.0933 190.67C58.4325 189.778 58.4325 189.852 51.1842 194.719C50.352 195.259 49.5572 195.854 48.8053 196.502C48.3583 197.004 47.9483 197.537 47.5787 198.099C47.9504 198.507 48.0991 198.879 48.3221 198.916L62.447 201.219C59.7335 201.219 57.0201 201.219 54.3438 200.996C49.6602 200.55 47.7273 204.154 44.9767 207.46C48.2477 209.168 51.6675 208.277 54.7898 210.431C51.5431 210.705 48.2736 210.416 45.1254 209.577C42.7465 209.057 42.0774 209.577 40.9251 212.029C44.6422 214.777 48.731 214.48 52.6339 215.743L51.3329 216.523L53.3773 217.675L53.1171 218.158ZM105.974 256.307C107.295 255.936 108.55 255.359 109.691 254.598C112.851 251.923 115.899 249.026 118.947 246.203C119.467 245.72 120.285 244.977 120.21 244.569C119.727 242.377 121.177 241.263 122.106 240C126.249 233.528 129.736 226.659 132.514 219.495C132.673 219.119 132.809 218.735 132.923 218.343C133.727 215.585 133.791 212.665 133.109 209.874C132.477 207.868 131.808 207.497 130.061 208.203C123.035 211.137 116.047 214.146 109.022 217.006C108.383 217.273 107.821 217.694 107.386 218.232C106.951 218.771 106.657 219.409 106.532 220.089C104.255 227.416 100.925 234.374 96.6442 240.743C95.0575 243.112 93.0553 245.176 90.734 246.834C96.4883 239.648 100.999 231.55 104.078 222.875C104.484 222.249 104.738 221.537 104.822 220.796C104.906 220.055 104.817 219.304 104.562 218.603L102.517 219.086C100.436 219.532 99.3948 220.572 99.0974 223.21C98.5253 229.13 96.5917 234.838 93.4475 239.888C89.8918 245.851 85.1776 251.042 79.5827 255.155C79.0527 255.439 78.5874 255.831 78.2163 256.304C77.8453 256.777 77.5764 257.322 77.4268 257.904C81.1439 257.681 84.861 257.644 88.3922 257.198C91.1658 256.747 93.9091 256.126 96.607 255.341C97.3849 255.262 98.1284 254.98 98.7629 254.524C100.553 252.749 102.229 250.863 103.781 248.878C106.383 245.163 108.873 241.448 111.438 237.734C111.779 237.374 112.166 237.061 112.59 236.805L113.222 237.362C111.425 240.558 109.387 243.613 107.126 246.5C104.896 249.583 102.591 252.592 100.213 255.75L101.291 258.127C103.261 258.127 105.008 257.904 106.048 255.824L105.974 256.307ZM137.049 198.247C142.724 195.948 148.259 193.318 153.627 190.372C154.854 189.704 154.817 188.552 154.259 187.401C153.812 186.57 153.249 185.807 152.586 185.135C149.687 181.979 146.417 179.185 142.848 176.814C141.547 175.997 140.431 174.734 139.13 174.065C129.299 169.397 118.846 166.17 108.093 164.482L106.048 164.184V163.442C109.765 163.887 113.78 164.147 117.571 164.89C121.367 165.594 125.097 166.613 128.723 167.936C134.373 170.016 139.874 172.319 145.524 174.771C151.347 176.973 156.533 180.585 160.615 185.283C160.828 185.531 161.099 185.721 161.404 185.838C161.709 185.955 162.038 185.994 162.362 185.952C165.145 184.896 167.821 183.578 170.354 182.015C168.012 180.603 166.265 179.489 164.481 178.3C162.956 177.538 161.5 176.643 160.132 175.625C155.306 171.494 149.745 168.306 143.74 166.228C143.291 166.021 142.856 165.786 142.439 165.522V165.113L147.903 166.748C147.593 166.298 147.244 165.875 146.862 165.485C146.081 165.039 145.264 164.63 144.483 164.259C138.09 161.352 131.301 159.411 124.336 158.501C119.565 157.458 114.686 156.985 109.803 157.09C107.089 157.275 104.376 157.09 101.625 157.09C97.5288 156.967 93.4522 157.701 89.6561 159.244C87.9743 159.801 86.5153 160.881 85.4929 162.327C98.0938 161.956 100.882 162.327 102.591 163.59C100.324 163.59 97.9823 163.59 95.6777 163.59C93.3384 163.377 90.9819 163.721 88.8011 164.593C94.0422 165.819 99.3948 165.336 104.562 166.896C104.145 167.172 103.648 167.303 103.149 167.268L92.9271 167.156C92.0592 167.117 91.1911 167.23 90.3623 167.49C85.6788 169.125 81.0324 170.796 76.4232 172.542C74.416 173.322 72.4831 174.214 70.5502 175.18C69.5798 175.659 68.7688 176.408 68.2148 177.338C67.6608 178.267 67.3876 179.336 67.4279 180.417C68.6545 180.194 69.5838 180.009 70.5131 179.897C72.9656 179.444 75.4532 179.208 77.9472 179.191C86.2661 179.868 94.4828 181.475 102.443 183.983C107.238 185.358 111.921 187.364 116.716 188.961C119.876 190.001 123.11 190.893 126.344 191.784C130.558 192.529 134.36 194.772 137.049 198.099V198.247ZM273.466 158.91C274.061 159.17 274.246 159.355 274.395 159.318C280.194 157.387 285.992 155.604 291.791 153.449C292.504 153.108 293.09 152.549 293.464 151.852C297.28 146.141 300.423 140.008 302.831 133.576C304.506 128.91 306.505 124.367 308.815 119.981C310.808 115.732 313.655 111.938 317.179 108.837L324.018 103.636C324.544 103.094 325.04 102.523 325.505 101.928C324.655 101.646 323.742 101.611 322.874 101.829C322.005 102.046 321.216 102.505 320.598 103.153L304.578 120.649C302.979 122.395 301.493 124.364 299.969 126.035C305.524 117.718 311.9 109.978 319 102.931C317.647 102.783 316.279 102.982 315.024 103.509C313.769 104.035 312.669 104.871 311.826 105.939C306.819 111.643 302.317 117.771 298.37 124.252C296.724 126.527 295.746 129.216 295.545 132.016C295.057 131.755 294.69 131.314 294.523 130.786C294.357 130.259 294.403 129.687 294.653 129.193C295.055 127.802 295.629 126.467 296.363 125.218C299.114 120.909 301.901 116.675 304.801 112.551C306.697 109.914 308.815 107.5 310.897 105.122C311.752 104.082 312.049 103.228 310.488 102.039C308.89 103.636 307.217 105.159 305.693 106.794C302.571 110.174 299.337 113.48 296.475 117.12C293.952 119.731 292.551 123.224 292.572 126.853C292.572 126.853 292.126 127.15 291.828 127.298C291.376 126.921 291.079 126.389 290.997 125.806C290.915 125.222 291.052 124.629 291.382 124.141C292.554 121.198 294.05 118.395 295.843 115.783C299.931 110.806 304.503 106.311 308.852 101.631L309.819 100.516L309.447 99.9218C308.232 100.438 307.084 101.099 306.027 101.891C301.864 105.605 297.701 109.32 293.835 113.294C292.619 114.246 291.601 115.428 290.842 116.773C290.083 118.118 289.597 119.599 289.412 121.132C288.26 119.869 288.111 119.795 288.446 119.089C289.08 117.598 289.891 116.189 290.862 114.892C295.452 109.498 300.515 104.526 305.99 100.033C307.96 98.3616 309.707 97.5444 311.975 100.219L313.945 97.953C311.895 97.1693 309.664 96.9888 307.514 97.433C302.708 98.3532 298.133 100.222 294.058 102.931C289.979 105.477 286.233 108.522 282.907 111.994C276.87 118.683 272.119 126.427 268.894 134.839C265.474 143.828 262.463 153.041 259.304 162.179C259.178 162.778 259.103 163.387 259.081 163.999C261.385 160.284 263.393 156.57 265.363 153.264C267.333 149.958 269.08 146.169 271.347 142.937C270.05 146.421 268.56 149.832 266.887 153.152C265.251 156.421 263.43 159.541 261.72 162.736L262.203 163.367C263.048 163.084 263.849 162.684 264.582 162.179C265.508 161.246 266.307 160.197 266.961 159.058C269.637 154.452 272.202 149.809 274.841 145.203C275.659 143.754 276.625 142.38 277.517 140.968C276.329 144.46 274.862 147.851 273.131 151.109C271.421 154.415 269.414 157.647 267.593 161.213C268.335 161.302 269.087 161.165 269.75 160.82C270.413 160.476 270.956 159.939 271.31 159.281C275.25 152.223 279.227 145.19 283.242 138.182C283.537 137.788 283.873 137.427 284.245 137.105L284.654 137.476L273.466 158.91ZM161.693 196.427C164.109 213.923 157.976 227.444 147.94 239.702C148.572 239.702 148.832 239.702 148.906 239.702C153.729 235.88 157.735 231.131 160.689 225.736C163.291 220.238 165.41 214.592 167.863 208.945C170.658 201.513 173.847 194.235 177.416 187.141C177.908 186.588 178.256 185.923 178.431 185.204C178.606 184.485 178.602 183.734 178.42 183.018C175.335 185.432 171.952 186.732 169.202 189.035C168.944 189.389 168.77 189.797 168.693 190.228C168.615 190.659 168.637 191.102 168.756 191.524C170.242 193.641 169.202 195.239 168.495 197.17C167.841 199.42 166.551 201.432 164.778 202.965C165.373 198.916 167.492 195.276 166.971 190.558C158.757 194.05 151.137 197.987 143.517 202.222C144.096 205.437 143.971 208.739 143.149 211.9C142.328 215.062 140.83 218.008 138.759 220.535C138.901 219.668 139.177 218.829 139.576 218.046C141.192 214.765 142.187 211.214 142.513 207.571C142.649 206.793 142.607 205.993 142.388 205.234C142.169 204.474 141.779 203.774 141.249 203.188L137.829 204.934C137.829 206.494 138.127 207.794 138.09 209.057C137.854 222.544 132.312 235.395 122.664 244.829C120.657 246.872 118.501 248.803 116.419 250.809C115.989 251.38 115.591 251.975 115.23 252.592C116.498 252.655 117.751 252.906 118.947 253.335C119.996 253.886 121.179 254.133 122.361 254.047C123.543 253.962 124.678 253.548 125.637 252.852L130.098 250.289C132.995 244.802 136.934 239.932 141.695 235.951C141.435 238.068 141.472 238.068 137.346 242.86L131.808 249.138C133.295 250.438 133.964 249.472 134.67 248.58C136.789 245.794 138.945 242.971 141.138 240.185C141.56 239.738 142.02 239.328 142.513 238.96C142.513 242.674 139.502 244.68 138.275 247.726C139.703 247.047 140.971 246.072 141.993 244.866C145.71 240.111 149.129 235.282 152.438 230.304C156.21 224.795 158.746 218.535 159.872 211.954C160.095 210.58 160.132 209.168 160.243 207.757H159.686L156.675 212.92L156.117 212.437L161.693 196.427ZM328.962 104.639C326.265 105.405 323.857 106.957 322.048 109.097C317.079 114.476 312.933 120.559 309.745 127.15C306.027 134.579 302.31 141.488 298.593 148.657C298.296 149.215 298.147 149.883 297.664 151.183L303.314 148.583C308.741 146.169 314.168 143.791 319.595 141.154C320.258 140.808 320.831 140.312 321.268 139.705C321.788 138.999 322.048 138.108 322.531 137.439C326.794 132.137 330.694 126.552 334.203 120.724C335.355 118.681 336.768 116.823 337.92 114.892C338.27 114.542 338.657 114.231 339.072 113.963C334.685 122.965 329.177 131.377 322.68 138.999C323.075 139.053 323.475 139.053 323.869 138.999C327.587 137.179 331.304 135.285 335.021 133.539C336.027 133.091 336.934 132.446 337.688 131.642C338.441 130.838 339.026 129.892 339.407 128.859C339.704 128.116 340.002 127.336 340.262 126.556C341.844 120.06 345.466 114.242 350.595 109.951C350.967 109.654 351.116 108.985 351.487 108.243C350.372 107.797 349.443 107.388 348.551 107.091C345.17 106.314 341.666 106.239 338.255 106.868C336.322 107.316 334.304 107.226 332.419 106.608L333.013 102.893C329.965 101.445 329.631 101.556 328.813 104.639H328.962ZM296.289 171.279C296.586 170.945 296.66 170.834 296.698 170.834C304.624 172.529 312.641 173.769 320.71 174.548C321.746 174.65 322.791 174.562 323.795 174.288C330.415 171.713 336.427 167.792 341.451 162.773L342.789 161.659C342.123 161.274 341.366 161.071 340.596 161.071C339.826 161.071 339.07 161.274 338.403 161.659C336.089 162.942 333.464 163.559 330.82 163.442C329.445 163.442 328.107 163.442 326.732 163.442C320.099 163.658 313.464 163.11 306.957 161.807C303.24 160.841 299.523 159.801 295.805 158.947C294.584 158.651 293.31 158.651 292.088 158.947C288.371 159.876 285.026 161.027 281.495 162.141C281.012 162.141 280.565 162.661 279.673 163.144L289.04 170.016C288.819 170.159 288.561 170.235 288.297 170.235C288.033 170.235 287.775 170.159 287.554 170.016L278.781 164.37C277.74 163.702 276.737 163.144 275.51 164.667C279.227 167.676 282.944 169.422 286.661 172.097C286.492 172.171 286.308 172.21 286.122 172.21C285.937 172.21 285.753 172.171 285.583 172.097C281.866 170.016 278.149 167.936 274.655 165.745C273.689 165.15 272.945 164.37 271.719 165.745C277.938 169.803 284.551 173.225 291.457 175.96C284.161 174.228 277.219 171.25 270.938 167.156C269.677 166.299 268.154 165.915 266.638 166.072C265.121 166.228 263.708 166.915 262.649 168.011C272.033 172.953 282.033 176.625 292.386 178.931C301.428 181.074 310.813 181.352 319.967 179.749L318.74 175.737C311.131 174.969 303.613 173.476 296.289 171.279ZM253.542 164.63L254.286 165.076C254.683 164.699 255.032 164.275 255.326 163.813C256.583 161.334 257.712 158.792 258.709 156.198C261.774 146.296 265.423 136.584 269.637 127.113C272.413 121.106 276.017 115.517 280.342 110.508C284.3 106.073 289.203 102.583 294.69 100.293C296.4 99.5503 297.999 98.4731 299.671 97.5444L299.374 96.5786C296.921 96.9129 294.467 97.2473 291.94 97.6559C289.448 98.5938 286.794 99.0233 284.134 98.9188C284.134 97.433 284.134 96.0957 284.134 94.5727C283.353 94.5727 282.535 94.3127 282.052 94.5727C278.818 96.5415 274.618 97.2101 273.131 101.668C273.131 102.039 272.574 102.225 272.351 102.522C270.484 104.473 268.734 106.532 267.11 108.688C263.393 114.334 259.675 119.832 255.958 125.961C253.108 131.315 250.551 136.821 248.301 142.454C245.567 148.362 244.11 154.779 244.027 161.287C243.799 163.026 244.194 164.789 245.142 166.265C246.405 166.265 247.632 165.93 248.859 165.856C250.085 165.782 251.163 164.965 251.572 163.256C252.464 159.541 253.579 155.567 254.732 151.778C255.197 150.613 255.769 149.494 256.442 148.435L257.185 148.806C255.387 153.929 254.165 159.237 253.542 164.63ZM142.03 128.339C142.339 128.571 142.615 128.846 142.848 129.156C145.603 133.882 149.834 137.575 154.891 139.668C158.515 141.292 162.24 142.682 166.042 143.828C168.399 144.774 170.945 145.156 173.476 144.943C173.329 144.463 173.155 143.992 172.956 143.531C169.796 137.105 166.6 130.716 163.477 124.29C163.185 123.519 162.722 122.825 162.124 122.259C161.525 121.693 160.806 121.27 160.02 121.021C157.703 120.326 155.604 119.047 153.924 117.306C152.586 116.043 151.174 114.854 149.798 113.592C143.276 108.026 138.05 101.104 134.484 93.3098C134.096 92.6531 133.634 92.0425 133.109 91.4896C133.109 93.4955 133.109 94.7585 133.332 96.0214C133.332 97.9159 133.815 99.7361 133.889 101.705C133.889 102.596 133.889 103.896 133.22 104.231C130.804 105.865 131.436 107.945 132.365 110.063C135.227 116.526 138.201 122.915 141.175 129.341C141.175 129.341 141.472 129.564 141.732 129.676L142.03 128.339ZM234.994 78.0056C235.96 76.4826 236.89 75.2939 237.559 73.9567C240.57 67.8647 243.469 61.7356 246.517 55.6437C247.351 53.9394 247.624 52.015 247.298 50.1461C246.963 47.7316 246.554 45.3171 246.294 42.7168C245.124 35.4832 245.124 28.1086 246.294 20.875C246.34 20.3063 246.34 19.7349 246.294 19.1662C243.517 21.1404 241.017 23.4765 238.86 26.1126C237.718 27.3997 236.873 28.922 236.384 30.5717C235.896 32.2214 235.777 33.9582 236.035 35.6591C236.221 38.185 236.221 40.7481 236.295 44.0541C234.139 39.7823 235.44 35.7705 234.697 32.0559C232.727 32.0559 231.909 33.0589 231.872 34.8419C231.834 36.6249 231.574 38.8537 231.872 40.8595C231.872 44.017 232.466 47.2115 232.801 50.3689C232.037 49.3804 231.526 48.2198 231.314 46.9886C230.538 42.2808 230.639 37.4701 231.611 32.7988C231.84 32.0748 231.916 31.311 231.832 30.5563C231.749 29.8016 231.509 29.0725 231.128 28.4156C229.254 31.4154 228.108 34.812 227.783 38.3336C225.664 51.8548 229.27 64.3359 234.325 76.7055C234.176 77.1512 234.436 77.337 234.994 78.0056ZM205.778 129.49L208.157 125.553C203.808 116.117 203.733 115.82 204.923 113.926C205.815 116.229 206.707 118.606 207.636 120.909L210.647 128.339L214.662 117.455C212.775 115.704 211.253 113.599 210.181 111.26C209.11 108.92 208.51 106.393 208.417 103.822C210.387 107.945 211.13 112.886 215.479 115.783L218.936 109.357C220.2 107.054 220.237 107.017 218.564 104.974C215.61 101.665 213.505 97.6872 212.431 93.3841C210.146 83.1029 208.999 72.6017 209.012 62.0699C209.012 61.2899 209.012 60.4727 209.012 59.6926C208.057 60.5209 207.382 61.6236 207.079 62.85C206.41 66.3417 205.815 69.8706 205.443 73.4366C205.071 77.0027 205.034 80.8659 204.588 84.8033C204.365 86.9949 203.659 87.2178 201.8 86.3263C201.243 86.0663 200.611 85.8434 199.719 85.5091C199.65 92.7295 200.135 99.9446 201.169 107.091L200.276 105.457C201.244 113.641 203.089 121.699 205.778 129.49ZM359.33 142.714C358.883 142.464 358.41 142.264 357.918 142.12C352.305 141.414 346.767 140.597 341.042 140.114C338.536 139.635 335.955 139.719 333.486 140.362C331.017 141.004 328.722 142.189 326.769 143.828C326.529 144.001 326.266 144.138 325.988 144.237L302.422 155.381C301.121 156.012 299.746 156.458 298.036 157.164C306.697 157.981 314.911 158.761 323.126 159.467C329.439 159.973 335.793 159.522 341.972 158.13C342.805 157.881 343.595 157.505 344.313 157.015C345.986 155.975 347.622 154.861 349.22 153.709C350.186 153.041 351.078 152.186 352.008 151.406L351.71 150.775C345.646 151.709 339.485 151.847 333.385 151.183C335.341 150.753 337.331 150.505 339.333 150.44L353.123 149.698C353.5 149.687 353.865 149.557 354.164 149.326C356.368 147.545 358.135 145.283 359.33 142.714ZM74.639 230.639C71.5806 231.125 68.8049 232.71 66.8332 235.096C61.8604 241.924 55.183 247.329 47.4672 250.772C46.8028 251.208 46.1806 251.706 45.6086 252.258C46.6299 252.42 47.6603 252.519 48.6938 252.555C55.0872 252.332 61.5177 252.072 67.9111 251.775C69.5466 251.775 71.2565 251.329 72.5203 253.112C72.5203 254.301 72.3344 255.527 72.2229 256.827C73.0779 256.827 73.7469 256.827 74.1558 256.827C76.7929 255.29 79.2278 253.431 81.4041 251.292C85.4015 246.398 88.7844 241.034 91.4774 235.319C93.4387 231.47 94.4096 227.193 94.3024 222.875C93.848 222.79 93.3815 222.79 92.9271 222.875C89.7304 224.101 86.5709 225.327 83.4113 226.59C82.8456 226.788 82.3705 227.184 82.0732 227.704C81.1068 230.007 80.2518 232.385 79.1739 235.133C82.1475 232.868 82.891 229.116 85.9018 226.813C85.5301 231.085 78.4676 239.814 72.2601 244.42C72.2601 244.42 71.9627 244.42 71.7025 244.42L72.5946 242.786C72.3325 242.634 72.0837 242.46 71.8512 242.266C71.6713 242.005 71.5098 241.732 71.368 241.448C75.1958 237.938 78.1381 233.572 79.9545 228.707C77.8729 229.004 77.9101 229.004 77.1295 230.23C76.0823 232.087 74.9151 233.874 73.6354 235.579C71.821 237.707 69.8979 239.741 67.8739 241.671C67.5022 242.08 66.796 242.117 66.2756 242.34C69.5308 238.795 72.3395 234.866 74.639 230.639ZM235.626 89.8552V90.7096L243.543 89.9295V90.561C241.274 91.8315 238.71 92.4847 236.109 92.4554C235.385 92.3383 234.642 92.4737 234.006 92.8389C233.37 93.2042 232.879 93.777 232.615 94.4613C231.203 97.0987 229.716 99.6246 228.303 102.225C228.003 102.946 227.766 103.691 227.597 104.454C228.153 104.516 228.714 104.516 229.27 104.454C235.477 103.259 241.509 101.287 247.223 98.5845C253.065 95.4817 258.456 91.5948 263.244 87.0321C264.545 85.8063 265.363 83.6518 267.63 83.9118C267.853 83.9118 268.225 83.3918 268.373 83.0575C270.197 78.5038 271.362 73.7131 271.83 68.8305C267.816 72.1365 264.396 75.2197 260.679 77.8199C257.171 80.5902 253.243 82.7845 249.045 84.3204C249.029 84.0978 249.029 83.8744 249.045 83.6518C249.349 83.4156 249.672 83.2044 250.011 83.0203C256.094 79.9719 261.734 76.1105 266.775 71.5422C268.448 70.0192 270.232 68.6448 272.239 66.9732L272.462 63.2586C271.533 64.1873 271.087 64.5587 270.715 65.0045C267.912 68.7188 264.431 71.8697 260.456 74.291C256.107 76.7426 251.684 79.0086 247.223 81.2002C246.142 81.5985 244.975 81.7011 243.841 81.4973C242.933 81.2726 241.977 81.3341 241.105 81.6732C240.234 82.0124 239.488 82.6127 238.971 83.3918C237.893 85.4348 236.704 87.6636 235.626 89.8552ZM171.841 117.975C171.432 118.569 171.172 119.015 170.874 119.386C169.8 120.401 169.173 121.801 169.131 123.278C169.089 124.754 169.636 126.187 170.651 127.261C171.124 128.076 171.546 128.92 171.915 129.787C174.294 134.022 176.636 138.219 179.089 142.38C179.716 143.251 180.425 144.06 181.208 144.794C181.803 143.643 182.249 142.974 182.546 142.231C183.661 139.557 184.851 136.919 185.78 134.17C189.2 123.918 192.879 113.74 191.281 102.299C190.973 98.7144 190.016 95.2154 188.456 91.9725C187.613 95.6387 187.054 99.3643 186.783 103.116C186.316 106.741 185.545 110.319 184.479 113.814C184.384 112.888 184.384 111.955 184.479 111.028C185.297 103.797 186.102 96.5539 186.895 89.298C187.084 88.4 187.09 87.473 186.911 86.5728C186.732 85.6727 186.372 84.818 185.854 84.0604C184.07 84.6919 183.81 86.1406 183.773 87.775L184.442 88.2951C184.442 87.4779 184.702 86.6606 184.813 85.8434C185.319 86.4144 185.637 87.127 185.723 87.8846C185.81 88.6422 185.661 89.408 185.297 90.0781C182.955 96.3929 180.687 102.782 177.862 108.911C175.068 114.168 173.338 119.924 172.77 125.85C172.665 126.414 172.49 126.963 172.25 127.484C171.878 127.261 171.581 127.187 171.581 127.076C171.766 124.067 171.804 121.169 171.841 117.975ZM203.882 157.424C203.882 156.83 203.882 156.607 203.882 156.421C203.859 155.995 203.797 155.572 203.696 155.158C201.465 148.251 201.465 140.817 203.696 133.91C203.835 133.581 203.907 133.228 203.907 132.87C203.907 132.513 203.835 132.159 203.696 131.83C202.439 129.368 201.693 126.676 201.503 123.918C201.325 122.234 200.806 120.604 199.979 119.126C199.979 122.247 200.314 125.293 200.462 128.339C200.733 137.294 199.151 146.21 195.816 154.527C195.433 155.346 194.904 156.089 194.255 156.718C194.097 156.809 193.917 156.857 193.734 156.857C193.552 156.857 193.372 156.809 193.214 156.718C192.954 156.419 192.809 156.037 192.805 155.641C192.869 155.235 193.007 154.844 193.214 154.489C195.634 148.932 197.224 143.05 197.935 137.031C198.661 130.264 198.36 123.426 197.043 116.749C196.597 113.592 195.63 110.508 194.887 107.388C194.301 108.217 193.919 109.171 193.772 110.174C192.879 114.594 192.099 119.015 191.132 123.435C190.134 129.889 188.362 136.2 185.854 142.231C185.185 143.531 184.702 144.906 184.033 146.169C183.68 146.697 183.524 147.332 183.592 147.963C183.66 148.595 183.948 149.182 184.404 149.623C187.229 152.781 189.906 156.087 192.879 159.058C194.621 161.072 196.925 162.521 199.496 163.219C199.669 161.958 200.164 160.764 200.932 159.749C201.7 158.734 202.716 157.934 203.882 157.424ZM161.21 119.981C160.652 118.235 160.392 117.269 160.02 116.266C159.351 114.372 158.496 112.551 157.976 110.583C156.229 104.008 154.556 97.433 152.809 90.8581C152.608 89.7359 152.164 88.671 151.508 87.7379C145.938 80.5554 141.8 72.3714 139.316 63.6301C139.316 62.9614 138.87 62.33 138.424 61.067C138.134 61.8077 137.886 62.5642 137.681 63.3329C136.833 67.4885 136.67 71.7545 137.198 75.9626C137.198 77.337 137.681 78.7857 136.343 79.6772L133.183 79.2686C133.333 82.3299 133.999 85.3439 135.153 88.1836C136.491 91.0067 138.09 93.7555 139.502 96.5786C141.154 99.8495 143.27 102.865 145.784 105.531C147.011 106.868 149.018 107.685 148.869 110.174C148.869 110.434 149.352 110.806 149.65 111.066C152.363 113.443 155.04 115.82 157.79 118.086C158.876 118.811 160.02 119.445 161.21 119.981ZM260.865 63.6672L260.456 63.1472C261.051 62.7014 261.608 62.2185 262.24 61.8099C263.764 60.7698 265.4 59.8412 266.887 58.6897C267.682 58.1179 268.259 57.2926 268.522 56.3495C268.965 53.4478 268.658 50.4811 267.63 47.7316C263.69 50.8518 261.125 55.3837 256.479 56.9438C256.607 56.4648 256.879 56.0368 257.259 55.718C259.49 53.5635 261.757 51.5205 263.913 49.2917C266.069 47.0629 266.217 46.32 264.731 42.5683C263.95 43.4226 263.207 44.2027 262.538 45.057C259.947 48.4778 256.73 51.3768 253.059 53.6006C251.65 54.4288 250.603 55.7539 250.123 57.3153C247.372 64.0015 244.547 70.6507 241.759 77.2998C241.499 77.9313 241.313 78.6371 240.979 79.6772C241.941 79.5685 242.896 79.4073 243.841 79.1943C247.075 78.1542 250.308 77.1512 253.505 75.9626C255.076 75.4068 256.555 74.6179 257.891 73.6224C261.311 70.9107 264.619 68.0876 267.89 65.2274C270.009 63.3329 269.897 62.5157 267.444 60.1383L260.865 63.6672ZM4.7207 239.962V240.817L15.4259 241.448C18.9816 241.66 22.5493 241.36 26.0196 240.557C29.4021 239.74 32.859 239.22 36.2787 238.439C39.6984 237.659 43.2668 236.842 46.6866 235.765C50.0916 235.042 53.381 233.854 56.4625 232.236V231.567L43.1553 230.082V229.227C47.4672 228.559 51.9277 229.822 56.9829 229.227L55.0128 228.336C50.5932 226.692 45.8994 225.911 41.1853 226.033C34.8662 225.81 28.5472 225.698 22.2653 225.55C21.776 225.49 21.2827 225.623 20.89 225.921C19.5519 227.444 17.619 228.484 17.4331 231.047C17.3676 231.885 17.1001 232.694 16.6534 233.406C16.2068 234.117 15.5943 234.71 14.8683 235.133C13.9391 235.654 13.047 236.285 12.0805 236.731C9.51573 237.734 7.1368 238.885 4.7207 239.962ZM208.64 243.12C209.057 243.013 209.448 242.823 209.79 242.561C210.132 242.299 210.417 241.971 210.629 241.597C210.84 241.222 210.974 240.808 211.022 240.381C211.07 239.953 211.031 239.52 210.907 239.108C210.592 236.794 210.443 234.46 210.461 232.125C210.421 228.11 211.153 224.125 212.617 220.386C212.711 221.511 212.711 222.642 212.617 223.767C212.283 228.484 211.985 233.239 211.688 237.957C211.688 238.737 211.688 239.74 213.026 239.851C213.026 238.291 213.249 236.768 213.323 235.208C213.323 230.691 214.089 226.207 215.591 221.947C216.557 219.569 217.487 217.155 218.639 214.852C218.969 214.083 219.139 213.255 219.139 212.419C219.139 211.582 218.969 210.754 218.639 209.986C217.71 206.977 216.966 203.856 216 200.848C215.751 198.759 214.956 196.773 213.695 195.09C211.399 196.949 209.513 199.264 208.157 201.888C205.191 206.088 203.139 210.863 202.134 215.905C201.128 220.947 201.192 226.143 202.321 231.159C203.049 235.733 205.27 239.939 208.64 243.12ZM151.769 34.2847H151.211C151.155 35.386 151.155 36.4894 151.211 37.5907C151.545 44.1284 151.62 50.7404 152.326 57.2781C153.181 65.4874 154.593 73.6595 155.82 81.8316C156.128 82.7717 156.527 83.6798 157.01 84.5433C158.682 82.0917 160.095 80.1601 161.359 78.117C164.27 73.4248 166.604 68.3984 168.31 63.1472C168.79 61.8785 168.884 60.496 168.58 59.1739C168.276 57.8519 167.587 56.6494 166.6 55.718C162.042 50.8471 158.086 45.447 154.817 39.6337C153.813 37.8879 152.772 36.1048 151.769 34.2847ZM255.512 116.563L254.88 116.192C256.888 112.477 258.858 108.54 260.865 104.751L260.382 104.268C259.694 104.512 259.044 104.849 258.449 105.271C254.732 108.985 250.754 112.44 247 116.155C246.731 116.498 246.532 116.892 246.417 117.313C246.303 117.734 246.273 118.174 246.331 118.606C246.703 121.429 245.625 124.29 246.814 127.076C246.814 127.41 246.814 127.893 246.554 128.301C245.959 129.973 245.327 131.607 244.807 133.279C243.917 135.261 243.329 137.364 243.06 139.52C243.069 141.827 242.575 144.109 241.61 146.206C239.215 151.62 238.182 157.537 238.6 163.442C238.823 167.156 239.194 167.453 242.54 166.859C242.787 166.745 243.024 166.608 243.246 166.45C243.274 166.216 243.274 165.979 243.246 165.745C242.107 159.535 242.594 153.137 244.658 147.172C246.726 141.305 249.159 135.573 251.944 130.01C252.854 127.608 253.935 125.275 255.178 123.027C257.668 118.792 260.121 114.557 262.909 110.583C265.209 106.36 268.142 102.514 271.607 99.1789C271.607 99.1789 271.607 98.7703 271.793 98.1759C270.678 98.4359 269.674 98.6588 268.708 98.956C267.119 99.5517 265.664 100.456 264.426 101.616C263.189 102.776 262.193 104.17 261.497 105.717L255.512 116.563ZM145.487 147.989C146.562 150.207 148.036 152.209 149.836 153.895C152.743 156.56 156.024 158.787 159.574 160.507C163.712 162.8 168.338 164.074 173.067 164.222C174.89 164.476 176.746 164.205 178.42 163.442C176.673 162.884 174.926 162.736 173.253 162.253C171.581 161.77 169.834 161.881 168.384 159.653C169.099 159.739 169.807 159.875 170.503 160.061C174.665 161.51 179.08 162.092 183.475 161.77C184.737 161.544 185.98 161.221 187.192 160.804C186.04 159.43 185.334 158.575 184.59 157.758C182.695 155.715 180.65 153.821 178.903 151.666C178.41 150.918 177.716 150.323 176.902 149.949C176.087 149.574 175.184 149.436 174.294 149.549C166.372 150.005 158.525 147.809 151.992 143.308C148.869 141.525 145.896 139.408 142.848 137.439C142.304 137.252 141.744 137.116 141.175 137.031C142.218 138.636 143.467 140.097 144.892 141.377C148.46 145.351 147.494 144.869 145.487 147.989ZM242.131 206.605C237.893 198.582 223.991 189.444 218.007 190.261C218.379 192.601 218.788 194.941 219.122 196.799C221.352 197.542 223.174 197.987 224.884 198.693C227.857 199.956 228.303 200.476 228.601 202.408L220.089 198.693C220.758 201.108 220.758 201.071 222.207 201.851C223.657 202.631 225.924 203.894 228.006 205.008C228.558 205.286 229.042 205.684 229.421 206.172C229.801 206.661 230.066 207.227 230.199 207.831C227.504 205.842 224.449 204.391 221.204 203.559C221.798 204.822 221.984 205.751 222.505 206.16C224.62 207.889 226.856 209.466 229.195 210.877C234.162 213.477 238.62 216.949 242.354 221.129C243.067 221.742 243.825 222.301 244.621 222.801C244.138 220.907 243.915 219.755 243.58 218.678C242.726 216.152 241.908 213.663 240.941 211.249C240.235 209.28 239.715 207.608 241.982 206.605H242.131ZM263.913 91.7125C262.092 90.9696 260.976 92.0468 259.75 92.864C256.033 95.3157 252.316 97.9902 248.376 100.293C245.116 102.061 241.708 103.54 238.191 104.714C234.976 106.339 231.422 107.179 227.82 107.165C227.216 107.127 226.616 107.278 226.103 107.598C225.59 107.918 225.189 108.39 224.958 108.948C223.657 111.363 222.207 113.703 220.832 116.117C220.386 116.935 219.717 117.752 220.126 118.903C221.441 118.528 222.818 118.414 224.177 118.569C224.707 118.805 225.298 118.867 225.866 118.747C226.433 118.627 226.948 118.331 227.337 117.9C231.611 114.186 235.998 110.471 240.198 106.385C242.837 103.934 244.361 102.671 245.216 108.54C245.476 110.137 245.848 111.734 246.182 113.406C251.201 109.06 255.958 105.011 260.679 100.962C261.086 100.665 261.375 100.234 261.498 99.7456C261.62 99.257 261.567 98.741 261.348 98.2874C256.888 100.59 253.059 103.971 247.669 105.048C248.227 104.342 248.375 104.045 248.599 103.934C253.398 101.459 257.974 98.5759 262.277 95.3157C262.886 94.9548 263.37 94.4157 263.662 93.7712C263.955 93.1268 264.042 92.4082 263.913 91.7125ZM46.7981 240.594L47.2441 241.263C43.6522 244.556 39.8664 247.633 35.907 250.475C36.5379 250.93 37.2604 251.242 38.0244 251.39C38.7883 251.537 39.5752 251.517 40.3304 251.329C42.1497 251.002 43.8981 250.361 45.4971 249.435C49.4372 246.649 53.1543 243.566 56.9085 240.445C58.2231 239.285 59.4645 238.044 60.6256 236.731L60.2539 235.951C45.7573 241.263 30.5173 241.82 14.8683 244.271C16.0795 244.877 17.3201 245.423 18.5854 245.906C22.3025 247.057 25.7594 248.023 29.2906 249.286C30.6105 249.776 32.0376 249.903 33.4235 249.655C34.8093 249.407 36.1033 248.792 37.1708 247.875C39.9215 245.794 42.5606 243.603 45.3112 241.448C45.8688 241.114 46.352 240.891 46.7981 240.594ZM223.025 253.446C223.657 252.741 224.103 252.258 224.549 251.701C224.995 251.143 225.181 251.032 225.181 250.698C225.303 247.743 225.828 244.818 226.742 242.005C227.077 239.355 227.276 236.69 227.337 234.019C227.675 232.688 227.735 231.301 227.511 229.946C227.287 228.59 226.785 227.296 226.036 226.144C225.402 225.049 224.855 223.907 224.4 222.727C223.285 220.312 222.096 217.861 220.906 215.297C219.085 217.266 218.788 217.786 219.345 218.232C219.903 218.678 220.014 219.866 219.717 220.721C218.15 225.767 217.446 231.042 217.635 236.322C217.533 239.924 218.462 243.481 220.312 246.574C220.392 243.097 220.891 239.643 221.798 236.285C221.431 241.275 221.87 246.293 223.099 251.143C222.016 250.342 220.974 249.487 219.977 248.58C219.162 247.762 218.518 246.789 218.081 245.72C217.446 243.931 216.961 242.092 216.632 240.222C216.006 235.059 216.219 229.828 217.264 224.733C217.264 224.138 217.264 223.507 217.264 222.875C215.578 225.802 214.61 229.086 214.439 232.459C213.928 234.943 213.945 237.506 214.489 239.982C215.034 242.459 216.093 244.793 217.598 246.834C219.113 249.264 220.937 251.487 223.025 253.446ZM224.661 212.177C224.691 213.672 225.153 215.126 225.99 216.365C226.828 217.604 228.005 218.574 229.381 219.161C230.685 219.702 231.93 220.374 233.098 221.167C235.573 222.525 237.659 224.495 239.157 226.887C235.929 224.061 232.213 221.846 228.192 220.349C228.663 222.315 229.323 224.231 230.162 226.07C230.448 226.599 230.927 226.999 231.5 227.184C235.13 228.704 238.483 230.812 241.425 233.425C242.077 233.984 242.686 234.593 243.246 235.245C239.529 233.128 236.146 230.49 231.723 228.41C232.838 230.973 233.693 232.756 234.399 234.613C234.829 235.9 235.733 236.976 236.927 237.622L246.554 243.194C246.554 243.194 246.889 243.194 247.26 242.971C247.228 242.395 247.141 241.823 247 241.263C246.182 238.737 245.216 236.248 244.473 233.833C243.729 231.419 242.763 229.116 245.216 227.407C241.127 219.941 230.162 211.731 224.698 212.177H224.661ZM219.048 150.552C218.379 152.149 217.635 153.709 217.003 155.344C216.074 157.833 216.52 158.761 219.048 159.318C220.366 159.522 221.693 159.658 223.025 159.727C220.349 161.993 217.97 160.098 215.368 159.987C214.773 161.919 214.215 163.702 213.584 165.93C217.948 165.586 222.158 164.159 225.832 161.779C229.506 159.398 232.527 156.14 234.622 152.298C231.872 153.189 229.456 154.081 226.965 154.712C221.278 156.124 221.278 156.087 219.531 154.935C225.383 154.132 231.038 152.269 236.221 149.438C237.14 149.017 237.952 148.395 238.595 147.616C239.239 146.838 239.698 145.924 239.938 144.943C240.084 144.585 240.131 144.196 240.075 143.814C240.018 143.432 239.86 143.072 239.617 142.772C239.374 142.472 239.055 142.243 238.692 142.109C238.33 141.974 237.939 141.94 237.559 142.008C236.993 142.127 236.444 142.314 235.923 142.565C232.047 144.379 227.857 145.426 223.583 145.649C223.36 145.649 223.174 145.909 222.988 146.057V146.652H228.229C227.818 147.246 227.259 147.723 226.607 148.035C225.955 148.348 225.233 148.485 224.512 148.435C223.285 148.435 222.021 148.435 220.46 148.137C221.538 150.663 223.843 149.958 225.218 151.443C223.025 152.781 221.389 150.96 219.048 150.552ZM255.921 27.6727H256.404L258.077 20.875C258.635 18.5348 259.155 16.1574 259.75 13.8544C260.676 11.5684 261.106 9.11237 261.014 6.64802C258.189 8.7282 255.884 10.7341 253.319 12.3314C251.527 13.5999 250.054 15.2665 249.016 17.2001C247.977 19.1338 247.402 21.2817 247.335 23.4752C246.839 30.2314 246.938 37.0181 247.632 43.7569C247.822 45.2623 248.12 46.752 248.524 48.2145H249.268C251.275 42.5683 253.319 37.0706 255.252 31.313C255.381 30.6131 255.381 29.8956 255.252 29.1957C254.992 25.4811 254.695 21.7665 254.509 18.0519C254.613 17.3375 254.839 16.6463 255.178 16.0088H255.81C255.81 20.2435 255.847 23.9581 255.921 27.6727ZM247.409 260.839C247.238 259.974 246.884 259.155 246.371 258.438C245.858 257.721 245.198 257.121 244.435 256.678C243.233 255.832 242.21 254.756 241.425 253.513C240.641 252.27 240.11 250.884 239.863 249.435C239.592 248.209 239.06 247.056 238.302 246.054C236.369 243.058 234.399 240.086 232.392 237.139C231.426 235.691 230.422 234.316 229.195 232.608C228.861 233.573 228.675 234.019 228.526 234.502C226.705 240.222 228.526 245.832 229.418 251.478C229.518 251.881 229.739 252.243 230.05 252.518C231.39 254.051 232.927 255.4 234.622 256.53C237.94 258.076 241.34 259.44 244.807 260.616C245.66 260.807 246.536 260.882 247.409 260.839ZM226.11 123.064L222.393 120.315C220.349 122.061 218.23 123.658 216.334 125.553C215.624 126.159 215.051 126.911 214.653 127.756C214.256 128.601 214.043 129.522 214.03 130.456C214.422 135.141 216.18 139.61 219.085 143.308C222.363 140.037 225.313 136.454 227.894 132.61C228.233 131.971 228.312 131.227 228.117 130.53C227.56 128.079 226.742 125.627 226.11 123.064ZM224.066 143.457C224.547 143.515 225.034 143.515 225.515 143.457C230.297 142.603 234.914 140.998 239.194 138.702C240.294 137.875 241.175 136.791 241.759 135.545C242.368 134.454 242.806 133.276 243.06 132.053C244.002 129.181 244.269 126.13 243.841 123.138C242.391 124.327 241.313 125.293 240.124 126.11C238.351 127.704 236.346 129.02 234.176 130.01C232.495 130.445 231.029 131.475 230.05 132.907C227.442 136.039 225.415 139.612 224.066 143.457ZM343.533 127.893L343.905 128.673C345.131 128.153 346.358 127.67 347.622 127.076C353.647 123.705 359.998 120.955 366.579 118.866C367.694 118.532 368.735 118.049 369.85 117.603L372.786 116.452V115.82L356.84 114.78C356.054 116.303 355.159 117.768 354.164 119.163C353.16 120.352 352.751 122.321 350.447 122.655C350.815 121.788 351.237 120.944 351.71 120.129C353.049 118.086 354.424 116.117 355.836 114.112C357.249 112.106 356.914 111.957 355.093 110.063C350.395 115.414 346.501 121.421 343.533 127.893ZM217.152 182.275C216.966 182.553 216.842 182.868 216.79 183.198C216.738 183.529 216.759 183.867 216.851 184.189C216.943 184.51 217.104 184.808 217.323 185.061C217.542 185.315 217.813 185.517 218.118 185.655C220.497 187.141 222.913 188.664 225.367 189.964C228.867 191.58 232.09 193.736 234.92 196.353C236.146 197.579 237.596 198.545 239.343 200.068C236.258 189.89 230.199 183.352 223.137 182.609L226.482 185.841C223.025 185.098 220.312 182.869 217.115 182.275H217.152ZM208.157 137.105H207.525C208.045 140.04 208.343 142.974 209.086 145.834C209.586 147.549 210.392 149.16 211.465 150.589C212.654 152.372 213.472 152.335 214.699 150.589C215.925 148.843 216.594 147.692 217.524 146.243C217.965 145.655 218.185 144.93 218.144 144.196C218.104 143.462 217.805 142.766 217.301 142.231C216.039 140.818 215.056 139.179 214.401 137.402C213.509 133.688 210.684 132.425 208.343 129.973C207.376 131.756 208.64 132.945 208.974 134.245C209.309 135.545 209.718 137.365 210.238 138.851C210.759 140.337 211.316 141.637 211.874 143.011L213.546 147.06C211.009 144.199 209.164 140.793 208.157 137.105ZM155.82 90.5238L155.114 90.7096C155.058 91.0914 155.058 91.4792 155.114 91.8611C155.82 94.9814 156.526 98.1016 157.344 101.185C159.189 107.817 161.372 114.351 163.886 120.761C167.676 131.725 173.432 141.908 180.873 150.812C182.686 153.071 184.859 155.016 187.304 156.57C179.598 147.038 172.99 136.671 167.603 125.664C161.507 114.632 159.24 102.411 155.82 90.5238ZM242.354 108.503L241.833 108.02C240.904 108.763 239.975 109.431 239.12 110.211C236.295 112.737 233.507 115.3 230.719 117.863C229.353 119.393 228.52 121.324 228.346 123.367C228.172 125.41 228.665 127.454 229.753 129.193C235.775 123.584 238.488 115.635 242.354 108.503ZM254.36 47.7316L254.992 48.2888C257.371 46.2829 259.75 44.2398 262.166 42.2711C263.609 40.8207 264.713 39.0698 265.401 37.1434C266.088 35.2171 266.342 33.1628 266.143 31.1273C266.026 30.3601 265.853 29.6026 265.623 28.8614C263.578 31.1273 261.906 33.1332 260.01 35.0648C259.155 35.9934 257.817 36.662 257.408 37.7393C256.219 40.8595 255.326 44.3513 254.36 47.7316ZM258.412 34.099L259.006 34.359C261.532 31.8702 263.719 29.0601 265.511 26.0011C265.806 25.4562 265.923 24.8328 265.846 24.2181C265.325 19.3891 264.731 14.5973 264.173 9.80543C263.504 10.1397 263.318 10.4741 263.244 10.8455C261.807 17.2346 260.369 23.6362 258.932 30.05C258.687 31.3895 258.513 32.7411 258.412 34.099ZM212.915 153.821L207.488 151.666C205.824 148.193 205.02 144.371 205.146 140.522C203.027 146.54 205.926 159.095 210.015 162.327L212.915 153.821ZM233.73 128.821C236.637 127.715 239.246 125.947 241.35 123.658C244.51 120.946 245.067 117.306 242.8 112.514C239.826 117.975 236.927 123.101 233.73 128.821ZM381.856 119.089L381.596 118.346C380.869 118.339 380.144 118.426 379.44 118.606C374.756 120.464 370.11 122.321 365.464 124.29C364.921 124.594 364.421 124.969 363.977 125.404C366.325 125.648 368.691 125.648 371.039 125.404C372.681 125.398 374.303 125.043 375.797 124.364C377.957 122.774 379.984 121.01 381.856 119.089ZM246.777 254.932C246.992 253.318 247.352 251.727 247.855 250.178C248.239 249.489 248.341 248.679 248.14 247.917C247.939 247.155 247.451 246.501 246.777 246.092C244.064 244.16 241.313 242.377 238.562 240.52C238.04 240.255 237.492 240.043 236.927 239.888C240.272 244.791 242.242 250.586 246.777 254.932ZM236.927 166.896C236.628 162.3 236.89 157.685 237.707 153.152C235.589 154.907 233.736 156.959 232.206 159.244C232.132 159.435 232.132 159.647 232.206 159.838C233.135 161.25 232.206 162.439 231.983 163.553C231.702 164.257 231.713 165.044 232.013 165.741C232.313 166.437 232.877 166.987 233.582 167.268C233.315 165.51 233.411 163.717 233.865 161.998C234.319 160.279 235.121 158.672 236.221 157.275C236.146 160.73 232.727 164.036 236.927 166.896ZM150.542 55.9408H150.207C150.207 58.1325 150.207 60.3241 150.616 62.4785C151.583 70.2792 152.623 78.0799 153.664 85.8806C153.839 86.4853 154.102 87.061 154.445 87.5893L155.151 87.4036L150.542 55.9408ZM224.326 105.345C224.846 104.825 225.255 104.565 225.441 104.194C228.08 99.5875 230.645 94.9442 233.247 90.3381C234.065 88.8151 234.957 87.3293 235.737 85.7691C236.109 85.0634 236.555 84.2461 235.737 83.6147C231.03 90.3471 227.196 97.6488 224.326 105.345ZM122.404 241.448C127.013 238.811 134.335 225.438 134.373 219.161C131.436 228.039 126.381 234.465 122.404 241.448ZM146.044 176.814C149.761 180.529 154.408 182.943 156.749 188.441L159.537 186.992C156.011 182.511 151.353 179.049 146.044 176.963V176.814ZM147.494 31.5359C146.565 33.5789 145.97 35.2505 145.264 36.4763C144.767 37.5867 144.511 38.7891 144.511 40.0052C144.511 41.2213 144.767 42.4237 145.264 43.5341C145.598 44.537 146.007 45.8743 147.159 45.5028C148.312 45.1313 147.791 43.7941 147.494 42.8654C147.197 41.9368 146.788 41.0824 146.565 40.1538C146.347 39.1231 146.186 38.0815 146.081 37.0335L147.977 37.5907C147.866 35.882 148.683 34.2104 147.494 31.6845V31.5359ZM155.857 142.268C161.211 146.203 167.828 148.028 174.443 147.394L155.857 142.268ZM186.932 176.926C190.24 176.034 193.549 174.994 196.894 174.325C200.239 173.657 203.585 173.397 207.562 172.877C200.401 171.519 192.992 173.027 186.932 177.074V176.926ZM215.368 171.205C222.704 171.312 230.03 170.639 237.224 169.199C229.827 170.648 222.43 169.273 215.368 171.354V171.205ZM145.97 138.442L146.23 137.922C144 135.545 141.807 133.13 139.502 130.827C138.893 130.443 138.177 130.261 137.458 130.307C137.235 130.307 136.751 131.05 136.826 131.199C137.132 131.908 137.588 132.542 138.164 133.056C139.428 134.022 140.84 134.728 142.141 135.619C143.442 136.511 144.706 137.439 145.97 138.442ZM223.025 108.54L222.319 108.057C219.511 112.432 217.251 117.135 215.591 122.061C216.26 122.061 216.669 122.061 216.743 121.689C218.899 117.343 220.981 112.923 223.025 108.54ZM217.003 168.233V168.568C219.419 168.382 221.798 168.271 224.177 167.973C224.623 167.973 224.958 167.119 225.367 166.636C224.809 166.413 224.177 165.893 223.694 166.005C221.501 166.673 219.308 167.49 217.003 168.233ZM82.2962 182.015V181.272C79.3787 180.182 76.1504 180.275 73.3009 181.532L82.2962 182.015ZM226.408 223.432C225.867 219.394 224.118 215.613 221.389 212.586C223.248 216.598 224.846 220.015 226.408 223.432ZM357.137 124.735C359.822 124.28 362.366 123.212 364.572 121.615C361.86 121.976 359.294 123.053 357.137 124.735ZM220.72 209.428L221.278 209.206L218.453 200.848C218.414 203.861 219.198 206.827 220.72 209.428ZM230.199 167.862C230.199 165.67 230.199 163.887 230.496 161.919C228.229 164.036 228.08 166.042 230.199 167.862ZM289.338 157.09L289.04 156.384L280.082 159.281L280.305 159.95L289.338 157.09ZM59.4733 231.419L63.1904 229.933V229.19L60.3283 227.89L59.4733 231.419ZM202.507 164.184C203.696 162.922 204.811 162.104 204.031 160.284C201.875 161.361 201.875 161.361 202.507 164.184ZM285.36 179.712L285.583 179.08C283.529 178.095 281.283 177.575 279.004 177.557L285.36 179.712ZM215.219 156.012L214.439 155.641L212.58 161.361L213.063 161.584C213.807 159.727 214.513 157.721 215.219 156.012ZM214.959 187.141H215.331C214.847 184.466 214.401 181.792 213.918 179.117H213.584C214.03 181.68 214.476 184.355 214.959 186.992V187.141ZM65.9039 234.576C63.971 234.353 63.2648 235.282 63.748 237.288L65.9039 234.576ZM228.043 250.438C227.746 248.58 227.485 247.243 227.262 245.869C226.767 246.58 226.571 247.458 226.717 248.313C226.863 249.167 227.339 249.93 228.043 250.438ZM199.347 115.895H199.645C199.645 115.077 199.384 114.26 199.198 113.443C199.013 112.626 198.827 112.031 198.641 111.326C198.79 112.849 199.087 114.372 199.347 115.895ZM223.025 207.423C223.843 209.874 223.843 209.874 225.738 209.428L223.025 207.423ZM233.433 235.393L234.028 234.911L231.537 231.196L231.054 231.567L233.433 235.393ZM135.079 208.797C135.079 207.72 135.302 207.162 135.376 206.531C133.815 206.94 133.815 206.94 135.079 208.797ZM205.443 167.156H206.335C206.335 166.599 206.335 166.042 206.001 165.485C205.666 164.927 205.518 165.485 205.257 165.485C204.997 165.485 205.369 166.599 205.443 167.156ZM353.643 140.04V139.371L351.302 139.185V139.594L353.643 140.04ZM277.332 160.767V160.433L275.845 160.878C276.343 160.911 276.844 160.873 277.332 160.767ZM208.937 167.156H208.491V168.419H209.235L208.937 167.156ZM215.963 153.152H216.297L216.669 152.186H216.446C216.256 152.506 216.094 152.841 215.963 153.189V153.152ZM170.986 60.3984L170.651 60.0269C170.651 60.0269 170.354 60.3984 170.391 60.4727C170.428 60.547 170.651 60.7698 170.8 60.9184L170.986 60.3984ZM309.782 121.875L310.079 122.135L310.785 120.909L310.451 120.686L309.782 121.875ZM216.111 192.453C216.111 192.081 216.111 191.895 216.111 191.71C216.111 191.524 216.111 191.71 216.111 191.45V192.453ZM345.689 120.278L345.094 119.795L344.499 121.095L344.982 121.429L345.689 120.278Z" fill="#BD9D63"/>
<path d="M209.272 181.421L210.127 180.752C210.127 181.124 210.499 181.384 210.424 181.495C208.417 185.21 206.373 188.665 204.105 192.119C205.11 188.213 206.893 184.549 209.347 181.347L209.272 181.421Z" fill="#BD9D63"/>
<path d="M118.947 179.601C116.53 178.97 114.114 178.45 111.698 177.707C103.849 175.675 95.7554 174.737 87.6487 174.921C84.8238 174.921 82.0359 174.921 79.211 174.921C78.5224 174.868 77.8819 174.548 77.4268 174.029C77.91 173.769 78.3932 173.286 78.9136 173.249C81.6271 173.249 84.3405 173.249 87.054 173.249C95.3767 173.133 103.674 174.197 111.698 176.407L119.132 178.97L118.947 179.601Z" fill="#BD9D63"/>
<path d="M87.2031 170.277C90.9202 168.717 104.673 170.277 110.435 173.249L87.2031 170.277Z" fill="#BD9D63"/>
<path d="M90.1396 160.322C90.5857 160.025 90.9946 159.43 91.4406 159.43C96.7977 159.183 102.166 159.344 107.498 159.913C101.768 160.943 95.9124 161.08 90.1396 160.322Z" fill="#BD9D63"/>
<path d="M145.375 189.445L134.001 182.016C138.638 182.902 142.796 185.436 145.71 189.148L145.375 189.445Z" fill="#BD9D63"/>
<path d="M137.755 179.23C142.383 181.108 146.29 184.413 148.907 188.665L137.532 179.861L137.755 179.23Z" fill="#BD9D63"/>
<path d="M131.139 184.133C133.438 184.36 135.635 185.2 137.499 186.566C139.362 187.932 140.824 189.773 141.732 191.897C140.097 190.559 138.536 189.148 136.826 187.922C135.116 186.696 133.183 185.507 131.139 184.133Z" fill="#BD9D63"/>
<path d="M138.09 194.274L133.369 191.265C136.045 191.636 136.343 191.859 138.09 194.274Z" fill="#BD9D63"/>
<path d="M129.132 188.628L127.942 187.922V187.588L129.132 188.219V188.628Z" fill="#BD9D63"/>
<path d="M52.0391 198.063C56.7969 195.908 81.1067 199.92 85.7902 203.337C74.6389 199.697 63.1903 199.66 52.0391 198.063Z" fill="#BD9D63"/>
<path d="M78.5421 196.874L55.4219 195.054C59.1761 192.862 74.3418 194.088 78.5421 196.874Z" fill="#BD9D63"/>
<path d="M104.562 194.088C105.29 193.996 106.026 193.996 106.755 194.088C113.702 195.52 120.544 197.419 127.236 199.771V200.403C126.642 200.458 126.045 200.458 125.452 200.403C118.24 199.229 111.215 197.105 104.562 194.088Z" fill="#BD9D63"/>
<path d="M118.723 202.335C113.109 201.958 107.702 200.072 103.074 196.874L118.946 201.48L118.723 202.335Z" fill="#BD9D63"/>
<path d="M102.629 201.071C104.525 202.037 106.346 203.114 108.316 203.932C110.286 204.749 112.293 205.306 114.524 206.086C111.513 207.312 105.491 204.934 102.629 201.071Z" fill="#BD9D63"/>
<path d="M154.854 199.771C158.571 207.201 150.468 223.954 143.889 229.228C149.687 220.09 155.3 211.361 154.854 199.771Z" fill="#BD9D63"/>
<path d="M141.249 226.591C147.94 219.756 149.389 210.172 151.731 201.108C151.099 210.878 149.055 220.09 141.249 226.591Z" fill="#BD9D63"/>
<path d="M137.532 233.723C135.762 239.359 131.87 244.087 126.678 246.91C130.469 242.341 133.815 238.292 137.532 233.723Z" fill="#BD9D63"/>
<path d="M147.791 203.783C148.083 205.327 148.056 206.915 147.711 208.448C147.365 209.981 146.71 211.428 145.784 212.698L147.791 203.783Z" fill="#BD9D63"/>
<path d="M86.8682 254.042C89.6248 252.969 91.9237 250.973 93.3731 248.396C97.561 242.329 101.736 236.249 105.9 230.157C106.277 229.527 106.834 229.023 107.498 228.708C107.41 229.241 107.234 229.756 106.978 230.231C102.021 237.661 97.0034 245.003 91.9234 252.259C91.1352 253.276 90.1949 254.166 89.1356 254.896C88.5037 255.379 87.6859 255.528 86.8682 254.042Z" fill="#BD9D63"/>
<path d="M107.796 237.251C107.796 237.734 107.796 238.329 107.573 238.663C104.562 242.935 101.551 247.244 98.3916 251.404C97.4831 252.372 96.4449 253.21 95.3065 253.893L94.8232 253.447C94.8232 252.964 94.8232 252.221 95.195 251.961C99.5197 247.88 103.271 243.231 106.346 238.143C106.566 237.813 106.828 237.513 107.127 237.251C107.127 237.251 107.498 237.251 107.796 237.251Z" fill="#BD9D63"/>
<path d="M106.049 256.085L103.744 255.75C108.316 250.661 111.513 245.164 115.564 240.26L116.122 240.669C115.95 241.168 115.738 241.652 115.49 242.118L107.796 253.596C107.238 254.413 106.718 255.305 106.16 256.159L106.049 256.085Z" fill="#BD9D63"/>
<path d="M59.4736 212.847C63.7483 211.733 77.2785 215.484 80.0663 218.753C73.4148 216.108 66.5167 214.129 59.4736 212.847Z" fill="#BD9D63"/>
<path d="M66.0156 210.061C73.4498 210.061 80.884 210.655 87.2402 216.116C85.3073 216.487 84.0807 214.741 82.408 214.184C80.7353 213.627 78.6909 212.661 76.8695 212.104C75.0997 211.586 73.2997 211.177 71.4797 210.878C69.6584 210.544 67.837 210.321 66.0156 210.061Z" fill="#BD9D63"/>
<path d="M53.1172 218.159C54.9793 217.803 56.8714 217.629 58.7672 217.639C62.4842 218.01 65.8668 218.753 69.3608 219.459C70.2144 219.702 70.9527 220.242 71.4424 220.982C65.466 219.385 59.3344 218.438 53.1544 218.159H53.1172Z" fill="#BD9D63"/>
<path d="M57.0195 221.539C60.7272 221.227 64.4583 221.734 67.9478 223.025C64.2379 223.465 60.477 222.953 57.0195 221.539Z" fill="#BD9D63"/>
<path d="M312.606 140.561C314.353 140.561 315.357 139.112 316.324 137.812C320.524 132.129 324.687 126.408 328.887 120.688C329.385 119.942 330.046 119.32 330.82 118.867C330.82 119.276 330.82 119.796 330.82 120.093C326.76 127.004 322.095 133.543 316.881 139.632C316.288 140.293 315.628 140.891 314.911 141.415C313.982 142.084 313.276 141.638 312.792 140.598L312.606 140.561Z" fill="#BD9D63"/>
<path d="M312.681 140.486C311.566 141.935 310.822 143.792 308.332 144.647L320.152 125.182C320.34 125.765 320.381 126.386 320.271 126.989C320.16 127.592 319.903 128.158 319.52 128.637C317.253 132.648 314.911 136.623 312.607 140.561L312.681 140.486Z" fill="#BD9D63"/>
<path d="M304.354 146.578C304.354 145.761 304.354 145.315 304.354 145.055L313.09 130.197C313.424 132.5 313.387 132.686 309.67 138.778C308.348 141.657 306.551 144.294 304.354 146.578Z" fill="#BD9D63"/>
<path d="M300.229 168.792C304.652 169.423 309.075 170.277 313.536 170.686C317.996 171.095 322.122 171.02 326.843 171.169C322.977 173.175 306.882 171.837 300.229 168.792Z" fill="#BD9D63"/>
<path d="M335.393 166.377C328.98 168.12 322.325 168.798 315.692 168.383L335.319 165.56L335.393 166.377Z" fill="#BD9D63"/>
<path d="M311.454 168.123H312.941V168.42L311.454 168.68V168.123Z" fill="#BD9D63"/>
<path d="M280.454 97.2109C271.941 106.312 266.031 117.53 259.526 128.897C259.787 124.848 267.927 110.323 273.614 103.303C275.584 100.888 277.034 97.7681 280.454 97.2109Z" fill="#BD9D63"/>
<path d="M260.604 133.726C262.091 125.405 272.908 106.832 277.74 104.009C274.506 108.949 271.198 113.481 268.373 118.384C265.548 123.288 263.169 128.674 260.604 133.726Z" fill="#BD9D63"/>
<path d="M254.62 145.612C252.947 152.15 251.386 158.131 249.862 164.185H249.491C249.297 163.37 249.21 162.534 249.23 161.697C249.762 155.991 251.606 150.487 254.62 145.612Z" fill="#BD9D63"/>
<path d="M221.501 60.3623L227.671 81.7213C223.583 75.3322 223.025 67.6429 221.501 60.3623Z" fill="#BD9D63"/>
<path d="M218.601 72.9172C220.423 78.8235 221.24 85.064 225.701 89.9673C224.995 89.9673 224.437 90.1902 224.102 89.9673C223.539 89.5197 223.072 88.9639 222.727 88.3329C220.387 84.1573 218.837 79.5862 218.155 74.8488C218.099 74.4297 218.099 74.005 218.155 73.5859C218.155 73.5859 218.341 73.2887 218.601 72.9172Z" fill="#BD9D63"/>
<path d="M224.14 45.5039C223.437 43.0228 223.703 40.3676 224.883 38.0747C224.623 40.5263 224.363 43.0151 224.14 45.5039Z" fill="#BD9D63"/>
<path d="M215.776 79.0469C215.776 80.2355 216.036 81.4614 216.185 82.7615C215.676 82.2985 215.353 81.6655 215.278 80.9815C215.202 80.2974 215.38 79.6095 215.776 79.0469Z" fill="#BD9D63"/>
<path d="M166.116 138.741C165.466 138.995 164.769 139.109 164.072 139.075C162.764 138.831 161.507 138.366 160.355 137.7C156.229 134.766 152.177 131.683 148.163 128.6C147.597 128.048 147.253 127.308 147.196 126.52L148.46 127.374C152.177 130.271 155.894 133.354 159.611 135.955C161.694 137.034 163.904 137.845 166.191 138.369L166.116 138.741Z" fill="#BD9D63"/>
<path d="M145.189 121.951C150.596 125.798 156.403 129.048 162.51 131.646C162.064 131.832 161.581 132.203 161.135 132.092C160.172 131.902 159.244 131.564 158.384 131.089C154.667 128.934 150.95 126.705 146.973 124.477C146.27 123.882 145.6 123.25 144.966 122.582L145.189 121.951Z" fill="#BD9D63"/>
<path d="M148.46 120.39L158.793 126.816C154.691 125.978 151.025 123.698 148.46 120.39Z" fill="#BD9D63"/>
<path d="M240.978 50.1099C240.978 51.4843 241.201 52.8958 241.387 54.2702C241.573 55.6446 241.833 56.9076 242.093 58.4306C239.863 57.1676 239.342 53.6016 240.978 50.1099Z" fill="#BD9D63"/>
<path d="M238.265 31.351L237.596 40.8604C236.942 37.6672 236.879 34.3812 237.41 31.1653L238.265 31.351Z" fill="#BD9D63"/>
<path d="M243.097 54.9017C242.168 51.7814 242.168 51.1871 243.432 49.1069L243.729 54.9389L243.097 54.9017Z" fill="#BD9D63"/>
<path d="M238.525 62.3307L237.894 58.0217H238.451C238.711 59.4333 238.934 60.8448 239.195 62.2935L238.525 62.3307Z" fill="#BD9D63"/>
<path d="M176.822 73.9209C176.994 77.0316 176.38 80.1357 175.038 82.9474C173.888 85.7932 172.92 88.7088 172.138 91.6767L174.22 89.2622L174.703 89.5965C173.811 91.8624 172.324 93.794 171.283 95.9856C170.243 98.1773 169.09 100.369 167.566 103.229C167.566 101.855 167.566 101.186 167.566 100.369L166.228 100.072C166.19 99.7758 166.19 99.4761 166.228 99.1802C169.494 93.0928 172.182 86.713 174.257 80.1243C174.74 78.6384 174.926 77.0783 175.335 75.5553C175.525 74.9248 175.748 74.3048 176.004 73.698L176.822 73.9209Z" fill="#BD9D63"/>
<path d="M166.228 115.636C166.153 110.925 167.444 106.294 169.945 102.3L170.725 102.597C169.945 104.789 169.09 106.906 168.421 109.135C167.752 111.364 167.417 113.593 166.897 115.821L166.228 115.636Z" fill="#BD9D63"/>
<path d="M158.608 94.4993C160.017 90.4613 162.103 86.6927 164.779 83.3555C164.712 83.8996 164.588 84.4351 164.407 84.9528C163.106 87.6273 161.768 90.2646 160.69 92.9392C160.244 93.7935 159.798 94.5736 158.72 94.3507L158.608 94.4993Z" fill="#BD9D63"/>
<path d="M161.582 98.8453C161.542 96.7776 161.953 94.726 162.788 92.8334C163.623 90.9409 164.86 89.253 166.414 87.8872C164.704 91.7133 163.217 95.1678 161.582 98.8453Z" fill="#BD9D63"/>
<path d="M206.967 110.026L210.981 119.981C209.643 119.981 208.974 118.83 208.454 117.604C206.977 115.373 206.443 112.649 206.967 110.026Z" fill="#BD9D63"/>
<path d="M356.543 145.315C349.885 147.134 342.915 147.514 336.099 146.43L356.394 144.535L356.543 145.315Z" fill="#BD9D63"/>
<path d="M328.775 154.75L345.428 152.67V153.376C340.053 155.091 334.359 155.561 328.775 154.75Z" fill="#BD9D63"/>
<path d="M254.731 84.8041L267.89 76.7434C267.109 78.8236 267.109 78.8607 261.98 81.9067C259.712 83.2068 257.333 84.2841 255.029 85.4356L254.731 84.8041Z" fill="#BD9D63"/>
<path d="M232.058 97.0253C235.69 95.635 239.416 94.5053 243.209 93.645C239.492 96.5796 234.511 98.2883 232.058 97.0253Z" fill="#BD9D63"/>
<path d="M188.456 101.483C189.98 106.164 186.969 123.362 183.215 130.791C184.367 126 185.668 121.282 186.523 116.453C187.378 111.624 187.787 106.795 188.456 101.483Z" fill="#BD9D63"/>
<path d="M175.335 132.388C174.121 126.782 174.841 120.929 177.379 115.784C177.621 116.361 177.747 116.979 177.751 117.604C177.342 120.093 176.784 122.507 176.375 125.033C175.967 127.559 175.706 130.011 175.335 132.388Z" fill="#BD9D63"/>
<path d="M180.353 118.867L178.122 133.726H177.416C177.03 128.599 178.045 123.463 180.353 118.867Z" fill="#BD9D63"/>
<path d="M186.151 148.919C188.828 139.929 191.541 130.94 194.217 121.876C194.504 123.748 194.325 125.662 193.697 127.448C193.251 129.268 192.805 131.163 192.322 132.909C191.839 134.654 191.207 136.623 190.612 138.592C190.017 140.561 189.348 142.084 188.79 143.867C188.43 145.744 187.737 147.543 186.746 149.179L186.151 148.919Z" fill="#BD9D63"/>
<path d="M149.315 105.16C147.159 104.789 146.044 103.006 144.854 101.446C140.384 95.7798 136.983 89.3477 134.818 82.4641C138.625 90.6371 143.499 98.2691 149.315 105.16Z" fill="#BD9D63"/>
<path d="M147.866 95.428C143.45 91.4642 140.286 86.3012 138.759 80.5696C138.906 80.8378 139.068 81.0981 139.242 81.3496L147.866 95.428Z" fill="#BD9D63"/>
<path d="M258.226 60.4739C260.849 57.5609 263.893 55.0568 267.258 53.0447C264.979 56.2953 261.856 58.8637 258.226 60.4739Z" fill="#BD9D63"/>
<path d="M37.1709 233.463C39.1073 232.4 41.2564 231.782 43.4618 231.654C45.6672 231.525 47.8736 231.89 49.9205 232.72C45.7091 233.419 41.4351 233.668 37.1709 233.463Z" fill="#BD9D63"/>
<path d="M252.204 171.763C257.957 173.045 263.492 175.16 268.634 178.041C262.91 176.663 257.388 174.553 252.204 171.763Z" fill="#BD9D63"/>
<path d="M209.792 216.041C208.603 224.251 206.261 232.163 209.792 240.483C209.309 240.186 208.64 240.038 208.343 239.592C207.005 237.654 206.339 235.332 206.447 232.98C206.893 228.188 207.451 223.396 207.971 218.604C207.965 218.04 208.138 217.488 208.465 217.027C208.792 216.567 209.257 216.222 209.792 216.041Z" fill="#BD9D63"/>
<path d="M206.336 215.447C205.078 222.054 204.99 228.831 206.075 235.469C203.139 231.16 203.251 218.79 206.336 215.447Z" fill="#BD9D63"/>
<path d="M160.095 60.3623C160.242 65.4434 159.343 70.5005 157.456 75.2207C157.307 69.946 159.834 65.377 160.095 60.3623Z" fill="#BD9D63"/>
<path d="M154.483 40.8606C155.765 46.4591 155.765 52.275 154.483 57.8735C154.259 51.9673 154.036 46.4325 153.851 40.9349L154.483 40.8606Z" fill="#BD9D63"/>
<path d="M156.117 64.5969C156.749 61.8109 157.344 58.9878 158.013 55.7561C158.608 58.3563 158.385 59.6193 156.117 64.5969Z" fill="#BD9D63"/>
<path d="M248.413 121.133C248.971 119.127 249.454 117.158 250.049 115.19C250.337 114.326 250.835 113.548 251.498 112.924C250.869 115.782 249.804 118.525 248.339 121.059L248.413 121.133Z" fill="#BD9D63"/>
<path d="M252.093 122.582L253.431 119.87L253.877 120.13L252.762 122.582H252.093Z" fill="#BD9D63"/>
<path d="M248.338 121.059L248.115 123.659H247.483C247.818 122.879 248.115 122.099 248.413 121.319L248.338 121.059Z" fill="#BD9D63"/>
<path d="M150.431 144.87C160.504 150.107 170.057 156.608 181.431 156.385C182.175 157.796 181.728 158.577 180.688 158.725C179.462 158.979 178.197 158.979 176.971 158.725C171.469 157.462 165.819 156.051 160.43 154.676C160.037 154.593 159.64 154.531 159.24 154.49L159.835 153.413L169.759 156.236C162.982 153.047 156.512 149.242 150.431 144.87Z" fill="#BD9D63"/>
<path d="M250.494 32.9855C249.511 27.4776 249.398 21.8497 250.16 16.3069H250.903C251.126 16.7526 251.535 17.1984 251.498 17.607C251.498 18.87 251.275 20.1329 251.126 21.3216C250.568 24.5293 250.568 27.8091 251.126 31.0167C251.163 31.6972 251.163 32.3793 251.126 33.0598L250.494 32.9855Z" fill="#BD9D63"/>
<path d="M369.812 130.494C368.214 130.717 366.653 131.051 365.054 131.2C363.456 131.349 361.04 131.2 358.772 131.46C360.438 130.466 362.31 129.869 364.244 129.714C366.178 129.559 368.121 129.852 369.924 130.568L369.812 130.494Z" fill="#BD9D63"/>
<path d="M356.84 134.06C358.11 133.215 359.573 132.704 361.093 132.574C362.614 132.444 364.142 132.7 365.538 133.317C362.75 134.655 359.702 133.392 356.84 134.06Z" fill="#BD9D63"/>
<path d="M141.77 46.6555C142.296 47.6387 142.756 48.6564 143.145 49.7015C143.702 51.4102 143.591 53.4161 145.152 54.5676C145.375 54.7534 145.152 55.6077 145.152 56.1649C144.632 56.1649 143.963 56.1649 143.628 55.8306C143.206 55.354 142.945 54.7557 142.885 54.1219C142.513 51.6331 142.216 49.1072 141.918 46.6927L141.77 46.6555Z" fill="#BD9D63"/>
<path d="M242.428 258.87C239.564 256.304 237.413 253.041 236.184 249.398C238.079 250.141 238.488 252.184 239.529 253.707L242.874 258.425L242.428 258.87Z" fill="#BD9D63"/>
<path d="M234.176 252.891C232.917 251.227 232.274 249.18 232.354 247.096C233.878 248.47 234.176 249.287 234.176 252.891Z" fill="#BD9D63"/>
<path d="M217.933 129.008C218.453 131.125 218.974 133.28 219.531 135.731C217.413 134.134 217.004 132.648 217.338 129.119L217.933 129.008Z" fill="#BD9D63"/>
<path d="M221.39 127.076C221.724 128.897 222.022 130.791 222.319 132.463C220.535 131.311 220.237 130.271 221.39 127.076Z" fill="#BD9D63"/>
<path d="M234.92 136.326C234.355 137.365 233.461 138.187 232.378 138.664C231.295 139.141 230.084 139.247 228.936 138.963C230.79 137.795 232.806 136.906 234.92 136.326Z" fill="#BD9D63"/>
<path d="M355.502 122.136C356.506 118.421 356.803 117.975 358.773 116.638C358.893 117.784 358.64 118.939 358.05 119.929C357.461 120.92 356.567 121.694 355.502 122.136Z" fill="#BD9D63"/>
<path d="M209.57 156.013L209.31 155.085L209.867 155.716L209.57 156.013Z" fill="#BD9D63"/>
<path d="M240.719 242.675L246.406 248.879C243.953 249.064 241.797 246.947 240.719 242.675Z" fill="#BD9D63"/>
</svg>
