<svg width="51" height="52" viewBox="0 0 51 52" fill="none" xmlns="http://www.w3.org/2000/svg">
<g clip-path="url(#clip0)">
<path d="M17.4756 17.9333C17.6348 18.0418 17.8216 18.0992 18.016 18.0992H18.0183C18.5491 18.0992 18.9808 17.6676 18.9808 17.1372C18.9808 17.0451 18.9679 16.9544 18.9425 16.8665C18.3883 14.4397 18.6509 12.4852 19.7228 11.0571C20.9859 9.37418 21.5454 7.21475 21.2194 5.28086C20.9315 3.56708 20.0102 2.14254 18.5557 1.16211C18.2338 0.944322 17.7912 0.946027 17.4702 1.16692C17.1428 1.39261 16.9892 1.78912 17.0794 2.17928C17.6777 4.73259 17.1337 6.35011 15.7691 8.80483C14.9194 10.3332 14.5723 12.0503 14.7918 13.6394C15.0404 15.4366 15.9699 16.9223 17.4756 17.9333Z" fill="#BD9D63"/>
<path d="M25.3695 17.5214C25.5201 17.6246 25.6962 17.6792 25.8787 17.6792H25.8799C26.3792 17.6792 26.7855 17.2727 26.7855 16.7733C26.7855 16.6885 26.7737 16.6047 26.7501 16.5231C26.3299 14.6762 26.5265 13.1938 27.3342 12.1173C28.3456 10.7704 28.7935 9.0399 28.5321 7.48857C28.3001 6.10806 27.5577 4.96022 26.3857 4.16967C26.0841 3.96599 25.6756 3.96289 25.3628 4.17587C25.0582 4.38715 24.912 4.77111 24.9979 5.1267C25.4539 7.07175 25.0362 8.30965 23.9896 10.1918C23.3095 11.415 23.0322 12.7899 23.2085 14.063C23.4084 15.5111 24.1576 16.7084 25.3695 17.5214Z" fill="#BD9D63"/>
<path d="M50.1811 23.3547C49.5812 22.6485 48.7235 22.2596 47.7659 22.2596H43.3246C43.3707 21.4982 43.2306 20.5485 42.6878 19.9094C42.2865 19.4369 41.7146 19.1872 41.034 19.1872H2.54042C1.53287 19.1872 0.952357 19.621 0.642959 19.985C0.00912662 20.7303 -0.0781434 21.8464 0.0512892 22.6423C1.11155 29.1563 3.40212 35.0736 6.50137 39.3041C8.79504 42.4351 11.4823 44.6663 14.5335 45.9865H3.81134C2.47935 45.9865 1.39584 47.0702 1.39584 48.402C1.39584 49.7339 2.47951 50.8175 3.81134 50.8175H39.5225C40.8545 50.8175 41.9382 49.7339 41.9382 48.402C41.9382 47.0702 40.8545 45.9865 39.5225 45.9865H28.8569C31.3696 44.9047 33.6278 43.2099 35.616 40.9101C39.0258 40.6181 42.4505 38.9897 45.3679 36.2501C48.351 33.4489 50.3844 29.8732 50.9471 26.4402C51.0177 26.0107 51.1703 24.5192 50.1811 23.3547ZM39.5629 34.8226C40.8593 32.1642 41.7672 29.422 42.4016 26.9099H46.0657C45.1357 29.8927 42.6329 33.0326 39.5629 34.8226Z" fill="#BD9D63"/>
</g>
<defs>
<clipPath id="clip0">
<rect width="51" height="51.8176" fill="white"/>
</clipPath>
</defs>
</svg>
