<svg width="53" height="52" viewBox="0 0 53 52" fill="none" xmlns="http://www.w3.org/2000/svg">
<g clip-path="url(#clip0)">
<path d="M40.5387 10.2032C41.3045 5.88969 37.3996 2.199 33.1372 3.206C30.0965 -1.06837 23.7532 -1.06939 20.7117 3.206C16.4486 2.1988 12.5445 5.88999 13.3102 10.2032C12.3312 13.2503 11.9352 24.7442 15.7813 34.8344C16.7592 37.4076 17.1724 39.8122 16.5803 42.8592H37.2687C36.6827 39.8439 37.0769 37.4358 38.0676 34.8359C41.9267 24.7096 41.5182 13.2519 40.5387 10.2032ZM33.0182 9.13604C32.1762 9.13604 31.4948 9.81742 31.4948 10.6595V16.7532C31.4948 18.767 28.4479 18.767 28.4479 16.7532V10.6595C28.4479 9.81742 27.7665 9.13604 26.9245 9.13604H16.2604C16.2605 7.4564 17.6277 6.08916 19.3074 6.08916C20.3826 6.08916 21.0133 6.80812 21.8841 6.50577C22.2768 6.37039 22.5968 6.08032 22.7707 5.70241C24.4005 2.16254 29.4509 2.16772 31.0783 5.70241C31.2523 6.08032 31.5722 6.37039 31.9649 6.50577C32.834 6.80863 33.4638 6.08916 34.5417 6.08916C36.2213 6.08916 37.5885 7.4564 37.5885 9.13604H33.0182Z" fill="#BD9D63"/>
<path d="M38.1341 45.9061H15.7151C15.2619 47.1612 15.3456 48.536 16.0344 49.7236C16.8616 51.1488 18.3404 51.9998 19.9873 51.9998H33.8619C35.5088 51.9998 36.9876 51.1488 37.8148 49.7236C38.5036 48.536 38.5873 47.1612 38.1341 45.9061Z" fill="#BD9D63"/>
</g>
<defs>
<clipPath id="clip0">
<rect width="52" height="52" fill="white" transform="translate(0.926758 -0.00012207)"/>
</clipPath>
</defs>
</svg>
