<svg width="32" height="32" viewBox="0 0 32 32" fill="none" xmlns="http://www.w3.org/2000/svg">
<path d="M30.2979 0H1.70213C0.762213 0 0 0.762213 0 1.70213V30.2979C0 31.2378 0.762213 32 1.70213 32H30.2979C31.2381 32 32 31.2378 32 30.2979V1.70213C32 0.762213 31.2381 0 30.2979 0ZM22.7847 7.27285L20.3248 7.27387C18.3966 7.27387 18.0231 8.1903 18.0231 9.53532V12.5008H22.6226L22.6213 17.1455H18.0231V29.0645H13.2262V17.1455H9.21532V12.5008H13.2262V9.0754C13.2262 5.10026 15.6545 2.93549 19.2 2.93549L22.7847 2.94128V7.27285Z" fill="#BD9D63"/>
</svg>
