<svg width="135" height="102" viewBox="0 0 135 102" fill="none" xmlns="http://www.w3.org/2000/svg">
<g opacity="0.5">
<path d="M98.7938 59.2842C98.9368 59.6254 99.111 59.9526 99.3142 60.2617C102.971 65.3173 105.622 71.031 107.121 77.0906C108.926 84.1598 109.725 91.4488 109.496 98.7418C109.555 99.1736 109.515 99.6131 109.38 100.027C109.245 100.441 109.017 100.82 108.715 101.133C108.413 101.447 108.044 101.688 107.635 101.838C107.227 101.988 106.79 102.043 106.357 102C101.133 102.311 95.8926 101.805 90.8239 100.501C84.8609 98.814 79.3191 95.8888 74.5588 91.9157C70.7795 88.8954 67.7462 85.0433 65.6944 80.6584C65.3853 80.0393 65.0112 79.4528 64.5395 78.6383L63.157 79.8764C58.8468 83.8841 54.504 87.8103 49.0715 90.2866C48.2094 90.6776 47.445 91.1174 46.5666 91.5736C41.398 94.3869 35.7486 96.2049 29.9112 96.9334C27.992 97.2104 26.1052 97.6991 24.1859 97.8946C18.2447 98.2832 12.2793 97.739 6.50581 96.2818C5.1319 95.9533 3.79217 95.4951 2.50461 94.9133C1.80943 94.6299 1.21243 94.1487 0.787478 93.529C0.362523 92.9094 0.128251 92.1786 0.113643 91.4269C-0.0164782 89.6101 -0.0164782 87.7862 0.113643 85.9694C0.448149 80.4646 1.33084 75.007 2.74858 69.678C4.04698 65.5278 5.72959 61.5081 7.77449 57.6713C10.2085 52.7803 13.2706 48.229 16.8829 44.1332C19.0427 41.5836 21.4692 39.2733 24.1209 37.242C24.3246 37.0303 24.5096 36.8014 24.6739 36.5578L22.592 34.668C21.7079 33.9334 21.0717 32.9435 20.7703 31.8333C20.2192 30.4101 19.4022 29.1052 18.363 27.9885C15.0485 23.7469 12.8355 18.7485 11.9221 13.4404C11.6708 12.3283 11.6495 11.1764 11.8593 10.0558C12.069 8.93508 12.5056 7.86925 13.142 6.92384C13.4061 6.46673 13.7473 6.05886 14.1504 5.71829C15.9233 4.41498 17.6962 3.16055 19.5179 2.02015C22.8905 0.136507 26.8157 -0.503373 30.6106 0.211817C34.1566 0.767164 37.6133 1.79161 40.8901 3.25829C41.9148 3.66558 42.9558 4.08915 43.9642 4.5616C45.1555 5.21299 46.5404 5.41528 47.8679 5.1318C48.6748 4.98925 49.5057 5.0855 50.2588 5.40875C55.4373 7.35782 60.0297 10.6057 63.5962 14.8414C64.8301 16.4026 65.868 18.1097 66.6865 19.9243C67.2947 21.3944 68.2034 22.7207 69.354 23.8179C69.7994 23.399 70.2126 22.9469 70.5901 22.4658C72.675 19.6737 75.4115 17.4362 78.56 15.9492C81.7417 14.1796 85.0793 12.7072 88.5305 11.5506C91.9305 10.642 95.4376 10.1982 98.9564 10.231C104.72 10.1504 110.462 10.9469 115.986 12.5932C117.429 13.0601 118.846 13.604 120.231 14.2224C123.614 15.6071 126.867 16.8941 130.12 18.3115C131.405 18.8654 132.544 19.7288 133.78 20.3968C134.241 20.6079 134.607 20.9839 134.805 21.451C135.004 21.9181 135.021 22.4427 134.853 22.9219C133.939 26.9207 132.518 30.786 130.624 34.4236C126.444 41.771 120.052 46.7236 113.384 51.4969C109.068 54.4485 104.443 56.9178 99.5907 58.8606L98.7938 59.2842ZM103.673 55.6512C104.34 55.195 105.43 55.3743 105.755 54.2664C105.512 54.1719 105.262 54.0957 105.007 54.0384C104.194 53.9243 103.381 53.794 102.567 53.7125C97.8504 53.2401 93.4588 52.0834 90.0432 48.4504C89.8015 48.155 89.4639 47.954 89.0893 47.8825C88.7147 47.811 88.3269 47.8736 87.9938 48.0594C86.3672 48.6948 84.8221 49.2813 83.2444 49.9004C82.9735 50.0476 82.7222 50.2282 82.4962 50.438C82.7978 50.6063 83.1134 50.748 83.4395 50.8615C88.3008 52.0156 92.8277 54.2855 96.663 57.4921C97.1246 57.8623 97.6983 58.0639 98.2895 58.0639C98.8808 58.0639 99.4545 57.8623 99.916 57.4921C100.285 57.2253 100.684 57.0012 101.103 56.8242L103.657 55.6838L103.673 55.6512ZM72.054 23.5247C71.6651 23.5962 71.2987 23.7596 70.9854 24.0012C70.672 24.2428 70.4207 24.5557 70.2521 24.914C70.0836 25.2723 70.0027 25.6657 70.0163 26.0615C70.0298 26.4574 70.1373 26.8443 70.3299 27.1903C70.4189 27.0394 70.4951 26.8814 70.5576 26.7178C70.7186 26.163 70.9142 25.6189 71.1432 25.0887C71.425 24.5273 71.74 23.9833 72.0865 23.4595C71.5165 25.4872 71.0497 27.5426 70.6877 29.6177C70.4589 31.4368 70.7288 33.284 71.4685 34.9612L72.4769 32.3872L72.8185 32.5175C72.3793 36.6229 70.6877 40.5491 70.948 44.7686C71.0944 44.2636 71.0944 43.726 71.2245 43.2372C71.8101 40.7207 72.9185 38.3559 74.4775 36.2971C74.9303 35.6957 75.2417 34.9995 75.3883 34.2607C76.0793 30.1862 77.614 26.3016 79.8938 22.8568C81.9757 19.794 83.8299 16.5683 86.8389 14.2712C87.1317 14.0432 87.3757 13.7662 87.9124 13.2612C86.024 13.6779 84.2016 14.3521 82.4962 15.265C80.7648 16.0208 79.3903 17.4151 78.6576 19.1586C78.2998 19.8917 77.8932 20.6248 77.5191 21.3417C77.145 22.0585 76.5594 23.2152 76.0877 24.1438L75.7624 23.9809C76.6733 21.9119 77.5841 19.8592 78.4787 17.7902C77.9377 17.7479 77.4013 17.9172 76.9823 18.2626C74.2173 20.9344 73.1926 24.437 71.9889 27.9559C71.8263 25.3493 73.3552 23.2478 74.201 20.7063C72.6558 21.3091 72.6721 22.6287 72.054 23.5247ZM67.4347 64.0575C67.6462 63.2104 67.76 62.3306 68.0365 61.4998C68.7522 59.3819 68.7359 56.9545 70.5901 55.3743C69.8616 53.1419 68.7618 51.0489 67.3371 49.1835C67.2395 49.3302 67.0932 49.4605 67.0769 49.6234C66.6206 52.4363 65.1293 54.9761 62.8968 56.7427C62.3018 57.1451 61.8421 57.7182 61.578 58.3869C61.3139 59.0555 61.2576 59.7885 61.4166 60.4897C61.6769 61.9234 61.4167 63.4548 61.7257 64.8558C62.3438 67.5927 63.1733 70.2971 64.0191 73.0015C64.4721 74.4514 65.0153 75.8716 65.6456 77.2535C66.5889 79.3388 67.5974 81.3752 68.6058 83.4279C68.7359 83.6886 69.045 83.8678 69.2564 84.0959C69.2792 82.9621 69.1645 81.8297 68.9148 80.7235C68.0805 77.231 67.8766 73.6172 68.313 70.0527C68.663 67.2675 69.34 64.5334 70.3299 61.9071C70.7691 60.8318 71.0944 59.6915 71.501 58.6488C71.5981 58.4341 71.6515 58.2022 71.6582 57.9666C71.6648 57.7309 71.6246 57.4964 71.5398 57.2765C71.455 57.0566 71.3274 56.8558 71.1644 56.6859C71.0013 56.5159 70.8061 56.3802 70.5901 56.2866C70.2314 56.8026 69.9158 57.3475 69.6468 57.9157C69.1263 59.5448 68.7034 61.0599 68.1829 62.6076C67.9826 63.1148 67.732 63.6005 67.4347 64.0575ZM28.5124 2.96505C28.5355 3.11414 28.5972 3.25456 28.6913 3.37233C30.8312 5.72117 32.3813 8.54707 33.213 11.6157C33.3054 11.9482 33.4763 12.2535 33.7113 12.5058C33.9462 12.7582 34.2384 12.9502 34.563 13.0657C36.71 14.1409 38.8407 15.265 40.8739 16.5194C43.6715 18.2463 46.3715 20.1035 49.104 21.8956C49.2732 21.975 49.4548 22.0246 49.6407 22.0422C49.696 21.874 49.7234 21.6979 49.7221 21.5209C49.6245 21.1136 49.5106 20.7226 49.3805 20.3316C48.0658 16.3379 46.2919 12.5109 44.0944 8.92768C43.0868 7.16829 41.6993 5.65684 40.0332 4.50395C38.3672 3.35106 36.4648 2.58591 34.4654 2.26452L32.107 1.95499C34.1739 4.12353 35.8275 6.65223 36.9865 9.41642C36.718 9.33716 36.4797 9.17809 36.3034 8.96026C34.6769 6.76093 33.0504 4.54531 31.3263 2.44373C31.058 2.00427 30.6519 1.66625 30.1715 1.48254C28.6049 1.14029 26.9714 1.28231 25.4871 1.88982L28.5124 2.96505ZM34.742 42.553L35.5389 43.0743C35.8246 43.3616 36.1348 43.6232 36.466 43.8563C39.2869 45.4947 42.3507 46.6716 45.542 47.3426C47.474 47.8727 49.521 47.8045 51.4136 47.1471C53.5743 46.192 55.9411 45.7997 58.2938 46.0067C59.9203 46.1534 61.6281 46.5769 63.2871 46.8865L65.9221 47.4404C66.8329 44.8663 65.0275 43.6934 63.8727 42.0805C62.6853 43.1883 62.2462 44.8989 60.3106 45.1107C60.4127 44.839 60.5494 44.5817 60.7173 44.345C61.3028 43.7585 61.9534 43.2535 62.4901 42.7159C63.3197 41.7547 63.3197 41.4452 62.4901 40.4188C61.6606 39.3925 61.2215 38.8874 60.6034 38.1054C60.4185 37.8382 60.1385 37.6521 59.8208 37.5855C59.5031 37.5188 59.172 37.5766 58.8956 37.747C57.9523 38.2278 56.9597 38.6047 55.9353 38.8711C51.56 39.702 47.1847 40.5003 42.7769 41.1356C41.0364 41.3069 39.2852 41.3396 37.5395 41.2334C35.913 41.2334 34.2865 41.0705 32.66 40.989L32.5136 41.4289L34.742 42.553ZM24.9829 74.1256C24.495 74.3048 24.2835 74.3048 24.1859 74.4188C21.9414 76.6507 19.5504 78.8338 20.4124 82.5645C20.4371 82.9116 20.4371 83.26 20.4124 83.6071C20.5971 87.6128 19.8858 91.6093 18.3305 95.3043C18.1769 95.7424 18.0466 96.1883 17.9401 96.6402L19.7618 96.8194C23.8045 96.9569 27.8461 96.5181 31.7654 95.5161C33.5546 95.174 35.2787 94.6038 37.0353 94.1476C37.6859 93.9684 38.2389 93.724 38.3853 92.942C38.9709 89.6838 39.8167 86.4255 40.1257 83.0695C40.1927 80.4427 40.0895 77.8142 39.8167 75.2008C39.5931 71.7459 38.9037 68.3372 37.7673 65.0676C37.5203 64.4645 37.2266 63.8817 36.8889 63.3244C36.5192 63.4598 36.1604 63.6231 35.8154 63.8132C32.3083 66.3594 29.0416 69.2224 26.0564 72.3661C25.8275 72.5897 25.6652 72.8727 25.5877 73.1834C25.5101 73.4942 25.5204 73.8204 25.6173 74.1256C26.2931 77.0962 26.4308 80.1642 26.0239 83.1835C25.6604 85.9345 24.9837 88.6347 24.007 91.2315C23.9968 90.593 24.079 89.9565 24.251 89.3417C25.3586 85.6199 25.8099 81.7333 25.5847 77.8563C25.4399 76.6023 25.2282 75.3569 24.9504 74.1256H24.9829ZM47.9004 62.3469C48.2745 63.5525 48.6811 64.7092 48.9576 65.8821C49.26 67.0342 49.1742 68.254 48.7136 69.3522C48.5309 69.1142 48.4335 68.8216 48.4371 68.5214C48.4323 66.6979 48.1301 64.8874 47.5426 63.1615C47.443 62.7815 47.2492 62.4328 46.979 62.148C46.7089 61.8632 46.3712 61.6514 45.9974 61.5324C44.9161 61.3008 43.8634 60.9511 42.8582 60.4897C42.4856 60.2088 42.0249 60.0707 41.5594 60.1006C41.094 60.1305 40.6546 60.3263 40.3209 60.6526C39.7581 61.0718 39.1716 61.458 38.5642 61.8093C38.2847 61.9614 38.0756 62.2169 37.9814 62.5212C37.8872 62.8255 37.9154 63.1547 38.06 63.4385C38.5642 64.8232 39.0197 66.208 39.4751 67.5927C40.6334 72.0193 41.3096 76.5584 41.492 81.1308C41.492 81.4241 41.492 81.7173 41.492 82.0106C41.2285 85.1757 40.6343 88.3045 39.7191 91.3455C39.5727 91.9157 39.5076 92.5185 39.3612 93.3656C40.0356 93.2241 40.6988 93.0335 41.3456 92.7954C44.8751 91.1663 48.4046 89.3417 51.9179 87.5985C52.2095 87.4154 52.468 87.184 52.6823 86.9143C54.7174 84.3769 55.9367 81.2811 56.1793 78.0355C56.6063 72.8066 56.3107 67.5437 55.301 62.3958C55.2135 62.093 55.0992 61.7985 54.9594 61.5161L47.9004 62.3469ZM44.3383 52.3441C43.953 52.1113 43.5441 51.9202 43.1185 51.7739C38.7757 50.8616 34.563 49.3302 30.1064 48.9718C24.5472 48.3986 18.9356 49.3091 13.8414 51.611C12.4842 52.1857 11.3807 53.2332 10.7347 54.5597C9.6775 56.7264 8.49015 58.828 7.48172 61.0762C6.47328 63.3244 5.70882 65.1653 4.87931 67.2018C4.78475 67.532 4.71944 67.87 4.68412 68.2118C4.9769 68.2118 5.17208 68.2118 5.3022 68.2118C8.13232 66.7945 10.9624 65.3934 13.8414 64.0738C14.7578 63.6935 15.7203 63.4361 16.704 63.3081C18.8347 62.9497 20.998 62.7379 23.21 62.3958C25.8968 61.8536 28.6672 61.8813 31.3426 62.4773C31.6811 62.5739 32.0314 62.6233 32.3835 62.6239C32.8407 62.6454 33.2912 62.5079 33.6588 62.2347C34.0264 61.9616 34.2883 61.5696 34.4004 61.1251L26.7721 60.2779C27.0374 60.1241 27.3476 60.0666 27.6504 60.115C29.9438 60.2291 32.2209 60.3757 34.498 60.506C35.3926 60.506 36.2709 60.6363 36.8564 59.5122C33.8636 58.2252 30.6432 58.5185 27.6179 57.8831C30.6458 57.6315 33.6944 57.8736 36.645 58.5999C37.263 58.7303 38.06 58.9746 38.5154 58.714C40.3371 57.6876 42.3052 56.7753 43.1998 54.6411C43.4763 53.908 43.9154 53.2727 44.3058 52.3441H44.3383ZM22.901 33.1855C23.145 33.7068 23.1775 33.9023 23.2914 34C25.2106 35.6292 27.1136 37.2583 29.0817 38.8874C29.6435 39.3012 30.3068 39.5545 31.001 39.6205C33.3833 39.9695 35.7836 40.1817 38.1901 40.2559C44.1764 40.1441 50.1259 39.2905 55.9028 37.7145C57.1015 37.5526 58.2061 36.9764 59.0257 36.0853C58.3588 35.2545 57.7245 34.4562 56.9926 33.5765C54.5365 30.9536 52.048 28.2655 49.5432 25.5937C49.3142 25.3267 49.0051 25.1411 48.662 25.0647C48.319 24.9884 47.9605 25.0253 47.6401 25.1701C42.3385 26.9135 36.8076 27.8578 31.2287 27.9722C30.6269 27.9722 30.0088 28.07 29.3745 28.1189L29.6673 28.9008C28.3823 28.6891 27.2275 28.5099 26.0727 28.2981L22.4456 27.6953C21.3262 27.2494 20.1366 27.0067 18.9323 26.9785C19.3552 27.8419 19.6642 28.4284 20.4612 28.6076C22.7058 29.0638 24.9341 29.5362 27.1624 30.0249C27.813 30.1716 28.5775 30.0249 29.2769 30.8232C27.6504 30.6766 26.3654 30.6114 25.0317 30.4322C23.698 30.253 22.4456 29.9109 20.9004 29.5851C21.7299 31.3283 22.413 32.6316 24.4299 32.8433C26.086 33.0984 27.7181 33.4907 29.3094 34.0163L29.2769 34.2118L22.901 33.1855ZM13.6299 14.3201L13.4185 14.6622C13.6136 14.9229 13.7275 15.2813 13.9877 15.4279C17.5425 17.3748 21.5514 18.3364 25.601 18.2137C25.4747 18.3448 25.309 18.4306 25.1293 18.4581C22.0909 18.856 19.0015 18.4516 16.1673 17.2851C15.5492 17.057 14.9148 16.8453 14.2154 16.6172C14.2154 19.0772 14.5895 19.5659 16.4275 20.299L22.1528 22.5798C19.6154 22.5798 17.745 21.195 15.3215 20.5271C15.8725 22.3822 16.8031 24.1021 18.054 25.5774C18.1679 25.7403 18.4769 25.7729 18.7046 25.7892C22.0715 26.1639 25.4546 26.7015 28.8377 26.8481C34.6519 26.9913 40.4555 26.2777 46.0624 24.7303C46.5341 24.6162 47.0058 24.4044 47.6889 24.1764C47.4132 23.7906 47.0969 23.4356 46.7456 23.1174C44.3383 21.4883 41.9636 19.7288 39.4588 18.23C37.3118 16.9267 35.0022 15.8841 32.7739 14.6948C32.0821 14.3742 31.3018 14.2995 30.5618 14.483C27.7505 15.1119 24.8666 15.3531 21.9901 15.1998L15.4841 14.5156C14.8661 14.4993 14.248 14.4016 13.6299 14.3201ZM130.397 32.5827C130.397 32.3872 130.25 32.1917 130.185 32.0125H128.494C126.867 32.0125 125.241 32.208 123.614 32.1265C119.55 32.0964 115.574 30.9344 112.131 28.7705C111.822 28.5466 111.462 28.4052 111.083 28.3596C110.705 28.314 110.321 28.3657 109.968 28.5099C107.756 29.2755 105.56 30.139 103.348 30.8232C103.047 30.9198 102.78 31.1022 102.581 31.3481C102.382 31.5941 102.258 31.8929 102.226 32.208C101.969 33.589 101.549 34.9345 100.973 36.2156C99.9648 38.2358 99.5094 38.4801 102.274 39.8812L102.909 40.1744C108.325 42.8788 114.164 43.2861 120.036 43.4327C120.639 43.4684 121.243 43.3718 121.804 43.1494C122.366 42.9271 122.873 42.5846 123.289 42.1457C124.737 40.6143 126.2 39.0992 127.534 37.4701C128.158 36.5405 128.702 35.5595 129.161 34.5376C123.094 34.8472 119.141 34.5376 117.108 33.7394C118.849 33.8534 120.605 34.0489 122.346 34.0326C124.671 34.0326 127.062 34.3584 129.291 33.3484C129.672 33.1119 130.041 32.8563 130.397 32.5827ZM107.626 88.4293C107.824 87.9051 107.83 87.3271 107.643 86.7989C107.455 86.2706 107.086 85.8264 106.601 85.5458C105.202 84.6986 103.803 83.9166 102.356 83.0858C98.9726 81.1659 95.1939 80.0511 91.3118 79.8275C91.0254 79.7839 90.7426 79.7185 90.466 79.632C92.9016 79.1654 95.4213 79.4553 97.6877 80.4629C100.42 81.6684 103.088 83.0206 105.82 84.3239L107.447 85.0245C107.284 83.9329 107.154 83.1998 107.073 82.4504C107.041 81.3008 106.727 80.1767 106.16 79.1768C105.593 78.1769 104.789 77.3318 103.82 76.7159C103.396 76.4011 102.994 76.0582 102.616 75.6895C99.1581 72.5742 95.019 70.3144 90.5311 69.0915C87.708 68.5389 84.8488 68.1904 81.9757 68.0489C81.115 68.0391 80.2551 68.1045 79.4058 68.2444C80.3004 69.8735 81.0323 71.0954 81.748 72.3172C81.8409 72.4259 81.9554 72.5139 82.0843 72.5756C82.2131 72.6374 82.3534 72.6714 82.4962 72.6756C84.7895 72.8874 86.6438 74.3048 88.6769 75.1519L82.545 73.311C82.8782 74.0191 83.2473 74.7097 83.651 75.38C85.0823 77.5305 86.4974 79.6972 88.0263 81.7662C90.3847 84.9267 89.8968 84.5357 93.5564 84.3239C97.5041 84.0699 101.445 84.9157 104.942 86.7676C105.853 87.289 106.715 87.8592 107.707 88.4293H107.626ZM1.74015 83.0858L2.14678 83.1998L2.84617 82.6948C6.97702 79.3331 12.0576 77.3557 17.3709 77.0417C17.7191 77.0231 18.0601 76.9342 18.3731 76.7802C18.6862 76.6262 18.9649 76.4104 19.1926 76.1457C20.9817 74.1907 22.8034 72.2683 24.5926 70.3297C24.9168 69.9194 25.2155 69.4896 25.4871 69.0427L21.7624 67.8697C22.9937 67.8456 24.2245 67.9384 25.4383 68.1467C26.002 68.2404 26.5805 68.1245 27.0648 67.8208C28.5124 66.6479 29.895 65.3608 31.2775 64.0901C31.3751 64.0901 31.3588 63.7806 31.4239 63.5362C29.1123 62.8261 26.6665 62.6699 24.2835 63.08C22.7709 63.2593 21.2582 63.471 19.7456 63.7317C18.0966 63.9166 16.465 64.2326 14.8661 64.6766C12.7843 65.3939 10.7521 66.2484 8.78292 67.2343C7.4964 67.9274 6.2575 68.7057 5.07449 69.564C4.63524 69.8553 4.263 70.2369 3.98255 70.6836C3.70209 71.1302 3.51986 71.6316 3.44798 72.1543C3.15521 73.8975 2.76485 75.6244 2.45581 77.3512C2.41024 77.8171 2.41024 78.2864 2.45581 78.7523C6.59716 77.1484 10.869 75.9056 15.2239 75.0379C13.4185 75.7221 11.5642 76.2434 9.74256 76.8462C7.92087 77.449 5.66003 78.1984 3.64316 79.0293C3.00054 79.2602 2.45937 79.71 2.11425 80.3C1.86574 81.2076 1.73992 82.1446 1.74015 83.0858ZM105.153 76.5693C105.267 76.2109 105.349 76.1131 105.332 75.9991C105.313 75.7671 105.269 75.5378 105.202 75.3148C104.033 71.0033 102.206 66.8985 99.7859 63.1452C99.1125 61.9277 98.1012 60.9318 96.8745 60.2779C95.4106 59.5611 93.898 58.8932 92.3853 58.2904C87.5058 56.3517 82.2847 56.3843 77.1124 56.5635C76.6345 56.5339 76.1565 56.619 75.718 56.8117C75.2795 57.0044 74.8933 57.2991 74.5913 57.6713L78.6088 66.3546C78.9179 67.0225 79.5034 67.0551 80.1052 66.9737C82.7393 66.7855 85.3867 66.9499 87.9775 67.4624C89.3784 67.6055 90.7588 67.9061 92.0926 68.3584C96.2518 69.813 100.083 72.0775 103.364 75.0216C103.901 75.5103 104.519 75.9339 105.153 76.4226V76.5693ZM75.2257 77.0906C75.5353 82.182 76.6327 87.1943 78.4787 91.9483C79.4058 94.2779 81.2763 95.011 83.2606 95.9397C83.0281 95.0475 82.7235 94.1757 82.3498 93.333C81.5528 91.3129 80.7233 89.3417 80.0076 87.2727C78.7412 82.6232 78.2791 77.7909 78.6413 72.9852C78.4724 71.015 77.5937 69.1736 76.1691 67.8045C75.8112 68.8635 75.4697 69.8735 75.1444 70.8673C75.8275 66.0777 75.8275 66.0777 74.8191 65.0513L73.6317 68.4562H73.1926C74.1197 65.3771 74.9166 62.2981 72.3142 59.5122C72.0052 60.2128 71.745 60.7993 71.5173 61.402C69.6133 65.78 68.777 70.549 69.0775 75.3148C69.5229 78.8631 70.1472 82.3865 70.948 85.8716C71.0591 86.4652 71.31 87.0238 71.6799 87.5007C73.5362 89.6967 75.7002 91.6118 78.1046 93.1864C77.3076 90.3517 76.4781 87.794 75.8926 85.2037C75.1733 82.5135 74.9473 79.7149 75.2257 76.944V77.0906ZM107.528 46.1371C108.114 46.1371 108.699 46.2674 109.268 46.3C111.79 46.4629 114.294 46.6258 116.799 46.7561C117.548 46.7384 118.278 46.5128 118.907 46.1044C119.536 45.696 120.039 45.1207 120.361 44.4428C116.604 44.0355 112.993 43.726 109.415 43.2209C105.84 42.4503 102.402 41.1431 99.2166 39.3436C97.7365 40.875 96.4841 42.3412 95.0528 43.6282C93.6215 44.9152 91.9624 46.0393 90.3197 47.31C92.0079 49.595 94.4425 51.2148 97.1998 51.8879C100.29 52.5721 103.429 53.012 106.568 53.3867C107.5 53.4593 108.431 53.2432 109.236 52.7676C111.399 51.4806 113.465 50.0307 115.563 48.6133C115.946 48.2686 116.299 47.8926 116.62 47.4892C113.416 47.2449 110.423 47.2449 107.528 46.023V46.1371ZM99.5582 11.8927C99.3305 11.6972 99.2329 11.5669 99.1516 11.5669C96.4678 11.7624 93.7841 11.9579 91.0191 12.1859C90.7274 12.2256 90.4519 12.3439 90.2221 12.5281C87.4883 14.3626 85.1171 16.688 83.2281 19.3867C81.9919 21.3091 80.8371 23.2803 79.5847 25.1864C78.1765 27.567 77.1914 30.1743 76.6733 32.8922C76.635 33.1569 76.635 33.4258 76.6733 33.6905C77.2425 33.4881 77.7377 33.1188 78.0945 32.6307C78.4513 32.1426 78.6532 31.5582 78.6739 30.9536C78.721 30.3308 78.9025 29.7258 79.2058 29.1801C79.5091 28.6345 79.9269 28.1612 80.4305 27.793C80.0564 28.9171 79.666 30.0412 79.2269 31.3445C79.6434 31.3311 80.0433 31.1775 80.362 30.9086C80.6807 30.6396 80.8997 30.2709 80.9835 29.862C81.449 28.2271 82.3684 26.7583 83.6347 25.6263L81.5853 29.6828L81.9106 29.9598C82.5287 29.4873 83.2769 29.4385 83.7811 28.6076C85.2287 26.2779 86.8227 24.0297 88.3679 21.7652C88.5433 21.5656 88.7396 21.3853 88.9534 21.2276C87.7172 23.5899 86.1395 25.724 84.8221 28.2166C85.2333 28.2651 85.6488 28.1743 86.0026 27.9588C86.3563 27.7433 86.6278 27.4154 86.7739 27.0273C87.6852 25.2268 88.972 23.6434 90.5474 22.3843C89.6528 24.0949 87.9124 25.3005 87.4082 27.2717C88.254 27.4509 89.0347 27.6301 89.7178 27.7442C91.751 28.0863 92.6456 27.5975 93.2636 25.6263C94.9221 20.1795 98.5307 15.5381 103.397 12.5932C103.775 12.3263 104.134 12.0323 104.47 11.7135C102.762 11.4854 101.445 11.2573 100.258 12.4303C99.0703 13.6033 97.5901 14.8251 96.2889 15.9655L95.4757 16.6335L95.2805 16.3891C96.6956 14.9229 98.0944 13.4404 99.5582 11.8927ZM104.991 26.897C107.17 26.6363 107.154 26.6201 107.951 25.3819C110.244 21.713 113.385 18.6508 117.108 16.4543C117.645 16.1447 118.149 15.7863 118.995 15.2487C118.255 14.8335 117.483 14.4793 116.685 14.1898C113.611 13.473 110.537 12.7561 107.414 12.1697C106.61 12.087 105.801 12.264 105.105 12.6747C100.311 15.2021 96.5912 19.3794 94.6299 24.437C94.2721 25.333 94.0769 26.2779 93.8167 27.1577C94.8739 27.7279 95.313 27.3043 95.7034 26.5875C96.0938 25.8707 96.663 24.9583 97.151 24.1926C97.151 25.3656 96.045 26.1476 96.3377 27.4509C97.1347 27.8093 97.3787 27.3043 97.7365 26.7993C98.745 25.3656 99.8185 23.9646 100.892 22.5798C101.087 22.3354 101.494 22.254 101.803 22.1074C101.659 22.5233 101.432 22.9057 101.136 23.2315C100.355 24.2741 99.5094 25.3005 98.8751 26.3757C98.501 26.9296 98.3058 27.5975 98.9727 28.1189C99.3358 28.4197 99.7599 28.6378 100.216 28.7583C100.671 28.8787 101.148 28.8986 101.612 28.8165C102.076 28.7343 102.516 28.5522 102.903 28.2827C103.29 28.0131 103.614 27.6626 103.852 27.2554C104.623 26.1575 105.459 25.1075 106.357 24.1112C106.487 23.9646 106.796 23.9646 107.398 23.7854L104.991 26.897ZM62.1648 34.2118C62.1648 32.5827 62.1648 31.1653 62.1648 29.7969C62.1559 24.8641 61.4103 19.9605 59.9528 15.2487C59.5212 13.4627 58.5431 11.8564 57.1552 10.6546C55.1517 9.23545 53.0293 7.99268 50.8118 6.94014C49.8427 6.52847 48.7818 6.38228 47.7377 6.51656C46.5813 6.68592 45.4006 6.51617 44.3383 6.02782C43.948 5.83232 43.5251 5.73458 42.8257 5.47392C45.151 8.45389 47.0506 11.7438 48.4697 15.2487C49.3968 17.5947 50.21 19.9895 51.0233 22.368C51.3576 23.3646 51.9598 24.2496 52.7636 24.9258C55.0082 26.8807 57.1715 28.9497 59.2697 31.0187C60.2781 31.9473 61.1076 32.9737 62.1648 34.2118ZM82.7401 82.9229C83.163 83.2324 83.2932 83.265 83.3257 83.3465C84.8221 87.8592 86.3835 92.3393 87.7986 96.8846C87.9085 97.4871 88.2194 98.0344 88.6803 98.4369C89.1413 98.8394 89.725 99.0732 90.3359 99.1002C90.9144 99.2009 91.4851 99.3425 92.0438 99.5237C94.2425 100.073 96.4957 100.373 98.7612 100.42C98.3383 99.5726 98.0618 98.9535 97.7203 98.3833C95.905 95.8547 94.449 93.0859 93.3938 90.1562C93.2084 89.7356 92.9304 89.3624 92.5805 89.0647C91.0841 87.4356 89.4901 86.0019 88.1076 84.3402C85.5865 81.3263 83.2281 78.2147 80.7395 75.1356C80.4793 74.7935 80.1703 74.484 79.8938 74.1581C79.7148 74.3374 79.5685 74.4025 79.5685 74.484C78.8281 82.5081 80.9739 90.5332 85.6191 97.1126C85.9281 97.5362 86.6275 97.6991 87.148 97.9761L87.457 97.6828C85.9281 92.8606 84.3829 87.9732 82.7401 82.8414V82.9229ZM13.6787 50.3402C13.826 50.3943 13.9787 50.4325 14.1341 50.4543C14.302 50.4172 14.4656 50.3626 14.6221 50.2914C20.8191 47.5218 27.3088 47.587 33.7986 48.6622C36.954 49.151 40.0281 50.2914 43.151 51.0245C43.4378 51.0493 43.7262 51.0493 44.013 51.0245V50.7638L39.9142 49.0369L40.0769 48.6459L46.1926 50.6823C46.7456 50.161 47.4938 49.4931 48.5022 48.5808C44.1432 48.76 40.7112 46.9516 37.2468 45.5017C35.3402 44.4731 33.5037 43.3193 31.7492 42.0479C30.5618 41.3311 29.3094 40.7121 28.057 40.0767C27.5691 39.8323 27.1299 39.7183 26.9185 38.9689C26.5932 37.7307 25.5197 37.4375 24.4624 38.2846C22.8235 39.6141 21.2545 41.028 19.7618 42.5204C18.7046 43.563 17.7938 44.7686 16.5088 46.2022C17.5335 46.2022 18.1353 46.1208 18.6721 46.0556C22.9042 45.4395 27.1814 45.1888 31.4564 45.3062C32.3673 45.3062 33.2618 45.5343 34.1727 45.6646C31.6191 45.8764 29.098 45.7787 26.5932 45.909C24.0883 46.0393 21.4697 46.3489 18.8998 46.6421C18.0016 46.7432 17.1177 46.9454 16.2648 47.2449C15.6119 47.5018 15.0334 47.9181 14.5817 48.4558C14.1301 48.9935 13.8197 49.6356 13.6787 50.3239V50.3402ZM69.0938 44.9478C72.1516 34.0489 68.1992 20.2176 60.7498 13.8151C60.7884 14.1874 60.8481 14.5573 60.9287 14.9229C61.2703 16.4543 61.6769 17.9857 61.9859 19.5496C62.7035 23.4727 63.0574 27.4539 63.0432 31.4423C62.9225 32.4446 63.1524 33.4579 63.6938 34.3096C64.1329 32.4198 64.4907 30.8069 64.8648 29.1941L65.2227 29.2755C65.1773 31.3596 64.7757 33.4204 64.0353 35.3685C63.5311 36.4437 63.5474 36.5252 64.7347 37.5027C66.0847 35.8735 65.613 33.8534 66.3612 32.1428C66.7494 34.3815 66.3468 36.6857 65.2227 38.6593C66.1906 40.9332 67.4957 43.0478 69.0938 44.9315V44.9478ZM112.668 27.8908C113.32 28.7457 114.225 29.3728 115.254 29.6828C119.928 31.4225 124.98 31.8891 129.893 31.035C130.466 30.981 130.997 30.7066 131.373 30.2693C132.272 28.8394 132.635 27.1363 132.397 25.4634C129.809 26.5005 127.052 27.0527 124.265 27.0925C124.606 26.9213 124.967 26.7901 125.338 26.7015C127.762 26.0662 130.218 25.4634 132.625 24.7791C133.062 24.5469 133.403 24.1688 133.591 23.7104C133.778 23.2521 133.799 22.7425 133.65 22.2703C133.194 21.3417 132.43 21.8141 131.812 22.0096C129.291 22.8079 126.802 23.6387 124.281 24.4533C121.207 25.3982 118.1 26.2454 115.01 27.1577C114.311 27.3369 113.562 27.5975 112.668 27.8908ZM18.9974 80.5281C14.0203 84.9919 9.75882 90.0422 4.13111 94.001C4.79798 94.2942 5.20461 94.5223 5.6275 94.6526C8.54871 95.606 11.5743 96.2023 14.6383 96.4284C16.6552 96.575 16.8504 96.575 17.5661 94.7993C19.2626 90.5244 19.9042 85.9026 19.4365 81.3263C19.3389 81.0494 19.16 80.8539 18.9974 80.5281ZM91.9299 85.6272L91.7835 86.1974C96.663 90.9056 101.543 95.4509 107.918 98.4485C108.025 98.0963 108.106 97.737 108.162 97.3733C108.162 95.5975 108.162 93.8381 108.162 92.0786C108.214 91.4256 108.078 90.7715 107.769 90.1939C107.461 89.6163 106.993 89.1396 106.422 88.8203C103.392 86.7759 99.8575 85.6089 96.2076 85.448C94.8088 85.4317 93.3612 85.5784 91.9299 85.6272ZM17.2733 77.7585C16.2648 77.84 15.6468 77.84 14.9962 77.9377C11.031 78.5537 7.29617 80.1995 4.16364 82.7111C0.747981 85.448 1.51244 84.8127 1.34979 88.4293C1.30915 89.1945 1.30915 89.9613 1.34979 90.7264C1.36077 91.1379 1.43766 91.5449 1.5775 91.932C1.88653 92.7954 2.37449 93.0398 3.204 92.6325C3.88217 92.2874 4.51577 91.8606 5.09075 91.3618C9.18448 87.4028 13.0509 83.2147 16.6715 78.8175C16.9052 78.4845 17.1067 78.1299 17.2733 77.7585ZM55.1058 84.943C55.4838 84.822 55.8488 84.6637 56.1956 84.4706C57.1227 83.7537 57.9522 82.8414 58.9444 82.2712C59.7167 81.8077 60.375 81.176 60.8706 80.4231C61.3661 79.6701 61.6862 78.8151 61.807 77.9214C62.051 76.5367 62.4413 75.1682 62.6203 73.7834C62.7533 73.3139 62.744 72.8154 62.5934 72.3512C62.4428 71.8871 62.1577 71.4783 61.7745 71.1768C61.633 73.9147 61.0849 76.6162 60.148 79.1922C60.3594 77.2209 60.8962 75.2985 61.0914 73.3273C61.3923 71.3566 61.3923 69.3516 61.0914 67.381C60.5607 65.1032 60.2556 62.7786 60.1805 60.4408C60.0914 60.0151 59.9436 59.6039 59.7413 59.219C58.9769 59.5448 58.3263 59.7892 57.7082 60.0987C56.0817 60.9133 55.9353 61.0599 56.1793 62.966C56.3745 64.3508 56.6998 65.7355 56.8462 67.1203C57.4968 72.92 57.9847 78.7197 55.2197 84.1773C55.1463 84.426 55.108 84.6837 55.1058 84.943ZM72.0052 46.6258V47.0657C73.6317 47.7173 75.3558 48.4341 77.0636 48.988C78.9929 49.5457 81.0453 49.506 82.9516 48.874C83.8511 48.6052 84.736 48.2898 85.6028 47.9291C88.9956 46.7717 92.1132 44.9248 94.76 42.5041C95.1504 42.1131 95.7847 41.8687 95.5895 41.0705C94.1094 40.7935 92.548 41.2171 91.1329 40.5328C92.2552 40.1907 93.4588 40.5329 94.8576 39.702L92.1251 39.0992C94.207 38.6431 96.4678 39.4902 97.0046 36.851C95.8335 36.4274 94.7763 35.9876 93.654 35.678C93.207 35.6003 92.7469 35.6809 92.3528 35.9061C90.0757 37.1443 87.8311 38.3987 85.5865 39.6857C85.1148 39.9627 84.6919 40.3536 84.0739 40.8098C86.6112 42.6018 89.5877 42.4389 92.06 43.6445C91.4339 43.9875 90.8258 44.3627 90.2383 44.7686C88.139 46.2814 85.7064 47.265 83.1468 47.6359C81.1708 47.8617 79.1791 47.9162 77.1938 47.7988C77.0799 47.7988 76.966 47.6522 76.7058 47.473L78.9666 46.7236C78.1534 46.0393 77.5516 45.518 76.901 45.0944C76.8091 45.0257 76.7023 44.9795 76.5893 44.9597C76.4762 44.9399 76.3602 44.947 76.2504 44.9804C74.8191 45.4202 73.4365 46.023 72.0052 46.6258ZM127.306 18.4744C124.964 17.5784 122.931 16.7149 120.8 16.0144C120.167 15.9153 119.518 16.036 118.962 16.3565C116.055 17.7606 113.469 19.7518 111.367 22.2051C110.279 23.1622 109.489 24.4118 109.09 25.8055C109.338 25.8312 109.589 25.8312 109.838 25.8055C112.765 25.219 115.661 24.4859 118.621 24.0786C120.015 24.0105 121.376 23.6297 122.603 22.9642C123.831 22.2988 124.893 21.3657 125.712 20.2339C126.19 19.615 126.706 19.0273 127.258 18.4744H127.306ZM71.0293 48.5156C70.948 48.7926 70.8016 48.988 70.8666 49.1021C71.8426 51.1874 72.8022 53.2564 73.8594 55.2928C73.997 55.4621 74.1748 55.5941 74.3766 55.6767C74.5784 55.7592 74.7976 55.7897 75.0142 55.7652C77.0164 55.2913 79.0849 55.1646 81.1299 55.3905C84.7741 55.3274 88.4029 55.8781 91.8648 57.0197L95.2642 58.2252L95.4432 57.9157C94.5974 57.3129 93.8167 56.6776 92.9221 56.1236C90.0329 54.2141 86.8439 52.8043 83.4883 51.9531C80.5932 51.2363 77.7305 50.438 74.8679 49.6723L74.7703 49.8678L77.3564 51.2688C75.1769 50.5031 72.7859 50.3239 71.0293 48.5156ZM53.1377 52.4907H47.9817C47.2739 52.4921 46.5834 52.7096 46.0022 53.1142C45.421 53.5188 44.9767 54.0912 44.7287 54.7552C44.3383 55.5209 43.8341 56.2377 43.395 56.9708C42.9558 57.7039 43.2974 58.2578 43.9968 58.2252C44.6345 58.1984 45.2577 58.0257 45.8185 57.7202C47.8353 56.645 49.8522 55.5697 51.804 54.3642C55.2398 51.9952 59.0048 50.1454 62.9781 48.874C63.243 48.7383 63.489 48.5685 63.71 48.369C60.8 47.2259 57.6325 46.9047 54.5528 47.4404C56.8299 48.76 59.107 47.6196 61.5305 48.4179L57.5456 48.7111C57.7245 49.2976 57.8383 49.656 58.001 50.2262C57.2973 49.6923 56.5261 49.2541 55.7076 48.9229C54.8984 48.8505 54.083 48.8889 53.2841 49.0369L53.9347 48.2549C52.6313 48.1925 51.3357 48.489 50.1887 49.1123C49.0417 49.7355 48.0871 50.6617 47.4287 51.7902L50.2425 51.5458C50.7748 51.4092 51.3346 51.4254 51.8581 51.5925C52.3816 51.7596 52.8476 52.0708 53.2028 52.4907H53.1377ZM29.895 13.6359C29.895 13.4567 29.895 13.2775 29.895 13.0983C26.1052 10.0844 21.5347 8.99284 16.9968 7.81987L16.7853 8.14569L18.5582 9.77483C18.2647 10.1953 17.8235 10.4892 17.323 10.598C16.8224 10.7067 16.2993 10.6222 15.8582 10.3613C15.1426 10.1007 14.4432 9.6445 13.5161 10.3613L16.9805 12.1859L16.8504 12.4792C15.6468 12.2022 14.4432 11.9253 13.207 11.6157C13.207 13.1308 13.3046 13.3426 14.8335 13.587C18.6986 14.3054 22.637 14.5461 26.5606 14.3038C27.6504 14.1083 28.7727 13.8314 29.895 13.6359ZM19.5179 4.51273C20.3799 4.25207 20.8353 4.80597 21.307 5.16438C22.2016 5.83232 22.9335 6.61431 23.8932 7.28225C25.8322 9.0754 28.0736 10.5096 30.513 11.518C30.9685 11.6483 31.4564 11.7298 32.2697 11.909C31.7149 9.07158 30.2188 6.5053 28.0245 4.62677C26.9185 3.76333 25.5847 3.20942 24.4462 2.41115C24.1072 2.12371 23.6836 1.95536 23.2401 1.93183C22.7966 1.90829 22.3575 2.03087 21.9901 2.28082C20.2823 3.30717 18.607 4.3824 16.948 5.53908C16.7203 5.70199 16.6227 6.07669 16.3624 6.54914L24.1209 8.81364L24.3974 8.43894L19.5179 4.51273ZM59.6438 52.23C59.1589 52.3162 58.6807 52.4359 58.2124 52.5884C57.0901 53.0609 56.0004 53.6962 54.8456 54.0709C54.1084 54.2496 53.4379 54.6362 52.9132 55.1847C52.3886 55.7333 52.0319 56.421 51.8853 57.1663C51.7559 57.7162 51.4962 58.2269 51.1282 58.6551C50.7602 59.0833 50.2946 59.4164 49.7709 59.6263C50.1612 58.323 51.316 57.6387 51.0395 56.2377L45.1191 59.496C46.3174 60.5446 47.8543 61.1233 49.4456 61.1251C51.4978 61.0676 53.524 60.6484 55.4311 59.8869C56.8462 59.3493 58.0986 58.6651 57.7895 56.7916C57.7973 56.6799 57.8289 56.5712 57.8822 56.4729C57.9356 56.3745 58.0093 56.2887 58.0986 56.2214C58.6069 55.6915 59.0052 55.0659 59.2704 54.3808C59.5357 53.6956 59.6626 52.9646 59.6438 52.23ZM85.9606 29.6991L85.6516 29.3244L82.5287 30.9536C80.0068 32.2521 78.008 34.3806 76.8685 36.9813C76.4303 38.0036 76.0979 39.0681 75.8763 40.1581C75.8769 40.7091 75.9535 41.2573 76.104 41.7873C78.1418 41.1361 80.0674 40.1745 81.813 38.9363C82.2807 38.4981 82.6089 37.9314 82.7564 37.3072C83.3907 35.678 83.9275 34.0489 84.5781 32.4198C84.9522 31.5237 85.4889 30.6277 85.9606 29.6991ZM83.4883 37.7633C83.8895 37.6611 84.2813 37.5249 84.6594 37.356C86.4648 36.4111 88.2865 35.4337 90.0757 34.4562C90.8958 34.1373 91.6427 33.6551 92.2715 33.0388C93.1926 31.6742 94.0291 30.2542 94.7763 28.7868C93.9793 28.7868 93.4263 28.7868 92.8733 28.7868C91.4569 29.1579 89.9824 29.252 88.5305 29.0638C88.3027 29.0642 88.0778 29.1156 87.8724 29.2143C87.667 29.3129 87.4862 29.4563 87.3432 29.634C85.3763 31.9632 84.0479 34.7646 83.4883 37.7633ZM90.1407 43.8726C89.8637 43.7066 89.5757 43.5596 89.2787 43.4327C87.3757 42.7322 85.4727 41.9991 83.5371 41.38C83.0391 41.3016 82.5292 41.3934 82.0895 41.6407C81.1624 42.1131 80.2841 42.6996 79.3733 43.2698L77.7468 44.231C78.1849 45.0249 78.8441 45.674 79.6441 46.0992C80.444 46.5244 81.3502 46.7074 82.2522 46.6258C83.1269 46.5581 83.9962 46.4329 84.8546 46.2511C86.734 45.7513 88.5194 44.9479 90.1407 43.8726ZM94.9064 90.8079L94.5974 91.1011C94.7118 91.4169 94.8533 91.7221 95.0203 92.0134C96.5166 94.4734 98.0456 96.9008 99.5094 99.3771C100.469 101.006 100.778 101.12 102.762 100.338C102.796 100.122 102.796 99.9025 102.762 99.6867C102.274 98.7906 101.754 97.9109 101.136 96.8194C102.151 97.3619 102.916 98.2794 103.267 99.3771C103.446 99.8007 103.624 100.436 103.934 100.534C104.533 100.787 105.188 100.881 105.835 100.806C106.482 100.732 107.098 100.492 107.626 100.11C107.447 99.8496 107.382 99.5889 107.203 99.4912C102.86 96.9601 98.7455 94.0547 94.9064 90.8079ZM50.7793 25.2842C56.47 31.2279 61.7828 37.5233 66.6865 44.1332C64.9299 38.6756 55.1383 26.9948 50.7793 25.2842ZM92.2389 34.5214C86.3022 36.9813 81.0811 40.8913 74.998 43.1069C74.998 42.1294 74.998 41.3148 74.998 40.5003C74.998 39.6857 75.1606 38.8711 75.242 37.8448C74.2775 38.7476 73.5469 39.872 73.1133 41.1209C72.6797 42.3697 72.5562 43.7056 72.7534 45.013C79.6986 42.3575 85.798 38.1054 92.2389 34.5214ZM64.1654 51.8879L64.5395 52.2463C64.1466 52.7848 63.6997 53.2815 63.2058 53.7288C62.2398 54.4738 61.2295 55.1592 60.1805 55.7815C59.7368 56.0588 59.3748 56.4494 59.1318 56.9133C58.8888 57.3772 58.7736 57.8975 58.798 58.4207C60.3835 57.651 61.7965 56.5668 62.9512 55.2338C64.1059 53.9008 64.9783 52.3468 65.5154 50.6661L60.4407 51.8064C60.3269 52.8654 60.2456 53.68 60.1642 54.5108L60.5221 54.69L64.1654 51.8879ZM100.062 30.3671C99.1516 29.0149 97.8341 29.0963 96.6793 28.8357C96.5424 28.7967 96.3988 28.7882 96.2583 28.8107C96.1178 28.8332 95.9839 28.8862 95.866 28.966C94.7424 29.9847 93.9397 31.3095 93.5564 32.7782L100.062 30.3671ZM100.502 32.8759C98.2881 32.8488 96.1254 33.5404 94.3371 34.8472C96.5492 36.4763 97.4926 36.2482 99.3468 34.0815C99.6233 35.7106 98.0781 36.7044 97.7203 38.2521C98.5295 37.597 99.1945 36.7811 99.6731 35.8558C100.152 34.9305 100.434 33.9159 100.502 32.8759ZM124.72 22.5798C127.047 22.1857 129.311 21.4845 131.454 20.4945C130.657 19.9107 129.781 19.4444 128.852 19.1098C128.691 19.0509 128.52 19.0306 128.35 19.0504C128.181 19.0702 128.018 19.1296 127.876 19.2238C126.666 20.1818 125.602 21.3125 124.72 22.5798ZM19.6968 77.3512L20.0058 77.6445C21.0142 76.4715 22.0064 75.266 23.0474 74.1093C24.0883 72.9526 25.2757 71.6982 26.4468 70.5578C27.6179 69.4174 28.7889 68.4399 29.9275 67.2995C31.2703 66.311 32.5027 65.1804 33.6034 63.9272C30.9034 64.9698 21.0142 74.6143 19.6968 77.3512ZM72.4118 56.3354L72.7859 56.1236C72.1576 53.7939 71.1343 51.5897 69.7606 49.6071C69.5654 49.4279 69.2076 49.4605 68.5733 49.3139L72.4118 56.3354ZM82.301 75.103L77.2751 65.9636C78.2739 69.337 79.9883 72.4545 82.301 75.103ZM107.967 27.4998C108.299 27.6624 108.663 27.7469 109.033 27.7469C109.402 27.7469 109.766 27.6624 110.098 27.4998C110.472 27.3857 110.83 27.1577 111.22 27.0762C113.042 26.6689 114.864 26.3105 116.685 25.9195C116.861 25.8932 117.031 25.8382 117.19 25.7566C117.342 25.6697 117.484 25.5659 117.612 25.4471C114.327 25.7413 111.088 26.4305 107.967 27.4998ZM13.4673 83.8352L13.8576 84.161C15.4841 82.3853 17.7124 81.0331 18.7371 78.7197L18.363 78.3776C16.7582 80.2022 15.1263 82.0214 13.4673 83.8352ZM76.2504 64.2856C75.7979 61.9187 74.7448 59.7082 73.1926 57.8668C73.9382 60.1216 74.9657 62.2728 76.2504 64.2693V64.2856ZM102.665 29.5036L102.844 29.8783L107.089 28.2492L106.943 27.8419C105.391 27.9896 103.91 28.5648 102.665 29.5036ZM62.5877 78.0681C64.3932 77.2046 64.4907 76.4389 63.0757 75.0216C62.913 76.0154 62.7667 76.8951 62.5877 78.0681ZM40.516 59.2027L40.3046 58.8932C39.1599 59.3047 38.2052 60.1218 37.6209 61.1903L40.516 59.2027ZM14.0528 8.34119C15.6793 9.41642 15.6793 9.43271 16.8829 9.30238C16.0209 8.8788 15.3865 8.14569 14.0528 8.34119ZM34.4166 62.8845L34.7257 63.243C35.2299 62.9823 35.7667 62.7379 35.7667 61.9071L34.4166 62.8845ZM34.6118 14.2875C35.2299 15.0206 35.2299 15.0206 36.092 14.874L34.6118 14.2875ZM96.9883 39.6042L96.7281 39.2784L96.1588 39.7835L96.3377 39.9952L96.9883 39.6042Z" fill="#BD9D63"/>
<path d="M34.7422 42.553L34.1566 41.3963C38.3367 43.8237 42.5657 43.9215 46.8108 44.117C46.0362 44.2654 45.2544 44.3742 44.4687 44.4428C43.5955 44.5134 42.7171 44.4861 41.85 44.3613C39.7355 43.9866 37.6211 43.5142 35.5229 43.0743L34.7422 42.553Z" fill="#BD9D63"/>
<path d="M31.6357 71.1443C32.8068 72.1218 33.376 75.8525 32.6278 78.2147C32.27 75.6896 31.961 73.4577 31.6357 71.1443Z" fill="#BD9D63"/>
<path d="M36.0598 75.494C35.5881 72.6757 35.1489 70.1179 34.6935 67.3484C35.8971 68.8961 36.4826 72.3661 36.0598 75.494Z" fill="#BD9D63"/>
<path d="M28.7073 80.7073C28.8375 78.4591 28.9513 76.2108 29.0652 73.9626C29.7719 76.1792 29.6446 78.5782 28.7073 80.7073Z" fill="#BD9D63"/>
<path d="M42.1429 67.3321C43.0537 67.6579 43.0212 68.5376 43.2001 69.2382C44.0226 72.6652 44.2645 76.2062 43.9158 79.7135C43.8223 80.7648 43.6648 81.8094 43.4441 82.8414C43.9164 77.6272 43.4928 72.3704 42.1917 67.2995L42.1429 67.3321Z" fill="#BD9D63"/>
<path d="M53.9021 75.9013C54.1265 78.962 53.5666 82.0294 52.2756 84.8127C52.8774 81.8476 53.3816 78.8663 53.9021 75.9013Z" fill="#BD9D63"/>
<path d="M46.3393 70.2482C46.3768 67.5851 45.8212 64.9471 44.7128 62.5261C45.615 63.5698 46.2376 64.8259 46.5221 66.1767C46.8066 67.5275 46.7437 68.9285 46.3393 70.2482Z" fill="#BD9D63"/>
<path d="M50.1774 64.0901C50.7539 64.7473 51.1476 65.545 51.3189 66.4029C51.4902 67.2608 51.4331 68.1487 51.1533 68.9775L50.1774 64.0901Z" fill="#BD9D63"/>
<path d="M42.1751 67.2995L41.1504 64.5952C41.5373 64.9276 41.833 65.3535 42.0095 65.8325C42.1859 66.3114 42.2374 66.8276 42.1588 67.3321L42.1751 67.2995Z" fill="#BD9D63"/>
<path d="M43.1995 86.4581L42.7115 87.9081L42.4675 87.8103C42.7278 87.3704 42.9717 86.9306 43.2157 86.4907L43.1995 86.4581Z" fill="#BD9D63"/>
<path d="M43.2162 86.4907L42.9722 84.8616H43.265C43.265 85.3992 43.265 85.9531 43.265 86.4907H43.2162Z" fill="#BD9D63"/>
<path d="M9.90527 59.2678C14.8232 57.3357 19.9851 56.0966 25.2432 55.586L10.0029 59.61L9.90527 59.2678Z" fill="#BD9D63"/>
<path d="M24.397 53.4356L13.9386 55.586C14.7193 54.3479 15.988 54.4945 17.0778 54.2175C18.1675 53.9406 19.485 53.7451 20.6886 53.5659C21.8922 53.3867 23.1121 53.2564 24.3157 53.0934L24.397 53.4356Z" fill="#BD9D63"/>
<path d="M21.4698 59.2353C16.8983 60.2435 12.4325 61.6836 8.13245 63.5362C12.2484 61.2283 16.7827 59.7661 21.4698 59.2353Z" fill="#BD9D63"/>
<path d="M37.8484 36.46C39.7027 35.9713 41.443 36.8347 43.2484 36.8836C45.0539 36.9325 46.8268 36.8836 48.5834 36.8836C44.9725 38.3335 41.4268 36.9325 37.8484 36.46Z" fill="#BD9D63"/>
<path d="M43.4929 33.6253C45.9815 33.8534 48.2423 32.6967 50.6496 32.4197C49.6126 33.1227 48.4369 33.5942 47.2022 33.8022C45.9674 34.0102 44.7024 33.9499 43.4929 33.6253Z" fill="#BD9D63"/>
<path d="M49.3807 30.2204C47.1687 30.9535 47.0386 30.9535 45.5422 30.1879C46.8108 30.0901 48.0795 30.0086 49.3645 29.9435L49.3807 30.2204Z" fill="#BD9D63"/>
<path d="M15.4839 18.8165L23.34 20.4456C21.8924 21.1787 18.005 20.4619 15.4839 18.8165Z" fill="#BD9D63"/>
<path d="M32.3018 19.8265L37.8807 20.2827C36.9718 20.6076 36.0042 20.735 35.0422 20.6564C34.0803 20.5777 33.1461 20.2948 32.3018 19.8265Z" fill="#BD9D63"/>
<path d="M114.88 35.0264C118.704 35.9604 122.652 36.2739 126.575 35.955C122.678 36.9154 118.577 36.5897 114.88 35.0264Z" fill="#BD9D63"/>
<path d="M107.642 37.9751C105.901 37.0465 104.161 36.1505 102.42 35.2056C102.323 35.2056 102.323 34.9124 102.242 34.5865L107.869 37.6982L107.642 37.9751Z" fill="#BD9D63"/>
<path d="M107.495 35.2219C106.243 34.5214 104.763 34.1792 103.933 32.7456L107.674 34.8961L107.495 35.2219Z" fill="#BD9D63"/>
<path d="M104.78 30.8395L107.821 32.5826L107.61 32.9573L104.487 31.3282L104.78 30.8395Z" fill="#BD9D63"/>
<path d="M114.961 33.5602L114.327 33.4787V33.2832H114.978L114.961 33.5602Z" fill="#BD9D63"/>
<path d="M105.951 86.344C101.684 84.0924 97.0326 82.6665 92.2391 82.1409C95.362 81.3263 103.787 83.9818 105.951 86.344Z" fill="#BD9D63"/>
<path d="M88.4168 72.415C88.0753 72.415 87.7337 72.415 87.3921 72.2846L82.9518 71.5189C83.5048 71.2257 83.7325 71.0139 83.9602 71.0139C85.5534 71.0165 87.1079 71.5052 88.4168 72.415Z" fill="#BD9D63"/>
<path d="M3.74084 76.4227C5.46494 74.9401 14.7198 72.8549 19.0951 73.0666L3.74084 76.4227Z" fill="#BD9D63"/>
<path d="M18.7048 69.6943H23.7144C22.9208 70.0259 22.0695 70.1966 21.2096 70.1966C20.3497 70.1966 19.4984 70.0259 18.7048 69.6943Z" fill="#BD9D63"/>
<path d="M85.7821 62.5588C91.5399 62.4284 99.3634 65.9474 101.185 67.9838C98.7779 66.9085 96.3056 65.5889 93.7032 64.7255C91.1008 63.8621 88.4333 63.243 85.7821 62.5588Z" fill="#BD9D63"/>
<path d="M97.1184 62.9986L91.9136 60.4083L92.0926 60.0662C93.7191 61.0762 95.801 61.3369 97.0859 63.0312L97.1184 62.9986Z" fill="#BD9D63"/>
<path d="M82.3334 63.6991C81.1182 63.8386 79.8958 63.5062 78.9177 62.7705C80.4792 62.2166 81.3249 63.2919 82.3334 63.6991Z" fill="#BD9D63"/>
<path d="M85.5379 58.2415L90.0108 59.3982V59.6589L85.4566 58.6488L85.5379 58.2415Z" fill="#BD9D63"/>
<path d="M97.0857 63.0311C98.4357 62.8031 98.9236 63.9923 99.7857 64.6603C99.1676 64.758 98.8261 64.2856 98.4032 63.9923L97.1345 63.0474L97.0857 63.0311Z" fill="#BD9D63"/>
<path d="M111.107 49.1509C108.229 49.7457 105.245 49.5487 102.47 48.5807L111.107 49.1509Z" fill="#BD9D63"/>
<path d="M104.21 23.3618C103.562 24.2391 102.85 25.0668 102.08 25.8381C101.396 26.4083 101.901 27.7931 100.632 27.9397C100.66 26.8934 101.023 25.884 101.668 25.0599C102.312 24.2357 103.203 23.6405 104.21 23.3618Z" fill="#BD9D63"/>
<path d="M101.852 18.3278C101.741 18.4763 101.622 18.6177 101.494 18.7514H101.38L101.673 18.2626L101.852 18.3278Z" fill="#BD9D63"/>
<path d="M100.551 20.0384L100.193 20.5597L100.014 20.4619L100.242 19.9243L100.551 20.0384Z" fill="#BD9D63"/>
<path d="M55.1871 11.4039C57.5943 13.5707 60.4407 24.5184 60.0666 29.9435C58.5539 23.5898 58.1311 17.1874 55.1871 11.4039Z" fill="#BD9D63"/>
<path d="M54.2926 24.9421C53.951 23.7039 53.6094 22.4658 53.2516 21.2439C52.8938 20.0221 52.5522 18.9306 52.1944 17.7739L51.7877 17.8716L53.0076 23.4107C51.5275 20.8366 51.3811 17.9205 50.9094 15.1184L51.7389 14.6622C51.8528 14.7437 51.9829 14.7926 52.0154 14.8903C53.8697 19.68 54.8456 23.5573 54.2926 24.9421Z" fill="#BD9D63"/>
<path d="M57.2688 27.174C56.5043 24.3882 55.8375 21.7327 55.0567 19.1098C54.276 16.4869 53.4302 14.092 52.7634 11.5343C54.6989 13.9128 57.8869 25.105 57.2688 27.174Z" fill="#BD9D63"/>
<path d="M90.7586 98.5951C89.2622 96.1026 89.002 93.105 87.3917 90.4495C88.3839 91.0848 88.3839 91.0848 89.6038 94.3268L91.2303 98.4485L90.7586 98.5951Z" fill="#BD9D63"/>
<path d="M91.491 93.3819C92.6543 95.1558 93.6094 97.0582 94.3374 99.0513C92.9059 97.4335 91.9391 95.4574 91.5398 93.3331L91.491 93.3819Z" fill="#BD9D63"/>
<path d="M91.5398 93.333L91.0844 92.1601L91.4259 92.0623L91.5723 93.3656L91.5398 93.333Z" fill="#BD9D63"/>
<path d="M59.481 39.3436C58.3099 40.2722 57.3503 41.5918 55.5286 41.6732C56.5629 40.4926 57.9484 39.676 59.481 39.3436Z" fill="#BD9D63"/>
<path d="M58.0496 43.7422C58.3784 43.275 58.7964 42.8775 59.2793 42.5727C59.7623 42.268 60.3006 42.0619 60.8634 41.9665C60.6188 42.5054 60.222 42.9608 59.722 43.2764C59.2219 43.592 58.6405 43.7539 58.0496 43.7422Z" fill="#BD9D63"/>
<path d="M28.5129 2.96504C28.6593 2.59034 28.7406 2.1016 29.3261 2.37855C29.7039 2.53122 30.0594 2.73395 30.3834 2.98133C32.4515 4.59681 34.0379 6.74924 34.9701 9.20462C34.3846 8.42263 33.8153 7.57548 33.1972 6.87496C32.0016 5.14455 30.3604 3.77087 28.4478 2.89987L28.5129 2.96504Z" fill="#BD9D63"/>
<path d="M36.1568 4.05658C37.2801 5.12534 38.1668 6.41856 38.7592 7.85246C37.4595 6.94654 36.5342 5.59692 36.1568 4.05658Z" fill="#BD9D63"/>
<path d="M68.9637 53.1586C68.3457 54.967 67.7276 56.7753 67.0933 58.5836C66.9353 59.018 66.7103 59.4248 66.4264 59.7892C66.8798 57.4418 67.5775 55.1485 68.5083 52.9468L68.9637 53.1586Z" fill="#BD9D63"/>
<path d="M67.4348 64.0576C67.4348 64.8884 67.5487 65.6867 67.5975 66.5827H67.3047L67.4511 64.0739L67.4348 64.0576Z" fill="#BD9D63"/>
<path d="M27.8941 43.3349L22.2014 43.0417C24.0632 42.3832 26.1095 42.4886 27.8941 43.3349Z" fill="#BD9D63"/>
<path d="M24.9179 40.7283L29.4884 41.7873C27.899 42.0109 26.279 41.7735 24.8203 41.103L24.9179 40.7283Z" fill="#BD9D63"/>
<path d="M66.2801 38.7571C66.6379 36.9325 66.9958 35.1078 67.3699 33.2832C67.6544 35.1627 67.4181 37.0844 66.6867 38.8385L66.2801 38.7571Z" fill="#BD9D63"/>
<path d="M14.1016 88.7389C14.1682 89.4313 14.0686 90.1297 13.8112 90.7758C13.5537 91.4219 13.1458 91.997 12.6215 92.4533C12.9794 91.1826 13.3534 89.9118 13.7113 88.6411L14.1016 88.7389Z" fill="#BD9D63"/>
<path d="M17.0454 87.8266C17.1781 88.5259 17.1426 89.2467 16.9418 89.9295C16.741 90.6123 16.3806 91.2373 15.8906 91.7528C16.2647 90.4495 16.655 89.1299 17.0454 87.8266Z" fill="#BD9D63"/>
<path d="M99.9321 89.2439C101.172 89.1396 102.42 89.3218 103.579 89.7765C104.738 90.2312 105.778 90.9464 106.617 91.8668L99.9321 89.2439Z" fill="#BD9D63"/>
<path d="M3.25293 89.4557C3.871 87.9732 5.95293 86.7839 8.88064 86.1974L3.25293 89.4557Z" fill="#BD9D63"/>
<path d="M4.37482 86.4418L9.04289 83.7863L9.2706 84.1936C7.90387 85.3822 6.31015 86.2801 4.58626 86.8328L4.37482 86.4418Z" fill="#BD9D63"/>
<path d="M58.8957 77.3513L59.6276 71.2746H60.0342C60.073 73.3568 59.6855 75.4248 58.8957 77.3513Z" fill="#BD9D63"/>
<path d="M59.741 69.6617C59.741 69.1241 59.6434 68.6028 59.6109 68.0326H59.741L59.9687 69.6617H59.741Z" fill="#BD9D63"/>
<path d="M112.229 24.4371C111.839 23.5899 112.424 23.15 112.798 22.6939C114.018 21.0648 116.913 18.898 118.036 18.8817C117.011 19.7452 115.937 20.5108 114.978 21.472C114.018 22.4332 113.254 23.313 112.229 24.4371Z" fill="#BD9D63"/>
<path d="M118.605 21.4883C119.727 20.4945 120.443 19.012 122.037 18.621C121.152 19.8508 119.971 20.837 118.605 21.4883Z" fill="#BD9D63"/>
<path d="M73.0135 50.8616L79.5196 53.4356C77.1001 53.4528 74.7682 52.5302 73.0135 50.8616Z" fill="#BD9D63"/>
<path d="M103.804 55.6023C102.356 55.4068 100.892 55.2928 99.4771 54.9832C96.7934 54.3968 94.1259 53.6962 91.4585 53.0283C91.1757 52.9424 90.926 52.7718 90.7428 52.5396L103.885 55.1462L103.771 55.6512L103.804 55.6023Z" fill="#BD9D63"/>
<path d="M29.4723 9.8726C27 8.53671 25.1783 6.38626 22.7711 4.51276C24.3976 4.69196 27.9596 7.64069 29.4723 9.8726Z" fill="#BD9D63"/>
</g>
</svg>
